<svg xmlns="http://www.w3.org/2000/svg" version="1.1" width="3300" height="2000"><g id="Notes"><style>
    text {
      font-family: monospace;
      text-anchor: middle;
    }
    text.emphasis {
      font-weight:bold;
    }
    text.lanchor {
      text-anchor: start;
    }
  </style><rect height="2200" id="artboard" fill="white" width="3300" x="0" y="0"/><line id="" style="fill:none;stroke:black;stroke-width:0.5;" x1="263" x2="3036" y1="292" y2="292"/><text class="lanchor emphasis" transform="matrix(1 0 0 1 263 322)">Weight/Scale Variations</text><text transform="matrix(1 0 0 1 559.711 322)">Ultralight</text><text transform="matrix(1 0 0 1 856.422 322)">Thin</text><text transform="matrix(1 0 0 1 1153.13 322)">Light</text><text transform="matrix(1 0 0 1 1449.84 322)">Regular</text><text transform="matrix(1 0 0 1 1746.56 322)">Medium</text><text transform="matrix(1 0 0 1 2043.27 322)">Semibold</text><text transform="matrix(1 0 0 1 2339.98 322)">Bold</text><text transform="matrix(1 0 0 1 2636.69 322)">Heavy</text><text transform="matrix(1 0 0 1 2933.4 322)">Black</text><text id="template-version" style="text-anchor: end;" transform="matrix(1 0 0 1 3036 1933)">Template v.1.0</text><text class="lanchor" transform="matrix(1 0 0 1 263 726)">Small</text><text class="lanchor" transform="matrix(1 0 0 1 263 1156)">Medium</text><text class="lanchor" transform="matrix(1 0 0 1 263 1586)">Large</text></g><g id="Guides"><g id="H-reference" style="fill:#27AAE1;stroke:none;" transform="matrix(1 0 0 1 339 696)"><path d="M 54.9316 0 L 57.666 0 L 30.5664 -70.459 L 28.0762 -70.459 L 0.976562 0 L 3.66211 0 L 12.9395 -24.4629 L 45.7031 -24.4629 Z M 29.1992 -67.0898 L 29.4434 -67.0898 L 44.8242 -26.709 L 13.8184 -26.709 Z"/></g><line id="Baseline-S" style="fill:none;stroke:#27AAE1;opacity:1;stroke-width:0.577;" x1="263" x2="3036" y1="696" y2="696"/><line id="Capline-S" style="fill:none;stroke:#27AAE1;opacity:1;stroke-width:0.577;" x1="263" x2="3036" y1="625.541" y2="625.541"/><g id="H-reference" style="fill:#27AAE1;stroke:none;" transform="matrix(1 0 0 1 339 1126)"><path d="M 54.9316 0 L 57.666 0 L 30.5664 -70.459 L 28.0762 -70.459 L 0.976562 0 L 3.66211 0 L 12.9395 -24.4629 L 45.7031 -24.4629 Z M 29.1992 -67.0898 L 29.4434 -67.0898 L 44.8242 -26.709 L 13.8184 -26.709 Z"/></g><line id="Baseline-M" style="fill:none;stroke:#27AAE1;opacity:1;stroke-width:0.577;" x1="263" x2="3036" y1="1126" y2="1126"/><line id="Capline-M" style="fill:none;stroke:#27AAE1;opacity:1;stroke-width:0.577;" x1="263" x2="3036" y1="1055.54" y2="1055.54"/><g id="H-reference" style="fill:#27AAE1;stroke:none;" transform="matrix(1 0 0 1 339 1556)"><path d="M 54.9316 0 L 57.666 0 L 30.5664 -70.459 L 28.0762 -70.459 L 0.976562 0 L 3.66211 0 L 12.9395 -24.4629 L 45.7031 -24.4629 Z M 29.1992 -67.0898 L 29.4434 -67.0898 L 44.8242 -26.709 L 13.8184 -26.709 Z"/></g><line id="Baseline-L" style="fill:none;stroke:#27AAE1;opacity:1;stroke-width:0.577;" x1="263" x2="3036" y1="1556" y2="1556"/><line id="Capline-L" style="fill:none;stroke:#27AAE1;opacity:1;stroke-width:0.577;" x1="263" x2="3036" y1="1485.54" y2="1485.54"/><rect height="119.336" id="left-margin" style="fill:darkred;stroke:none;opacity:0.4;" width="12.4512" x="1394.06" y="1030.79"/><rect height="119.336" id="right-margin" style="fill:darkgreen;stroke:none;opacity:0.4;" width="12.4512" x="1502.5112" y="1030.79"/><rect x="1406.5112" y="1045" width="96" height="96" fill="none" stroke="blue" stroke-dasharray="5"/><rect x="1394.06" y="1030.79" width="120.9024" height="119.336" fill="none" stroke="blue"/></g><g id="Symbols"><g id="Bold-L" transform="matrix(1 0 0 1 2266 1556)"><path d="M15.641250000000001 20.240000000000016 V-90.69999999999999 L146.7375 -35.22999999999999 L15.641250000000001 20.240000000000016 Z M29.025000000000002 -0.39999999999998437  112.23 -35.22999999999999  29.025000000000002 -70.54374999999999 V-47.001249999999985 L69.82125 -35.22999999999999 L29.025000000000002 -23.781249999999986 V-0.39999999999998437 Z"/></g><g id="Semibold-L" transform="matrix(1 0 0 1 1970.27 1556)"><path d="M17.25358875 18.557517500000017 V-89.0175175 L144.63431625 -35.22999999999999 L17.25358875 18.557517500000017 Z M29.025000000000002 0.37109750000001185  114.19289625 -35.22999999999999  29.025000000000002 -71.3148475 V-46.230152499999974 L69.05015250000001 -35.22999999999999 L29.025000000000002 -24.552347499999982 V0.37109750000001185 Z"/></g><g id="Medium-L" transform="matrix(1 0 0 1 1674.31 1556)"><path d="M18.463125 17.295413750000016 V-87.75541375 L143.0568075 -35.22999999999999 L18.463125 17.295413750000016 Z M29.025000000000002 0.9496625000000165  115.66526999999999 -35.22999999999999  29.025000000000002 -71.89341249999998 V-45.65158749999999 L68.4715875 -35.22999999999999 L29.025000000000002 -25.130912499999994 V0.9496625000000165 Z"/></g><g id="Regular-L" transform="matrix(1 0 0 1 1378.56 1556)"><path d="M19.35 16.370000000000015 V-86.82999999999998 L141.9 -35.22999999999999 L19.35 16.370000000000015 Z M29.025000000000002 1.3737500000000153  116.745 -35.22999999999999  29.025000000000002 -72.31749999999998 V-45.22749999999999 L68.0475 -35.22999999999999 L29.025000000000002 -25.554999999999993 V1.3737500000000153 Z"/></g><g id="Light-L" transform="matrix(1 0 0 1 1082.77 1556)"><path d="M22.57516125 11.532177500000014 V-81.9921775 L133.5888525 -35.22999999999999 L22.57516125 11.532177500000014 Z M29.89333125 0.19533500000001425  114.57409125000001 -35.22999999999999  29.89333125 -71.0149225 V-43.924922499999994 L65.1324225 -35.22999999999999 L29.89333125 -26.795496249999985 V0.19533500000001425 Z"/></g><g id="Thin-L" transform="matrix(1 0 0 1 787.282 1556)"><path d="M25.8 6.6950000000000145 V-77.15499999999999 L125.278995 -35.22999999999999 L25.8 6.6950000000000145 Z M30.761501250000002 -0.982918749999989  112.40366625 -35.22999999999999  30.761501250000002 -69.71266749999998 V-42.62266749999999 L62.217667500000005 -35.22999999999999 L30.761501250000002 -28.035831249999987 V-0.982918749999989 Z"/></g><g id="Ultralight-L" transform="matrix(1 0 0 1 491.205 1556)"><path d="M27.735 3.792500000000018 V-74.25249999999998 L120.2925 -35.22999999999999 L27.735 3.792500000000018 Z M31.282500000000002 -1.6899999999999835  111.10125000000001 -35.22999999999999  31.282500000000002 -68.93124999999999 V-41.84124999999999 L60.46875 -35.22999999999999 L31.282500000000002 -28.779999999999987 V-1.6899999999999835 Z"/></g><g id="Bold-M" transform="matrix(1 0 0 1 2281.8 1126)"><path d="M11.125 8.77000000000001 V-79.22999999999999 L115.0 -35.22999999999999 L11.125 8.77000000000001 Z M25.0 -12.10499999999999  79.625 -35.22999999999999  25.0 -58.35499999999999 V-44.60499999999999 L56.875 -35.22999999999999 L25.0 -25.85499999999999 V-12.10499999999999 Z"/></g><g id="Semibold-M" transform="matrix(1 0 0 1 1985.97 1126)"><path d="M12.809625 7.0310000000000095 V-77.49099999999999 L112.82625 -35.22999999999999 L12.809625 7.0310000000000095 Z M25.0 -11.289874999999988  81.63575 -35.22999999999999  25.0 -59.170124999999985 V-43.789874999999995 L56.059875 -35.22999999999999 L25.0 -26.67012499999999 V-11.289874999999988 Z"/></g><g id="Medium-M" transform="matrix(1 0 0 1 1689.91 1126)"><path d="M14.073375 5.726500000000009 V-76.1865 L111.195625 -35.22999999999999 L14.073375 5.726500000000009 Z M25.0 -10.678374999999988  83.144 -35.22999999999999  25.0 -59.78162499999999 V-43.17837499999999 L55.448375 -35.22999999999999 L25.0 -27.28162499999999 V-10.678374999999988 Z"/></g><g id="Regular-M" transform="matrix(1 0 0 1 1394.06 1126)"><path d="M15.0 4.77000000000001 V-75.22999999999999 L110.0 -35.22999999999999 L15.0 4.77000000000001 Z M25.0 -10.22999999999999  84.25 -35.22999999999999  25.0 -60.22999999999999 V-42.72999999999999 L55.0 -35.22999999999999 L25.0 -27.72999999999999 V-10.22999999999999 Z"/></g><g id="Light-M" transform="matrix(1 0 0 1 1098.18 1126)"><path d="M17.500125 1.019750000000009 V-71.47975 L103.55725 -35.22999999999999 L17.500125 1.019750000000009 Z M25.0 -10.22999999999999  84.25 -35.22999999999999  25.0 -60.22999999999999 V-41.76837499999999 L52.115125 -35.22999999999999 L25.0 -28.691624999999988 V-10.22999999999999 Z"/></g><g id="Thin-M" transform="matrix(1 0 0 1 802.565 1126)"><path d="M20.0 -2.7299999999999898 V-67.72999999999999 L97.1155 -35.22999999999999 L20.0 -2.7299999999999898 Z M25.0 -10.22999999999999  84.25 -35.22999999999999  25.0 -60.22999999999999 V-40.80687499999999 L49.23075 -35.22999999999999 L25.0 -29.65312499999999 V-10.22999999999999 Z"/></g><g id="Ultralight-M" transform="matrix(1 0 0 1 506.415 1126)"><path d="M21.5 -4.97999999999999 V-65.47999999999999 L93.25 -35.22999999999999 L21.5 -4.97999999999999 Z M25.0 -10.22999999999999  84.25 -35.22999999999999  25.0 -60.22999999999999 V-40.22999999999999 L47.5 -35.22999999999999 L25.0 -30.22999999999999 V-10.22999999999999 Z"/></g><g id="Bold-S" transform="matrix(1 0 0 1 2294.23 696)"><path d="M11.144625000000001 -3.6699999999999875 V-66.78999999999999 L89.15700000000001 -35.22999999999999 L11.144625000000001 -3.6699999999999875 Z M21.303 -18.858249999999988  62.429625 -35.22999999999999  21.303 -51.60174999999999 V-43.810374999999986 L44.085375 -35.22999999999999 L21.303 -26.649624999999986 V-18.858249999999988 Z"/></g><g id="Semibold-S" transform="matrix(1 0 0 1 1998.1 696)"><path d="M12.473794125000001 -5.042070999999989 V-65.41792899999999 L87.44191125 -35.22999999999999 L12.473794125000001 -5.042070999999989 Z M21.303 -18.215116374999987  64.01610675 -35.22999999999999  21.303 -52.244883624999986 V-43.167241374999996 L43.442241375 -35.22999999999999 L21.303 -27.29275862499999 V-18.215116374999987 Z"/></g><g id="Medium-S" transform="matrix(1 0 0 1 1701.85 696)"><path d="M13.470892874999999 -6.071321499999989 V-64.3886785 L86.155348125 -35.22999999999999 L13.470892874999999 -6.071321499999989 Z M21.303 -17.732642874999986  65.20611600000001 -35.22999999999999  21.303 -52.72735712499998 V-42.684767874999984 L42.959767875000004 -35.22999999999999 L21.303 -27.775232124999988 V-17.732642874999986 Z"/></g><g id="Regular-S" transform="matrix(1 0 0 1 1405.73 696)"><path d="M14.202 -6.825999999999986 V-63.633999999999986 L85.212 -35.22999999999999 L14.202 -6.825999999999986 Z M21.303 -17.378874999999987  66.07875 -35.22999999999999  21.303 -53.081124999999986 V-42.33099999999999 L42.606 -35.22999999999999 L21.303 -28.12899999999999 V-17.378874999999987 Z"/></g><g id="Light-S" transform="matrix(1 0 0 1 1109.75 696)"><path d="M30.740524875 -55.394966124999996 Q27.554247000000004 -55.394966124999996 25.308654375000003 -57.64055875 Q23.063061750000003 -59.886151375 23.063061750000003 -63.07242925 Q23.063061750000003 -66.25880575 25.308654375000003 -68.504398375 Q27.554247000000004 -70.749991 30.740524875 -70.749991 Q33.92690137500001 -70.749991 36.172494 -68.504398375 Q38.418086625 -66.25880575 38.418086625 -63.07242925 Q38.418086625 -59.886151375 36.172494 -57.64055875 Q33.92690137500001 -55.394966124999996 30.740524875 -55.394966124999996 Z M56.808 -8.798598624999986 H30.475223624999998 Q28.176472125 -8.798598624999986 26.469569250000003 -10.092164124999986 Q24.762567750000002 -11.385630999999986 24.345384000000003 -13.684283874999988 L16.250539874999998 -54.16599999999998 H21.401625 L29.4584985 -15.14097512499999 Q29.57231175 -14.685722124999987 30.008530125000004 -14.306311749999988 Q30.444847125 -13.926999999999989 30.900100125000005 -13.926999999999989 H56.808 V-8.798598624999986 Z M73.72593525 -3.3059751249999874  64.94071612500001 -18.660999999999987 H40.936870500000005 Q37.92506025 -18.660999999999987 35.664279375 -20.523434499999986 Q33.403597125 -22.385967624999985 32.652469125 -25.22331024999999 L28.555783875 -43.90140587499999 Q27.880597125 -47.40634112499999 29.845404375 -50.114682249999994 Q31.810310250000004 -52.823121999999984 35.087717625 -52.823121999999984 Q38.000902875 -52.823121999999984 40.072027875 -51.15783887499999 Q42.14305425 -49.49265437499999 42.757586625 -46.87524549999999 L47.42333812500001 -26.156401374999987 H65.69174550000001 Q67.300122 -26.156401374999987 68.699808 -25.371149124999988 Q70.099494 -24.58599549999999 70.97193075000001 -23.061055749999987 L80.2653645 -7.053626499999986 L73.72593525 -3.3059751249999874 Z"/></g><g id="Thin-S" transform="matrix(1 0 0 1 814.015 696)"><path d="M18.147000000000002 -12.743499999999987 V-57.716499999999996 L75.0461295 -35.22999999999999 L18.147000000000002 -12.743499999999987 Z M21.303 -17.378874999999987  66.07875 -35.22999999999999  21.303 -53.081124999999986 V-40.81365437499999 L38.05406175 -35.22999999999999 L21.303 -29.646345624999988 V-17.378874999999987 Z"/></g><g id="Ultralight-S" transform="matrix(1 0 0 1 517.792 696)"><path d="M19.3305 -14.518749999999986 V-55.94124999999998 L71.99625 -35.22999999999999 L19.3305 -14.518749999999986 Z M21.303 -17.378874999999987  66.07875 -35.22999999999999  21.303 -53.081124999999986 V-40.358499999999985 L36.688500000000005 -35.22999999999999 L21.303 -30.101499999999987 V-17.378874999999987 Z"/></g></g></svg>