<svg xmlns="http://www.w3.org/2000/svg" version="1.1" width="3300" height="2000"><g id="Notes"><style>
    text {
      font-family: monospace;
      text-anchor: middle;
    }
    text.emphasis {
      font-weight:bold;
    }
    text.lanchor {
      text-anchor: start;
    }
  </style><rect height="2200" id="artboard" fill="white" width="3300" x="0" y="0"/><line id="" style="fill:none;stroke:black;stroke-width:0.5;" x1="263" x2="3036" y1="292" y2="292"/><text class="lanchor emphasis" transform="matrix(1 0 0 1 263 322)">Weight/Scale Variations</text><text transform="matrix(1 0 0 1 559.711 322)">Ultralight</text><text transform="matrix(1 0 0 1 856.422 322)">Thin</text><text transform="matrix(1 0 0 1 1153.13 322)">Light</text><text transform="matrix(1 0 0 1 1449.84 322)">Regular</text><text transform="matrix(1 0 0 1 1746.56 322)">Medium</text><text transform="matrix(1 0 0 1 2043.27 322)">Semibold</text><text transform="matrix(1 0 0 1 2339.98 322)">Bold</text><text transform="matrix(1 0 0 1 2636.69 322)">Heavy</text><text transform="matrix(1 0 0 1 2933.4 322)">Black</text><text id="template-version" style="text-anchor: end;" transform="matrix(1 0 0 1 3036 1933)">Template v.1.0</text><text class="lanchor" transform="matrix(1 0 0 1 263 726)">Small</text><text class="lanchor" transform="matrix(1 0 0 1 263 1156)">Medium</text><text class="lanchor" transform="matrix(1 0 0 1 263 1586)">Large</text></g><g id="Guides"><g id="H-reference" style="fill:#27AAE1;stroke:none;" transform="matrix(1 0 0 1 339 696)"><path d="M 54.9316 0 L 57.666 0 L 30.5664 -70.459 L 28.0762 -70.459 L 0.976562 0 L 3.66211 0 L 12.9395 -24.4629 L 45.7031 -24.4629 Z M 29.1992 -67.0898 L 29.4434 -67.0898 L 44.8242 -26.709 L 13.8184 -26.709 Z"/></g><line id="Baseline-S" style="fill:none;stroke:#27AAE1;opacity:1;stroke-width:0.577;" x1="263" x2="3036" y1="696" y2="696"/><line id="Capline-S" style="fill:none;stroke:#27AAE1;opacity:1;stroke-width:0.577;" x1="263" x2="3036" y1="625.541" y2="625.541"/><g id="H-reference" style="fill:#27AAE1;stroke:none;" transform="matrix(1 0 0 1 339 1126)"><path d="M 54.9316 0 L 57.666 0 L 30.5664 -70.459 L 28.0762 -70.459 L 0.976562 0 L 3.66211 0 L 12.9395 -24.4629 L 45.7031 -24.4629 Z M 29.1992 -67.0898 L 29.4434 -67.0898 L 44.8242 -26.709 L 13.8184 -26.709 Z"/></g><line id="Baseline-M" style="fill:none;stroke:#27AAE1;opacity:1;stroke-width:0.577;" x1="263" x2="3036" y1="1126" y2="1126"/><line id="Capline-M" style="fill:none;stroke:#27AAE1;opacity:1;stroke-width:0.577;" x1="263" x2="3036" y1="1055.54" y2="1055.54"/><g id="H-reference" style="fill:#27AAE1;stroke:none;" transform="matrix(1 0 0 1 339 1556)"><path d="M 54.9316 0 L 57.666 0 L 30.5664 -70.459 L 28.0762 -70.459 L 0.976562 0 L 3.66211 0 L 12.9395 -24.4629 L 45.7031 -24.4629 Z M 29.1992 -67.0898 L 29.4434 -67.0898 L 44.8242 -26.709 L 13.8184 -26.709 Z"/></g><line id="Baseline-L" style="fill:none;stroke:#27AAE1;opacity:1;stroke-width:0.577;" x1="263" x2="3036" y1="1556" y2="1556"/><line id="Capline-L" style="fill:none;stroke:#27AAE1;opacity:1;stroke-width:0.577;" x1="263" x2="3036" y1="1485.54" y2="1485.54"/><rect height="119.336" id="left-margin" style="fill:darkred;stroke:none;opacity:0.4;" width="12.4512" x="1394.06" y="1030.79"/><rect height="119.336" id="right-margin" style="fill:darkgreen;stroke:none;opacity:0.4;" width="12.4512" x="1502.5112" y="1030.79"/><rect x="1406.5112" y="1045" width="96" height="96" fill="none" stroke="blue" stroke-dasharray="5"/><rect x="1394.06" y="1030.79" width="120.9024" height="119.336" fill="none" stroke="blue"/></g><g id="Symbols"><g id="Bold-L" transform="matrix(1 0 0 1 2266 1556)"><path d="M117.21923625000001 32.97875000000002 Q108.118125 32.97875000000002 101.6278125 26.466185000000017 Q95.1375 19.953620000000015 95.1375 10.896368750000015 Q95.1375 9.76600625000001 95.379375 8.046275000000016 Q95.62125 6.326382500000015 96.105 4.760000000000012 L53.2125 -20.233749999999986 Q50.31 -17.008749999999985 46.2229575 -15.073749999999983 Q42.135915 -13.138749999999987 37.80474 -13.138749999999987 Q28.5699525 -13.138749999999987 22.10560125 -19.638576249999993 Q15.641250000000001 -26.138402499999984 15.641250000000001 -35.239513749999986 Q15.641250000000001 -44.34062499999999 22.10560125 -50.83093749999999 Q28.5699525 -57.32124999999999 37.80474 -57.32124999999999 Q42.135915 -57.32124999999999 46.0617075 -55.62812499999998 Q49.987500000000004 -53.93499999999999 53.2125 -50.70999999999998 L96.105 -75.38125 Q95.62125 -76.68269874999999 95.379375 -78.35357124999999 Q95.1375 -80.02444374999997 95.1375 -81.40974249999998 Q95.1375 -90.44474124999999 101.63732625 -96.94166499999997 Q108.13715250000001 -103.43875 117.23826375 -103.43875 Q126.339375 -103.43875 132.8296875 -96.93892374999999 Q139.32 -90.43909749999997 139.32 -81.33798624999999 Q139.32 -72.23687499999998 132.85564875 -65.74656249999998 Q126.39129750000001 -59.25624999999998 117.15651000000001 -59.25624999999998 Q112.76841375000001 -59.25624999999998 108.77812125 -60.54125125 Q104.78782875 -61.82625249999998 102.07125 -65.06124999999999 L59.0175 -41.67999999999999 Q59.50125 -40.22874999999999 59.6625 -38.29004124999999 Q59.823750000000004 -36.35149374999999 59.823750000000004 -35.19113874999999 Q59.823750000000004 -34.03078374999998 59.6625 -32.61468624999999 Q59.50125 -31.19874999999999 59.0175 -29.586249999999993 L102.07125 -5.559999999999988 Q104.78782875 -8.311247499999986 108.5647875 -9.75749874999999 Q112.34158500000001 -11.203749999999985 117.15651000000001 -11.203749999999985 Q126.39129750000001 -11.203749999999985 132.85564875 -4.70392374999998 Q139.32 1.795902500000011 139.32 10.897013750000013 Q139.32 19.998125000000016 132.82017375 26.488437500000018 Q126.3203475 32.97875000000002 117.21923625000001 32.97875000000002 Z M117.23439375 -72.63999999999999 Q120.9375 -72.63999999999999 123.436875 -75.14501874999998 Q125.93625 -77.6500375 125.93625 -81.35314374999999 Q125.93625 -85.05624999999999 123.43123125000001 -87.55562499999999 Q120.92621249999999 -90.05499999999998 117.22310625000001 -90.05499999999998 Q113.52000000000001 -90.05499999999998 111.02062500000001 -87.54998125 Q108.52125000000001 -85.04496249999998 108.52125000000001 -81.34185624999999 Q108.52125000000001 -77.63874999999999 111.02626875 -75.13937499999999 Q113.5312875 -72.63999999999999 117.23439375 -72.63999999999999 Z M37.73814375 -26.52249999999998 Q41.441250000000004 -26.52249999999998 43.940625000000004 -29.027518749999984 Q46.44 -31.53253749999999 46.44 -35.235643749999994 Q46.44 -38.938749999999985 43.93498125 -41.438124999999985 Q41.4299625 -43.937499999999986 37.726856250000004 -43.937499999999986 Q34.02375 -43.937499999999986 31.524375 -41.432481249999995 Q29.025000000000002 -38.92746249999999 29.025000000000002 -35.224356249999985 Q29.025000000000002 -31.52124999999998 31.53001875 -29.02187499999998 Q34.0350375 -26.52249999999998 37.73814375 -26.52249999999998 Z M117.23439375 19.595000000000017 Q120.9375 19.595000000000017 123.436875 17.089981250000015 Q125.93625 14.584962500000017 125.93625 10.881856250000016 Q125.93625 7.178750000000015 123.43123125000001 4.6793750000000145 Q120.92621249999999 2.180000000000014 117.22310625000001 2.180000000000014 Q113.52000000000001 2.180000000000014 111.02062500000001 4.685018750000012 Q108.52125000000001 7.190037500000017 108.52125000000001 10.893143750000014 Q108.52125000000001 14.596250000000015 111.02626875 17.095625000000016 Q113.5312875 19.595000000000017 117.23439375 19.595000000000017 Z"/></g><g id="Semibold-L" transform="matrix(1 0 0 1 1970.27 1556)"><path d="M117.22342875 31.366411250000017 Q108.74909625000001 31.366411250000017 102.74946750000001 25.347432500000018 Q96.74983875000001 19.328453750000016 96.74983875000001 10.869278750000014 Q96.74983875000001 9.762942500000015 96.99171375 8.114806250000015 Q97.23358875000001 6.466670000000015 97.71733875000001 5.040413750000013 L52.23097125 -21.42554874999999 Q49.538902500000006 -18.410818749999983 45.6863175 -16.580953749999985 Q41.83389375 -14.751088749999987 37.77329625 -14.751088749999987 Q29.22349875 -14.751088749999987 23.23854375 -20.75603874999998 Q17.25358875 -26.76098874999998 17.25358875 -35.235321249999984 Q17.25358875 -43.70965374999999 23.23854375 -49.709282499999986 Q29.22349875 -55.708911249999986 37.77329625 -55.708911249999986 Q41.83389375 -55.708911249999986 45.525067500000006 -54.120921249999995 Q49.2164025 -52.532931249999976 52.23097125 -49.51820124999999 L97.71733875000001 -75.66166374999999 Q97.23358875000001 -76.89312999999999 96.99171375 -78.45725499999999 Q96.74983875000001 -80.02137999999998 96.74983875000001 -81.38265249999998 Q96.74983875000001 -89.81957499999999 102.75478875 -95.82291249999997 Q108.75973875000001 -101.82641124999998 117.23407125 -101.82641124999998 Q125.70840375 -101.82641124999998 131.7080325 -95.82146124999997 Q137.70766125 -89.81651124999999 137.70766125 -81.34217874999999 Q137.70766125 -72.86784624999999 131.72270625000002 -66.86821749999999 Q125.73775125 -60.86858874999999 117.18795374999999 -60.86858874999999 Q113.07027375 -60.86858874999999 109.3200825 -62.120694999999984 Q105.56973 -63.37280124999998 102.98263500000002 -66.39317499999999 L57.40516125 -41.399586249999984 Q57.8187675 -40.01848 58.01500875000001 -38.186518749999976 Q58.21141125 -36.354557499999984 58.21141125 -35.19113874999999 Q58.21141125 -34.02755874999998 58.01500875000001 -32.683217499999984 Q57.8187675 -31.33903749999999 57.40516125 -29.866663749999987 L102.98263500000002 -4.22807499999999 Q105.56973 -6.764698749999987 109.10674875 -8.178054999999986 Q112.64360625 -9.591411249999979 117.18795374999999 -9.591411249999979 Q125.73775125 -9.591411249999979 131.72270625000002 -3.586461249999992 Q137.70766125 2.418488750000016 137.70766125 10.892821250000011 Q137.70766125 19.367153750000014 131.70271125 25.366782500000014 Q125.69776125 31.366411250000017 117.22342875 31.366411250000017 Z M117.23439375 -72.63999999999999 Q120.9375 -72.63999999999999 123.436875 -75.14501874999998 Q125.93625 -77.6500375 125.93625 -81.35314374999999 Q125.93625 -85.05624999999999 123.43123125000001 -87.55562499999999 Q120.92621249999999 -90.05499999999998 117.22310625000001 -90.05499999999998 Q113.52000000000001 -90.05499999999998 111.02062500000001 -87.54998125 Q108.52125000000001 -85.04496249999998 108.52125000000001 -81.34185624999999 Q108.52125000000001 -77.63874999999999 111.02626875 -75.13937499999999 Q113.5312875 -72.63999999999999 117.23439375 -72.63999999999999 Z M37.73814375 -26.52249999999998 Q41.441250000000004 -26.52249999999998 43.940625000000004 -29.027518749999984 Q46.44 -31.53253749999999 46.44 -35.235643749999994 Q46.44 -38.938749999999985 43.93498125 -41.438124999999985 Q41.4299625 -43.937499999999986 37.726856250000004 -43.937499999999986 Q34.02375 -43.937499999999986 31.524375 -41.432481249999995 Q29.025000000000002 -38.92746249999999 29.025000000000002 -35.224356249999985 Q29.025000000000002 -31.52124999999998 31.53001875 -29.02187499999998 Q34.0350375 -26.52249999999998 37.73814375 -26.52249999999998 Z M117.23439375 19.595000000000017 Q120.9375 19.595000000000017 123.436875 17.089981250000015 Q125.93625 14.584962500000017 125.93625 10.881856250000016 Q125.93625 7.178750000000015 123.43123125000001 4.6793750000000145 Q120.92621249999999 2.180000000000014 117.22310625000001 2.180000000000014 Q113.52000000000001 2.180000000000014 111.02062500000001 4.685018750000012 Q108.52125000000001 7.190037500000017 108.52125000000001 10.893143750000014 Q108.52125000000001 14.596250000000015 111.02626875 17.095625000000016 Q113.5312875 19.595000000000017 117.23439375 19.595000000000017 Z"/></g><g id="Medium-L" transform="matrix(1 0 0 1 1674.31 1556)"><path d="M117.2264925 30.156875000000014 Q109.222365 30.156875000000014 103.59087 24.508287500000016 Q97.95937500000001 18.859538750000013 97.95937500000001 10.849122500000014 Q97.95937500000001 9.760523750000011 98.20125 8.166083750000013 Q98.44312500000001 6.571805000000012 98.92687500000001 5.2506837500000145 L51.494865000000004 -22.319518749999986 Q48.9603375 -19.462491249999985 45.2838375 -17.711638749999985 Q41.6073375 -15.960624999999986 37.74975375 -15.960624999999986 Q29.71369875 -15.960624999999986 24.08833125 -21.594377499999986 Q18.463125 -27.22812999999998 18.463125 -35.23225749999999 Q18.463125 -43.236385 24.08833125 -48.867879999999985 Q29.71369875 -54.499374999999986 37.74975375 -54.499374999999986 Q41.6073375 -54.499374999999986 45.1225875 -52.99023624999998 Q48.6378375 -51.481258749999995 51.494865000000004 -48.624231249999994 L98.92687500000001 -75.87193374999998 Q98.44312500000001 -77.0508325 98.20125 -78.53481624999999 Q97.95937500000001 -80.01896124999998 97.95937500000001 -81.36233499999999 Q97.95937500000001 -89.35065999999998 103.5931275 -94.9837675 Q109.22688 -100.616875 117.2310075 -100.616875 Q125.23513500000001 -100.616875 130.86663000000001 -94.98312249999998 Q136.49812500000002 -89.34937 136.49812500000002 -81.34524249999998 Q136.49812500000002 -73.34111499999997 130.87291875 -67.70961999999999 Q125.24755125000001 -62.078124999999986 117.21149625000001 -62.078124999999986 Q113.29683 -62.078124999999986 109.72643250000002 -63.305559999999986 Q106.15619625 -64.532995 103.66617375 -67.39227999999999 L56.195625 -41.18931624999999 Q56.55666375 -39.86061624999998 56.77935 -38.10879624999998 Q57.001875 -36.35697624999999 57.001875 -35.19113874999999 Q57.001875 -34.02513999999999 56.77935 -32.734656249999986 Q56.55666375 -31.44417249999998 56.195625 -30.07693374999998 L103.66617375 -3.2289699999999826 Q106.15619625 -5.604504999999989 109.51309875 -6.993189999999984 Q112.8701625 -8.381874999999987 117.21149625000001 -8.381874999999987 Q125.24755125000001 -8.381874999999987 130.87291875 -2.7481224999999867 Q136.49812500000002 2.8856300000000132 136.49812500000002 10.889757500000016 Q136.49812500000002 18.89388500000001 130.8643725 24.525380000000013 Q125.23062 30.156875000000014 117.2264925 30.156875000000014 Z M117.23439375 -72.63999999999999 Q120.9375 -72.63999999999999 123.436875 -75.14501874999998 Q125.93625 -77.6500375 125.93625 -81.35314374999999 Q125.93625 -85.05624999999999 123.43123125000001 -87.55562499999999 Q120.92621249999999 -90.05499999999998 117.22310625000001 -90.05499999999998 Q113.52000000000001 -90.05499999999998 111.02062500000001 -87.54998125 Q108.52125000000001 -85.04496249999998 108.52125000000001 -81.34185624999999 Q108.52125000000001 -77.63874999999999 111.02626875 -75.13937499999999 Q113.5312875 -72.63999999999999 117.23439375 -72.63999999999999 Z M37.73814375 -26.52249999999998 Q41.441250000000004 -26.52249999999998 43.940625000000004 -29.027518749999984 Q46.44 -31.53253749999999 46.44 -35.235643749999994 Q46.44 -38.938749999999985 43.93498125 -41.438124999999985 Q41.4299625 -43.937499999999986 37.726856250000004 -43.937499999999986 Q34.02375 -43.937499999999986 31.524375 -41.432481249999995 Q29.025000000000002 -38.92746249999999 29.025000000000002 -35.224356249999985 Q29.025000000000002 -31.52124999999998 31.53001875 -29.02187499999998 Q34.0350375 -26.52249999999998 37.73814375 -26.52249999999998 Z M117.23439375 19.595000000000017 Q120.9375 19.595000000000017 123.436875 17.089981250000015 Q125.93625 14.584962500000017 125.93625 10.881856250000016 Q125.93625 7.178750000000015 123.43123125000001 4.6793750000000145 Q120.92621249999999 2.180000000000014 117.22310625000001 2.180000000000014 Q113.52000000000001 2.180000000000014 111.02062500000001 4.685018750000012 Q108.52125000000001 7.190037500000017 108.52125000000001 10.893143750000014 Q108.52125000000001 14.596250000000015 111.02626875 17.095625000000016 Q113.5312875 19.595000000000017 117.23439375 19.595000000000017 Z"/></g><g id="Regular-L" transform="matrix(1 0 0 1 1378.56 1556)"><path d="M117.22875 29.270000000000017 Q109.56937500000001 29.270000000000017 104.2078125 23.892957500000016 Q98.84625 18.515753750000012 98.84625 10.834126250000018 Q98.84625 9.758750000000013 99.088125 8.203816250000017 Q99.33 6.648882500000013 99.81375 5.405000000000015 L50.955 -22.97499999999998 Q48.53625 -20.233749999999986 44.98875 -18.540624999999984 Q41.441250000000004 -16.847499999999982 37.7325 -16.847499999999982 Q30.073125 -16.847499999999982 24.7115625 -22.209062499999987 Q19.35 -27.570624999999993 19.35 -35.22999999999999 Q19.35 -42.88937499999999 24.7115625 -48.25093749999999 Q30.073125 -53.61249999999998 37.7325 -53.61249999999998 Q41.441250000000004 -53.61249999999998 44.8275 -52.16124999999998 Q48.213750000000005 -50.70999999999998 50.955 -47.968749999999986 L99.81375 -76.02624999999999 Q99.33 -77.16644874999999 99.088125 -78.59189874999998 Q98.84625 -80.01718749999999 98.84625 -81.34749999999998 Q98.84625 -89.00687499999998 104.2078125 -94.3684375 Q109.56937500000001 -99.72999999999999 117.22875 -99.72999999999999 Q124.888125 -99.72999999999999 130.2496875 -94.3684375 Q135.61125 -89.00687499999998 135.61125 -81.34749999999998 Q135.61125 -73.68812499999999 130.2496875 -68.32656249999998 Q124.888125 -62.96499999999999 117.22875 -62.96499999999999 Q113.4629175 -62.96499999999999 110.02458375 -64.17437499999998 Q106.58625 -65.38374999999999 104.1675 -68.12499999999999 L55.30875 -41.03499999999998 Q55.63125 -39.74499999999999 55.873125 -38.05187499999998 Q56.115 -36.358749999999986 56.115 -35.19113874999999 Q56.115 -34.02336624999998 55.873125 -32.77238874999999 Q55.63125 -31.52124999999998 55.30875 -30.23124999999999 L104.1675 -2.496249999999982 Q106.58625 -4.753749999999982 109.81125 -6.124374999999986 Q113.03625000000001 -7.494999999999983 117.22875 -7.494999999999983 Q124.888125 -7.494999999999983 130.2496875 -2.133437499999985 Q135.61125 3.228125000000013 135.61125 10.887500000000014 Q135.61125 18.546875000000014 130.2496875 23.908437500000016 Q124.888125 29.270000000000017 117.22875 29.270000000000017 Z M117.23439375 -72.63999999999999 Q120.9375 -72.63999999999999 123.436875 -75.14501874999998 Q125.93625 -77.6500375 125.93625 -81.35314374999999 Q125.93625 -85.05624999999999 123.43123125000001 -87.55562499999999 Q120.92621249999999 -90.05499999999998 117.22310625000001 -90.05499999999998 Q113.52000000000001 -90.05499999999998 111.02062500000001 -87.54998125 Q108.52125000000001 -85.04496249999998 108.52125000000001 -81.34185624999999 Q108.52125000000001 -77.63874999999999 111.02626875 -75.13937499999999 Q113.5312875 -72.63999999999999 117.23439375 -72.63999999999999 Z M37.73814375 -26.52249999999998 Q41.441250000000004 -26.52249999999998 43.940625000000004 -29.027518749999984 Q46.44 -31.53253749999999 46.44 -35.235643749999994 Q46.44 -38.938749999999985 43.93498125 -41.438124999999985 Q41.4299625 -43.937499999999986 37.726856250000004 -43.937499999999986 Q34.02375 -43.937499999999986 31.524375 -41.432481249999995 Q29.025000000000002 -38.92746249999999 29.025000000000002 -35.224356249999985 Q29.025000000000002 -31.52124999999998 31.53001875 -29.02187499999998 Q34.0350375 -26.52249999999998 37.73814375 -26.52249999999998 Z M117.23439375 19.595000000000017 Q120.9375 19.595000000000017 123.436875 17.089981250000015 Q125.93625 14.584962500000017 125.93625 10.881856250000016 Q125.93625 7.178750000000015 123.43123125000001 4.6793750000000145 Q120.92621249999999 2.180000000000014 117.22310625000001 2.180000000000014 Q113.52000000000001 2.180000000000014 111.02062500000001 4.685018750000012 Q108.52125000000001 7.190037500000017 108.52125000000001 10.893143750000014 Q108.52125000000001 14.596250000000015 111.02626875 17.095625000000016 Q113.5312875 19.595000000000017 117.23439375 19.595000000000017 Z"/></g><g id="Light-L" transform="matrix(1 0 0 1 1082.77 1556)"><path d="M116.91124875 27.657338750000015 Q109.81753875 27.657338750000015 104.85910125 22.682292500000017 Q99.90066375 17.707085000000017 99.90066375 10.599830000000015 Q99.90066375 9.431735000000018 100.14253875 7.854226250000011 Q100.38441375000001 6.276717500000018 100.930245 5.032835000000013 L50.70683625 -24.33949749999998 Q48.41224875 -21.536327499999985 45.008745000000005 -19.874162499999983 Q41.6054025 -18.21199749999998 37.98066375 -18.21199749999998 Q30.889695 -18.21199749999998 25.92625875 -23.17769124999998 Q20.96266125 -28.143384999999995 20.96266125 -35.23725624999999 Q20.96266125 -42.331127499999994 25.92625875 -47.28956499999998 Q30.889695 -52.248002499999984 37.98066375 -52.248002499999984 Q41.649262500000006 -52.248002499999984 44.93150625 -50.76579249999999 Q48.213750000000005 -49.28342124999999 50.70683625 -46.48025124999998 L100.930245 -75.59200374999999 Q100.38441375000001 -76.794445 100.14253875 -78.26198124999999 Q99.90066375 -79.72967874999999 99.90066375 -81.09933625 Q99.90066375 -88.19014374999998 104.86635749999999 -93.15374125 Q109.83205125 -98.11733874999999 116.9259225 -98.11733874999999 Q124.01979375 -98.11733874999999 128.97823125 -93.15599874999998 Q133.93666875 -88.19449749999998 133.93666875 -81.10675374999998 Q133.93666875 -73.93628874999999 128.97307125 -69.00881124999998 Q124.00947375000001 -64.08149499999999 116.91866625 -64.08149499999999 Q113.236845 -64.08149499999999 109.94250749999999 -65.38391124999998 Q106.64833125 -66.68632749999998 104.29150125000001 -69.48949749999998 L54.130335 -41.03499999999998 Q54.51475500000001 -39.74499999999999 54.75663000000001 -38.09573499999999 Q54.998505 -36.44646999999998 54.998505 -35.20387749999999 Q54.998505 -33.96144624999998 54.75663000000001 -32.617266249999986 Q54.51475500000001 -31.27308624999999 54.130335 -29.983086249999985 L104.29150125000001 -1.1317524999999904 Q106.64833125 -3.51325374999999 109.78029000000001 -4.945959999999985 Q112.91224875 -6.37850499999999 116.91866625 -6.37850499999999 Q124.00947375000001 -6.37850499999999 128.97307125 -1.4584449999999904 Q133.93666875 3.461615000000016 133.93666875 10.601120000000012 Q133.93666875 17.740625000000016 128.970975 22.698901250000013 Q124.00512 27.657338750000015 116.91124875 27.657338750000015 Z M116.93511375 -71.39950375 Q120.99958125 -71.39950375 123.80904 -74.22557124999999 Q126.61849875 -77.05163875 126.61849875 -81.11594499999998 Q126.61849875 -85.18025124999998 123.79243125 -87.98987125 Q120.96652499999999 -90.79933 116.90205750000001 -90.79933 Q112.83775125000001 -90.79933 110.0282925 -87.9732625 Q107.21867250000001 -85.14719499999998 107.21867250000001 -81.08288875 Q107.21867250000001 -77.0185825 110.04474 -74.20896249999998 Q112.87080750000001 -71.39950375 116.93511375 -71.39950375 Z M37.997111249999996 -25.53016749999999 Q42.061417500000005 -25.53016749999999 44.8710375 -28.35607374999998 Q47.68049625 -31.182141249999987 47.68049625 -35.24660874999999 Q47.68049625 -39.31091499999998 44.85442875 -42.120373749999985 Q42.02836125 -44.92983249999999 37.964055 -44.92983249999999 Q33.89974875 -44.92983249999999 31.090128749999998 -42.10392624999999 Q28.280669999999997 -39.27785874999999 28.280669999999997 -35.21339124999999 Q28.280669999999997 -31.149084999999985 31.1067375 -28.33962624999998 Q33.932805 -25.53016749999999 37.997111249999996 -25.53016749999999 Z M116.93511375 20.339330000000018 Q120.99958125 20.339330000000018 123.80904 17.513262500000017 Q126.61849875 14.687195000000013 126.61849875 10.622888750000016 Q126.61849875 6.558582500000014 123.79243125 3.7489625000000117 Q120.96652499999999 0.9395037500000143 116.90205750000001 0.9395037500000143 Q112.83775125000001 0.9395037500000143 110.0282925 3.765571250000015 Q107.21867250000001 6.5916387500000155 107.21867250000001 10.655945000000013 Q107.21867250000001 14.720251250000015 110.04474 17.529871250000017 Q112.87080750000001 20.339330000000018 116.93511375 20.339330000000018 Z"/></g><g id="Thin-L" transform="matrix(1 0 0 1 787.282 1556)"><path d="M116.59390875 26.045000000000016 Q110.06554125000001 26.045000000000016 105.51022875 21.471788750000016 Q100.95491625 16.898577500000012 100.95491625 10.365372500000014 Q100.95491625 9.104720000000015 101.19679125 7.504636250000011 Q101.43866625 5.904713750000013 102.0464175 4.660831250000015 L50.458833750000004 -25.703833749999987 Q48.2882475 -22.838582499999987 45.028901250000004 -21.207377499999986 Q41.769393750000006 -19.57633374999999 38.22866625 -19.57633374999999 Q31.706265 -19.57633374999999 27.1406325 -24.146158749999984 Q22.575 -28.716144999999983 22.575 -35.24467374999999 Q22.575 -41.77304124999999 27.1406325 -46.32835374999999 Q31.706265 -50.88366624999999 38.22866625 -50.88366624999999 Q41.857275 -50.88366624999999 45.0355125 -49.37033499999998 Q48.213750000000005 -47.85716499999998 50.458833750000004 -44.99191374999998 L102.0464175 -75.15791875 Q101.43866625 -76.42227999999999 101.19679125 -77.932225 Q100.95491625 -79.44216999999998 100.95491625 -80.85133374999998 Q100.95491625 -87.37373499999998 105.52474125 -91.9393675 Q110.0947275 -96.505 116.623095 -96.505 Q123.15162375 -96.505 127.70693625 -91.94355999999999 Q132.26224875 -87.38228124999998 132.26224875 -80.8660075 Q132.26224875 -74.18429124999999 127.69661625 -69.69089874999999 Q123.13098375 -65.1976675 116.6085825 -65.1976675 Q113.01061125000001 -65.1976675 109.86043124999999 -66.59312499999999 Q106.71025125 -67.98858249999999 104.4155025 -70.85383374999999 L52.95208125 -41.03499999999998 Q53.3985825 -39.74499999999999 53.640457500000004 -38.139594999999986 Q53.882332500000004 -36.534189999999995 53.882332500000004 -35.21677749999999 Q53.882332500000004 -33.89936499999999 53.640457500000004 -32.462304999999986 Q53.3985825 -31.025083749999993 52.95208125 -29.735083749999987 L104.4155025 0.23258375000001763 Q106.71025125 -2.272918749999988 109.74916875000001 -3.767706249999982 Q112.7882475 -5.262332499999985 116.6085825 -5.262332499999985 Q123.13098375 -5.262332499999985 127.69661625 -0.7836137499999865 Q132.26224875 3.6951050000000123 132.26224875 10.314740000000015 Q132.26224875 16.934375000000014 127.6922625 21.489687500000016 Q123.12243749999999 26.045000000000016 116.59390875 26.045000000000016 Z M116.635995 -70.15916874999999 Q121.06150125 -70.15916874999999 124.18104375 -73.30628499999997 Q127.30058625000001 -76.45324 127.30058625000001 -80.87874624999998 Q127.30058625000001 -85.30425249999999 124.15363125000002 -88.42395624999997 Q121.00667625 -91.54349875 116.58117000000001 -91.54349875 Q112.15566375 -91.54349875 109.03596 -88.39654375 Q105.91641750000001 -85.24942749999998 105.91641750000001 -80.82392125 Q105.91641750000001 -76.39841499999999 109.0633725 -73.27887249999999 Q112.21048875000001 -70.15916874999999 116.635995 -70.15916874999999 Z M38.25607875 -24.537834999999987 Q42.681585000000005 -24.537834999999987 45.8011275 -27.684951249999983 Q48.92083125 -30.83190624999999 48.92083125 -35.25741249999999 Q48.92083125 -39.682918749999985 45.773715 -42.80246124999999 Q42.62676 -45.92216499999998 38.20125375 -45.92216499999998 Q33.7757475 -45.92216499999998 30.656043750000002 -42.775048749999996 Q27.53650125 -39.62809374999998 27.53650125 -35.20258749999998 Q27.53650125 -30.77708124999998 30.68345625 -27.657538749999986 Q33.8305725 -24.537834999999987 38.25607875 -24.537834999999987 Z M116.635995 21.083498750000015 Q121.06150125 21.083498750000015 124.18104375 17.936543750000016 Q127.30058625000001 14.789427500000016 127.30058625000001 10.363921250000011 Q127.30058625000001 5.938415000000013 124.15363125000002 2.818872500000012 Q121.00667625 -0.30083124999998034 116.58117000000001 -0.30083124999998034 Q112.15566375 -0.30083124999998034 109.03596 2.846285000000016 Q105.91641750000001 5.993240000000014 105.91641750000001 10.418746250000012 Q105.91641750000001 14.844252500000017 109.0633725 17.963956250000013 Q112.21048875000001 21.083498750000015 116.635995 21.083498750000015 Z"/></g><g id="Ultralight-L" transform="matrix(1 0 0 1 491.205 1556)"><path d="M116.40347249999999 25.077500000000015 Q110.214375 25.077500000000015 105.9009375 20.745518750000013 Q101.5875 16.413376250000017 101.5875 10.224762500000011 Q101.5875 8.908478750000015 101.829375 7.295011250000016 Q102.07125 5.681382500000012 102.71625 4.437500000000014 L50.31 -26.52249999999998 Q48.213750000000005 -23.61999999999999 45.04083375 -22.00749999999998 Q41.867917500000004 -20.39499999999999 38.3775 -20.39499999999999 Q32.19630375 -20.39499999999999 27.869321250000002 -24.72746499999998 Q23.5425 -29.05976874999999 23.5425 -35.24902749999998 Q23.5425 -41.438124999999985 27.869321250000002 -45.75156249999999 Q32.19630375 -50.06499999999998 38.3775 -50.06499999999998 Q41.9820825 -50.06499999999998 45.097916250000004 -48.533124999999984 Q48.213750000000005 -47.001249999999985 50.31 -44.09874999999998 L102.71625 -74.8975 Q102.07125 -76.19894874999999 101.829375 -77.73437124999998 Q101.5875 -79.26963249999999 101.5875 -80.70249999999999 Q101.5875 -86.88369624999999 105.919965 -91.21067875 Q110.25226875 -95.5375 116.4415275 -95.5375 Q122.63062500000001 -95.5375 126.9440625 -91.21616125 Q131.2575 -86.8948225 131.2575 -80.7215275 Q131.2575 -74.33312499999998 126.93067875000001 -70.10031249999999 Q122.60369625 -65.86749999999999 116.4225 -65.86749999999999 Q112.875 -65.86749999999999 109.81125 -67.31874999999998 Q106.7475 -68.76999999999998 104.49000000000001 -71.67249999999999 L52.245000000000005 -41.03499999999998 Q52.72875 -39.74499999999999 52.970625 -38.16587874999999 Q53.2125 -36.58675749999999 53.2125 -35.22451749999999 Q53.2125 -33.862116249999985 52.970625 -32.36926374999999 Q52.72875 -30.876249999999985 52.245000000000005 -29.586249999999993 L104.49000000000001 1.0512500000000173 Q106.7475 -1.528749999999988 109.730625 -3.0606249999999875 Q112.71375 -4.592499999999987 116.4225 -4.592499999999987 Q122.60369625 -4.592499999999987 126.93067875000001 -0.3787149999999855 Q131.2575 3.835231250000014 131.2575 10.142847500000016 Q131.2575 16.450625000000016 126.925035 20.764062500000016 Q122.59273125 25.077500000000015 116.40347249999999 25.077500000000015 Z M116.45652375 -69.41499999999999 Q121.09875000000001 -69.41499999999999 124.404375 -72.75464874999999 Q127.71000000000001 -76.09413624999999 127.71000000000001 -80.73652374999999 Q127.71000000000001 -85.37874999999998 124.37035125 -88.68437499999999 Q121.03086375 -91.98999999999998 116.38847625 -91.98999999999998 Q111.74625 -91.98999999999998 108.440625 -88.65035124999997 Q105.135 -85.31086374999998 105.135 -80.66847624999998 Q105.135 -76.02624999999999 108.47464875 -72.72062499999998 Q111.81413625 -69.41499999999999 116.45652375 -69.41499999999999 Z M38.41152375 -23.94249999999998 Q43.05375 -23.94249999999998 46.359375 -27.28214874999999 Q49.665 -30.62163624999998 49.665 -35.26402374999999 Q49.665 -39.906249999999986 46.32535125 -43.21187499999999 Q42.98586375 -46.517499999999984 38.34347625 -46.517499999999984 Q33.70125 -46.517499999999984 30.395625000000003 -43.17785124999999 Q27.09 -39.838363749999985 27.09 -35.19597624999999 Q27.09 -30.55374999999998 30.429648750000002 -27.248124999999987 Q33.76913625 -23.94249999999998 38.41152375 -23.94249999999998 Z M116.45652375 21.530000000000015 Q121.09875000000001 21.530000000000015 124.404375 18.190351250000013 Q127.71000000000001 14.850863750000016 127.71000000000001 10.208476250000015 Q127.71000000000001 5.566250000000018 124.37035125 2.2606250000000117 Q121.03086375 -1.0449999999999875 116.38847625 -1.0449999999999875 Q111.74625 -1.0449999999999875 108.440625 2.2946487500000146 Q105.135 5.634136250000012 105.135 10.276523750000017 Q105.135 14.918750000000014 108.47464875 18.224375000000016 Q111.81413625 21.530000000000015 116.45652375 21.530000000000015 Z"/></g><g id="Bold-M" transform="matrix(1 0 0 1 2281.8 1126)"><path d="M89.992625 18.64500000000001 Q82.125 18.64500000000001 76.625 13.13975000000001 Q71.125 7.63462500000001 71.125 -0.22999999999998977 Q71.125 -1.2243749999999913 71.25 -2.2896249999999903 Q71.375 -3.3549999999999898 71.625 -4.35499999999999 L42.5 -21.35499999999999 Q40.0 -18.97999999999999 36.76925 -17.66749999999999 Q33.5385 -16.35499999999999 30.0 -16.35499999999999 Q22.135375 -16.35499999999999 16.63025 -21.862374999999993 Q11.125 -27.36974999999999 11.125 -35.23737499999999 Q11.125 -43.10499999999999 16.63025 -48.60499999999999 Q22.135375 -54.10499999999999 30.0 -54.10499999999999 Q33.5385 -54.10499999999999 36.76925 -52.79249999999999 Q40.0 -51.47999999999999 42.5 -49.10499999999999 L71.625 -66.10499999999999 Q71.375 -67.10499999999999 71.25 -68.17037499999999 Q71.125 -69.23562499999998 71.125 -70.22999999999999 Q71.125 -78.094625 76.632375 -83.59974999999999 Q82.13975 -89.10499999999999 90.007375 -89.10499999999999 Q97.875 -89.10499999999999 103.375 -83.597625 Q108.875 -78.09024999999998 108.875 -70.222625 Q108.875 -62.35499999999999 103.36975 -56.85499999999999 Q97.864625 -51.35499999999999 90.0 -51.35499999999999 Q86.4615 -51.35499999999999 83.23075 -52.54249999999999 Q80.0 -53.72999999999999 77.5 -56.10499999999999 L48.375 -39.35499999999999 Q48.625 -38.35499999999999 48.75 -37.28962499999999 Q48.875 -36.22437499999999 48.875 -35.22999999999999 Q48.875 -34.23562499999999 48.75 -33.17037499999999 Q48.625 -32.10499999999999 48.375 -31.10499999999999 L77.5 -14.35499999999999 Q80.0 -16.72999999999999 83.23075 -17.91749999999999 Q86.4615 -19.10499999999999 90.0 -19.10499999999999 Q97.864625 -19.10499999999999 103.36975 -13.597624999999987 Q108.875 -8.09024999999999 108.875 -0.22262499999999008 Q108.875 7.64500000000001 103.367625 13.14500000000001 Q97.86025 18.64500000000001 89.992625 18.64500000000001 Z M90.0 -65.22999999999999 Q92.125 -65.22999999999999 93.5625 -66.66749999999999 Q95.0 -68.10499999999999 95.0 -70.22999999999999 Q95.0 -72.35499999999999 93.5625 -73.79249999999999 Q92.125 -75.22999999999999 90.0 -75.22999999999999 Q87.875 -75.22999999999999 86.4375 -73.79249999999999 Q85.0 -72.35499999999999 85.0 -70.22999999999999 Q85.0 -68.10499999999999 86.4375 -66.66749999999999 Q87.875 -65.22999999999999 90.0 -65.22999999999999 Z M30.0 -30.22999999999999 Q32.125 -30.22999999999999 33.5625 -31.66749999999999 Q35.0 -33.10499999999999 35.0 -35.22999999999999 Q35.0 -37.35499999999999 33.5625 -38.79249999999999 Q32.125 -40.22999999999999 30.0 -40.22999999999999 Q27.875 -40.22999999999999 26.4375 -38.79249999999999 Q25.0 -37.35499999999999 25.0 -35.22999999999999 Q25.0 -33.10499999999999 26.4375 -31.66749999999999 Q27.875 -30.22999999999999 30.0 -30.22999999999999 Z M90.0 4.77000000000001 Q92.125 4.77000000000001 93.5625 3.3325000000000102 Q95.0 1.8950000000000102 95.0 -0.22999999999998977 Q95.0 -2.3549999999999898 93.5625 -3.7924999999999898 Q92.125 -5.22999999999999 90.0 -5.22999999999999 Q87.875 -5.22999999999999 86.4375 -3.7924999999999898 Q85.0 -2.3549999999999898 85.0 -0.22999999999998977 Q85.0 1.8950000000000102 86.4375 3.3325000000000102 Q87.875 4.77000000000001 90.0 4.77000000000001 Z"/></g><g id="Semibold-M" transform="matrix(1 0 0 1 1985.97 1126)"><path d="M89.995875 16.96037500000001 Q82.8315 16.96037500000001 77.820625 11.946500000000011 Q72.809625 6.932625000000009 72.809625 -0.22999999999998977 Q72.809625 -1.1724999999999888 72.934625 -2.182249999999989 Q73.059625 -3.1919999999999895 73.309625 -4.083249999999989 L41.52175 -22.604874999999993 Q39.184875 -20.44724999999999 36.217375 -19.24349999999999 Q33.25 -18.039624999999987 30.0 -18.039624999999987 Q22.837375 -18.039624999999987 17.8235 -23.05474999999999 Q12.809625 -28.069749999999992 12.809625 -35.23412499999999 Q12.809625 -42.398499999999984 17.8235 -47.40937499999998 Q22.837375 -52.42037499999999 30.0 -52.42037499999999 Q33.25 -52.42037499999999 36.217375 -51.216499999999996 Q39.184875 -50.01274999999998 41.52175 -47.85512499999999 L73.309625 -66.37674999999999 Q73.059625 -67.26799999999999 72.934625 -68.27774999999998 Q72.809625 -69.2875 72.809625 -70.22999999999999 Q72.809625 -77.392625 77.82475 -82.4065 Q82.83975 -87.42037499999999 90.004125 -87.42037499999999 Q97.1685 -87.42037499999999 102.179375 -82.40525 Q107.190375 -77.39025 107.190375 -70.22587499999999 Q107.190375 -63.061499999999995 102.1765 -58.050625 Q97.162625 -53.03962499999999 90.0 -53.03962499999999 Q86.75 -53.03962499999999 83.782625 -54.17287499999999 Q80.815125 -55.30599999999998 78.47825 -57.46362499999999 L46.690375 -39.08324999999999 Q46.940375 -38.19199999999999 47.065375 -37.18224999999999 Q47.190375 -36.17249999999999 47.190375 -35.22999999999999 Q47.190375 -34.28749999999999 47.065375 -33.27774999999999 Q46.940375 -32.26799999999999 46.690375 -31.376749999999987 L78.47825 -12.996374999999986 Q80.815125 -15.15399999999999 83.782625 -16.28712499999999 Q86.75 -17.420374999999993 90.0 -17.420374999999993 Q97.162625 -17.420374999999993 102.1765 -12.405249999999988 Q107.190375 -7.3902499999999876 107.190375 -0.2258749999999914 Q107.190375 6.938500000000012 102.17525 11.94937500000001 Q97.16025 16.96037500000001 89.995875 16.96037500000001 Z M90.0 -65.22999999999999 Q92.125 -65.22999999999999 93.5625 -66.66749999999999 Q95.0 -68.10499999999999 95.0 -70.22999999999999 Q95.0 -72.35499999999999 93.5625 -73.79249999999999 Q92.125 -75.22999999999999 90.0 -75.22999999999999 Q87.875 -75.22999999999999 86.4375 -73.79249999999999 Q85.0 -72.35499999999999 85.0 -70.22999999999999 Q85.0 -68.10499999999999 86.4375 -66.66749999999999 Q87.875 -65.22999999999999 90.0 -65.22999999999999 Z M30.0 -30.22999999999999 Q32.125 -30.22999999999999 33.5625 -31.66749999999999 Q35.0 -33.10499999999999 35.0 -35.22999999999999 Q35.0 -37.35499999999999 33.5625 -38.79249999999999 Q32.125 -40.22999999999999 30.0 -40.22999999999999 Q27.875 -40.22999999999999 26.4375 -38.79249999999999 Q25.0 -37.35499999999999 25.0 -35.22999999999999 Q25.0 -33.10499999999999 26.4375 -31.66749999999999 Q27.875 -30.22999999999999 30.0 -30.22999999999999 Z M90.0 4.77000000000001 Q92.125 4.77000000000001 93.5625 3.3325000000000102 Q95.0 1.8950000000000102 95.0 -0.22999999999998977 Q95.0 -2.3549999999999898 93.5625 -3.7924999999999898 Q92.125 -5.22999999999999 90.0 -5.22999999999999 Q87.875 -5.22999999999999 86.4375 -3.7924999999999898 Q85.0 -2.3549999999999898 85.0 -0.22999999999998977 Q85.0 1.8950000000000102 86.4375 3.3325000000000102 Q87.875 4.77000000000001 90.0 4.77000000000001 Z"/></g><g id="Medium-M" transform="matrix(1 0 0 1 1689.91 1126)"><path d="M89.99825 15.69662500000001 Q83.361375 15.69662500000001 78.717375 11.05137500000001 Q74.073375 6.40612500000001 74.073375 -0.22999999999998977 Q74.073375 -1.1334999999999908 74.198375 -2.1016249999999914 Q74.323375 -3.0696249999999914 74.573375 -3.8794999999999895 L40.788 -23.54249999999999 Q38.573375 -21.54787499999999 35.8035 -20.42562499999999 Q33.033625 -19.30337499999999 30.0 -19.30337499999999 Q23.363875 -19.30337499999999 18.718625 -23.949124999999988 Q14.073375 -28.594874999999988 14.073375 -35.23174999999999 Q14.073375 -41.868624999999994 18.718625 -46.512624999999986 Q23.363875 -51.15662499999999 30.0 -51.15662499999999 Q33.033625 -51.15662499999999 35.8035 -50.03437499999998 Q38.573375 -48.91212499999999 40.788 -46.91749999999999 L74.573375 -66.58049999999999 Q74.323375 -67.39037499999999 74.198375 -68.358375 Q74.073375 -69.3265 74.073375 -70.22999999999999 Q74.073375 -76.866125 78.719125 -81.51137499999999 Q83.364875 -86.15662499999999 90.00175 -86.15662499999999 Q96.638625 -86.15662499999999 101.282625 -81.51087499999998 Q105.926625 -76.86512499999999 105.926625 -70.22824999999999 Q105.926625 -63.591374999999985 101.281375 -58.947374999999994 Q96.636125 -54.30337499999999 90.0 -54.30337499999999 Q86.966375 -54.30337499999999 84.1965 -55.39574999999999 Q81.426625 -56.488125 79.212 -58.482749999999996 L45.426625 -38.87949999999999 Q45.676625 -38.06962499999999 45.801625 -37.10162499999999 Q45.926625 -36.13349999999999 45.926625 -35.22999999999999 Q45.926625 -34.32649999999999 45.801625 -33.35837499999999 Q45.676625 -32.39037499999999 45.426625 -31.580499999999986 L79.212 -11.97724999999999 Q81.426625 -13.97187499999999 84.1965 -15.064249999999987 Q86.966375 -16.15662499999999 90.0 -16.15662499999999 Q96.636125 -16.15662499999999 101.281375 -11.510874999999992 Q105.926625 -6.865124999999988 105.926625 -0.22824999999998852 Q105.926625 6.408625000000011 101.280875 11.05262500000001 Q96.635125 15.69662500000001 89.99825 15.69662500000001 Z M90.0 -65.22999999999999 Q92.125 -65.22999999999999 93.5625 -66.66749999999999 Q95.0 -68.10499999999999 95.0 -70.22999999999999 Q95.0 -72.35499999999999 93.5625 -73.79249999999999 Q92.125 -75.22999999999999 90.0 -75.22999999999999 Q87.875 -75.22999999999999 86.4375 -73.79249999999999 Q85.0 -72.35499999999999 85.0 -70.22999999999999 Q85.0 -68.10499999999999 86.4375 -66.66749999999999 Q87.875 -65.22999999999999 90.0 -65.22999999999999 Z M30.0 -30.22999999999999 Q32.125 -30.22999999999999 33.5625 -31.66749999999999 Q35.0 -33.10499999999999 35.0 -35.22999999999999 Q35.0 -37.35499999999999 33.5625 -38.79249999999999 Q32.125 -40.22999999999999 30.0 -40.22999999999999 Q27.875 -40.22999999999999 26.4375 -38.79249999999999 Q25.0 -37.35499999999999 25.0 -35.22999999999999 Q25.0 -33.10499999999999 26.4375 -31.66749999999999 Q27.875 -30.22999999999999 30.0 -30.22999999999999 Z M90.0 4.77000000000001 Q92.125 4.77000000000001 93.5625 3.3325000000000102 Q95.0 1.8950000000000102 95.0 -0.22999999999998977 Q95.0 -2.3549999999999898 93.5625 -3.7924999999999898 Q92.125 -5.22999999999999 90.0 -5.22999999999999 Q87.875 -5.22999999999999 86.4375 -3.7924999999999898 Q85.0 -2.3549999999999898 85.0 -0.22999999999998977 Q85.0 1.8950000000000102 86.4375 3.3325000000000102 Q87.875 4.77000000000001 90.0 4.77000000000001 Z"/></g><g id="Regular-M" transform="matrix(1 0 0 1 1394.06 1126)"><path d="M90.0 14.77000000000001 Q83.75 14.77000000000001 79.375 10.39500000000001 Q75.0 6.02000000000001 75.0 -0.22999999999998977 Q75.0 -1.1049999999999898 75.125 -2.0424999999999898 Q75.25 -2.9799999999999898 75.5 -3.7299999999999898 L40.25 -24.22999999999999 Q38.125 -22.35499999999999 35.5 -21.29249999999999 Q32.875 -20.22999999999999 30.0 -20.22999999999999 Q23.75 -20.22999999999999 19.375 -24.60499999999999 Q15.0 -28.97999999999999 15.0 -35.22999999999999 Q15.0 -41.47999999999999 19.375 -45.85499999999999 Q23.75 -50.22999999999999 30.0 -50.22999999999999 Q32.875 -50.22999999999999 35.5 -49.16749999999999 Q38.125 -48.10499999999999 40.25 -46.22999999999999 L75.5 -66.72999999999999 Q75.25 -67.47999999999999 75.125 -68.41749999999999 Q75.0 -69.35499999999999 75.0 -70.22999999999999 Q75.0 -76.47999999999999 79.375 -80.85499999999999 Q83.75 -85.22999999999999 90.0 -85.22999999999999 Q96.25 -85.22999999999999 100.625 -80.85499999999999 Q105.0 -76.47999999999999 105.0 -70.22999999999999 Q105.0 -63.97999999999999 100.625 -59.60499999999999 Q96.25 -55.22999999999999 90.0 -55.22999999999999 Q87.125 -55.22999999999999 84.5 -56.29249999999999 Q81.875 -57.35499999999999 79.75 -59.22999999999999 L44.5 -38.72999999999999 Q44.75 -37.97999999999999 44.875 -37.04249999999999 Q45.0 -36.10499999999999 45.0 -35.22999999999999 Q45.0 -34.35499999999999 44.875 -33.41749999999999 Q44.75 -32.47999999999999 44.5 -31.72999999999999 L79.75 -11.22999999999999 Q81.875 -13.10499999999999 84.5 -14.16749999999999 Q87.125 -15.22999999999999 90.0 -15.22999999999999 Q96.25 -15.22999999999999 100.625 -10.85499999999999 Q105.0 -6.47999999999999 105.0 -0.22999999999998977 Q105.0 6.02000000000001 100.625 10.39500000000001 Q96.25 14.77000000000001 90.0 14.77000000000001 Z M90.0 -65.22999999999999 Q92.125 -65.22999999999999 93.5625 -66.66749999999999 Q95.0 -68.10499999999999 95.0 -70.22999999999999 Q95.0 -72.35499999999999 93.5625 -73.79249999999999 Q92.125 -75.22999999999999 90.0 -75.22999999999999 Q87.875 -75.22999999999999 86.4375 -73.79249999999999 Q85.0 -72.35499999999999 85.0 -70.22999999999999 Q85.0 -68.10499999999999 86.4375 -66.66749999999999 Q87.875 -65.22999999999999 90.0 -65.22999999999999 Z M30.0 -30.22999999999999 Q32.125 -30.22999999999999 33.5625 -31.66749999999999 Q35.0 -33.10499999999999 35.0 -35.22999999999999 Q35.0 -37.35499999999999 33.5625 -38.79249999999999 Q32.125 -40.22999999999999 30.0 -40.22999999999999 Q27.875 -40.22999999999999 26.4375 -38.79249999999999 Q25.0 -37.35499999999999 25.0 -35.22999999999999 Q25.0 -33.10499999999999 26.4375 -31.66749999999999 Q27.875 -30.22999999999999 30.0 -30.22999999999999 Z M90.0 4.77000000000001 Q92.125 4.77000000000001 93.5625 3.3325000000000102 Q95.0 1.8950000000000102 95.0 -0.22999999999998977 Q95.0 -2.3549999999999898 93.5625 -3.7924999999999898 Q92.125 -5.22999999999999 90.0 -5.22999999999999 Q87.875 -5.22999999999999 86.4375 -3.7924999999999898 Q85.0 -2.3549999999999898 85.0 -0.22999999999998977 Q85.0 1.8950000000000102 86.4375 3.3325000000000102 Q87.875 4.77000000000001 90.0 4.77000000000001 Z"/></g><g id="Light-M" transform="matrix(1 0 0 1 1098.18 1126)"><path d="M90.005625 13.51987500000001 Q84.278875 13.51987500000001 80.2645 9.50950000000001 Q76.250125 5.49912500000001 76.250125 -0.22999999999998977 Q76.250125 -1.166249999999991 76.399125 -2.169249999999991 Q76.548125 -3.172374999999988 76.84625 -4.018499999999989 L39.865375 -25.672374999999988 Q37.884625 -23.701249999999987 35.35575 -22.59062499999999 Q32.826875 -21.480124999999987 30.0 -21.480124999999987 Q24.270875 -21.480124999999987 20.2605 -25.488874999999993 Q16.250125 -29.497624999999992 16.250125 -35.22437499999999 Q16.250125 -40.95112499999999 20.2605 -44.96549999999999 Q24.270875 -48.97987499999999 30.0 -48.97987499999999 Q32.826875 -48.97987499999999 35.35575 -47.86937499999999 Q37.884625 -46.75874999999999 39.865375 -44.78762499999999 L76.84625 -66.44149999999999 Q76.548125 -67.28762499999999 76.399125 -68.29074999999999 Q76.250125 -69.29374999999999 76.250125 -70.22999999999999 Q76.250125 -75.95912499999999 80.258875 -79.9695 Q84.267625 -83.97987499999999 89.994375 -83.97987499999999 Q95.721125 -83.97987499999999 99.7355 -79.97112499999999 Q103.749875 -75.962375 103.749875 -70.23562499999998 Q103.749875 -64.50887499999999 99.7395 -60.49449999999999 Q95.729125 -56.48012499999999 90.0 -56.48012499999999 Q87.173125 -56.48012499999999 84.64425 -57.59062499999999 Q82.115375 -58.70124999999999 80.134625 -60.67237499999999 L43.15375 -39.01849999999999 Q43.451875 -38.17237499999999 43.600875 -37.17262499999999 Q43.749875 -36.17299999999999 43.749875 -35.23999999999999 Q43.749875 -34.30687499999999 43.600875 -33.29724999999999 Q43.451875 -32.28762499999999 43.15375 -31.44149999999999 L80.134625 -9.787624999999991 Q82.115375 -11.758749999999992 84.64425 -12.869374999999991 Q87.173125 -13.979874999999993 90.0 -13.979874999999993 Q95.729125 -13.979874999999993 99.7395 -9.971124999999986 Q103.749875 -5.962374999999991 103.749875 -0.2356249999999882 Q103.749875 5.491125000000011 99.741125 9.50550000000001 Q95.732375 13.51987500000001 90.005625 13.51987500000001 Z M90.0 -63.97987499999999 Q92.60575 -63.97987499999999 94.428 -65.80199999999999 Q96.250125 -67.62424999999999 96.250125 -70.22999999999999 Q96.250125 -72.83574999999999 94.428 -74.65799999999999 Q92.60575 -76.48012499999999 90.0 -76.48012499999999 Q87.39425 -76.48012499999999 85.572 -74.65799999999999 Q83.749875 -72.83574999999999 83.749875 -70.22999999999999 Q83.749875 -67.62424999999999 85.572 -65.80199999999999 Q87.39425 -63.97987499999999 90.0 -63.97987499999999 Z M30.0 -28.979874999999993 Q32.60575 -28.979874999999993 34.428 -30.801999999999992 Q36.250125 -32.62424999999999 36.250125 -35.22999999999999 Q36.250125 -37.83574999999999 34.428 -39.65799999999999 Q32.60575 -41.48012499999999 30.0 -41.48012499999999 Q27.39425 -41.48012499999999 25.572 -39.65799999999999 Q23.749875 -37.83574999999999 23.749875 -35.22999999999999 Q23.749875 -32.62424999999999 25.572 -30.801999999999992 Q27.39425 -28.979874999999993 30.0 -28.979874999999993 Z M90.0 6.020125000000011 Q92.60575 6.020125000000011 94.428 4.198000000000011 Q96.250125 2.3757500000000107 96.250125 -0.22999999999998977 Q96.250125 -2.8357499999999902 94.428 -4.657999999999991 Q92.60575 -6.48012499999999 90.0 -6.48012499999999 Q87.39425 -6.48012499999999 85.572 -4.657999999999991 Q83.749875 -2.8357499999999902 83.749875 -0.22999999999998977 Q83.749875 2.3757500000000107 85.572 4.198000000000011 Q87.39425 6.020125000000011 90.0 6.020125000000011 Z"/></g><g id="Thin-M" transform="matrix(1 0 0 1 802.565 1126)"><path d="M90.011375 12.27000000000001 Q84.807625 12.27000000000001 81.153875 8.62412500000001 Q77.5 4.97837500000001 77.5 -0.22999999999998977 Q77.5 -1.2273749999999914 77.673125 -2.2959999999999887 Q77.846125 -3.3646249999999895 78.19225 -4.306874999999991 L39.48075 -27.11462499999999 Q37.64425 -25.04724999999999 35.2115 -23.88862499999999 Q32.778875 -22.72999999999999 30.0 -22.72999999999999 Q24.791625 -22.72999999999999 21.145875 -26.372499999999988 Q17.5 -30.014999999999986 17.5 -35.21874999999999 Q17.5 -40.42237499999999 21.145875 -44.07612499999999 Q24.791625 -47.72999999999999 30.0 -47.72999999999999 Q32.778875 -47.72999999999999 35.2115 -46.57137499999999 Q37.64425 -45.41274999999999 39.48075 -43.34537499999999 L78.19225 -66.15312499999999 Q77.846125 -67.09537499999999 77.673125 -68.16399999999999 Q77.5 -69.23262499999998 77.5 -70.22999999999999 Q77.5 -75.438375 81.1425 -79.08412499999999 Q84.785125 -82.72999999999999 89.988625 -82.72999999999999 Q95.192375 -82.72999999999999 98.846125 -79.08749999999999 Q102.5 -75.444875 102.5 -70.24137499999999 Q102.5 -65.03762499999999 98.854125 -61.38387499999999 Q95.208375 -57.72999999999999 90.0 -57.72999999999999 Q87.221125 -57.72999999999999 84.7885 -58.88862499999999 Q82.35575 -60.04724999999999 80.51925 -62.11462499999999 L41.80775 -39.30687499999999 Q42.153875 -38.36462499999999 42.327 -37.30274999999999 Q42.5 -36.24099999999999 42.5 -35.24987499999999 Q42.5 -34.25887499999999 42.327 -33.17712499999999 Q42.153875 -32.09537499999999 41.80775 -31.15312499999999 L80.51925 -8.34537499999999 Q82.35575 -10.412749999999988 84.7885 -11.571374999999989 Q87.221125 -12.72999999999999 90.0 -12.72999999999999 Q95.208375 -12.72999999999999 98.854125 -9.087499999999991 Q102.5 -5.44499999999999 102.5 -0.2412499999999902 Q102.5 4.962375000000009 98.8575 8.616125000000011 Q95.214875 12.27000000000001 90.011375 12.27000000000001 Z M90.0 -62.72999999999999 Q93.0865 -62.72999999999999 95.29325 -64.93674999999999 Q97.5 -67.14349999999999 97.5 -70.22999999999999 Q97.5 -73.31649999999999 95.29325 -75.52324999999999 Q93.0865 -77.72999999999999 90.0 -77.72999999999999 Q86.9135 -77.72999999999999 84.70675 -75.52324999999999 Q82.5 -73.31649999999999 82.5 -70.22999999999999 Q82.5 -67.14349999999999 84.70675 -64.93674999999999 Q86.9135 -62.72999999999999 90.0 -62.72999999999999 Z M30.0 -27.72999999999999 Q33.0865 -27.72999999999999 35.29325 -29.93674999999999 Q37.5 -32.14349999999999 37.5 -35.22999999999999 Q37.5 -38.31649999999999 35.29325 -40.52324999999999 Q33.0865 -42.72999999999999 30.0 -42.72999999999999 Q26.9135 -42.72999999999999 24.70675 -40.52324999999999 Q22.5 -38.31649999999999 22.5 -35.22999999999999 Q22.5 -32.14349999999999 24.70675 -29.93674999999999 Q26.9135 -27.72999999999999 30.0 -27.72999999999999 Z M90.0 7.27000000000001 Q93.0865 7.27000000000001 95.29325 5.063250000000011 Q97.5 2.856500000000011 97.5 -0.22999999999998977 Q97.5 -3.3164999999999907 95.29325 -5.52324999999999 Q93.0865 -7.72999999999999 90.0 -7.72999999999999 Q86.9135 -7.72999999999999 84.70675 -5.52324999999999 Q82.5 -3.3164999999999907 82.5 -0.22999999999998977 Q82.5 2.856500000000011 84.70675 5.063250000000011 Q86.9135 7.27000000000001 90.0 7.27000000000001 Z"/></g><g id="Ultralight-M" transform="matrix(1 0 0 1 506.415 1126)"><path d="M90.01475 11.52000000000001 Q85.125 11.52000000000001 81.6875 8.09287500000001 Q78.25 4.66587500000001 78.25 -0.22999999999998977 Q78.25 -1.2641249999999893 78.4375 -2.3719999999999892 Q78.625 -3.4799999999999898 79.0 -4.47999999999999 L39.25 -27.97999999999999 Q37.5 -25.85499999999999 35.125 -24.66749999999999 Q32.75 -23.47999999999999 30.0 -23.47999999999999 Q25.104125 -23.47999999999999 21.677125 -26.90274999999999 Q18.25 -30.325624999999988 18.25 -35.21524999999999 Q18.25 -40.10499999999999 21.677125 -43.54249999999999 Q25.104125 -46.97999999999999 30.0 -46.97999999999999 Q32.75 -46.97999999999999 35.125 -45.79249999999999 Q37.5 -44.60499999999999 39.25 -42.47999999999999 L79.0 -65.97999999999999 Q78.625 -66.97999999999999 78.4375 -68.088 Q78.25 -69.19587499999999 78.25 -70.22999999999999 Q78.25 -75.125875 81.67275 -78.55287499999999 Q85.095625 -81.97999999999999 89.98525 -81.97999999999999 Q94.875 -81.97999999999999 98.3125 -78.55725 Q101.75 -75.13437499999999 101.75 -70.24475 Q101.75 -65.35499999999999 98.322875 -61.91749999999999 Q94.895875 -58.47999999999999 90.0 -58.47999999999999 Q87.25 -58.47999999999999 84.875 -59.66749999999999 Q82.5 -60.85499999999999 80.75 -62.97999999999999 L41.0 -39.47999999999999 Q41.375 -38.47999999999999 41.5625 -37.38087499999999 Q41.75 -36.28174999999999 41.75 -35.25587499999999 Q41.75 -34.22999999999999 41.5625 -33.10499999999999 Q41.375 -31.97999999999999 41.0 -30.97999999999999 L80.75 -7.47999999999999 Q82.5 -9.60499999999999 84.875 -10.79249999999999 Q87.25 -11.97999999999999 90.0 -11.97999999999999 Q94.895875 -11.97999999999999 98.322875 -8.55724999999999 Q101.75 -5.1343749999999915 101.75 -0.24474999999998914 Q101.75 4.64500000000001 98.32725 8.08250000000001 Q94.904375 11.52000000000001 90.01475 11.52000000000001 Z M90.0 -61.97999999999999 Q93.375 -61.97999999999999 95.8125 -64.41749999999999 Q98.25 -66.85499999999999 98.25 -70.22999999999999 Q98.25 -73.60499999999999 95.8125 -76.04249999999999 Q93.375 -78.47999999999999 90.0 -78.47999999999999 Q86.625 -78.47999999999999 84.1875 -76.04249999999999 Q81.75 -73.60499999999999 81.75 -70.22999999999999 Q81.75 -66.85499999999999 84.1875 -64.41749999999999 Q86.625 -61.97999999999999 90.0 -61.97999999999999 Z M30.0 -26.97999999999999 Q33.375 -26.97999999999999 35.8125 -29.41749999999999 Q38.25 -31.85499999999999 38.25 -35.22999999999999 Q38.25 -38.60499999999999 35.8125 -41.04249999999999 Q33.375 -43.47999999999999 30.0 -43.47999999999999 Q26.625 -43.47999999999999 24.1875 -41.04249999999999 Q21.75 -38.60499999999999 21.75 -35.22999999999999 Q21.75 -31.85499999999999 24.1875 -29.41749999999999 Q26.625 -26.97999999999999 30.0 -26.97999999999999 Z M90.0 8.02000000000001 Q93.375 8.02000000000001 95.8125 5.58250000000001 Q98.25 3.1450000000000102 98.25 -0.22999999999998977 Q98.25 -3.6049999999999898 95.8125 -6.04249999999999 Q93.375 -8.47999999999999 90.0 -8.47999999999999 Q86.625 -8.47999999999999 84.1875 -6.04249999999999 Q81.75 -3.6049999999999898 81.75 -0.22999999999998977 Q81.75 3.1450000000000102 84.1875 5.58250000000001 Q86.625 8.02000000000001 90.0 8.02000000000001 Z"/></g><g id="Bold-S" transform="matrix(1 0 0 1 2294.23 696)"><path d="M68.63718112500001 5.699375000000013 Q62.429625 5.699375000000013 58.090125 1.3557327500000138 Q53.750625 -2.9878108749999868 53.750625 -9.192999999999987 Q53.750625 -10.076186874999987 53.849250000000005 -10.81804412499999 Q53.947875 -11.559999999999988 54.145125 -12.546249999999986 L35.505 -24.085374999999985 Q33.72975 -22.11287499999999 31.244400000000002 -21.22524999999999 Q28.759050000000002 -20.33762499999999 26.037000000000003 -20.33762499999999 Q19.831810875000002 -20.33762499999999 15.488267250000002 -24.682943874999992 Q11.144625000000001 -29.02826274999999 11.144625000000001 -35.23581887499999 Q11.144625000000001 -41.44337499999999 15.488267250000002 -45.78287499999999 Q19.831810875000002 -50.12237499999999 26.037000000000003 -50.12237499999999 Q28.7302515 -50.12237499999999 31.230000750000002 -49.18543749999999 Q33.72975 -48.248499999999986 35.505 -46.37462499999999 L54.145125 -57.91374999999999 Q53.947875 -58.89999999999999 53.849250000000005 -59.641955874999994 Q53.750625 -60.38381312499999 53.750625 -61.266999999999996 Q53.750625 -67.472189125 58.095943874999996 -71.81573274999998 Q62.44126275000001 -76.159375 68.648818875 -76.159375 Q74.856375 -76.159375 79.195875 -71.814056125 Q83.535375 -67.46873724999999 83.535375 -61.26118112499999 Q83.535375 -55.05362499999998 79.19173275 -50.71412499999999 Q74.848189125 -46.37462499999999 68.643 -46.37462499999999 Q65.92095 -46.37462499999999 63.43560000000001 -47.16362499999999 Q60.950250000000004 -47.95262499999999 59.175000000000004 -49.92512499999999 L40.534875 -38.583249999999985 Q40.732125 -37.59699999999999 40.83075 -36.855044124999985 Q40.929375 -36.11318687499999 40.929375 -35.22999999999999 Q40.929375 -34.34681312499999 40.83075 -33.60495587499999 Q40.732125 -32.862999999999985 40.534875 -31.876749999999987 L59.175000000000004 -20.534874999999985 Q60.950250000000004 -22.605999999999987 63.43560000000001 -23.34568749999999 Q65.92095 -24.085374999999985 68.643 -24.085374999999985 Q74.848189125 -24.085374999999985 79.19173275 -19.740056124999985 Q83.535375 -15.394737249999988 83.535375 -9.187181124999988 Q83.535375 -2.979624999999986 79.19005612500001 1.359875000000013 Q74.84473725 5.699375000000013 68.63718112500001 5.699375000000013 Z M68.643 -56.53299999999999 Q70.65495 -56.53299999999999 72.01597500000001 -57.894024999999985 Q73.37700000000001 -59.25505 73.37700000000001 -61.266999999999996 Q73.37700000000001 -63.27894999999998 72.01597500000001 -64.63997499999999 Q70.65495 -66.00099999999999 68.643 -66.00099999999999 Q66.63105 -66.00099999999999 65.270025 -64.63997499999999 Q63.909000000000006 -63.27894999999998 63.909000000000006 -61.266999999999996 Q63.909000000000006 -59.25505 65.270025 -57.894024999999985 Q66.63105 -56.53299999999999 68.643 -56.53299999999999 Z M26.037000000000003 -30.495999999999988 Q28.048949999999998 -30.495999999999988 29.409975 -31.857024999999986 Q30.771 -33.21804999999999 30.771 -35.22999999999999 Q30.771 -37.24194999999999 29.409975 -38.602974999999994 Q28.048949999999998 -39.96399999999999 26.037000000000003 -39.96399999999999 Q24.02505 -39.96399999999999 22.664025000000002 -38.602974999999994 Q21.303 -37.24194999999999 21.303 -35.22999999999999 Q21.303 -33.21804999999999 22.664025000000002 -31.857024999999986 Q24.02505 -30.495999999999988 26.037000000000003 -30.495999999999988 Z M68.643 -4.458999999999985 Q70.65495 -4.458999999999985 72.01597500000001 -5.820024999999987 Q73.37700000000001 -7.181049999999988 73.37700000000001 -9.192999999999987 Q73.37700000000001 -11.20494999999999 72.01597500000001 -12.565974999999987 Q70.65495 -13.926999999999989 68.643 -13.926999999999989 Q66.63105 -13.926999999999989 65.270025 -12.565974999999987 Q63.909000000000006 -11.20494999999999 63.909000000000006 -9.192999999999987 Q63.909000000000006 -7.181049999999988 65.270025 -5.820024999999987 Q66.63105 -4.458999999999985 68.643 -4.458999999999985 Z"/></g><g id="Semibold-S" transform="matrix(1 0 0 1 1998.1 696)"><path d="M68.639745375 4.370205875000013 Q62.98705350000001 4.370205875000013 59.03347312500001 0.4142585000000132 Q55.079794125 -3.5416888749999877 55.079794125 -9.192999999999987 Q55.079794125 -10.035257499999986 55.178419125 -10.733325249999986 Q55.277044125 -11.431392999999986 55.474294125 -12.331839249999987 L34.733160749999996 -25.07152637499999 Q33.086616375 -23.270535249999988 30.809069250000004 -22.46871399999999 Q28.5314235 -21.66679412499999 26.037000000000003 -21.66679412499999 Q20.385688875000003 -21.66679412499999 16.4297415 -25.623727749999986 Q12.473794125000001 -29.58056274999999 12.473794125000001 -35.23325462499999 Q12.473794125000001 -40.88594649999998 16.4297415 -44.83952687499998 Q20.385688875000003 -48.79320587499999 26.037000000000003 -48.79320587499999 Q28.502625000000002 -48.79320587499999 30.794571375 -47.941973499999996 Q33.086616375 -47.09083974999999 34.733160749999996 -45.38847362499999 L55.474294125 -58.12816074999999 Q55.277044125 -59.028606999999994 55.178419125 -59.72667474999999 Q55.079794125 -60.424742499999994 55.079794125 -61.266999999999996 Q55.079794125 -66.91831112499999 59.03672775 -70.8742585 Q62.99356275 -74.83020587499999 68.64625462500001 -74.83020587499999 Q74.2989465 -74.83020587499999 78.252526875 -70.87327225 Q82.20620587500001 -66.91643724999999 82.20620587500001 -61.263745374999985 Q82.20620587500001 -55.6110535 78.2502585 -51.657473124999996 Q74.29431112500001 -47.70379412499999 68.643 -47.70379412499999 Q66.1485765 -47.70379412499999 63.87093075000001 -48.44999087499999 Q61.593383625 -49.196088999999986 59.946839250000004 -50.99708012499999 L39.20570587500001 -38.36883924999999 Q39.402955875 -37.46839299999999 39.501580875 -36.770325249999985 Q39.60020587500001 -36.07225749999999 39.60020587500001 -35.22999999999999 Q39.60020587500001 -34.38774249999999 39.501580875 -33.68967474999999 Q39.402955875 -32.99160699999999 39.20570587500001 -32.091160749999986 L59.946839250000004 -19.462919874999987 Q61.593383625 -21.362535999999984 63.87093075000001 -22.05932162499999 Q66.1485765 -22.756205874999992 68.643 -22.756205874999992 Q74.29431112500001 -22.756205874999992 78.2502585 -18.799272249999987 Q82.20620587500001 -14.842437249999985 82.20620587500001 -9.189745374999987 Q82.20620587500001 -3.5370534999999865 78.24927225 0.41652687500001306 Q74.29243725 4.370205875000013 68.639745375 4.370205875000013 Z M68.643 -56.53299999999999 Q70.65495 -56.53299999999999 72.01597500000001 -57.894024999999985 Q73.37700000000001 -59.25505 73.37700000000001 -61.266999999999996 Q73.37700000000001 -63.27894999999998 72.01597500000001 -64.63997499999999 Q70.65495 -66.00099999999999 68.643 -66.00099999999999 Q66.63105 -66.00099999999999 65.270025 -64.63997499999999 Q63.909000000000006 -63.27894999999998 63.909000000000006 -61.266999999999996 Q63.909000000000006 -59.25505 65.270025 -57.894024999999985 Q66.63105 -56.53299999999999 68.643 -56.53299999999999 Z M26.037000000000003 -30.495999999999988 Q28.048949999999998 -30.495999999999988 29.409975 -31.857024999999986 Q30.771 -33.21804999999999 30.771 -35.22999999999999 Q30.771 -37.24194999999999 29.409975 -38.602974999999994 Q28.048949999999998 -39.96399999999999 26.037000000000003 -39.96399999999999 Q24.02505 -39.96399999999999 22.664025000000002 -38.602974999999994 Q21.303 -37.24194999999999 21.303 -35.22999999999999 Q21.303 -33.21804999999999 22.664025000000002 -31.857024999999986 Q24.02505 -30.495999999999988 26.037000000000003 -30.495999999999988 Z M68.643 -4.458999999999985 Q70.65495 -4.458999999999985 72.01597500000001 -5.820024999999987 Q73.37700000000001 -7.181049999999988 73.37700000000001 -9.192999999999987 Q73.37700000000001 -11.20494999999999 72.01597500000001 -12.565974999999987 Q70.65495 -13.926999999999989 68.643 -13.926999999999989 Q66.63105 -13.926999999999989 65.270025 -12.565974999999987 Q63.909000000000006 -11.20494999999999 63.909000000000006 -9.192999999999987 Q63.909000000000006 -7.181049999999988 65.270025 -5.820024999999987 Q66.63105 -4.458999999999985 68.643 -4.458999999999985 Z"/></g><g id="Medium-S" transform="matrix(1 0 0 1 1701.85 696)"><path d="M68.64161925 3.373107125000013 Q63.405124875 3.373107125000013 59.741008875000006 -0.29199512499998725 Q56.076892875 -3.957097374999986 56.076892875 -9.192999999999987 Q56.076892875 -10.004486499999988 56.175517875000004 -10.66971212499999 Q56.274142875 -11.334839124999988 56.471392875 -12.171080499999988 L34.154232 -25.811312499999985 Q32.604142875 -24.138928374999992 30.482423250000004 -23.40141062499999 Q28.360802250000003 -22.663892874999988 26.037000000000003 -22.663892874999988 Q20.801097375 -22.663892874999988 17.135995125 -26.329389624999983 Q13.470892874999999 -29.994886374999986 13.470892874999999 -35.23138074999999 Q13.470892874999999 -40.46787512499999 17.135995125 -44.131991124999985 Q20.801097375 -47.79610712499999 26.037000000000003 -47.79610712499999 Q28.331905125000002 -47.79610712499999 30.468024 -47.00927687499998 Q32.604142875 -46.22244662499999 34.154232 -44.64868749999999 L56.471392875 -58.28891949999999 Q56.274142875 -59.12516087499999 56.175517875000004 -59.79028787499999 Q56.076892875 -60.455513499999995 56.076892875 -61.266999999999996 Q56.076892875 -66.50290262499999 59.74238962500001 -70.168004875 Q63.407886375000004 -73.833107125 68.64438075000001 -73.833107125 Q73.880875125 -73.833107125 77.544991125 -70.16761037499998 Q81.209107125 -66.50211362499999 81.209107125 -61.265619249999986 Q81.209107125 -56.02912487499998 77.544004875 -52.36500887499999 Q73.87890262500001 -48.70089287499999 68.643 -48.70089287499999 Q66.31919775 -48.70089287499999 64.19757675000001 -49.41483924999999 Q62.075857125000006 -50.12878562499999 60.52576800000001 -51.80116974999999 L38.208607125 -38.208080499999994 Q38.405857125000004 -37.37183912499999 38.504482125 -36.70671212499999 Q38.603107125 -36.04148649999999 38.603107125 -35.22999999999999 Q38.603107125 -34.41851349999999 38.504482125 -33.753287874999984 Q38.405857125000004 -33.08816087499999 38.208607125 -32.251919499999985 L60.52576800000001 -18.658830249999987 Q62.075857125000006 -20.429839374999986 64.19757675000001 -21.094473249999986 Q66.31919775 -21.759107124999986 68.643 -21.759107124999986 Q73.87890262500001 -21.759107124999986 77.544004875 -18.09361037499999 Q81.209107125 -14.428113624999988 81.209107125 -9.191619249999988 Q81.209107125 -3.955124874999985 77.543610375 -0.29100887499998684 Q73.87811362500001 3.373107125000013 68.64161925 3.373107125000013 Z M68.643 -56.53299999999999 Q70.65495 -56.53299999999999 72.01597500000001 -57.894024999999985 Q73.37700000000001 -59.25505 73.37700000000001 -61.266999999999996 Q73.37700000000001 -63.27894999999998 72.01597500000001 -64.63997499999999 Q70.65495 -66.00099999999999 68.643 -66.00099999999999 Q66.63105 -66.00099999999999 65.270025 -64.63997499999999 Q63.909000000000006 -63.27894999999998 63.909000000000006 -61.266999999999996 Q63.909000000000006 -59.25505 65.270025 -57.894024999999985 Q66.63105 -56.53299999999999 68.643 -56.53299999999999 Z M26.037000000000003 -30.495999999999988 Q28.048949999999998 -30.495999999999988 29.409975 -31.857024999999986 Q30.771 -33.21804999999999 30.771 -35.22999999999999 Q30.771 -37.24194999999999 29.409975 -38.602974999999994 Q28.048949999999998 -39.96399999999999 26.037000000000003 -39.96399999999999 Q24.02505 -39.96399999999999 22.664025000000002 -38.602974999999994 Q21.303 -37.24194999999999 21.303 -35.22999999999999 Q21.303 -33.21804999999999 22.664025000000002 -31.857024999999986 Q24.02505 -30.495999999999988 26.037000000000003 -30.495999999999988 Z M68.643 -4.458999999999985 Q70.65495 -4.458999999999985 72.01597500000001 -5.820024999999987 Q73.37700000000001 -7.181049999999988 73.37700000000001 -9.192999999999987 Q73.37700000000001 -11.20494999999999 72.01597500000001 -12.565974999999987 Q70.65495 -13.926999999999989 68.643 -13.926999999999989 Q66.63105 -13.926999999999989 65.270025 -12.565974999999987 Q63.909000000000006 -11.20494999999999 63.909000000000006 -9.192999999999987 Q63.909000000000006 -7.181049999999988 65.270025 -5.820024999999987 Q66.63105 -4.458999999999985 68.643 -4.458999999999985 Z"/></g><g id="Regular-S" transform="matrix(1 0 0 1 1405.73 696)"><path d="M68.643 2.6420000000000137 Q63.71175 2.6420000000000137 60.259875 -0.8098749999999875 Q56.808 -4.261749999999989 56.808 -9.192999999999987 Q56.808 -9.981999999999989 56.906625000000005 -10.623062499999989 Q57.005250000000004 -11.264124999999986 57.2025 -12.053124999999987 L33.72975 -26.35374999999999 Q32.250375 -24.775749999999988 30.242961750000003 -24.085374999999985 Q28.2355485 -23.39499999999999 26.037000000000003 -23.39499999999999 Q21.10575 -23.39499999999999 17.653875 -26.84687499999999 Q14.202 -30.29874999999999 14.202 -35.22999999999999 Q14.202 -40.16124999999999 17.653875 -43.61312499999999 Q21.10575 -47.06499999999999 26.037000000000003 -47.06499999999999 Q28.20675 -47.06499999999999 30.228562500000002 -46.32531249999999 Q32.250375 -45.585624999999986 33.72975 -44.10624999999999 L57.2025 -58.406874999999985 Q57.005250000000004 -59.19587499999999 56.906625000000005 -59.83693749999999 Q56.808 -60.477999999999994 56.808 -61.266999999999996 Q56.808 -66.19824999999999 60.259875 -69.65012499999999 Q63.71175 -73.10199999999999 68.643 -73.10199999999999 Q73.57425 -73.10199999999999 77.02612500000001 -69.65012499999999 Q80.47800000000001 -66.19824999999999 80.47800000000001 -61.266999999999996 Q80.47800000000001 -56.33574999999999 77.02612500000001 -52.88387499999999 Q73.57425 -49.43199999999999 68.643 -49.43199999999999 Q66.4444515 -49.43199999999999 64.43703825 -50.12237499999999 Q62.429625 -50.81274999999999 60.950250000000004 -52.39074999999998 L37.4775 -38.090124999999986 Q37.67475 -37.30112499999999 37.773375 -36.66006249999999 Q37.872 -36.01899999999999 37.872 -35.22999999999999 Q37.872 -34.44099999999999 37.773375 -33.79993749999999 Q37.67475 -33.15887499999999 37.4775 -32.369874999999986 L60.950250000000004 -18.069249999999986 Q62.429625 -19.745874999999987 64.43703825 -20.386937499999988 Q66.4444515 -21.027999999999984 68.643 -21.027999999999984 Q73.57425 -21.027999999999984 77.02612500000001 -17.576124999999987 Q80.47800000000001 -14.124249999999986 80.47800000000001 -9.192999999999987 Q80.47800000000001 -4.261749999999989 77.02612500000001 -0.8098749999999875 Q73.57425 2.6420000000000137 68.643 2.6420000000000137 Z M68.643 -56.53299999999999 Q70.65495 -56.53299999999999 72.01597500000001 -57.894024999999985 Q73.37700000000001 -59.25505 73.37700000000001 -61.266999999999996 Q73.37700000000001 -63.27894999999998 72.01597500000001 -64.63997499999999 Q70.65495 -66.00099999999999 68.643 -66.00099999999999 Q66.63105 -66.00099999999999 65.270025 -64.63997499999999 Q63.909000000000006 -63.27894999999998 63.909000000000006 -61.266999999999996 Q63.909000000000006 -59.25505 65.270025 -57.894024999999985 Q66.63105 -56.53299999999999 68.643 -56.53299999999999 Z M26.037000000000003 -30.495999999999988 Q28.048949999999998 -30.495999999999988 29.409975 -31.857024999999986 Q30.771 -33.21804999999999 30.771 -35.22999999999999 Q30.771 -37.24194999999999 29.409975 -38.602974999999994 Q28.048949999999998 -39.96399999999999 26.037000000000003 -39.96399999999999 Q24.02505 -39.96399999999999 22.664025000000002 -38.602974999999994 Q21.303 -37.24194999999999 21.303 -35.22999999999999 Q21.303 -33.21804999999999 22.664025000000002 -31.857024999999986 Q24.02505 -30.495999999999988 26.037000000000003 -30.495999999999988 Z M68.643 -4.458999999999985 Q70.65495 -4.458999999999985 72.01597500000001 -5.820024999999987 Q73.37700000000001 -7.181049999999988 73.37700000000001 -9.192999999999987 Q73.37700000000001 -11.20494999999999 72.01597500000001 -12.565974999999987 Q70.65495 -13.926999999999989 68.643 -13.926999999999989 Q66.63105 -13.926999999999989 65.270025 -12.565974999999987 Q63.909000000000006 -11.20494999999999 63.909000000000006 -9.192999999999987 Q63.909000000000006 -7.181049999999988 65.270025 -5.820024999999987 Q66.63105 -4.458999999999985 68.643 -4.458999999999985 Z"/></g><g id="Light-S" transform="matrix(1 0 0 1 1109.75 696)"><path d="M68.647438125 1.6556513750000121 Q64.12903237500001 1.6556513750000121 60.9616905 -1.5085344999999872 Q57.794348625 -4.672720374999987 57.794348625 -9.192999999999987 Q57.794348625 -10.030326249999987 57.911909625 -10.72306824999999 Q58.029470625 -11.415908874999985 58.26469125 -12.280751499999987 L33.426280875 -27.49178387499999 Q32.060719125 -25.837941249999986 30.129148500000003 -25.10959562499999 Q28.197676500000004 -24.381348624999987 26.037000000000003 -24.381348624999987 Q21.516720375000002 -24.381348624999987 18.3525345 -27.544252374999992 Q15.188348625000001 -30.70715612499999 15.188348625000001 -35.22556187499999 Q15.188348625000001 -39.74396762499999 18.3525345 -42.91130949999999 Q21.516720375000002 -46.07865137499999 26.037000000000003 -46.07865137499999 Q28.168779375000003 -46.07865137499999 30.114749250000003 -45.30109187499999 Q32.060719125 -44.52343374999999 33.426280875 -42.96821612499999 L58.26469125 -58.179248499999986 Q58.029470625 -59.044091124999994 57.911909625 -59.73693174999998 Q57.794348625 -60.42967374999999 57.794348625 -61.266999999999996 Q57.794348625 -65.78727962499998 60.957252375 -68.9514655 Q64.120156125 -72.115651375 68.63856187500001 -72.115651375 Q73.15696762500001 -72.115651375 76.3243095 -68.95274762499999 Q79.491651375 -65.78984387499999 79.491651375 -61.27143812499999 Q79.491651375 -56.75303237499999 76.3274655 -53.585690499999984 Q73.163279625 -50.418348624999986 68.643 -50.418348624999986 Q66.4823235 -50.418348624999986 64.55085150000001 -51.14659562499999 Q62.619280875 -51.874941249999985 61.253719125 -53.52878387499999 L36.41530875 -38.317751499999986 Q36.650529375000005 -37.452908874999984 36.768090375 -36.76273112499999 Q36.885651375 -36.072651999999984 36.885651375 -35.237889999999986 Q36.885651375 -34.40302937499999 36.768090375 -33.70506024999999 Q36.650529375000005 -33.00709112499999 36.41530875 -32.14224849999999 L61.253719125 -16.931216124999988 Q62.619280875 -18.68368374999999 64.55085150000001 -19.36271687499999 Q66.4823235 -20.041651374999994 68.643 -20.041651374999994 Q73.163279625 -20.041651374999994 76.3274655 -16.878747624999985 Q79.491651375 -13.715843874999987 79.491651375 -9.197438124999987 Q79.491651375 -4.679032374999988 76.328747625 -1.5116904999999878 Q73.16584387500001 1.6556513750000121 68.647438125 1.6556513750000121 Z M68.643 -55.546651374999996 Q71.03426175 -55.546651374999996 72.69885450000001 -57.211145499999986 Q74.363348625 -58.87573825 74.363348625 -61.266999999999996 Q74.363348625 -63.658261749999994 72.69885450000001 -65.32285449999999 Q71.03426175 -66.98734862499998 68.643 -66.98734862499998 Q66.25173825 -66.98734862499998 64.5871455 -65.32285449999999 Q62.92265137500001 -63.658261749999994 62.92265137500001 -61.266999999999996 Q62.92265137500001 -58.87573825 64.5871455 -57.211145499999986 Q66.25173825 -55.546651374999996 68.643 -55.546651374999996 Z M26.037000000000003 -29.50965137499999 Q28.42826175 -29.50965137499999 30.092854500000005 -31.174145499999987 Q31.757348625 -32.83873824999999 31.757348625 -35.22999999999999 Q31.757348625 -37.62126174999999 30.092854500000005 -39.28585449999999 Q28.42826175 -40.95034862499999 26.037000000000003 -40.95034862499999 Q23.64573825 -40.95034862499999 21.9811455 -39.28585449999999 Q20.316651375 -37.62126174999999 20.316651375 -35.22999999999999 Q20.316651375 -32.83873824999999 21.9811455 -31.174145499999987 Q23.64573825 -29.50965137499999 26.037000000000003 -29.50965137499999 Z M68.643 -3.4726513749999874 Q71.03426175 -3.4726513749999874 72.69885450000001 -5.137145499999988 Q74.363348625 -6.801738249999985 74.363348625 -9.192999999999987 Q74.363348625 -11.584261749999989 72.69885450000001 -13.24885449999999 Q71.03426175 -14.913348624999987 68.643 -14.913348624999987 Q66.25173825 -14.913348624999987 64.5871455 -13.24885449999999 Q62.92265137500001 -11.584261749999989 62.92265137500001 -9.192999999999987 Q62.92265137500001 -6.801738249999985 64.5871455 -5.137145499999988 Q66.25173825 -3.4726513749999874 68.643 -3.4726513749999874 Z"/></g><g id="Thin-S" transform="matrix(1 0 0 1 814.015 696)"><path d="M68.65197487500001 0.6695000000000135 Q64.546216125 0.6695000000000135 61.663407375000006 -2.2070953749999873 Q58.7805 -5.0835921249999885 58.7805 -9.192999999999987 Q58.7805 -10.07855387499999 58.917095625 -10.823073999999988 Q59.053592625 -11.567594124999989 59.326685250000004 -12.50827937499999 L33.122811750000004 -28.629719124999987 Q31.871063250000002 -26.89993524999999 30.015335250000003 -26.13371762499999 Q28.159705875000004 -25.367499999999986 26.037000000000003 -25.367499999999986 Q21.927592125 -25.367499999999986 19.051095375000003 -28.241432499999988 Q16.174500000000002 -31.115364999999983 16.174500000000002 -35.22112374999999 Q16.174500000000002 -39.32678387499999 19.051095375000003 -42.20959262499999 Q21.927592125 -45.09249999999999 26.037000000000003 -45.09249999999999 Q28.130907375 -45.09249999999999 30.000936000000003 -44.27696987499999 Q31.871063250000002 -43.46143974999999 33.122811750000004 -41.830280874999985 L59.326685250000004 -57.95172062499999 Q59.053592625 -58.892405874999994 58.917095625 -59.63692599999999 Q58.7805 -60.38144612499998 58.7805 -61.266999999999996 Q58.7805 -65.376407875 61.6544325 -68.25290462499999 Q64.528463625 -71.1295 68.63402512500001 -71.1295 Q72.739783875 -71.1295 75.62259262500001 -68.2555675 Q78.5055 -65.381536375 78.5055 -61.27597487499999 Q78.5055 -57.170216124999996 75.628904625 -54.28740737499999 Q72.752407875 -51.40449999999999 68.643 -51.40449999999999 Q66.520294125 -51.40449999999999 64.664566125 -52.170717624999995 Q62.80893675 -52.93693524999999 61.55718825 -54.666719124999986 L35.35331475 -38.54527937499999 Q35.626407375 -37.60459412499999 35.763003 -36.86539974999999 Q35.8995 -36.12630399999999 35.8995 -35.24568137499999 Q35.8995 -34.36515737499999 35.763003 -33.610281624999985 Q35.626407375 -32.85540587499999 35.35331475 -31.914720624999987 L61.55718825 -15.793280874999986 Q62.80893675 -17.621689749999987 64.664566125 -18.338594874999988 Q66.520294125 -19.055499999999988 68.643 -19.055499999999988 Q72.752407875 -19.055499999999988 75.628904625 -16.18156749999999 Q78.5055 -13.30763499999999 78.5055 -9.201876249999987 Q78.5055 -5.096216124999987 75.6315675 -2.2134073749999867 Q72.75753637500002 0.6695000000000135 68.65197487500001 0.6695000000000135 Z M68.643 -54.56049999999999 Q71.4135735 -54.56049999999999 73.38153675000001 -56.52846324999999 Q75.3495 -58.496426499999984 75.3495 -61.266999999999996 Q75.3495 -64.0375735 73.38153675000001 -66.00553674999999 Q71.4135735 -67.97349999999999 68.643 -67.97349999999999 Q65.8724265 -67.97349999999999 63.90446325 -66.00553674999999 Q61.9365 -64.0375735 61.9365 -61.266999999999996 Q61.9365 -58.496426499999984 63.90446325 -56.52846324999999 Q65.8724265 -54.56049999999999 68.643 -54.56049999999999 Z M26.037000000000003 -28.52349999999999 Q28.8075735 -28.52349999999999 30.77553675 -30.49146324999999 Q32.743500000000004 -32.45942649999999 32.743500000000004 -35.22999999999999 Q32.743500000000004 -38.00057349999999 30.77553675 -39.96853674999999 Q28.8075735 -41.93649999999999 26.037000000000003 -41.93649999999999 Q23.2664265 -41.93649999999999 21.29846325 -39.96853674999999 Q19.3305 -38.00057349999999 19.3305 -35.22999999999999 Q19.3305 -32.45942649999999 21.29846325 -30.49146324999999 Q23.2664265 -28.52349999999999 26.037000000000003 -28.52349999999999 Z M68.643 -2.486499999999987 Q71.4135735 -2.486499999999987 73.38153675000001 -4.454463249999989 Q75.3495 -6.422426499999986 75.3495 -9.192999999999987 Q75.3495 -11.963573499999988 73.38153675000001 -13.931536749999985 Q71.4135735 -15.899499999999989 68.643 -15.899499999999989 Q65.8724265 -15.899499999999989 63.90446325 -13.931536749999985 Q61.9365 -11.963573499999988 61.9365 -9.192999999999987 Q61.9365 -6.422426499999986 63.90446325 -4.454463249999989 Q65.8724265 -2.486499999999987 68.643 -2.486499999999987 Z"/></g><g id="Ultralight-S" transform="matrix(1 0 0 1 517.792 696)"><path d="M68.65463775 0.07775000000001242 Q64.796625 0.07775000000001242 62.0844375 -2.6262516249999877 Q59.37225 -5.330154624999988 59.37225 -9.192999999999987 Q59.37225 -10.107549624999987 59.520187500000006 -10.883037999999988 Q59.668125 -11.658624999999986 59.964000000000006 -12.644874999999988 L32.94075 -29.312499999999986 Q31.757250000000003 -27.537249999999986 29.947086750000004 -26.748249999999985 Q28.136923499999998 -25.95924999999999 26.037000000000003 -25.95924999999999 Q22.174154625 -25.95924999999999 19.470251625 -28.65979974999999 Q16.76625 -31.360448124999984 16.76625 -35.21836224999999 Q16.76625 -39.07637499999999 19.470251625 -41.78856249999999 Q22.174154625 -44.50074999999999 26.037000000000003 -44.50074999999999 Q28.108125 -44.50074999999999 29.9326875 -43.66243749999999 Q31.757250000000003 -42.82412499999999 32.94075 -41.14749999999999 L59.964000000000006 -57.815124999999995 Q59.668125 -58.80137499999999 59.520187500000006 -59.576961999999995 Q59.37225 -60.35245037499999 59.37225 -61.266999999999996 Q59.37225 -65.12984537499999 62.072799749999994 -67.83374837499998 Q64.773448125 -70.53774999999999 68.63136225 -70.53774999999999 Q72.48937500000001 -70.53774999999999 75.20156250000001 -67.83720025 Q77.91375000000001 -65.136551875 77.91375000000001 -61.27863775 Q77.91375000000001 -57.42062499999999 75.209748375 -54.70843749999999 Q72.505845375 -51.99624999999999 68.643 -51.99624999999999 Q66.5430765 -51.99624999999999 64.73291325000001 -52.78524999999999 Q62.92275 -53.57424999999999 61.739250000000006 -55.34949999999999 L34.716 -38.68187499999999 Q35.011875 -37.695624999999986 35.1598125 -36.92704037499999 Q35.30775 -36.15845574999999 35.30775 -35.25041537499999 Q35.30775 -34.34237499999999 35.1598125 -33.55337499999999 Q35.011875 -32.76437499999999 34.716 -31.77812499999999 L61.739250000000006 -15.110499999999988 Q62.92275 -16.98437499999999 64.73291325000001 -17.724062499999988 Q66.5430765 -18.463749999999987 68.643 -18.463749999999987 Q72.505845375 -18.463749999999987 75.209748375 -15.763200249999986 Q77.91375000000001 -13.06255187499999 77.91375000000001 -9.204637749999986 Q77.91375000000001 -5.346624999999989 75.21320025000001 -2.6344374999999864 Q72.512551875 0.07775000000001242 68.65463775 0.07775000000001242 Z M68.643 -53.968749999999986 Q71.6412 -53.968749999999986 73.79122500000001 -56.118774999999985 Q75.94125 -58.268799999999985 75.94125 -61.266999999999996 Q75.94125 -64.2652 73.79122500000001 -66.41522499999999 Q71.6412 -68.56524999999999 68.643 -68.56524999999999 Q65.6448 -68.56524999999999 63.494775 -66.41522499999999 Q61.344750000000005 -64.2652 61.344750000000005 -61.266999999999996 Q61.344750000000005 -58.268799999999985 63.494775 -56.118774999999985 Q65.6448 -53.968749999999986 68.643 -53.968749999999986 Z M26.037000000000003 -27.931749999999987 Q29.0352 -27.931749999999987 31.185225 -30.081774999999986 Q33.33525 -32.23179999999999 33.33525 -35.22999999999999 Q33.33525 -38.22819999999999 31.185225 -40.37822499999999 Q29.0352 -42.528249999999986 26.037000000000003 -42.528249999999986 Q23.038800000000002 -42.528249999999986 20.888775000000003 -40.37822499999999 Q18.73875 -38.22819999999999 18.73875 -35.22999999999999 Q18.73875 -32.23179999999999 20.888775000000003 -30.081774999999986 Q23.038800000000002 -27.931749999999987 26.037000000000003 -27.931749999999987 Z M68.643 -1.8947499999999877 Q71.6412 -1.8947499999999877 73.79122500000001 -4.044774999999987 Q75.94125 -6.1947999999999865 75.94125 -9.192999999999987 Q75.94125 -12.191199999999988 73.79122500000001 -14.341224999999987 Q71.6412 -16.491249999999987 68.643 -16.491249999999987 Q65.6448 -16.491249999999987 63.494775 -14.341224999999987 Q61.344750000000005 -12.191199999999988 61.344750000000005 -9.192999999999987 Q61.344750000000005 -6.1947999999999865 63.494775 -4.044774999999987 Q65.6448 -1.8947499999999877 68.643 -1.8947499999999877 Z"/></g></g></svg>