<svg width="59" height="67" viewBox="0 0 59 67" fill="none" xmlns="http://www.w3.org/2000/svg">
<mask id="mask0_14999_2191" style="mask-type:alpha" maskUnits="userSpaceOnUse" x="0" y="0" width="59" height="67">
<rect width="59" height="67" fill="#D9D9D9"/>
</mask>
<g mask="url(#mask0_14999_2191)">
<path d="M31.6195 28.8716C31.5406 28.7229 32.3901 28.6418 32.5411 28.6418C32.7079 28.662 32.0994 29.6603 31.6195 28.8716ZM26.77 21.9489L27.0134 21.8791C27.1576 22.003 26.8511 22.0932 26.8984 22.1856C27.0922 22.5349 26.9458 22.7444 26.9165 22.9337C26.8849 23.1253 26.6821 23.0419 26.5807 23.1433C26.4613 23.292 27.1621 23.3123 27.1711 23.3348C27.1959 23.4092 26.326 23.5354 26.486 23.7202C26.7024 24.0267 28.3429 23.2808 28.0815 23.3236C28.5885 23.0689 28.1469 23.0419 27.8629 22.8954C27.766 22.4109 27.6849 21.6628 27.3829 21.363L27.5812 21.1332C27.117 20.4594 26.77 21.9489 26.77 21.9489ZM56.0831 37.5002C56.0831 52.4339 43.9752 64.5418 29.0415 64.5418C14.1055 64.5418 1.99982 52.4339 1.99982 37.5002C1.99982 22.5664 14.1055 10.4585 29.0415 10.4585C43.9752 10.4585 56.0831 22.5664 56.0831 37.5002ZM37.3568 25.3968C37.3433 25.0678 36.9286 24.7568 36.496 25.3269C36.1917 25.719 36.2458 26.3162 36.0813 26.5821C35.847 26.9764 37.359 27.346 37.359 26.9742C37.4154 26.35 39.0086 26.8322 39.3196 26.9179C39.8784 27.0733 40.7686 26.4086 39.795 26.0593C38.9951 25.7663 38.5737 25.4531 38.5016 24.8807C38.5016 24.8807 38.9252 24.4841 38.7404 24.5066C38.2492 24.5675 37.3568 26.2779 37.3568 25.3968ZM51.5447 37.5002C51.5447 35.1678 51.1458 32.8129 50.7402 31.569C50.6095 31.1769 50.3143 30.8659 49.9312 30.7172C49.3543 30.4919 46.9183 32.0625 46.551 31.2896C46.3098 30.7735 45.8208 31.6186 45.262 31.3076C44.9916 31.1589 44.2389 30.1471 43.8986 30.271C43.2023 30.5212 44.9668 32.4434 45.449 32.6958C45.902 32.3532 47.369 31.6479 47.6845 32.6101C48.2884 34.4219 46.0236 36.4072 44.8654 37.4528C43.1347 39.0167 43.4592 36.441 42.2806 35.5329C41.6609 35.0574 41.6677 34.0456 41.0412 33.6963C40.7618 33.5386 39.4796 32.0625 39.4908 31.8642L39.4525 32.2383C39.2407 32.3983 38.79 31.6344 38.7427 31.5149C38.7427 32.1797 39.8243 33.2388 40.1826 33.7707C40.7933 34.6833 41.1201 36.0129 41.8682 36.7588C42.2694 37.1599 43.8017 38.8184 44.2006 38.7824C44.6355 38.7441 46.0101 37.7503 46.2535 37.8066C47.7047 38.1492 42.8372 45.029 42.3753 45.8808C41.9944 46.5952 42.6863 48.3619 42.6299 49.2069C42.5646 50.1827 41.7961 50.4982 41.0683 51.03C40.2886 51.6001 40.4711 52.7088 39.8153 53.1145C38.6503 53.8311 37.812 56.1634 36.1579 56.1521C35.6712 56.1499 33.589 56.9634 33.3163 56.1679C33.1045 55.591 32.8206 55.1539 32.5208 54.5837C32.2279 54.0249 32.487 53.4457 32.131 52.9522C31.8854 52.6097 31.0606 51.8322 30.9862 51.4266C30.9817 51.0773 31.2499 50.0159 31.6172 49.8312C32.1332 49.5675 31.7164 48.7991 31.6533 48.3529C31.5451 47.5552 31.0516 46.8971 30.4589 46.4352C29.5823 45.7614 30.0353 45.2251 30.2403 44.2628C30.2403 43.8031 29.9609 43.1992 29.3434 43.3795C28.0725 43.749 28.4578 42.3879 27.5317 42.4488C26.8646 42.4961 26.3193 42.9198 25.6996 43.1068C24.9199 43.3412 24.1222 42.922 23.3515 42.8251C20.1808 42.424 19.1465 38.8004 19.9735 36.1864C20.0569 35.7582 19.7166 34.965 19.8653 34.6337C20.2214 33.8405 20.947 32.9504 21.5825 32.3487C21.9385 32.0107 22.396 32.0963 22.8151 31.8327C23.4619 31.4248 23.4709 30.5865 24.1041 30.0727C25.0055 29.3403 26.2359 29.3561 27.4122 29.1984C28.0387 29.115 30.4229 28.5989 30.7992 29.0632C30.7992 29.1488 31.2296 30.4243 30.7564 30.3521C31.7321 30.404 33.1225 32.04 34.0487 31.6569C34.5242 31.4586 34.3507 29.9984 35.3264 30.7037C35.9168 31.1273 38.5624 31.3166 39.1122 30.8592C39.4503 30.5798 39.6396 28.7634 39.2294 28.5584C39.4908 28.8175 37.8526 28.8378 37.6993 28.7792C37.4289 28.6801 37.1765 29.0361 36.7416 28.8356C37.003 28.9595 35.2859 28.0378 36.2503 27.3325C35.847 27.6277 35.4706 27.2491 35.0357 27.5736C34.736 27.817 35.1754 27.9792 34.7473 28.1911C34.0667 28.5358 33.5529 27.008 33.296 26.8345C33.0346 26.6632 31.011 25.2435 31.5609 26.1697L33.3389 27.9387C33.251 27.995 32.8724 27.2942 32.8724 27.8057C32.9918 27.5015 32.9175 29.1105 32.638 28.5877C32.5141 28.3871 32.8408 28.2744 32.6515 27.9837C32.6515 27.7922 32.1378 27.6052 32.0386 27.4745C31.7569 27.1252 31.0088 26.3545 30.6031 26.1697C30.4905 26.1179 28.8815 26.3658 28.7463 26.4176C28.5885 26.6384 28.4533 26.8705 28.3429 27.1184C28.0094 27.2424 27.6962 27.4024 27.3987 27.6007L27.0449 28.3961C26.8917 28.5336 25.321 29.0519 25.312 29.0722C25.3773 28.9032 24.2145 28.6868 24.2912 28.3488C24.3768 27.977 24.7712 26.8165 24.6697 26.3928C24.5616 25.9489 27.09 27.0328 27.2522 25.8632C27.3176 25.3562 27.3559 24.7658 26.5469 24.6802C26.7001 24.6982 28.1131 24.1258 28.3474 23.8689C28.6764 23.4903 29.4313 22.8729 29.9789 22.8729C30.6189 22.8729 30.4815 21.9422 30.7767 21.487C31.0719 21.6064 30.6189 22.3343 30.9727 22.6295C30.9502 22.3974 31.9755 22.7579 32.0747 22.7039C32.309 22.5822 33.616 22.6543 33.4132 22.0413C33.1879 21.4171 33.5281 21.6019 33.8211 21.4712C33.7715 21.4915 34.5873 20.0763 34.727 20.5405C34.6301 20.0628 33.7783 20.7073 33.4808 20.6825C32.7935 20.6284 33.0842 19.5107 33.3434 19.1839C33.5439 18.9248 32.7958 18.6071 32.7868 19.1028C32.7732 19.8442 32.0837 20.5157 32.2437 21.5005C32.487 22.9855 30.5874 21.1422 30.4206 21.2436C29.7896 21.6267 29.2736 20.7614 29.6003 20.2431C29.9339 19.7135 30.7383 19.7383 31.0696 19.1704C31.304 18.7693 31.5766 18.3028 31.9372 17.9986C33.1428 16.9868 33.4763 17.7958 34.6774 17.9062C35.8515 18.0144 35.074 18.1857 34.9118 18.6363C34.7563 19.0645 35.5563 19.2177 35.8334 18.8594C35.9912 18.6521 36.3495 18.1316 36.505 17.7462C36.7055 17.246 38.5354 17.3023 37.2576 16.5384C36.4148 16.0358 32.7417 15.024 30.2809 15.024C29.7491 15.024 29.3772 15.6167 28.9716 15.9525C28.1694 16.6172 26.1142 17.922 24.9717 17.5254C23.8022 17.122 21.2986 19.0127 20.8974 19.0262C20.751 19.0352 20.9064 17.5975 21.7042 17.4916C21.3594 17.5434 24.5143 15.8984 24.4286 15.5559C24.325 15.1502 18.1212 17.4082 18.3983 17.8612C18.5313 18.0685 19.0721 18.0685 18.3623 18.5237C17.9567 18.7693 17.524 20.3287 17.1431 20.3287C16.0051 20.8267 15.933 19.3484 14.6666 21.2504L12.652 22.0616C9.65937 25.2413 7.58843 29.2682 6.83802 33.7414C6.80873 33.9194 7.59068 34.2507 7.69209 34.3723C7.94448 34.6743 7.94448 35.9768 8.06842 36.4027C8.3794 37.4799 9.14783 38.0793 9.73599 39.0596C10.083 39.6432 10.6599 41.1192 10.4774 41.7322C10.7208 41.3311 12.8886 43.5688 13.2852 44.0352C14.2181 45.1327 14.937 46.4622 13.4227 47.5484C12.9337 47.8999 14.1663 50.0926 13.5308 50.6311L12.7173 50.8407C11.9151 51.3342 12.2779 52.5443 12.7647 53.0536C16.8615 57.3375 22.6349 60.0101 29.0347 60.0101C41.4671 60.0101 51.5447 49.9326 51.5447 37.5002ZM25.614 23.1748C25.8956 23.0509 26.2742 23.0554 26.3148 22.6791C26.3486 22.3456 26.4139 22.5754 26.4951 22.4537C26.5739 22.3343 26.3441 22.1427 26.2472 22.1247C26.103 22.0932 26.0038 22.2802 25.9114 22.3591L25.7492 22.4019L25.5959 22.5979L25.614 22.7061L25.4179 22.945C25.2264 23.1343 25.4224 23.2582 25.614 23.1748Z" fill="#3BA4DB"/>
<path d="M29.5 2.25C34.311 2.25 38.75 6.06891 38.75 10.9189C38.7499 14.4906 36.8438 16.4933 34.9658 18.6777C33.0895 20.8603 31.0671 23.3806 30.2393 28.1289H28.7607C27.9329 23.3806 25.9105 20.8603 24.0342 18.6777C22.1562 16.4933 20.2501 14.4906 20.25 10.9189C20.25 6.06886 24.6902 2.25 29.5 2.25ZM29.5 8.95801C28.1388 8.95801 27.0627 10.0351 27.0625 11.333C27.0625 12.6309 28.1396 13.708 29.5 13.708C30.8604 13.708 31.9375 12.6309 31.9375 11.333C31.9373 10.0351 30.8612 8.95801 29.5 8.95801Z" fill="#3BA4DB" stroke="white" stroke-width="1.5"/>
</g>
</svg>
