<svg width="14" height="13" viewBox="0 0 14 13" fill="none" xmlns="http://www.w3.org/2000/svg">
<path fill-rule="evenodd" clip-rule="evenodd" d="M1.26165 12.7073C0.871117 12.3168 0.871117 11.6837 1.26165 11.2931L12.2622 0.292889C12.6528 -0.0976293 13.2859 -0.0976297 13.6765 0.292889C14.067 0.683407 14.067 1.31656 13.6765 1.70708L2.67588 12.7073C2.28535 13.0978 1.65218 13.0978 1.26165 12.7073Z" fill="white"/>
<path fill-rule="evenodd" clip-rule="evenodd" d="M13.7071 12.7073C14.0976 12.3168 14.0976 11.6837 13.7071 11.2931L2.70652 0.292889C2.31598 -0.0976293 1.68281 -0.0976297 1.29228 0.292889C0.90175 0.683407 0.90175 1.31656 1.29228 1.70708L12.2929 12.7073C12.6834 13.0978 13.3166 13.0978 13.7071 12.7073Z" fill="white"/>
</svg>
