<svg xmlns="http://www.w3.org/2000/svg" version="1.1" width="3300" height="2000"><g id="Notes"><style>
    text {
      font-family: monospace;
      text-anchor: middle;
    }
    text.emphasis {
      font-weight:bold;
    }
    text.lanchor {
      text-anchor: start;
    }
  </style><rect height="2200" id="artboard" fill="white" width="3300" x="0" y="0"/><line id="" style="fill:none;stroke:black;stroke-width:0.5;" x1="263" x2="3036" y1="292" y2="292"/><text class="lanchor emphasis" transform="matrix(1 0 0 1 263 322)">Weight/Scale Variations</text><text transform="matrix(1 0 0 1 559.711 322)">Ultralight</text><text transform="matrix(1 0 0 1 856.422 322)">Thin</text><text transform="matrix(1 0 0 1 1153.13 322)">Light</text><text transform="matrix(1 0 0 1 1449.84 322)">Regular</text><text transform="matrix(1 0 0 1 1746.56 322)">Medium</text><text transform="matrix(1 0 0 1 2043.27 322)">Semibold</text><text transform="matrix(1 0 0 1 2339.98 322)">Bold</text><text transform="matrix(1 0 0 1 2636.69 322)">Heavy</text><text transform="matrix(1 0 0 1 2933.4 322)">Black</text><text id="template-version" style="text-anchor: end;" transform="matrix(1 0 0 1 3036 1933)">Template v.1.0</text><text class="lanchor" transform="matrix(1 0 0 1 263 726)">Small</text><text class="lanchor" transform="matrix(1 0 0 1 263 1156)">Medium</text><text class="lanchor" transform="matrix(1 0 0 1 263 1586)">Large</text></g><g id="Guides"><g id="H-reference" style="fill:#27AAE1;stroke:none;" transform="matrix(1 0 0 1 339 696)"><path d="M 54.9316 0 L 57.666 0 L 30.5664 -70.459 L 28.0762 -70.459 L 0.976562 0 L 3.66211 0 L 12.9395 -24.4629 L 45.7031 -24.4629 Z M 29.1992 -67.0898 L 29.4434 -67.0898 L 44.8242 -26.709 L 13.8184 -26.709 Z"/></g><line id="Baseline-S" style="fill:none;stroke:#27AAE1;opacity:1;stroke-width:0.577;" x1="263" x2="3036" y1="696" y2="696"/><line id="Capline-S" style="fill:none;stroke:#27AAE1;opacity:1;stroke-width:0.577;" x1="263" x2="3036" y1="625.541" y2="625.541"/><g id="H-reference" style="fill:#27AAE1;stroke:none;" transform="matrix(1 0 0 1 339 1126)"><path d="M 54.9316 0 L 57.666 0 L 30.5664 -70.459 L 28.0762 -70.459 L 0.976562 0 L 3.66211 0 L 12.9395 -24.4629 L 45.7031 -24.4629 Z M 29.1992 -67.0898 L 29.4434 -67.0898 L 44.8242 -26.709 L 13.8184 -26.709 Z"/></g><line id="Baseline-M" style="fill:none;stroke:#27AAE1;opacity:1;stroke-width:0.577;" x1="263" x2="3036" y1="1126" y2="1126"/><line id="Capline-M" style="fill:none;stroke:#27AAE1;opacity:1;stroke-width:0.577;" x1="263" x2="3036" y1="1055.54" y2="1055.54"/><g id="H-reference" style="fill:#27AAE1;stroke:none;" transform="matrix(1 0 0 1 339 1556)"><path d="M 54.9316 0 L 57.666 0 L 30.5664 -70.459 L 28.0762 -70.459 L 0.976562 0 L 3.66211 0 L 12.9395 -24.4629 L 45.7031 -24.4629 Z M 29.1992 -67.0898 L 29.4434 -67.0898 L 44.8242 -26.709 L 13.8184 -26.709 Z"/></g><line id="Baseline-L" style="fill:none;stroke:#27AAE1;opacity:1;stroke-width:0.577;" x1="263" x2="3036" y1="1556" y2="1556"/><line id="Capline-L" style="fill:none;stroke:#27AAE1;opacity:1;stroke-width:0.577;" x1="263" x2="3036" y1="1485.54" y2="1485.54"/><rect height="119.336" id="left-margin" style="fill:darkred;stroke:none;opacity:0.4;" width="12.4512" x="1394.06" y="1030.79"/><rect height="119.336" id="right-margin" style="fill:darkgreen;stroke:none;opacity:0.4;" width="12.4512" x="1502.5112" y="1030.79"/><rect x="1406.5112" y="1045" width="96" height="96" fill="none" stroke="blue" stroke-dasharray="5"/><rect x="1394.06" y="1030.79" width="120.9024" height="119.336" fill="none" stroke="blue"/></g><g id="Symbols"><g id="Bold-L" transform="matrix(1 0 0 1 2266 1556)"><path d="M61.597500000000004 12.983750000000015 V-2.173749999999984 H139.6425 V12.983750000000015 H61.597500000000004 Z M61.597500000000004 -27.65124999999999 V-42.80874999999999 H139.6425 V-27.65124999999999 H61.597500000000004 Z M61.597500000000004 -68.44749999999999 V-83.60499999999999 H139.6425 V-68.44749999999999 H61.597500000000004 Z M28.771031250000004 18.788750000000014 Q23.211937499999998 18.788750000000014 19.26534375 14.955837500000012 Q15.31875 11.122925000000016 15.31875 5.447086250000012 Q15.31875 -0.07749999999998636 19.22728875 -4.028124999999989 Q23.1358275 -7.978749999999984 28.76748375 -7.978749999999984 Q34.39897875 -7.978749999999984 38.16207 -3.9865224999999853 Q41.925000000000004 0.005705000000020277 41.925000000000004 5.611883750000011 Q41.925000000000004 11.085031250000014 38.06096625 14.936971250000013 Q34.19709375 18.788750000000014 28.771031250000004 18.788750000000014 Z M28.771031250000004 -21.846249999999984 Q23.211937499999998 -21.846249999999984 19.26534375 -25.79106999999999 Q15.31875 -29.73605124999999 15.31875 -35.27563374999998 Q15.31875 -40.8153775 19.3038825 -44.71456374999998 Q23.289015 -48.61374999999998 28.848108749999998 -48.61374999999998 Q34.27401 -48.61374999999998 38.099505 -44.668929999999975 Q41.925000000000004 -40.72394874999999 41.925000000000004 -35.18436624999998 Q41.925000000000004 -29.644622499999983 38.06096625 -25.745436249999983 Q34.19709375 -21.846249999999984 28.771031250000004 -21.846249999999984 Z M28.60978125 -62.642499999999984 Q23.117283750000002 -62.642499999999984 19.21793625 -66.58731999999999 Q15.31875 -70.53230124999999 15.31875 -76.07188374999998 Q15.31875 -81.6116275 19.256475000000002 -85.51081374999998 Q23.194200000000002 -89.41 28.68685875 -89.41 Q34.179356250000005 -89.41 38.0520975 -85.46517999999998 Q41.925000000000004 -81.52019874999999 41.925000000000004 -75.98061624999998 Q41.925000000000004 -70.44087249999998 38.01372 -66.54168625 Q34.10227875 -62.642499999999984 28.60978125 -62.642499999999984 Z"/></g><g id="Semibold-L" transform="matrix(1 0 0 1 1970.27 1556)"><path d="M61.2469425 11.791951250000018 V-0.9819512499999803 H137.81973000000002 V11.791951250000018 H61.2469425 Z M61.2469425 -28.843048749999994 V-41.616951249999985 H137.81973000000002 V-28.843048749999994 H61.2469425 Z M61.2469425 -69.63929874999998 V-82.41320125 H137.81973000000002 V-69.63929874999998 H61.2469425 Z M29.5122975 17.667095000000018 Q24.40373625 17.667095000000018 20.7725475 14.168615000000017 Q17.14152 10.669973750000018 17.14152 5.463856250000013 Q17.14152 0.3432012500000141 20.7177225 -3.2570274999999853 Q24.29408625 -6.85709499999998 29.475371250000002 -6.85709499999998 Q34.656495 -6.85709499999998 38.11546875 -3.2001062499999833 Q41.5744425 0.4567212500000153 41.5744425 5.592050000000015 Q41.5744425 10.594347500000012 38.031296250000004 14.130721250000015 Q34.48798875 17.667095000000018 29.5122975 17.667095000000018 Z M29.5122975 -22.967904999999988 Q24.40373625 -22.967904999999988 20.7725475 -26.577486249999993 Q17.14152 -30.187067499999984 17.14152 -35.255799999999994 Q17.14152 -40.32453249999999 20.794316249999998 -43.90831374999998 Q24.44727375 -47.49209499999998 29.555996250000003 -47.49209499999998 Q34.53152625 -47.49209499999998 38.053065000000004 -43.88251374999999 Q41.5744425 -40.27293249999998 41.5744425 -35.204199999999986 Q41.5744425 -30.13546749999999 38.031296250000004 -26.55168624999999 Q34.48798875 -22.967904999999988 29.5122975 -22.967904999999988 Z M29.3510475 -63.76415499999999 Q24.308921249999997 -63.76415499999999 20.72514 -67.37373625 Q17.14152 -70.98331749999998 17.14152 -76.05204999999998 Q17.14152 -81.12078249999999 20.747069999999997 -84.70456374999998 Q24.35245875 -88.28834499999999 29.39474625 -88.28834499999999 Q34.4368725 -88.28834499999999 38.0056575 -84.67876374999999 Q41.5744425 -81.06918249999998 41.5744425 -76.00044999999999 Q41.5744425 -70.93171749999998 37.98388875 -67.34793624999999 Q34.39317375 -63.76415499999999 29.3510475 -63.76415499999999 Z"/></g><g id="Medium-L" transform="matrix(1 0 0 1 1674.31 1556)"><path d="M60.98410500000001 10.897981250000015 V-0.08798124999998436 H136.4526525 V10.897981250000015 H60.98410500000001 Z M60.98410500000001 -29.73701874999999 V-40.72298124999999 H136.4526525 V-29.73701874999999 H60.98410500000001 Z M60.98410500000001 -70.53326874999998 V-81.51923124999999 H136.4526525 V-70.53326874999998 H60.98410500000001 Z M30.06844875 16.825692500000013 Q25.29770625 16.825692500000013 21.9032325 13.577956250000014 Q18.5085975 10.330381250000013 18.5085975 5.4764337500000195 Q18.5085975 0.6586062500000125 21.83583 -2.6784624999999878 Q25.16290125 -6.015692499999986 30.00620625 -6.015692499999986 Q34.849672500000004 -6.015692499999986 38.08063875 -2.610253749999984 Q41.31160500000001 0.7950237500000128 41.31160500000001 5.577215000000017 Q41.31160500000001 10.226213750000014 38.0088825 13.526033750000014 Q34.706160000000004 16.825692500000013 30.06844875 16.825692500000013 Z M30.06844875 -23.80930749999999 Q25.29770625 -23.80930749999999 21.9032325 -27.167338749999985 Q18.5085975 -30.52536999999998 18.5085975 -35.24096499999999 Q18.5085975 -39.95639874999998 21.91242375 -43.30362624999998 Q25.31608875 -46.65069249999999 30.086831250000003 -46.65069249999999 Q34.72470375 -46.65069249999999 38.01807375 -43.29266124999998 Q41.31160500000001 -39.934629999999984 41.31160500000001 -35.21903499999999 Q41.31160500000001 -30.50360124999999 38.0088825 -27.156373749999986 Q34.706160000000004 -23.80930749999999 30.06844875 -23.80930749999999 Z M29.907198750000003 -64.60555749999999 Q25.20289125 -64.60555749999999 21.855825 -67.96358874999999 Q18.5085975 -71.32161999999998 18.5085975 -76.03721499999999 Q18.5085975 -80.75264874999999 21.865016250000004 -84.09987624999998 Q25.22127375 -87.44694249999998 29.92558125 -87.44694249999998 Q34.62988875 -87.44694249999998 37.97066625 -84.08891124999998 Q41.31160500000001 -80.73088 41.31160500000001 -76.01528499999999 Q41.31160500000001 -71.29985124999997 37.961475 -67.95262374999999 Q34.611506250000005 -64.60555749999999 29.907198750000003 -64.60555749999999 Z"/></g><g id="Regular-L" transform="matrix(1 0 0 1 1378.56 1556)"><path d="M60.791250000000005 10.242500000000014 V0.5675000000000168 H135.45000000000002 V10.242500000000014 H60.791250000000005 Z M60.791250000000005 -30.392499999999984 V-40.06749999999998 H135.45000000000002 V-30.392499999999984 H60.791250000000005 Z M60.791250000000005 -71.18874999999998 V-80.86374999999998 H135.45000000000002 V-71.18874999999998 H60.791250000000005 Z M30.47625 16.208750000000016 Q25.9531875 16.208750000000016 22.73221875 13.145000000000014 Q19.51125 10.081250000000018 19.51125 5.485625000000013 Q19.51125 0.8900000000000148 22.655625 -2.254374999999982 Q25.8 -5.3987499999999855 30.395625000000003 -5.3987499999999855 Q34.99125 -5.3987499999999855 38.055 -2.177781249999981 Q41.11875 1.0431875000000161 41.11875 5.566250000000018 Q41.11875 9.95628125000001 37.99259625 13.082596250000016 Q34.86628125 16.208750000000016 30.47625 16.208750000000016 Z M30.47625 -24.426249999999982 Q25.9531875 -24.426249999999982 22.73221875 -27.599811249999988 Q19.51125 -30.773372499999994 19.51125 -35.22999999999999 Q19.51125 -39.686627499999986 22.73221875 -42.86018874999998 Q25.9531875 -46.03374999999998 30.47625 -46.03374999999998 Q34.86628125 -46.03374999999998 37.99259625 -42.86018874999998 Q41.11875 -39.686627499999986 41.11875 -35.22999999999999 Q41.11875 -30.773372499999994 37.99259625 -27.599811249999988 Q34.86628125 -24.426249999999982 30.47625 -24.426249999999982 Z M30.315 -65.22249999999998 Q25.85853375 -65.22249999999998 22.684811250000003 -68.39606124999999 Q19.51125 -71.56962249999998 19.51125 -76.02624999999999 Q19.51125 -80.48287749999999 22.684811250000003 -83.65643874999998 Q25.85853375 -86.82999999999998 30.315 -86.82999999999998 Q34.77146625 -86.82999999999998 37.94518875 -83.65643874999998 Q41.11875 -80.48287749999999 41.11875 -76.02624999999999 Q41.11875 -71.56962249999998 37.94518875 -68.39606124999999 Q34.77146625 -65.22249999999998 30.315 -65.22249999999998 Z"/></g><g id="Light-L" transform="matrix(1 0 0 1 1082.77 1556)"><path d="M62.03174625 8.567918750000018 V1.2497487500000162 H132.22483875 V8.567918750000018 H62.03174625 Z M62.03174625 -31.570914999999985 V-38.889084999999994 H132.22483875 V-31.570914999999985 H62.03174625 Z M62.03174625 -71.80891749999999 V-79.12708749999999 H132.22483875 V-71.80891749999999 H62.03174625 Z M32.0323125 14.099922500000016 Q28.15118625 14.099922500000016 25.41283875 11.456712500000016 Q22.67449125 8.813663750000018 22.67449125 4.92737750000002 Q22.67449125 1.041252500000013 25.367205000000002 -1.6516224999999878 Q28.059918749999998 -4.344336249999991 31.946205000000003 -4.344336249999991 Q35.832491250000004 -4.344336249999991 38.47554 -1.57502874999998 Q41.11875 1.1944400000000144 41.11875 5.039123750000016 Q41.11875 8.750776250000015 38.44957875 11.425268750000015 Q35.7804075 14.099922500000016 32.0323125 14.099922500000016 Z M32.0323125 -26.038911249999984 Q28.15118625 -26.038911249999984 25.41283875 -28.760811249999975 Q22.67449125 -31.482872499999985 22.67449125 -35.22999999999999 Q22.67449125 -38.97712749999998 25.425416249999998 -41.69918874999999 Q28.17634125 -44.421088749999996 32.039407499999996 -44.421088749999996 Q35.7694425 -44.421088749999996 38.44409625 -41.69918874999999 Q41.11875 -38.97712749999998 41.11875 -35.22999999999999 Q41.11875 -31.482872499999985 38.44957875 -28.760811249999975 Q35.7804075 -26.038911249999984 32.0323125 -26.038911249999984 Z M31.86558 -66.27691374999999 Q28.1184525 -66.27691374999999 25.396391250000004 -68.99881374999998 Q22.67449125 -71.72087499999998 22.67449125 -75.46800249999998 Q22.67449125 -79.21512999999997 25.396391250000004 -81.93719125 Q28.1184525 -84.65909124999999 31.896539999999998 -84.65909124999999 Q35.674788750000005 -84.65909124999999 38.39668875 -81.93719125 Q41.11875 -79.21512999999997 41.11875 -75.46800249999998 Q41.11875 -71.72087499999998 38.40055875 -68.99881374999998 Q35.68252875 -66.27691374999999 31.86558 -66.27691374999999 Z"/></g><g id="Thin-L" transform="matrix(1 0 0 1 787.282 1556)"><path d="M63.27208125 6.893498750000013 V1.9318362500000177 H129.0 V6.893498750000013 H63.27208125 Z M63.27208125 -32.74916874999998 V-37.710831249999984 H129.0 V-32.74916874999998 H63.27208125 Z M63.27208125 -72.42908499999999 V-77.39074749999999 H129.0 V-72.42908499999999 H63.27208125 Z M33.58821375 11.991417500000015 Q30.34870125 11.991417500000015 28.092975 9.768908750000016 Q25.83724875 7.546238750000015 25.83724875 4.369291250000018 Q25.83724875 1.1923437500000134 28.0784625 -1.0488699999999866 Q30.31967625 -3.2900837499999867 33.49662375 -3.2900837499999867 Q36.67357125 -3.2900837499999867 38.896080000000005 -0.9722762499999789 Q41.11875 1.3455312500000147 41.11875 4.511997500000014 Q41.11875 7.545271250000013 38.9067225 9.768425000000015 Q36.69453375 11.991417500000015 33.58821375 11.991417500000015 Z M33.58821375 -27.65124999999999 Q30.34870125 -27.65124999999999 28.092975 -29.921649999999985 Q25.83724875 -32.192211249999986 25.83724875 -35.22999999999999 Q25.83724875 -38.26778874999998 28.118291250000002 -40.53834999999998 Q30.39933375 -42.80874999999999 33.60240375 -42.80874999999999 Q36.67260375 -42.80874999999999 38.89559625 -40.53834999999998 Q41.11875 -38.26778874999998 41.11875 -35.22999999999999 Q41.11875 -32.192211249999986 38.9067225 -29.921649999999985 Q36.69453375 -27.65124999999999 33.58821375 -27.65124999999999 Z M33.41599875 -67.33116624999998 Q30.378048749999998 -67.33116624999998 28.107648750000003 -69.60156624999999 Q25.83724875 -71.87196624999999 25.83724875 -74.90991624999998 Q25.83724875 -77.947705 28.107648750000003 -80.21826624999999 Q30.378048749999998 -82.48866625 33.47791875 -82.48866625 Q36.57778875 -82.48866625 38.848349999999996 -80.21826624999999 Q41.11875 -77.947705 41.11875 -74.90991624999998 Q41.11875 -71.87196624999999 38.85609 -69.60156624999999 Q36.593430000000005 -67.33116624999998 33.41599875 -67.33116624999998 Z"/></g><g id="Ultralight-L" transform="matrix(1 0 0 1 491.205 1556)"><path d="M64.01625 5.888750000000016 V2.3412500000000165 H127.065 V5.888750000000016 H64.01625 Z M64.01625 -33.45624999999998 V-37.00374999999998 H127.065 V-33.45624999999998 H64.01625 Z M64.01625 -72.80124999999998 V-76.34874999999998 H127.065 V-72.80124999999998 H64.01625 Z M34.52185125 10.726250000000014 Q31.667403750000002 10.726250000000014 29.701282499999998 8.755936250000019 Q27.735 6.7856225000000165 27.735 4.034375000000011 Q27.735 1.2831275000000133 29.70531375 -0.6871862499999892 Q31.675627499999997 -2.6574999999999847 34.426875 -2.6574999999999847 Q37.1781225 -2.6574999999999847 39.14843625 -0.6105924999999814 Q41.11875 1.4361537500000168 41.11875 4.195625000000014 Q41.11875 6.822065000000016 39.1808475 8.774157500000015 Q37.242945 10.726250000000014 34.52185125 10.726250000000014 Z M34.52185125 -28.61874999999999 Q31.667403750000002 -28.61874999999999 29.701282499999998 -30.61824999999999 Q27.735 -32.61774999999999 27.735 -35.22999999999999 Q27.735 -37.84224999999998 29.73401625 -39.84174999999999 Q31.733193749999998 -41.84124999999999 34.540395000000004 -41.84124999999999 Q37.214565 -41.84124999999999 39.1666575 -39.84174999999999 Q41.11875 -37.84224999999998 41.11875 -35.22999999999999 Q41.11875 -32.61774999999999 39.1808475 -30.61824999999999 Q37.242945 -28.61874999999999 34.52185125 -28.61874999999999 Z M34.34625 -67.96374999999999 Q31.734 -67.96374999999999 29.7345 -69.96324999999999 Q27.735 -71.96274999999999 27.735 -74.57499999999999 Q27.735 -77.18724999999999 29.7345 -79.18674999999999 Q31.734 -81.18624999999999 34.426875 -81.18624999999999 Q37.119749999999996 -81.18624999999999 39.11925 -79.18674999999999 Q41.11875 -77.18724999999999 41.11875 -74.57499999999999 Q41.11875 -71.96274999999999 39.12940875 -69.96324999999999 Q37.139906249999996 -67.96374999999999 34.34625 -67.96374999999999 Z"/></g><g id="Bold-M" transform="matrix(1 0 0 1 2281.8 1126)"><path d="M45.875 2.6450000000000102 V-13.10499999999999 H109.25 V2.6450000000000102 H45.875 Z M45.875 -27.35499999999999 V-43.10499999999999 H109.25 V-27.35499999999999 H45.875 Z M45.875 -57.35499999999999 V-73.10499999999999 H109.25 V-57.35499999999999 H45.875 Z M23.220125 7.39500000000001 Q18.0 7.39500000000001 14.3125 3.6776250000000097 Q10.625 -0.03974999999999085 10.625 -5.25987499999999 Q10.625 -10.47999999999999 14.342375 -14.16749999999999 Q18.05975 -17.85499999999999 23.279875 -17.85499999999999 Q28.5 -17.85499999999999 32.1875 -14.137624999999993 Q35.875 -10.420249999999989 35.875 -5.200124999999989 Q35.875 0.020000000000010232 32.157625 3.7075000000000102 Q28.44025 7.39500000000001 23.220125 7.39500000000001 Z M23.220125 -22.60499999999999 Q18.0 -22.60499999999999 14.3125 -26.322374999999987 Q10.625 -30.03974999999999 10.625 -35.25987499999999 Q10.625 -40.47999999999999 14.342375 -44.16749999999999 Q18.05975 -47.85499999999999 23.279875 -47.85499999999999 Q28.5 -47.85499999999999 32.1875 -44.137624999999986 Q35.875 -40.420249999999996 35.875 -35.20012499999999 Q35.875 -29.97999999999999 32.157625 -26.29249999999999 Q28.44025 -22.60499999999999 23.220125 -22.60499999999999 Z M23.220125 -52.60499999999999 Q18.0 -52.60499999999999 14.3125 -56.322374999999994 Q10.625 -60.039749999999984 10.625 -65.259875 Q10.625 -70.47999999999999 14.342375 -74.16749999999999 Q18.05975 -77.85499999999999 23.279875 -77.85499999999999 Q28.5 -77.85499999999999 32.1875 -74.13762499999999 Q35.875 -70.42025 35.875 -65.20012499999999 Q35.875 -59.97999999999999 32.157625 -56.29249999999999 Q28.44025 -52.60499999999999 23.220125 -52.60499999999999 Z"/></g><g id="Semibold-M" transform="matrix(1 0 0 1 1985.97 1126)"><path d="M45.494625 1.3951250000000108 V-11.855124999999987 H107.40225 V1.3951250000000108 H45.494625 Z M45.494625 -28.604874999999993 V-41.85512499999999 H107.40225 V-28.604874999999993 H45.494625 Z M45.494625 -58.60487499999999 V-71.85512499999999 H107.40225 V-58.60487499999999 H45.494625 Z M23.993875 6.253750000000011 Q19.249875 6.253750000000011 15.8885 2.8755000000000095 Q12.527 -0.5028749999999889 12.527 -5.246874999999989 Q12.527 -9.990874999999988 15.905375 -13.352374999999988 Q19.283625 -16.71374999999999 24.02775 -16.71374999999999 Q28.77175 -16.71374999999999 32.133125 -13.335499999999989 Q35.494625 -9.95712499999999 35.494625 -5.213124999999991 Q35.494625 -0.46912499999999113 32.11625 2.892375000000012 Q28.738 6.253750000000011 23.993875 6.253750000000011 Z M23.993875 -23.74624999999999 Q19.249875 -23.74624999999999 15.8885 -27.12449999999999 Q12.527 -30.50287499999999 12.527 -35.24687499999999 Q12.527 -39.99087499999999 15.905375 -43.352374999999995 Q19.283625 -46.71374999999999 24.02775 -46.71374999999999 Q28.77175 -46.71374999999999 32.133125 -43.335499999999996 Q35.494625 -39.95712499999999 35.494625 -35.21312499999999 Q35.494625 -30.46912499999999 32.11625 -27.10762499999999 Q28.738 -23.74624999999999 23.993875 -23.74624999999999 Z M23.993875 -53.74624999999999 Q19.249875 -53.74624999999999 15.8885 -57.12449999999998 Q12.527 -60.50287499999999 12.527 -65.24687499999999 Q12.527 -69.99087499999999 15.905375 -73.352375 Q19.283625 -76.71374999999999 24.02775 -76.71374999999999 Q28.77175 -76.71374999999999 32.133125 -73.3355 Q35.494625 -69.95712499999999 35.494625 -65.21312499999999 Q35.494625 -60.46912499999999 32.11625 -57.107624999999985 Q28.738 -53.74624999999999 23.993875 -53.74624999999999 Z"/></g><g id="Medium-M" transform="matrix(1 0 0 1 1689.91 1126)"><path d="M45.20925 0.45750000000001023 V-10.91749999999999 H106.016375 V0.45750000000001023 H45.20925 Z M45.20925 -29.54249999999999 V-40.91749999999999 H106.016375 V-29.54249999999999 H45.20925 Z M45.20925 -59.54249999999999 V-70.91749999999999 H106.016375 V-59.54249999999999 H45.20925 Z M24.574375 5.397750000000009 Q20.1875 5.397750000000009 17.070625 2.2737500000000104 Q13.95375 -0.8502499999999884 13.95375 -5.237124999999988 Q13.95375 -9.623999999999988 17.07775 -12.740874999999988 Q20.20175 -15.857749999999989 24.588625 -15.857749999999989 Q28.9755 -15.857749999999989 32.092375 -12.733749999999986 Q35.20925 -9.609749999999991 35.20925 -5.222874999999991 Q35.20925 -0.8359999999999914 32.08525 2.280875000000009 Q28.96125 5.397750000000009 24.574375 5.397750000000009 Z M24.574375 -24.60224999999999 Q20.1875 -24.60224999999999 17.070625 -27.726249999999993 Q13.95375 -30.85024999999999 13.95375 -35.23712499999999 Q13.95375 -39.623999999999995 17.07775 -42.74087499999999 Q20.20175 -45.857749999999996 24.588625 -45.857749999999996 Q28.9755 -45.857749999999996 32.092375 -42.733749999999986 Q35.20925 -39.60974999999999 35.20925 -35.22287499999999 Q35.20925 -30.83599999999999 32.08525 -27.71912499999999 Q28.96125 -24.60224999999999 24.574375 -24.60224999999999 Z M24.574375 -54.602249999999984 Q20.1875 -54.602249999999984 17.070625 -57.72624999999999 Q13.95375 -60.85024999999999 13.95375 -65.23712499999999 Q13.95375 -69.624 17.07775 -72.74087499999999 Q20.20175 -75.85775 24.588625 -75.85775 Q28.9755 -75.85775 32.092375 -72.73374999999999 Q35.20925 -69.60974999999999 35.20925 -65.22287499999999 Q35.20925 -60.835999999999984 32.08525 -57.71912499999999 Q28.96125 -54.602249999999984 24.574375 -54.602249999999984 Z"/></g><g id="Regular-M" transform="matrix(1 0 0 1 1394.06 1126)"><path d="M45.0 -0.22999999999998977 V-10.22999999999999 H105.0 V-0.22999999999998977 H45.0 Z M45.0 -30.22999999999999 V-40.22999999999999 H105.0 V-30.22999999999999 H45.0 Z M45.0 -60.22999999999999 V-70.22999999999999 H105.0 V-60.22999999999999 H45.0 Z M25.0 4.77000000000001 Q20.875 4.77000000000001 17.9375 1.8325000000000102 Q15.0 -1.1049999999999898 15.0 -5.22999999999999 Q15.0 -9.35499999999999 17.9375 -12.29249999999999 Q20.875 -15.22999999999999 25.0 -15.22999999999999 Q29.125 -15.22999999999999 32.0625 -12.29249999999999 Q35.0 -9.35499999999999 35.0 -5.22999999999999 Q35.0 -1.1049999999999898 32.0625 1.8325000000000102 Q29.125 4.77000000000001 25.0 4.77000000000001 Z M25.0 -25.22999999999999 Q20.875 -25.22999999999999 17.9375 -28.16749999999999 Q15.0 -31.10499999999999 15.0 -35.22999999999999 Q15.0 -39.35499999999999 17.9375 -42.29249999999999 Q20.875 -45.22999999999999 25.0 -45.22999999999999 Q29.125 -45.22999999999999 32.0625 -42.29249999999999 Q35.0 -39.35499999999999 35.0 -35.22999999999999 Q35.0 -31.10499999999999 32.0625 -28.16749999999999 Q29.125 -25.22999999999999 25.0 -25.22999999999999 Z M25.0 -55.22999999999999 Q20.875 -55.22999999999999 17.9375 -58.16749999999999 Q15.0 -61.10499999999999 15.0 -65.22999999999999 Q15.0 -69.35499999999999 17.9375 -72.29249999999999 Q20.875 -75.22999999999999 25.0 -75.22999999999999 Q29.125 -75.22999999999999 32.0625 -72.29249999999999 Q35.0 -69.35499999999999 35.0 -65.22999999999999 Q35.0 -61.10499999999999 32.0625 -58.16749999999999 Q29.125 -55.22999999999999 25.0 -55.22999999999999 Z"/></g><g id="Light-M" transform="matrix(1 0 0 1 1098.18 1126)"><path d="M46.538625 -1.4801249999999904 V-8.979874999999993 H102.499875 V-1.4801249999999904 H46.538625 Z M46.538625 -31.480124999999987 V-38.97987499999999 H102.499875 V-31.480124999999987 H46.538625 Z M46.538625 -61.48012499999999 V-68.97987499999999 H102.499875 V-61.48012499999999 H46.538625 Z M25.817375 3.087125000000011 Q22.3865 3.087125000000011 19.943375 0.644000000000009 Q17.500125 -1.7991249999999894 17.500125 -5.22999999999999 Q17.500125 -8.66087499999999 19.943375 -11.103999999999992 Q22.3865 -13.547124999999987 25.817375 -13.547124999999987 Q29.24825 -13.547124999999987 31.691375 -11.103999999999992 Q34.1345 -8.66087499999999 34.1345 -5.22999999999999 Q34.1345 -1.7991249999999894 31.691375 0.644000000000009 Q29.24825 3.087125000000011 25.817375 3.087125000000011 Z M25.817375 -26.912874999999993 Q22.3865 -26.912874999999993 19.943375 -29.355999999999987 Q17.500125 -31.79912499999999 17.500125 -35.22999999999999 Q17.500125 -38.66087499999999 19.943375 -41.103999999999985 Q22.3865 -43.547124999999994 25.817375 -43.547124999999994 Q29.24825 -43.547124999999994 31.691375 -41.103999999999985 Q34.1345 -38.66087499999999 34.1345 -35.22999999999999 Q34.1345 -31.79912499999999 31.691375 -29.355999999999987 Q29.24825 -26.912874999999993 25.817375 -26.912874999999993 Z M25.817375 -56.912874999999985 Q22.3865 -56.912874999999985 19.943375 -59.355999999999995 Q17.500125 -61.79912499999999 17.500125 -65.22999999999999 Q17.500125 -68.66087499999999 19.943375 -71.10399999999998 Q22.3865 -73.547125 25.817375 -73.547125 Q29.24825 -73.547125 31.691375 -71.10399999999998 Q34.1345 -68.66087499999999 34.1345 -65.22999999999999 Q34.1345 -61.79912499999999 31.691375 -59.355999999999995 Q29.24825 -56.912874999999985 25.817375 -56.912874999999985 Z"/></g><g id="Thin-M" transform="matrix(1 0 0 1 802.565 1126)"><path d="M48.076875 -2.7299999999999898 V-7.72999999999999 H100.0 V-2.7299999999999898 H48.076875 Z M48.076875 -32.72999999999999 V-37.72999999999999 H100.0 V-32.72999999999999 H48.076875 Z M48.076875 -62.72999999999999 V-67.72999999999999 H100.0 V-62.72999999999999 H48.076875 Z M26.634625 1.40462500000001 Q23.897875 1.40462500000001 21.948875 -0.544249999999991 Q20.0 -2.493249999999989 20.0 -5.22999999999999 Q20.0 -7.9667499999999905 21.948875 -9.915749999999989 Q23.897875 -11.86462499999999 26.634625 -11.86462499999999 Q29.371375 -11.86462499999999 31.320375 -9.915749999999989 Q33.26925 -7.9667499999999905 33.26925 -5.22999999999999 Q33.26925 -2.493249999999989 31.320375 -0.544249999999991 Q29.371375 1.40462500000001 26.634625 1.40462500000001 Z M26.634625 -28.59537499999999 Q23.897875 -28.59537499999999 21.948875 -30.54424999999999 Q20.0 -32.49324999999999 20.0 -35.22999999999999 Q20.0 -37.96674999999999 21.948875 -39.91574999999999 Q23.897875 -41.86462499999999 26.634625 -41.86462499999999 Q29.371375 -41.86462499999999 31.320375 -39.91574999999999 Q33.26925 -37.96674999999999 33.26925 -35.22999999999999 Q33.26925 -32.49324999999999 31.320375 -30.54424999999999 Q29.371375 -28.59537499999999 26.634625 -28.59537499999999 Z M26.634625 -58.59537499999999 Q23.897875 -58.59537499999999 21.948875 -60.54424999999999 Q20.0 -62.49324999999999 20.0 -65.22999999999999 Q20.0 -67.96674999999999 21.948875 -69.91574999999999 Q23.897875 -71.86462499999999 26.634625 -71.86462499999999 Q29.371375 -71.86462499999999 31.320375 -69.91574999999999 Q33.26925 -67.96674999999999 33.26925 -65.22999999999999 Q33.26925 -62.49324999999999 31.320375 -60.54424999999999 Q29.371375 -58.59537499999999 26.634625 -58.59537499999999 Z"/></g><g id="Ultralight-M" transform="matrix(1 0 0 1 506.415 1126)"><path d="M49.0 -3.4799999999999898 V-6.97999999999999 H98.5 V-3.4799999999999898 H49.0 Z M49.0 -33.47999999999999 V-36.97999999999999 H98.5 V-33.47999999999999 H49.0 Z M49.0 -63.47999999999999 V-66.97999999999999 H98.5 V-63.47999999999999 H49.0 Z M27.125 0.39500000000001023 Q24.80475 0.39500000000001023 23.152375 -1.257374999999989 Q21.5 -2.9097499999999883 21.5 -5.22999999999999 Q21.5 -7.550249999999991 23.152375 -9.20262499999999 Q24.80475 -10.85499999999999 27.125 -10.85499999999999 Q29.44525 -10.85499999999999 31.097625 -9.20262499999999 Q32.75 -7.550249999999991 32.75 -5.22999999999999 Q32.75 -2.9097499999999883 31.097625 -1.257374999999989 Q29.44525 0.39500000000001023 27.125 0.39500000000001023 Z M27.125 -29.60499999999999 Q24.80475 -29.60499999999999 23.152375 -31.25737499999999 Q21.5 -32.90974999999999 21.5 -35.22999999999999 Q21.5 -37.55024999999999 23.152375 -39.20262499999999 Q24.80475 -40.85499999999999 27.125 -40.85499999999999 Q29.44525 -40.85499999999999 31.097625 -39.20262499999999 Q32.75 -37.55024999999999 32.75 -35.22999999999999 Q32.75 -32.90974999999999 31.097625 -31.25737499999999 Q29.44525 -29.60499999999999 27.125 -29.60499999999999 Z M27.125 -59.60499999999999 Q24.80475 -59.60499999999999 23.152375 -61.257374999999996 Q21.5 -62.90974999999999 21.5 -65.22999999999999 Q21.5 -67.55024999999999 23.152375 -69.20262499999998 Q24.80475 -70.85499999999999 27.125 -70.85499999999999 Q29.44525 -70.85499999999999 31.097625 -69.20262499999998 Q32.75 -67.55024999999999 32.75 -65.22999999999999 Q32.75 -62.90974999999999 31.097625 -61.257374999999996 Q29.44525 -59.60499999999999 27.125 -59.60499999999999 Z"/></g><g id="Bold-S" transform="matrix(1 0 0 1 2294.23 696)"><path d="M36.195375 -9.291624999999986 V-20.929374999999986 H83.83125 V-9.291624999999986 H36.195375 Z M36.195375 -29.41112499999999 V-41.04887499999999 H83.83125 V-29.41112499999999 H36.195375 Z M36.195375 -49.530624999999986 V-61.16837499999998 H83.83125 V-49.530624999999986 H36.195375 Z M19.877770125 -5.938374999999986 Q16.075875 -5.938374999999986 13.413 -8.645729874999986 Q10.750125 -11.353183374999986 10.750125 -15.154979874999988 Q10.750125 -18.95687499999999 13.457479875 -21.61974999999999 Q16.164933375 -24.28262499999999 19.966729875 -24.28262499999999 Q23.768625 -24.28262499999999 26.4315 -21.57527012499999 Q29.094375000000003 -18.867816624999985 29.094375000000003 -15.066020124999984 Q29.094375000000003 -11.264124999999986 26.387020125 -8.601249999999986 Q23.679566625000003 -5.938374999999986 19.877770125 -5.938374999999986 Z M19.877770125 -26.05787499999999 Q16.075875 -26.05787499999999 13.413 -28.76522987499999 Q10.750125 -31.47268337499999 10.750125 -35.27447987499999 Q10.750125 -39.07637499999999 13.457479875 -41.73924999999999 Q16.164933375 -44.40212499999999 19.966729875 -44.40212499999999 Q23.768625 -44.40212499999999 26.4315 -41.694770124999984 Q29.094375000000003 -38.987316624999984 29.094375000000003 -35.18552012499999 Q29.094375000000003 -31.383624999999988 26.387020125 -28.72074999999999 Q23.679566625000003 -26.05787499999999 19.877770125 -26.05787499999999 Z M19.877770125 -46.17737499999999 Q16.075875 -46.17737499999999 13.413 -48.88472987499999 Q10.750125 -51.59218337499999 10.750125 -55.393979874999985 Q10.750125 -59.19587499999999 13.457479875 -61.858749999999986 Q16.164933375 -64.52162499999999 19.966729875 -64.52162499999999 Q23.768625 -64.52162499999999 26.4315 -61.81427012499999 Q29.094375000000003 -59.10681662499999 29.094375000000003 -55.305020124999984 Q29.094375000000003 -51.50312499999999 26.387020125 -48.84024999999999 Q23.679566625000003 -46.17737499999999 19.877770125 -46.17737499999999 Z"/></g><g id="Semibold-S" transform="matrix(1 0 0 1 1998.1 696)"><path d="M35.895259125 -10.277776374999988 V-19.943223624999987 H82.37337525 V-10.277776374999988 H35.895259125 Z M35.895259125 -30.39727637499999 V-40.06272362499999 H82.37337525 V-30.39727637499999 H35.895259125 Z M35.895259125 -50.51677637499999 V-60.18222362499999 H82.37337525 V-50.51677637499999 H35.895259125 Z M20.488258875 -6.838821249999988 Q17.062026375 -6.838821249999988 14.656464000000001 -9.278705124999988 Q12.250803 -11.718588999999987 12.250803 -15.144722874999985 Q12.250803 -18.570955374999986 14.690686875000003 -20.976616374999985 Q17.13057075 -23.382178749999987 20.55680325 -23.382178749999987 Q23.983035750000003 -23.382178749999987 26.388598125 -20.942294874999988 Q28.794259125 -18.502410999999988 28.794259125 -15.07627712499999 Q28.794259125 -11.650044624999989 26.354375250000004 -9.244383624999987 Q23.914491375 -6.838821249999988 20.488258875 -6.838821249999988 Z M20.488258875 -26.95832124999999 Q17.062026375 -26.95832124999999 14.656464000000001 -29.39820512499999 Q12.250803 -31.83808899999999 12.250803 -35.26422287499999 Q12.250803 -38.690455374999985 14.690686875000003 -41.096116374999994 Q17.13057075 -43.50167874999999 20.55680325 -43.50167874999999 Q23.983035750000003 -43.50167874999999 26.388598125 -41.06179487499998 Q28.794259125 -38.621911 28.794259125 -35.19577712499999 Q28.794259125 -31.769544624999988 26.354375250000004 -29.363883624999993 Q23.914491375 -26.95832124999999 20.488258875 -26.95832124999999 Z M20.488258875 -47.077821249999985 Q17.062026375 -47.077821249999985 14.656464000000001 -49.51770512499999 Q12.250803 -51.957588999999984 12.250803 -55.38372287499999 Q12.250803 -58.80995537499999 14.690686875000003 -61.215616374999996 Q17.13057075 -63.621178749999984 20.55680325 -63.621178749999984 Q23.983035750000003 -63.621178749999984 26.388598125 -61.18129487499999 Q28.794259125 -58.741411 28.794259125 -55.315277124999994 Q28.794259125 -51.88904462499999 26.354375250000004 -49.48338362499999 Q23.914491375 -47.077821249999985 20.488258875 -47.077821249999985 Z"/></g><g id="Medium-S" transform="matrix(1 0 0 1 1701.85 696)"><path d="M35.67009825 -11.017562499999986 V-19.20343749999999 H81.279919875 V-11.017562499999986 H35.67009825 Z M35.67009825 -31.137062499999985 V-39.32293749999999 H81.279919875 V-31.137062499999985 H35.67009825 Z M35.67009825 -51.25656249999999 V-59.44243749999998 H81.279919875 V-51.25656249999999 H35.67009825 Z M20.946273375 -7.514205249999989 Q17.8018125 -7.514205249999989 15.589160625 -9.753387249999985 Q13.37650875 -11.992667874999988 13.37650875 -15.137128749999984 Q13.37650875 -18.281490999999985 15.615789375000002 -20.494142874999987 Q17.854971374999998 -22.706794749999986 20.99943225 -22.706794749999986 Q24.143794500000002 -22.706794749999986 26.356446374999997 -20.467612749999986 Q28.56909825 -18.228332124999987 28.56909825 -15.08387124999999 Q28.56909825 -11.93950899999999 26.329916250000004 -9.726857124999988 Q24.090635625 -7.514205249999989 20.946273375 -7.514205249999989 Z M20.946273375 -27.63370524999999 Q17.8018125 -27.63370524999999 15.589160625 -29.87288724999999 Q13.37650875 -32.11216787499999 13.37650875 -35.25662874999999 Q13.37650875 -38.40099099999999 15.615789375000002 -40.61364287499999 Q17.854971374999998 -42.826294749999995 20.99943225 -42.826294749999995 Q24.143794500000002 -42.826294749999995 26.356446374999997 -40.58711274999999 Q28.56909825 -38.34783212499999 28.56909825 -35.20337124999999 Q28.56909825 -32.05900899999999 26.329916250000004 -29.84635712499999 Q24.090635625 -27.63370524999999 20.946273375 -27.63370524999999 Z M20.946273375 -47.753205249999986 Q17.8018125 -47.753205249999986 15.589160625 -49.99238724999999 Q13.37650875 -52.231667874999985 13.37650875 -55.37612874999999 Q13.37650875 -58.52049099999999 15.615789375000002 -60.733142874999984 Q17.854971374999998 -62.94579474999999 20.99943225 -62.94579474999999 Q24.143794500000002 -62.94579474999999 26.356446374999997 -60.70661274999999 Q28.56909825 -58.467332125 28.56909825 -55.32287124999999 Q28.56909825 -52.17850899999999 26.329916250000004 -49.96585712499999 Q24.090635625 -47.753205249999986 20.946273375 -47.753205249999986 Z"/></g><g id="Regular-S" transform="matrix(1 0 0 1 1405.73 696)"><path d="M35.505 -11.559999999999988 V-18.660999999999987 H80.47800000000001 V-11.559999999999988 H35.505 Z M35.505 -31.67949999999999 V-38.78049999999999 H80.47800000000001 V-31.67949999999999 H35.505 Z M35.505 -51.79899999999999 V-58.89999999999999 H80.47800000000001 V-51.79899999999999 H35.505 Z M21.282091500000003 -8.009499999999989 Q18.344250000000002 -8.009499999999989 16.273125 -10.101533499999988 Q14.202 -12.193665624999987 14.202 -15.131408499999985 Q14.202 -18.069249999999986 16.2940335 -20.140374999999985 Q18.386165625 -22.211499999999987 21.323908499999998 -22.211499999999987 Q24.261750000000003 -22.211499999999987 26.332875 -20.119466499999987 Q28.404 -18.027334374999988 28.404 -15.08959149999999 Q28.404 -12.15174999999999 26.3119665 -10.080624999999987 Q24.219834375 -8.009499999999989 21.282091500000003 -8.009499999999989 Z M21.282091500000003 -28.12899999999999 Q18.344250000000002 -28.12899999999999 16.273125 -30.22103349999999 Q14.202 -32.31316562499999 14.202 -35.25090849999999 Q14.202 -38.18874999999999 16.2940335 -40.25987499999999 Q18.386165625 -42.33099999999999 21.323908499999998 -42.33099999999999 Q24.261750000000003 -42.33099999999999 26.332875 -40.23896649999999 Q28.404 -38.14683437499999 28.404 -35.20909149999999 Q28.404 -32.27124999999999 26.3119665 -30.200124999999986 Q24.219834375 -28.12899999999999 21.282091500000003 -28.12899999999999 Z M21.282091500000003 -48.248499999999986 Q18.344250000000002 -48.248499999999986 16.273125 -50.340533499999985 Q14.202 -52.432665624999984 14.202 -55.37040849999998 Q14.202 -58.30824999999999 16.2940335 -60.379374999999996 Q18.386165625 -62.45049999999999 21.323908499999998 -62.45049999999999 Q24.261750000000003 -62.45049999999999 26.332875 -60.35846649999999 Q28.404 -58.266334375 28.404 -55.32859149999999 Q28.404 -52.39074999999998 26.3119665 -50.31962499999999 Q24.219834375 -48.248499999999986 21.282091500000003 -48.248499999999986 Z"/></g><g id="Light-S" transform="matrix(1 0 0 1 1109.75 696)"><path d="M36.71897512500001 -12.54634862499999 V-17.67465137499999 H78.505401375 V-12.54634862499999 H36.71897512500001 Z M36.71897512500001 -32.66584862499999 V-37.79415137499999 H78.505401375 V-32.66584862499999 H36.71897512500001 Z M36.71897512500001 -52.78534862499998 V-57.913651374999986 H78.505401375 V-52.78534862499998 H36.71897512500001 Z M21.927000375000002 -9.337288374999986 Q19.5368235 -9.337288374999986 17.855760375 -11.039259999999988 Q16.174598625 -12.741330249999987 16.174598625 -15.131408499999985 Q16.174598625 -17.521585374999987 17.876668875 -19.202648499999988 Q19.578739125000002 -20.883711624999982 21.968817375 -20.883711624999982 Q24.35899425 -20.883711624999982 26.040057375 -19.181739999999984 Q27.721120500000005 -17.479669749999985 27.721120500000005 -15.08959149999999 Q27.721120500000005 -12.699414624999989 26.019148875000003 -11.018351499999987 Q24.317078625 -9.337288374999986 21.927000375000002 -9.337288374999986 Z M21.927000375000002 -29.456788374999988 Q19.5368235 -29.456788374999988 17.855760375 -31.158759999999994 Q16.174598625 -32.86083024999999 16.174598625 -35.25090849999999 Q16.174598625 -37.64108537499999 17.876668875 -39.32214849999998 Q19.578739125000002 -41.00321162499999 21.968817375 -41.00321162499999 Q24.35899425 -41.00321162499999 26.040057375 -39.301239999999986 Q27.721120500000005 -37.59916974999999 27.721120500000005 -35.20909149999999 Q27.721120500000005 -32.81891462499999 26.019148875000003 -31.13785149999999 Q24.317078625 -29.456788374999988 21.927000375000002 -29.456788374999988 Z M21.927000375000002 -49.57628837499998 Q19.5368235 -49.57628837499998 17.855760375 -51.27825999999999 Q16.174598625 -52.98033024999998 16.174598625 -55.37040849999998 Q16.174598625 -57.76058537499999 17.876668875 -59.441648499999985 Q19.578739125000002 -61.122711624999994 21.968817375 -61.122711624999994 Q24.35899425 -61.122711624999994 26.040057375 -59.42073999999998 Q27.721120500000005 -57.71866974999999 27.721120500000005 -55.32859149999999 Q27.721120500000005 -52.93841462499999 26.019148875000003 -51.25735149999999 Q24.317078625 -49.57628837499998 21.927000375000002 -49.57628837499998 Z"/></g><g id="Thin-S" transform="matrix(1 0 0 1 814.015 696)"><path d="M37.932654375000006 -13.532499999999988 V-16.688499999999987 H76.533 V-13.532499999999988 H37.932654375000006 Z M37.932654375000006 -33.65199999999999 V-36.807999999999986 H76.533 V-33.65199999999999 H37.932654375000006 Z M37.932654375000006 -53.77149999999999 V-56.927499999999995 H76.533 V-53.77149999999999 H37.932654375000006 Z M22.571712 -10.664780874999988 Q20.729298375 -10.664780874999988 19.438099875000002 -11.976887874999989 Q18.147000000000002 -13.288896249999986 18.147000000000002 -15.131408499999985 Q18.147000000000002 -16.973920749999987 19.459107 -18.265119249999987 Q20.771115375 -19.556219124999988 22.613627625 -19.556219124999988 Q24.456139875 -19.556219124999988 25.747338374999998 -18.24411212499999 Q27.038438250000002 -16.93210374999999 27.038438250000002 -15.08959149999999 Q27.038438250000002 -13.247079249999988 25.726331250000005 -11.955880749999988 Q24.41422425 -10.664780874999988 22.571712 -10.664780874999988 Z M22.571712 -30.784280874999986 Q20.729298375 -30.784280874999986 19.438099875000002 -32.096387874999984 Q18.147000000000002 -33.40839624999999 18.147000000000002 -35.25090849999999 Q18.147000000000002 -37.093420749999986 19.459107 -38.384619249999986 Q20.771115375 -39.675719124999986 22.613627625 -39.675719124999986 Q24.456139875 -39.675719124999986 25.747338374999998 -38.36361212499999 Q27.038438250000002 -37.05160374999999 27.038438250000002 -35.20909149999999 Q27.038438250000002 -33.36657924999999 25.726331250000005 -32.07538074999999 Q24.41422425 -30.784280874999986 22.571712 -30.784280874999986 Z M22.571712 -50.90378087499999 Q20.729298375 -50.90378087499999 19.438099875000002 -52.21588787499999 Q18.147000000000002 -53.52799487499999 18.147000000000002 -55.37040849999998 Q18.147000000000002 -57.212920749999995 19.459107 -58.50411924999999 Q20.771115375 -59.79521912499999 22.613627625 -59.79521912499999 Q24.456139875 -59.79521912499999 25.747338374999998 -58.48311212499999 Q27.038438250000002 -57.17100512499999 27.038438250000002 -55.32859149999999 Q27.038438250000002 -53.48607924999999 25.726331250000005 -52.194880749999996 Q24.41422425 -50.90378087499999 22.571712 -50.90378087499999 Z"/></g><g id="Ultralight-S" transform="matrix(1 0 0 1 517.792 696)"><path d="M38.661 -14.124249999999986 V-16.096749999999986 H75.3495 V-14.124249999999986 H38.661 Z M38.661 -34.24374999999999 V-36.21624999999999 H75.3495 V-34.24374999999999 H38.661 Z M38.661 -54.363249999999994 V-56.33574999999999 H75.3495 V-54.363249999999994 H38.661 Z M22.9587165 -11.461374999999986 Q21.44482275 -11.461374999999986 20.387661375 -12.53944487499999 Q19.3305 -13.617514749999991 19.3305 -15.131408499999985 Q19.3305 -16.64530224999999 20.408569875 -17.70246362499999 Q21.486639750000002 -18.75962499999999 23.0005335 -18.75962499999999 Q24.51442725 -18.75962499999999 25.571588625 -17.68155512499999 Q26.62875 -16.603485249999984 26.62875 -15.08959149999999 Q26.62875 -13.575697749999986 25.550680125000003 -12.518536374999986 Q24.472610250000002 -11.461374999999986 22.9587165 -11.461374999999986 Z M22.9587165 -31.580874999999992 Q21.44482275 -31.580874999999992 20.387661375 -32.65894487499999 Q19.3305 -33.73701474999999 19.3305 -35.25090849999999 Q19.3305 -36.76480224999999 20.408569875 -37.82196362499999 Q21.486639750000002 -38.87912499999999 23.0005335 -38.87912499999999 Q24.51442725 -38.87912499999999 25.571588625 -37.80105512499999 Q26.62875 -36.72298524999999 26.62875 -35.20909149999999 Q26.62875 -33.695197749999984 25.550680125000003 -32.638036374999984 Q24.472610250000002 -31.580874999999992 22.9587165 -31.580874999999992 Z M22.9587165 -51.70037499999999 Q21.44482275 -51.70037499999999 20.387661375 -52.77844487499999 Q19.3305 -53.85651474999999 19.3305 -55.37040849999998 Q19.3305 -56.88430224999999 20.408569875 -57.94146362499998 Q21.486639750000002 -58.99862499999999 23.0005335 -58.99862499999999 Q24.51442725 -58.99862499999999 25.571588625 -57.92055512499998 Q26.62875 -56.842485249999996 26.62875 -55.32859149999999 Q26.62875 -53.81469774999999 25.550680125000003 -52.757536375 Q24.472610250000002 -51.70037499999999 22.9587165 -51.70037499999999 Z"/></g></g></svg>