<svg xmlns="http://www.w3.org/2000/svg" version="1.1" width="3300" height="2000"><g id="Notes"><style>
    text {
      font-family: monospace;
      text-anchor: middle;
    }
    text.emphasis {
      font-weight:bold;
    }
    text.lanchor {
      text-anchor: start;
    }
  </style><rect height="2200" id="artboard" fill="white" width="3300" x="0" y="0"/><line id="" style="fill:none;stroke:black;stroke-width:0.5;" x1="263" x2="3036" y1="292" y2="292"/><text class="lanchor emphasis" transform="matrix(1 0 0 1 263 322)">Weight/Scale Variations</text><text transform="matrix(1 0 0 1 559.711 322)">Ultralight</text><text transform="matrix(1 0 0 1 856.422 322)">Thin</text><text transform="matrix(1 0 0 1 1153.13 322)">Light</text><text transform="matrix(1 0 0 1 1449.84 322)">Regular</text><text transform="matrix(1 0 0 1 1746.56 322)">Medium</text><text transform="matrix(1 0 0 1 2043.27 322)">Semibold</text><text transform="matrix(1 0 0 1 2339.98 322)">Bold</text><text transform="matrix(1 0 0 1 2636.69 322)">Heavy</text><text transform="matrix(1 0 0 1 2933.4 322)">Black</text><text id="template-version" style="text-anchor: end;" transform="matrix(1 0 0 1 3036 1933)">Template v.1.0</text><text class="lanchor" transform="matrix(1 0 0 1 263 726)">Small</text><text class="lanchor" transform="matrix(1 0 0 1 263 1156)">Medium</text><text class="lanchor" transform="matrix(1 0 0 1 263 1586)">Large</text></g><g id="Guides"><g id="H-reference" style="fill:#27AAE1;stroke:none;" transform="matrix(1 0 0 1 339 696)"><path d="M 54.9316 0 L 57.666 0 L 30.5664 -70.459 L 28.0762 -70.459 L 0.976562 0 L 3.66211 0 L 12.9395 -24.4629 L 45.7031 -24.4629 Z M 29.1992 -67.0898 L 29.4434 -67.0898 L 44.8242 -26.709 L 13.8184 -26.709 Z"/></g><line id="Baseline-S" style="fill:none;stroke:#27AAE1;opacity:1;stroke-width:0.577;" x1="263" x2="3036" y1="696" y2="696"/><line id="Capline-S" style="fill:none;stroke:#27AAE1;opacity:1;stroke-width:0.577;" x1="263" x2="3036" y1="625.541" y2="625.541"/><g id="H-reference" style="fill:#27AAE1;stroke:none;" transform="matrix(1 0 0 1 339 1126)"><path d="M 54.9316 0 L 57.666 0 L 30.5664 -70.459 L 28.0762 -70.459 L 0.976562 0 L 3.66211 0 L 12.9395 -24.4629 L 45.7031 -24.4629 Z M 29.1992 -67.0898 L 29.4434 -67.0898 L 44.8242 -26.709 L 13.8184 -26.709 Z"/></g><line id="Baseline-M" style="fill:none;stroke:#27AAE1;opacity:1;stroke-width:0.577;" x1="263" x2="3036" y1="1126" y2="1126"/><line id="Capline-M" style="fill:none;stroke:#27AAE1;opacity:1;stroke-width:0.577;" x1="263" x2="3036" y1="1055.54" y2="1055.54"/><g id="H-reference" style="fill:#27AAE1;stroke:none;" transform="matrix(1 0 0 1 339 1556)"><path d="M 54.9316 0 L 57.666 0 L 30.5664 -70.459 L 28.0762 -70.459 L 0.976562 0 L 3.66211 0 L 12.9395 -24.4629 L 45.7031 -24.4629 Z M 29.1992 -67.0898 L 29.4434 -67.0898 L 44.8242 -26.709 L 13.8184 -26.709 Z"/></g><line id="Baseline-L" style="fill:none;stroke:#27AAE1;opacity:1;stroke-width:0.577;" x1="263" x2="3036" y1="1556" y2="1556"/><line id="Capline-L" style="fill:none;stroke:#27AAE1;opacity:1;stroke-width:0.577;" x1="263" x2="3036" y1="1485.54" y2="1485.54"/><rect height="119.336" id="left-margin" style="fill:darkred;stroke:none;opacity:0.4;" width="12.4512" x="1394.06" y="1030.79"/><rect height="119.336" id="right-margin" style="fill:darkgreen;stroke:none;opacity:0.4;" width="12.4512" x="1502.5112" y="1030.79"/><rect x="1406.5112" y="1045" width="96" height="96" fill="none" stroke="blue" stroke-dasharray="5"/><rect x="1394.06" y="1030.79" width="120.9024" height="119.336" fill="none" stroke="blue"/></g><g id="Symbols"><g id="Bold-L" transform="matrix(1 0 0 1 2266 1556)"><path d="M77.45418000000001 -23.13624999999999 Q82.56 -23.13624999999999 86.26875 -26.785821249999984 Q89.9775 -30.435231249999987 89.9775 -35.65457124999999 Q89.9775 -40.87374999999999 86.21457 -44.58249999999998 Q82.45147875 -48.29124999999999 77.34582 -48.29124999999999 Q72.24000000000001 -48.29124999999999 68.53125 -44.561053749999985 Q64.8225 -40.83085749999999 64.8225 -35.611678749999996 Q64.8225 -30.392499999999984 68.58543 -26.764374999999987 Q72.34852125 -23.13624999999999 77.45418000000001 -23.13624999999999 Z M77.4 17.982500000000016 Q84.33375000000001 15.402500000000014 91.831875 9.920000000000016 Q99.33 4.437500000000014 103.845 -2.0124999999999886 L90.20325 -15.073749999999983 Q87.23625 -13.622499999999988 83.98528875000001 -12.654999999999987 Q80.73416625 -11.687499999999986 77.4 -11.687499999999986 Q67.4025 -11.687499999999986 60.388125 -18.62124999999999 Q53.37375 -25.554999999999993 53.37375 -35.63312499999999 Q53.37375 -45.71124999999999 60.388125 -52.725624999999994 Q67.4025 -59.73999999999998 77.4 -59.73999999999998 Q87.39750000000001 -59.73999999999998 94.41187500000001 -52.725624999999994 Q101.42625 -45.71124999999999 101.42625 -35.55249999999998 Q101.42625 -32.327499999999986 100.6603125 -29.102499999999992 Q99.894375 -25.877499999999984 98.04 -23.45874999999998 L109.9725 -12.009999999999984 Q113.8425 -18.62124999999999 115.858125 -26.019883749999977 Q117.87375 -33.41851749999999 117.87375 -41.97170124999998 V-72.879295 L77.4 -87.63624999999999 L36.92625 -72.80124999999998 V-42.03007375 Q36.92625 -21.523749999999986 48.294375 -5.237499999999983 Q59.6625 11.048750000000016 77.4 17.982500000000016 Z M77.38984125 33.46250000000002 Q53.06818125 27.365637500000012 37.418385 5.661548750000016 Q21.76875 -16.042378749999983 21.76875 -41.94993249999999 V-83.19574749999998 L77.4 -103.92249999999999 L133.1925 -83.19042624999999 V-42.00249999999998 Q133.1925 -16.07511249999998 117.45192 5.645262500000015 Q101.71150125 27.365637500000012 77.38984125 33.46250000000002 Z"/></g><g id="Semibold-L" transform="matrix(1 0 0 1 1970.27 1556)"><path d="M77.44498875000001 -22.365152499999994 Q82.9105575 -22.365152499999994 86.8295775 -26.215641249999976 Q90.7485975 -30.066129999999987 90.7485975 -35.645218749999984 Q90.7485975 -41.22430749999998 86.78458875 -45.143327499999984 Q82.82074125 -49.06234749999999 77.35501125 -49.06234749999999 Q71.8894425 -49.06234749999999 67.9704225 -45.13123374999999 Q64.05140250000001 -41.200119999999984 64.05140250000001 -35.62103124999999 Q64.05140250000001 -30.04194249999999 68.01541125 -26.203547499999985 Q71.97925875 -22.365152499999994 77.44498875000001 -22.365152499999994 Z M77.4 18.543327500000018 Q84.61416375 15.963327500000016 92.28756750000001 10.445836250000013 Q99.96097125 4.9281837500000165 104.61609750000001 -1.8022299999999873 L90.45560625 -15.354163749999984 Q87.44651999999999 -13.762787499999988 84.125415 -12.725143749999987 Q80.80431 -11.687499999999986 77.4 -11.687499999999986 Q67.4025 -11.687499999999986 60.388125 -18.62124999999999 Q53.37375 -25.554999999999993 53.37375 -35.63312499999999 Q53.37375 -45.71124999999999 60.388125 -52.725624999999994 Q67.4025 -59.73999999999998 77.4 -59.73999999999998 Q87.39750000000001 -59.73999999999998 94.41187500000001 -52.725624999999994 Q101.42625 -45.71124999999999 101.42625 -35.55249999999998 Q101.42625 -32.25735624999999 100.57275375 -28.96221249999998 Q99.71909625 -25.66722999999999 97.75958625 -23.108192499999987 L110.39320125 -11.028471249999988 Q114.26320125000001 -17.780008749999986 116.38396125 -25.577252499999986 Q118.50472125 -33.37449624999998 118.50472125 -41.985085 V-73.36997875 L77.4 -88.33736499999998 L36.29527875 -73.32595749999999 V-42.018141249999985 Q36.29527875 -21.24333624999999 47.80369125 -4.6416812499999835 Q59.31194250000001 11.960135000000012 77.4 18.543327500000018 Z M77.394195 31.639730000000014 Q53.8320225 25.739915000000018 38.67661875 4.533605000000016 Q23.52137625 -16.672866249999984 23.52137625 -41.97282999999999 V-81.97153749999998 L77.4 -102.09973 L131.36973 -81.96847374999999 V-42.00249999999998 Q131.36973 -16.691248749999986 116.16321 4.524252500000017 Q100.95652875 25.739915000000018 77.394195 31.639730000000014 Z"/></g><g id="Medium-L" transform="matrix(1 0 0 1 1674.31 1556)"><path d="M77.43789375 -21.786587499999982 Q83.173395 -21.786587499999982 87.25027875 -25.78800624999998 Q91.3271625 -29.78926374999999 91.3271625 -35.63828499999998 Q91.3271625 -41.487144999999984 87.212385 -45.56402874999999 Q83.0976075 -49.640912499999985 77.36210625 -49.640912499999985 Q71.62660500000001 -49.640912499999985 67.54972125 -45.558868749999974 Q63.472837500000004 -41.47698624999998 63.472837500000004 -35.62796499999999 Q63.472837500000004 -29.779104999999987 67.587615 -25.78284624999999 Q71.7023925 -21.786587499999982 77.43789375 -21.786587499999982 Z M77.4 18.964028750000015 Q84.82443375 16.384028750000013 92.6294175 10.840092500000015 Q100.43424 5.296317500000015 105.1946625 -1.6443662499999832 L90.64491375 -15.564433749999985 Q87.60438375000001 -13.867922499999985 84.23055000000001 -12.777711249999989 Q80.8568775 -11.687499999999986 77.4 -11.687499999999986 Q67.4025 -11.687499999999986 60.388125 -18.62124999999999 Q53.37375 -25.554999999999993 53.37375 -35.63312499999999 Q53.37375 -45.71124999999999 60.388125 -52.725624999999994 Q67.4025 -59.73999999999998 77.4 -59.73999999999998 Q87.39750000000001 -59.73999999999998 94.41187500000001 -52.725624999999994 Q101.42625 -45.71124999999999 101.42625 -35.55249999999998 Q101.42625 -32.20478874999998 100.50696375 -28.85707749999999 Q99.5876775 -25.509366249999985 97.54931625 -22.845354999999984 L110.70860625000002 -10.29236499999999 Q114.57860625 -17.149037499999984 116.77821750000001 -25.245238749999984 Q118.97798999999999 -33.34160124999998 118.97798999999999 -41.99508249999998 V-73.73811249999999 L77.4 -88.86320125 L35.82201 -73.71940749999997 V-42.00911124999999 Q35.82201 -21.033066249999983 47.435557499999994 -4.194696249999986 Q59.049105000000004 12.643673750000012 77.4 18.964028750000015 Z M77.39758125 30.272652500000014 Q54.40494375 24.520542500000015 39.620415 3.687365000000014 Q24.8360475 -17.14581249999999 24.8360475 -41.98992249999999 V-81.05337999999999 L77.4 -100.73265249999997 L130.0026525 -81.05208999999999 V-42.00249999999998 Q130.0026525 -17.15355249999999 115.196355 3.683495000000015 Q100.39021875000002 24.520542500000015 77.39758125 30.272652500000014 Z"/></g><g id="Regular-L" transform="matrix(1 0 0 1 1378.56 1556)"><path d="M77.432895 -21.362499999999983 Q83.36625000000001 -21.362499999999983 87.55875 -25.47437499999998 Q91.75125 -29.586249999999993 91.75125 -35.63312499999999 Q91.75125 -41.67999999999999 87.525855 -45.87249999999999 Q83.30062124999999 -50.06499999999998 77.367105 -50.06499999999998 Q71.43375 -50.06499999999998 67.24125000000001 -45.87249999999999 Q63.04875 -41.67999999999999 63.04875 -35.63312499999999 Q63.04875 -29.586249999999993 67.274145 -25.47437499999998 Q71.49937875 -21.362499999999983 77.432895 -21.362499999999983 Z M77.4 19.272500000000015 Q84.97875 16.692500000000017 92.88 11.129375000000014 Q100.78125 5.566250000000018 105.61875 -1.528749999999988 L90.78375 -15.718749999999986 Q87.72 -13.944999999999986 84.30778875000001 -12.816249999999982 Q80.89541625000001 -11.687499999999986 77.4 -11.687499999999986 Q67.4025 -11.687499999999986 60.388125 -18.62124999999999 Q53.37375 -25.554999999999993 53.37375 -35.63312499999999 Q53.37375 -45.71124999999999 60.388125 -52.725624999999994 Q67.4025 -59.73999999999998 77.4 -59.73999999999998 Q87.39750000000001 -59.73999999999998 94.41187500000001 -52.725624999999994 Q101.42625 -45.71124999999999 101.42625 -35.55249999999998 Q101.42625 -32.16624999999999 100.45875000000001 -28.779999999999987 Q99.49125000000001 -25.393749999999983 97.395 -22.65249999999999 L110.94 -9.752499999999984 Q114.81 -16.686249999999987 117.06750000000001 -25.001751249999984 Q119.325 -33.317413749999986 119.325 -42.00249999999998 V-74.008045 L77.4 -89.24875 L35.475 -74.008045 V-42.00249999999998 Q35.475 -20.878749999999982 47.165625 -3.866874999999986 Q58.85625 13.145000000000014 77.4 19.272500000000015 Z M77.4 29.270000000000017 Q54.825 23.626250000000017 40.3125 3.0668750000000173 Q25.8 -17.492499999999986 25.8 -42.00249999999998 V-80.37999999999998 L77.4 -99.72999999999999 L129.0 -80.37999999999998 V-42.00249999999998 Q129.0 -17.492499999999986 114.4875 3.0668750000000173 Q99.97500000000001 23.626250000000017 77.4 29.270000000000017 Z"/></g><g id="Light-L" transform="matrix(1 0 0 1 1082.77 1556)"><path d="M77.432895 -21.610663749999986 Q83.1801675 -21.610663749999986 87.27962625 -25.63143249999999 Q91.379085 -29.65220124999999 91.379085 -35.57104374999999 Q91.379085 -41.36991624999999 87.2468925 -45.469374999999985 Q83.11453875 -49.56883374999998 77.367105 -49.56883374999998 Q71.6198325 -49.56883374999998 67.52037375 -45.469374999999985 Q63.420915 -41.36991624999999 63.420915 -35.57104374999999 Q63.420915 -29.65220124999999 67.55310750000001 -25.63143249999999 Q71.68546125 -21.610663749999986 77.432895 -21.610663749999986 Z M77.4 18.342087500000012 Q85.350915 15.762087500000014 93.12816375 9.98192000000001 Q100.90525125 4.201752500000019 105.74275125 -2.9759687499999856 L89.91541875 -18.323743749999984 Q87.0998325 -16.487912499999986 83.91466125 -15.390283749999988 Q80.72949000000001 -14.292493749999984 77.4 -14.292493749999984 Q68.52818625 -14.292493749999984 62.31554625 -20.46498249999999 Q56.102745 -26.637309999999985 56.102745 -35.54008374999998 Q56.102745 -44.44285749999999 62.31167625 -50.66484999999999 Q68.52044625 -56.8868425 77.38677750000001 -56.8868425 Q86.25310875000001 -56.8868425 92.4752625 -50.66484999999999 Q98.69725500000001 -44.44285749999999 98.69725500000001 -35.49041874999999 Q98.69725500000001 -32.26170999999998 97.72975500000001 -29.199894999999984 Q96.76225500000001 -26.138079999999988 94.91400750000001 -23.582912499999978 L109.76158500000001 -9.19425249999999 Q113.75558625000001 -16.252003749999986 116.1061275 -24.47462499999999 Q118.45666875 -32.69708499999999 118.45666875 -41.754336249999994 V-73.38771624999998 L77.4 -88.31833749999998 L36.34333125 -73.38771624999998 V-41.754336249999994 Q36.34333125 -21.064832499999987 47.84787375 -4.3320812499999874 Q59.352416250000005 12.400670000000012 77.4 18.342087500000012 Z M77.4 25.920676250000014 Q56.37558 20.215006250000016 42.70045125000001 0.9580475000000135 Q29.02516125 -18.298749999999984 29.02516125 -41.754336249999994 V-78.14717124999999 L77.4 -96.256675 L125.77483875 -78.14717124999999 V-41.754336249999994 Q125.77483875 -18.298749999999984 112.09954875000001 0.9580475000000135 Q98.42442000000001 20.215006250000016 77.4 25.920676250000014 Z"/></g><g id="Thin-L" transform="matrix(1 0 0 1 787.282 1556)"><path d="M77.432895 -21.858666249999985 Q82.994085 -21.858666249999985 87.00050250000001 -25.78832874999999 Q91.00708125 -29.717991249999983 91.00708125 -35.509123749999986 Q91.00708125 -41.059832499999985 86.96776875 -45.06624999999998 Q82.92845625 -49.07266749999998 77.367105 -49.07266749999998 Q71.805915 -49.07266749999998 67.7994975 -45.06624999999998 Q63.792918750000005 -41.059832499999985 63.792918750000005 -35.509123749999986 Q63.792918750000005 -29.717991249999983 67.83223125 -25.78832874999999 Q71.87154375 -21.858666249999985 77.432895 -21.858666249999985 Z M77.4 17.411997500000012 Q85.72291875 14.831997500000014 93.37616625 8.834626250000014 Q101.0292525 2.837416250000011 105.8667525 -4.423026249999985 L89.04724875000001 -20.92825374999999 Q86.479665 -19.03050249999999 83.52153375 -17.963833749999985 Q80.5634025 -16.89700374999999 77.4 -16.89700374999999 Q69.65371125 -16.89700374999999 64.242645 -22.30823124999999 Q58.8314175 -27.719458749999987 58.8314175 -35.44704249999998 Q58.8314175 -43.17462624999999 64.234905 -48.60455874999998 Q69.63823125 -54.03432999999998 77.37371625 -54.03432999999998 Q85.10904000000001 -54.03432999999998 90.53881125 -48.60455874999998 Q95.9685825 -43.17462624999999 95.9685825 -35.42849874999999 Q95.9685825 -32.357169999999996 95.0010825 -29.619789999999995 Q94.03358250000001 -26.882248749999988 92.43349875 -24.513002499999985 L108.58333125 -8.636166249999988 Q112.70133375 -15.81791874999999 115.14491625000001 -23.94749874999998 Q117.58849875 -32.07691749999999 117.58849875 -41.50633374999998 V-72.76771 L77.4 -87.38824749999998 L37.211501250000005 -72.76771 V-41.50633374999998 Q37.211501250000005 -21.250914999999985 48.52996125000001 -4.797126249999984 Q59.8485825 11.656501250000016 77.4 17.411997500000012 Z M77.4 22.571997500000016 Q57.92599875 16.804246250000016 45.08791875 -1.1504574999999875 Q32.25 -19.104999999999983 32.25 -41.50633374999998 V-75.91466499999999 L77.4 -92.78383374999999 L122.55 -75.91466499999999 V-41.50633374999998 Q122.55 -19.104999999999983 109.71208125 -1.1504574999999875 Q96.87400125 16.804246250000016 77.4 22.571997500000016 Z"/></g><g id="Ultralight-L" transform="matrix(1 0 0 1 491.205 1556)"><path d="M77.432895 -22.00749999999998 Q82.88250000000001 -22.00749999999998 86.833125 -25.882498749999982 Q90.78375 -29.757497499999985 90.78375 -35.47187499999998 Q90.78375 -40.87374999999999 86.80023000000001 -44.82437499999999 Q82.81687124999999 -48.77499999999999 77.367105 -48.77499999999999 Q71.9175 -48.77499999999999 67.966875 -44.82437499999999 Q64.01625 -40.87374999999999 64.01625 -35.47187499999998 Q64.01625 -29.757497499999985 67.99977 -25.882498749999982 Q71.98312875 -22.00749999999998 77.432895 -22.00749999999998 Z M77.4 16.853750000000016 Q85.94625 14.273750000000014 93.525 8.146250000000016 Q101.10375 2.0187500000000114 105.94125 -5.291196249999992 L88.52625 -22.49124999999998 Q86.1075 -20.556249999999984 83.285625 -19.508124999999986 Q80.46375 -18.459999999999987 77.4 -18.459999999999987 Q70.3291875 -18.459999999999987 65.39896875 -23.414406249999985 Q60.46875 -28.36881249999999 60.46875 -35.391249999999985 Q60.46875 -42.41368749999998 65.38897125 -47.368093749999986 Q70.30903125 -52.32249999999999 77.365815 -52.32249999999999 Q84.4224375 -52.32249999999999 89.37684374999999 -47.368093749999986 Q94.33125 -42.41368749999998 94.33125 -35.391249999999985 Q94.33125 -32.414574999999985 93.36375 -29.871662499999985 Q92.39625000000001 -27.328749999999985 90.94500000000001 -25.071249999999992 L107.87625 -8.301249999999989 Q112.06875000000001 -15.557499999999983 114.56812500000001 -23.631126249999994 Q117.06750000000001 -31.70491374999999 117.06750000000001 -41.35749999999999 V-72.395545 L77.4 -86.82999999999998 L37.7325 -72.395545 V-41.35749999999999 Q37.7325 -21.362499999999983 48.939375 -5.0762499999999875 Q60.14625 11.210000000000015 77.4 16.853750000000016 Z M77.4 20.562500000000014 Q58.85625 14.757500000000014 46.520625 -2.4156249999999844 Q34.185 -19.588749999999983 34.185 -41.35749999999999 V-74.57499999999999 L77.4 -90.69999999999999 L120.61500000000001 -74.57499999999999 V-41.35749999999999 Q120.61500000000001 -19.588749999999983 108.279375 -2.4156249999999844 Q95.94375000000001 14.757500000000014 77.4 20.562500000000014 Z"/></g><g id="Bold-M" transform="matrix(1 0 0 1 2281.8 1126)"><path d="M60.016625 -27.10499999999999 Q63.375 -27.10499999999999 65.75 -29.496624999999987 Q68.125 -31.888124999999988 68.125 -35.24662499999999 Q68.125 -38.60499999999999 65.733375 -40.97999999999999 Q63.341875 -43.35499999999999 59.983375 -43.35499999999999 Q56.625 -43.35499999999999 54.25 -40.963374999999985 Q51.875 -38.57187499999999 51.875 -35.21337499999999 Q51.875 -31.85499999999999 54.266625 -29.47999999999999 Q56.658125 -27.10499999999999 60.016625 -27.10499999999999 Z M60.0 2.8950000000000102 Q64.375 1.5200000000000102 69.125 -2.0424999999999898 Q73.875 -5.60499999999999 77.125 -9.47999999999999 L69.25 -17.35499999999999 Q67.125 -16.22999999999999 64.8125 -15.72999999999999 Q62.5 -15.22999999999999 60.0 -15.22999999999999 Q51.75 -15.22999999999999 45.875 -21.10499999999999 Q40.0 -26.97999999999999 40.0 -35.22999999999999 Q40.0 -43.47999999999999 45.875 -49.35499999999999 Q51.75 -55.22999999999999 60.0 -55.22999999999999 Q68.25 -55.22999999999999 74.125 -49.35499999999999 Q80.0 -43.47999999999999 80.0 -35.22999999999999 Q80.0 -32.72999999999999 79.5 -30.29249999999999 Q79.0 -27.85499999999999 77.875 -25.72999999999999 L83.75 -19.72999999999999 Q86.25 -24.60499999999999 87.375 -29.35499999999999 Q88.5 -34.10499999999999 88.5 -39.706124999999986 V-62.22999999999999 L60.0 -72.85499999999999 L31.5 -62.169499999999985 V-39.72999999999999 Q31.5 -25.22999999999999 39.6875 -13.60499999999999 Q47.875 -1.9799999999999898 60.0 2.8950000000000102 Z M60.0 19.14500000000001 Q40.778875 14.41875000000001 28.2645 -2.39299999999999 Q15.75 -19.20474999999999 15.75 -39.72999999999999 V-73.16274999999999 L60.0 -89.60499999999999 L104.25 -73.16274999999999 V-39.72999999999999 Q104.25 -19.20474999999999 91.7355 -2.39299999999999 Q79.221125 14.41875000000001 60.0 19.14500000000001 Z"/></g><g id="Semibold-M" transform="matrix(1 0 0 1 1985.97 1126)"><path d="M60.009375 -26.289874999999988 Q63.701125 -26.289874999999988 66.320625 -28.91874999999999 Q68.940125 -31.547749999999986 68.940125 -35.23937499999999 Q68.940125 -38.93112499999999 66.31125 -41.550625 Q63.68225 -44.170124999999985 59.990625 -44.170124999999985 Q56.298875 -44.170124999999985 53.679375 -41.54124999999999 Q51.059875 -38.91224999999999 51.059875 -35.22062499999999 Q51.059875 -31.528874999999992 53.68875 -28.90937499999999 Q56.31775 -26.289874999999988 60.009375 -26.289874999999988 Z M60.0 3.4927500000000116 Q64.701125 2.1177500000000116 69.586875 -1.4989999999999881 Q74.47275 -5.115874999999988 77.940125 -9.262624999999993 L69.576125 -17.626749999999987 Q67.39675 -16.392999999999986 64.9755 -15.811499999999988 Q62.554375 -15.22999999999999 60.0 -15.22999999999999 Q51.75 -15.22999999999999 45.875 -21.10499999999999 Q40.0 -26.97999999999999 40.0 -35.22999999999999 Q40.0 -43.47999999999999 45.875 -49.35499999999999 Q51.75 -55.22999999999999 60.0 -55.22999999999999 Q68.25 -55.22999999999999 74.125 -49.35499999999999 Q80.0 -43.47999999999999 80.0 -35.22999999999999 Q80.0 -32.62124999999999 79.4185 -30.129499999999993 Q78.837 -27.637624999999993 77.60325 -25.403874999999992 L84.18475 -18.751749999999987 Q86.68475 -23.735499999999988 87.9185 -28.86587499999999 Q89.152125 -33.99624999999999 89.152125 -39.716499999999996 V-62.71912499999999 L60.0 -73.61587499999999 L30.847875 -62.68487499999999 V-39.72999999999999 Q30.847875 -24.958249999999992 39.17125 -13.007249999999992 Q47.494625 -1.0561249999999909 60.0 3.4927500000000116 Z M60.0 17.24300000000001 Q41.5815 12.66937500000001 29.589625 -3.5992499999999907 Q17.59775 -19.86787499999999 17.59775 -39.72999999999999 V-71.88774999999998 L60.0 -87.70299999999999 L102.40225 -71.88774999999998 V-39.72999999999999 Q102.40225 -19.86787499999999 90.410375 -3.5992499999999907 Q78.4185 12.66937500000001 60.0 17.24300000000001 Z"/></g><g id="Medium-M" transform="matrix(1 0 0 1 1689.91 1126)"><path d="M60.004 -25.67837499999999 Q63.945625 -25.67837499999999 66.748625 -28.48537499999999 Q69.551625 -31.29224999999999 69.551625 -35.23399999999999 Q69.551625 -39.17562499999999 66.744625 -41.978624999999994 Q63.93775 -44.78162499999999 59.996 -44.78162499999999 Q56.054375 -44.78162499999999 53.251375 -41.97462499999999 Q50.448375 -39.16774999999999 50.448375 -35.22599999999999 Q50.448375 -31.28437499999999 53.255375 -28.481374999999993 Q56.06225 -25.67837499999999 60.004 -25.67837499999999 Z M60.0 3.941250000000011 Q64.945625 2.566250000000011 69.933375 -1.0913749999999887 Q74.92125 -4.748999999999988 78.551625 -9.099624999999989 L69.820625 -17.830499999999986 Q67.6005 -16.51537499999999 65.097875 -15.872624999999992 Q62.595125 -15.22999999999999 60.0 -15.22999999999999 Q51.75 -15.22999999999999 45.875 -21.10499999999999 Q40.0 -26.97999999999999 40.0 -35.22999999999999 Q40.0 -43.47999999999999 45.875 -49.35499999999999 Q51.75 -55.22999999999999 60.0 -55.22999999999999 Q68.25 -55.22999999999999 74.125 -49.35499999999999 Q80.0 -43.47999999999999 80.0 -35.22999999999999 Q80.0 -32.53974999999999 79.357375 -30.007124999999988 Q78.714625 -27.47462499999999 77.3995 -25.15937499999999 L84.510875 -18.017999999999986 Q87.010875 -23.083249999999992 88.326125 -28.498999999999988 Q89.64125 -33.91474999999999 89.64125 -39.724249999999984 V-63.085999999999984 L60.0 -74.1865 L30.35875 -63.071499999999986 V-39.72999999999999 Q30.35875 -24.754499999999993 38.784 -12.55874999999999 Q47.20925 -0.3631249999999895 60.0 3.941250000000011 Z M60.0 15.81625000000001 Q42.1835 11.35725000000001 30.583625 -4.503999999999991 Q18.983625 -20.36524999999999 18.983625 -39.72999999999999 V-70.93124999999999 L60.0 -86.27624999999999 L101.016375 -70.93124999999999 V-39.72999999999999 Q101.016375 -20.36524999999999 89.416375 -4.503999999999991 Q77.8165 11.35725000000001 60.0 15.81625000000001 Z"/></g><g id="Regular-M" transform="matrix(1 0 0 1 1394.06 1126)"><path d="M60.0 -25.22999999999999 Q64.125 -25.22999999999999 67.0625 -28.16749999999999 Q70.0 -31.10499999999999 70.0 -35.22999999999999 Q70.0 -39.35499999999999 67.0625 -42.29249999999999 Q64.125 -45.22999999999999 60.0 -45.22999999999999 Q55.875 -45.22999999999999 52.9375 -42.29249999999999 Q50.0 -39.35499999999999 50.0 -35.22999999999999 Q50.0 -31.10499999999999 52.9375 -28.16749999999999 Q55.875 -25.22999999999999 60.0 -25.22999999999999 Z M60.0 4.27000000000001 Q65.125 2.8950000000000102 70.1875 -0.7924999999999898 Q75.25 -4.47999999999999 79.0 -8.97999999999999 L70.0 -17.97999999999999 Q67.75 -16.60499999999999 65.1875 -15.91749999999999 Q62.625 -15.22999999999999 60.0 -15.22999999999999 Q51.75 -15.22999999999999 45.875 -21.10499999999999 Q40.0 -26.97999999999999 40.0 -35.22999999999999 Q40.0 -43.47999999999999 45.875 -49.35499999999999 Q51.75 -55.22999999999999 60.0 -55.22999999999999 Q68.25 -55.22999999999999 74.125 -49.35499999999999 Q80.0 -43.47999999999999 80.0 -35.22999999999999 Q80.0 -32.47999999999999 79.3125 -29.91749999999999 Q78.625 -27.35499999999999 77.25 -24.97999999999999 L84.75 -17.47999999999999 Q87.25 -22.60499999999999 88.625 -28.22999999999999 Q90.0 -33.85499999999999 90.0 -39.72999999999999 V-63.35499999999999 L60.0 -74.60499999999999 L30.0 -63.35499999999999 V-39.72999999999999 Q30.0 -24.60499999999999 38.5 -12.22999999999999 Q47.0 0.14500000000001023 60.0 4.27000000000001 Z M60.0 14.77000000000001 Q42.625 10.39500000000001 31.3125 -5.16749999999999 Q20.0 -20.72999999999999 20.0 -39.72999999999999 V-70.22999999999999 L60.0 -85.22999999999999 L100.0 -70.22999999999999 V-39.72999999999999 Q100.0 -20.72999999999999 88.6875 -5.16749999999999 Q77.375 10.39500000000001 60.0 14.77000000000001 Z"/></g><g id="Light-M" transform="matrix(1 0 0 1 1098.18 1126)"><path d="M60.0 -25.22999999999999 Q64.125 -25.22999999999999 67.0625 -28.16749999999999 Q70.0 -31.10499999999999 70.0 -35.22999999999999 Q70.0 -39.35499999999999 67.0625 -42.29249999999999 Q64.125 -45.22999999999999 60.0 -45.22999999999999 Q55.875 -45.22999999999999 52.9375 -42.29249999999999 Q50.0 -39.35499999999999 50.0 -35.22999999999999 Q50.0 -31.10499999999999 52.9375 -28.16749999999999 Q55.875 -25.22999999999999 60.0 -25.22999999999999 Z M60.0 4.27000000000001 Q65.60575 2.7507500000000107 70.860625 -1.2732499999999902 Q76.1155 -5.297374999999988 79.8655 -10.133874999999989 L69.423 -20.57637499999999 Q67.365375 -19.153249999999993 64.947125 -18.441749999999992 Q62.528875 -17.730124999999987 60.0 -17.730124999999987 Q52.781375 -17.730124999999987 47.64075 -22.870749999999987 Q42.500125 -28.011374999999987 42.500125 -35.22999999999999 Q42.500125 -42.44862499999999 47.64075 -47.58924999999999 Q52.781375 -52.72987499999999 60.0 -52.72987499999999 Q67.218625 -52.72987499999999 72.35925 -47.58924999999999 Q77.499875 -42.44862499999999 77.499875 -35.22999999999999 Q77.499875 -32.69824999999999 76.812375 -30.33912499999999 Q76.124875 -27.97999999999999 74.846 -25.845499999999987 L84.173 -16.518374999999992 Q86.865375 -21.78762499999999 88.432625 -27.580874999999992 Q90.0 -33.37424999999999 90.0 -39.72999999999999 V-63.35499999999999 L60.0 -74.55687499999999 L30.0 -63.35499999999999 V-39.72999999999999 Q30.0 -24.60499999999999 38.5 -12.22999999999999 Q47.0 0.14500000000001023 60.0 4.27000000000001 Z M60.0 12.17362500000001 Q43.778875 7.75062500000001 33.1395 -6.922374999999988 Q22.500125 -21.595499999999987 22.500125 -39.72999999999999 V-68.49912499999999 L60.0 -82.5375 L97.499875 -68.49912499999999 V-39.72999999999999 Q97.499875 -21.595499999999987 86.8605 -6.922374999999988 Q76.221125 7.75062500000001 60.0 12.17362500000001 Z"/></g><g id="Thin-M" transform="matrix(1 0 0 1 802.565 1126)"><path d="M60.0 -25.22999999999999 Q64.125 -25.22999999999999 67.0625 -28.16749999999999 Q70.0 -31.10499999999999 70.0 -35.22999999999999 Q70.0 -39.35499999999999 67.0625 -42.29249999999999 Q64.125 -45.22999999999999 60.0 -45.22999999999999 Q55.875 -45.22999999999999 52.9375 -42.29249999999999 Q50.0 -39.35499999999999 50.0 -35.22999999999999 Q50.0 -31.10499999999999 52.9375 -28.16749999999999 Q55.875 -25.22999999999999 60.0 -25.22999999999999 Z M60.0 4.27000000000001 Q66.0865 2.606500000000011 71.533625 -1.7539999999999907 Q76.98075 -6.1146249999999895 80.73075 -11.287624999999991 L68.846125 -23.17224999999999 Q66.98075 -21.70112499999999 64.70675 -20.96549999999999 Q62.43275 -20.22999999999999 60.0 -20.22999999999999 Q53.8125 -20.22999999999999 49.40625 -24.63624999999999 Q45.0 -29.04249999999999 45.0 -35.22999999999999 Q45.0 -41.41749999999999 49.40625 -45.82374999999999 Q53.8125 -50.22999999999999 60.0 -50.22999999999999 Q66.1875 -50.22999999999999 70.59375 -45.82374999999999 Q75.0 -41.41749999999999 75.0 -35.22999999999999 Q75.0 -32.91649999999999 74.3125 -30.760749999999987 Q73.625 -28.60499999999999 72.442375 -26.71074999999999 L83.596125 -15.556874999999991 Q86.48075 -20.97037499999999 88.240375 -26.93187499999999 Q90.0 -32.89349999999999 90.0 -39.72999999999999 V-63.35499999999999 L60.0 -74.50887499999999 L30.0 -63.35499999999999 V-39.72999999999999 Q30.0 -24.60499999999999 38.5 -12.22999999999999 Q47.0 0.14500000000001023 60.0 4.27000000000001 Z M60.0 9.57775000000001 Q44.932625 5.106625000000012 34.966375 -8.67712499999999 Q25.0 -22.46074999999999 25.0 -39.72999999999999 V-66.76849999999999 L60.0 -79.84537499999999 L95.0 -66.76849999999999 V-39.72999999999999 Q95.0 -22.46074999999999 85.033625 -8.67712499999999 Q75.067375 5.106625000000012 60.0 9.57775000000001 Z"/></g><g id="Ultralight-M" transform="matrix(1 0 0 1 506.415 1126)"><path d="M60.0 -25.22999999999999 Q64.125 -25.22999999999999 67.0625 -28.16749999999999 Q70.0 -31.10499999999999 70.0 -35.22999999999999 Q70.0 -39.35499999999999 67.0625 -42.29249999999999 Q64.125 -45.22999999999999 60.0 -45.22999999999999 Q55.875 -45.22999999999999 52.9375 -42.29249999999999 Q50.0 -39.35499999999999 50.0 -35.22999999999999 Q50.0 -31.10499999999999 52.9375 -28.16749999999999 Q55.875 -25.22999999999999 60.0 -25.22999999999999 Z M60.0 4.27000000000001 Q66.375 2.5200000000000102 71.9375 -2.0424999999999898 Q77.5 -6.60499999999999 81.25 -11.97999999999999 L68.5 -24.72999999999999 Q66.75 -23.22999999999999 64.5625 -22.47999999999999 Q62.375 -21.72999999999999 60.0 -21.72999999999999 Q54.43125 -21.72999999999999 50.465625 -25.695624999999993 Q46.5 -29.66124999999999 46.5 -35.22999999999999 Q46.5 -40.798749999999984 50.465625 -44.76437499999999 Q54.43125 -48.72999999999999 60.0 -48.72999999999999 Q65.56875 -48.72999999999999 69.534375 -44.76437499999999 Q73.5 -40.798749999999984 73.5 -35.22999999999999 Q73.5 -33.04749999999999 72.8125 -31.013749999999987 Q72.125 -28.97999999999999 71.0 -27.22999999999999 L83.25 -14.97999999999999 Q86.25 -20.47999999999999 88.125 -26.54249999999999 Q90.0 -32.60499999999999 90.0 -39.72999999999999 V-63.35499999999999 L60.0 -74.47999999999999 L30.0 -63.35499999999999 V-39.72999999999999 Q30.0 -24.60499999999999 38.5 -12.22999999999999 Q47.0 0.14500000000001023 60.0 4.27000000000001 Z M60.0 8.02000000000001 Q45.625 3.5200000000000102 36.0625 -9.72999999999999 Q26.5 -22.97999999999999 26.5 -39.72999999999999 V-65.72999999999999 L60.0 -78.22999999999999 L93.5 -65.72999999999999 V-39.72999999999999 Q93.5 -22.97999999999999 83.9375 -9.72999999999999 Q74.375 3.5200000000000102 60.0 8.02000000000001 Z"/></g><g id="Bold-S" transform="matrix(1 0 0 1 2294.23 696)"><path d="M47.451742125 -28.917999999999985 Q50.002875 -28.917999999999985 51.8274375 -30.804992124999984 Q53.652 -32.69188562499999 53.652 -35.24311712499998 Q53.652 -37.79424999999999 51.82299937500001 -39.66812499999999 Q49.99399875 -41.54199999999999 47.425507875 -41.54199999999999 Q44.77575 -41.54199999999999 42.901875000000004 -39.68400362499998 Q41.028 -37.82600724999999 41.028 -35.21688287499999 Q41.028 -32.60785712499999 42.914992125 -30.76287924999999 Q44.801885625000004 -28.917999999999985 47.451742125 -28.917999999999985 Z M47.34 -5.543874999999986 Q51.186375000000005 -7.023249999999987 54.4903125 -9.439562499999987 Q57.794250000000005 -11.855874999999987 60.457125000000005 -15.110499999999988 L54.736875000000005 -20.830749999999988 Q53.06025 -19.943124999999988 51.235687500000004 -19.548624999999987 Q49.411125000000006 -19.154124999999986 47.438625 -19.154124999999986 Q40.76664375000001 -19.154124999999986 36.015384375000004 -23.83881249999999 Q31.264125 -28.52349999999999 31.264125 -35.22999999999999 Q31.264125 -41.93649999999999 36.022584 -46.62118749999999 Q40.781043 -51.305874999999986 47.463084 -51.305874999999986 Q54.145125 -51.305874999999986 58.7805 -46.62118749999999 Q63.415875 -41.93649999999999 63.415875 -35.275860624999986 Q63.415875 -33.25286462499999 63.021375000000006 -31.282731624999983 Q62.626875000000005 -29.312499999999986 61.739250000000006 -27.754520874999983 L65.782875 -23.39499999999999 Q67.65675 -27.142749999999985 68.544375 -30.79187499999999 Q69.432 -34.44099999999999 69.432 -38.66303762499999 V-56.33574999999999 L47.34 -64.42299999999999 L25.248 -56.288015499999986 V-38.68187499999999 Q25.248 -27.39098912499999 31.560000000000002 -18.34135637499999 Q37.872 -9.291624999999986 47.34 -5.543874999999986 Z M47.34 7.671875000000013 Q32.174532375 4.041488750000013 22.3006905 -9.222981999999988 Q12.42675 -22.48745274999999 12.42675 -38.68187499999999 V-65.25756474999999 L47.34 -78.131875 L82.25325000000001 -65.25756474999999 V-38.68187499999999 Q82.25325000000001 -22.48745274999999 72.3793095 -9.222981999999988 Q62.505467625 4.041488750000013 47.34 7.671875000000013 Z"/></g><g id="Semibold-S" transform="matrix(1 0 0 1 1998.1 696)"><path d="M47.446021875 -28.274866374999988 Q50.260187625 -28.274866374999988 52.27766062500001 -30.349048749999987 Q54.295133625 -32.423329749999986 54.295133625 -35.23739687499999 Q54.295133625 -38.05156262499999 52.278844125 -40.118348125 Q50.262554625 -42.185133624999985 47.431228125000004 -42.185133624999985 Q44.518437375000005 -42.185133624999985 42.451651875 -40.139946999999985 Q40.384866375 -38.094661749999986 40.384866375 -35.22260312499999 Q40.384866375 -32.350544499999984 42.45904875 -30.31265612499999 Q44.53332975 -28.274866374999988 47.446021875 -28.274866374999988 Z M47.34 -5.0722502499999855 Q51.443687625 -6.5516252499999865 54.854731875000006 -9.010740999999985 Q58.26587475000001 -11.469955374999987 61.100258624999995 -14.93899112499999 L54.99418762500001 -21.045160749999987 Q53.27466075 -20.071731999999983 51.3642945 -19.612928499999988 Q49.454026875000004 -19.154124999999986 47.438625 -19.154124999999986 Q40.76664375000001 -19.154124999999986 36.015384375000004 -23.83881249999999 Q31.264125 -28.52349999999999 31.264125 -35.22999999999999 Q31.264125 -41.93649999999999 36.022584 -46.62118749999999 Q40.781043 -51.305874999999986 47.463084 -51.305874999999986 Q54.145125 -51.305874999999986 58.7805 -46.62118749999999 Q63.415875 -41.93649999999999 63.415875 -35.275860624999986 Q63.415875 -33.16715949999999 62.9570715 -31.154025999999988 Q62.498268 -29.140991124999992 61.52483925000001 -27.497208249999986 L66.12589274999999 -22.623160749999982 Q67.99976775 -26.45671449999999 68.9731965 -30.40595537499999 Q69.946526625 -34.355196249999985 69.946526625 -38.671223499999996 V-56.72166962499999 L47.34 -65.02333037499999 L24.733473375 -56.69464637499999 V-38.68187499999999 Q24.733473375 -27.17657837499999 31.152678750000003 -17.869632999999986 Q37.571884125000004 -8.562687624999988 47.34 -5.0722502499999855 Z M47.34 6.171197000000014 Q32.8078035 2.661231875000013 23.346214125000003 -10.17471324999999 Q13.884624750000002 -23.01065837499999 13.884624750000002 -38.68187499999999 V-64.25158974999998 L47.34 -76.63119699999999 L80.79537525 -64.25158974999998 V-38.68187499999999 Q80.79537525 -23.01065837499999 71.333785875 -10.17471324999999 Q61.8721965 2.661231875000013 47.34 6.171197000000014 Z"/></g><g id="Medium-S" transform="matrix(1 0 0 1 1701.85 696)"><path d="M47.441781 -27.79239287499999 Q50.453098125000004 -27.79239287499999 52.61535262500001 -30.00711587499999 Q54.777607125 -32.22174024999999 54.777607125 -35.23315599999999 Q54.777607125 -38.24447312499999 52.620875625 -40.456040124999994 Q50.464144125000004 -42.66760712499999 47.435469000000005 -42.66760712499999 Q44.325526875 -42.66760712499999 42.113959875000006 -40.48187987499998 Q39.902392875000004 -38.29615262499999 39.902392875000004 -35.22684399999999 Q39.902392875000004 -32.15753537499999 42.117115875 -29.974964124999985 Q44.33174025 -27.79239287499999 47.441781 -27.79239287499999 Z M47.34 -4.718383749999987 Q51.636598125000006 -6.197758749999988 55.128120375 -8.689124874999987 Q58.619741250000004 -11.180490999999986 61.58273212500001 -14.810384124999988 L55.187098125000006 -21.205919499999986 Q53.4354195 -20.168285874999988 51.460848375000005 -19.66115612499999 Q49.48617862500001 -19.154124999999986 47.438625 -19.154124999999986 Q40.76664375000001 -19.154124999999986 36.015384375000004 -23.83881249999999 Q31.264125 -28.52349999999999 31.264125 -35.22999999999999 Q31.264125 -41.93649999999999 36.022584 -46.62118749999999 Q40.781043 -51.305874999999986 47.463084 -51.305874999999986 Q54.145125 -51.305874999999986 58.7805 -46.62118749999999 Q63.415875 -41.93649999999999 63.415875 -35.275860624999986 Q63.415875 -33.10285599999999 62.90884387500001 -31.05757074999999 Q62.401714125 -29.01238412499999 61.36408050000001 -27.30419912499999 L66.383205375 -22.044231999999987 Q68.257080375 -25.942089249999988 69.294812625 -30.11649099999999 Q70.33244625 -34.29089274999999 70.33244625 -38.677338249999984 V-57.011133999999984 L47.34 -65.4735535 L24.347553750000003 -56.99969349999999 V-38.68187499999999 Q24.347553750000003 -27.015819624999992 30.8471385 -17.515865124999987 Q37.34672325 -8.015910624999986 47.34 -4.718383749999987 Z M47.34 5.045491250000014 Q33.282781500000006 1.6259652500000126 24.130480125000002 -10.888560999999989 Q14.978080125 -23.403087249999984 14.978080125 -38.68187499999999 V-63.49691125 L47.34 -75.50549124999999 L79.701919875 -63.49691125 V-38.68187499999999 Q79.701919875 -23.403087249999984 70.549519875 -10.888560999999989 Q61.39721850000001 1.6259652500000126 47.34 5.045491250000014 Z"/></g><g id="Regular-S" transform="matrix(1 0 0 1 1405.73 696)"><path d="M47.438625 -27.438624999999988 Q50.594625 -27.438624999999988 52.863 -29.756312499999986 Q55.131375000000006 -32.07399999999999 55.131375000000006 -35.22999999999999 Q55.131375000000006 -38.38599999999999 52.871679 -40.70368749999999 Q50.611884374999995 -43.02137499999999 47.438625 -43.02137499999999 Q44.184000000000005 -43.02137499999999 41.8663125 -40.73268324999999 Q39.548625 -38.44399149999999 39.548625 -35.22999999999999 Q39.548625 -32.01610712499999 41.8663125 -29.727316749999993 Q44.184000000000005 -27.438624999999988 47.438625 -27.438624999999988 Z M47.34 -4.458999999999985 Q51.778125 -5.938374999999986 55.328625 -8.453312499999988 Q58.879125 -10.968249999999987 61.9365 -14.715999999999987 L55.328625 -21.323874999999987 Q53.553375 -20.23899999999999 51.5315625 -19.696562499999988 Q49.509750000000004 -19.154124999999986 47.438625 -19.154124999999986 Q40.76664375000001 -19.154124999999986 36.015384375000004 -23.83881249999999 Q31.264125 -28.52349999999999 31.264125 -35.22999999999999 Q31.264125 -41.93649999999999 36.022584 -46.62118749999999 Q40.781043 -51.305874999999986 47.463084 -51.305874999999986 Q54.145125 -51.305874999999986 58.7805 -46.62118749999999 Q63.415875 -41.93649999999999 63.415875 -35.275860624999986 Q63.415875 -33.05561462499998 62.8734375 -30.986856624999987 Q62.331 -28.917999999999985 61.246125 -27.162770874999985 L66.571875 -21.61974999999999 Q68.44575 -25.56474999999999 69.530625 -29.90424999999999 Q70.6155 -34.24374999999999 70.6155 -38.68187499999999 V-57.22337499999999 L47.34 -65.80375 L24.064500000000002 -57.22337499999999 V-38.68187499999999 Q24.064500000000002 -26.89786412499999 30.6230625 -17.25648137499999 Q37.181625000000004 -7.614999999999988 47.34 -4.458999999999985 Z M47.34 4.220000000000013 Q33.631125000000004 0.8667500000000139 24.705562500000003 -11.412062499999987 Q15.780000000000001 -23.69087499999999 15.780000000000001 -38.68187499999999 V-62.94362499999998 L47.34 -74.67999999999999 L78.9 -62.94362499999998 V-38.68187499999999 Q78.9 -23.69087499999999 69.97443750000001 -11.412062499999987 Q61.048875 0.8667500000000139 47.34 4.220000000000013 Z"/></g><g id="Light-S" transform="matrix(1 0 0 1 1109.75 696)"><path d="M47.438625 -27.438624999999988 Q50.594625 -27.438624999999988 52.863 -29.756312499999986 Q55.131375000000006 -32.07399999999999 55.131375000000006 -35.22999999999999 Q55.131375000000006 -38.38599999999999 52.871679 -40.70368749999999 Q50.611884374999995 -43.02137499999999 47.438625 -43.02137499999999 Q44.184000000000005 -43.02137499999999 41.8663125 -40.73268324999999 Q39.548625 -38.44399149999999 39.548625 -35.22999999999999 Q39.548625 -32.01610712499999 41.8663125 -29.727316749999993 Q44.184000000000005 -27.438624999999988 47.438625 -27.438624999999988 Z M47.34 -4.458999999999985 Q52.15743675 -6.052188249999986 55.859720625 -8.832624249999988 Q59.5620045 -11.613158874999986 62.6193795 -15.626407374999989 L54.873372 -23.37241487499999 Q53.249905875 -22.249569249999993 51.341906625 -21.68819574999999 Q49.433907375000004 -21.126723624999983 47.438625 -21.126723624999983 Q41.580398625 -21.126723624999983 37.408561125 -25.231989249999984 Q33.236723624999996 -29.337254874999985 33.236723624999996 -35.22999999999999 Q33.236723624999996 -41.122745124999994 37.415760750000004 -45.22801074999999 Q41.59469925 -49.33327637499999 47.463084 -49.33327637499999 Q53.33137012500001 -49.33327637499999 57.38732325 -45.22801074999999 Q61.443276375 -41.122745124999994 61.443276375 -35.275860624999986 Q61.443276375 -33.22791249999999 60.900838875000005 -31.319518749999993 Q60.35840137500001 -29.41112499999999 59.349369 -27.845551749999984 L66.116622 -20.86102787499999 Q68.142280875 -24.91984112499999 69.37884112500001 -29.392090374999988 Q70.6155 -33.864438249999985 70.6155 -38.68187499999999 V-57.22337499999999 L47.34 -65.765779375 L24.064500000000002 -57.22337499999999 V-38.68187499999999 Q24.064500000000002 -26.89786412499999 30.6230625 -17.25648137499999 Q37.181625000000004 -7.614999999999988 47.34 -4.458999999999985 Z M47.34 2.1714601250000136 Q34.541532375 -1.2196618749999875 26.1470655 -12.796658874999988 Q17.752598625 -24.373754499999983 17.752598625 -38.68187499999999 V-61.57796462499999 L47.34 -72.5556175 L76.927401375 -61.57796462499999 V-38.68187499999999 Q76.927401375 -24.373754499999983 68.53293450000001 -12.796658874999988 Q60.138467625000004 -1.2196618749999875 47.34 2.1714601250000136 Z"/></g><g id="Thin-S" transform="matrix(1 0 0 1 814.015 696)"><path d="M47.438625 -27.438624999999988 Q50.594625 -27.438624999999988 52.863 -29.756312499999986 Q55.131375000000006 -32.07399999999999 55.131375000000006 -35.22999999999999 Q55.131375000000006 -38.38599999999999 52.871679 -40.70368749999999 Q50.611884374999995 -43.02137499999999 47.438625 -43.02137499999999 Q44.184000000000005 -43.02137499999999 41.8663125 -40.73268324999999 Q39.548625 -38.44399149999999 39.548625 -35.22999999999999 Q39.548625 -32.01610712499999 41.8663125 -29.727316749999993 Q44.184000000000005 -27.438624999999988 47.438625 -27.438624999999988 Z M47.34 -4.458999999999985 Q52.5367485 -6.166001499999986 56.390717625 -9.211935999999987 Q60.24468675 -12.257969124999988 63.30206175 -16.536716124999987 L54.418217625000004 -25.420560249999987 Q52.946436750000004 -24.25984262499999 51.15225075 -23.679434499999992 Q49.358064750000004 -23.099124999999987 47.438625 -23.099124999999987 Q42.39395625 -23.099124999999987 38.801540625 -26.624968749999987 Q35.209125 -30.150812499999986 35.209125 -35.22999999999999 Q35.209125 -40.309187499999986 38.80874025 -43.835031249999986 Q42.408256875 -47.360874999999986 47.463084 -47.360874999999986 Q52.517812500000005 -47.360874999999986 55.994343750000006 -43.835031249999986 Q59.470875 -40.309187499999986 59.470875 -35.275860624999986 Q59.470875 -33.40011174999999 58.9284375 -31.652180874999992 Q58.386 -29.90424999999999 57.452908875 -28.528332624999983 L65.661467625 -20.102404374999992 Q67.83881175 -24.27503087499999 69.22715587500001 -28.880029374999992 Q70.6155 -33.485126499999986 70.6155 -38.68187499999999 V-57.22337499999999 L47.34 -65.72790737499999 L24.064500000000002 -57.22337499999999 V-38.68187499999999 Q24.064500000000002 -26.89786412499999 30.6230625 -17.25648137499999 Q37.181625000000004 -7.614999999999988 47.34 -4.458999999999985 Z M47.34 0.12331475000001291 Q35.451841125 -3.305777874999986 27.588469875 -14.181156624999986 Q19.725 -25.05643674999999 19.725 -38.68187499999999 V-60.21250149999999 L47.34 -70.43153087499999 L74.955 -60.21250149999999 V-38.68187499999999 Q74.955 -25.05643674999999 67.091530125 -14.181156624999986 Q59.228158875 -3.305777874999986 47.34 0.12331475000001291 Z"/></g><g id="Ultralight-S" transform="matrix(1 0 0 1 517.792 696)"><path d="M47.438625 -27.438624999999988 Q50.594625 -27.438624999999988 52.863 -29.756312499999986 Q55.131375000000006 -32.07399999999999 55.131375000000006 -35.22999999999999 Q55.131375000000006 -38.38599999999999 52.871679 -40.70368749999999 Q50.611884374999995 -43.02137499999999 47.438625 -43.02137499999999 Q44.184000000000005 -43.02137499999999 41.8663125 -40.73268324999999 Q39.548625 -38.44399149999999 39.548625 -35.22999999999999 Q39.548625 -32.01610712499999 41.8663125 -29.727316749999993 Q44.184000000000005 -27.438624999999988 47.438625 -27.438624999999988 Z M47.34 -4.458999999999985 Q52.764375 -6.234249999999989 56.709375 -9.439562499999987 Q60.654375 -12.644874999999988 63.71175 -17.082999999999988 L54.145125 -26.649624999999986 Q52.764375 -25.46612499999999 51.0384375 -24.874374999999986 Q49.3125 -24.28262499999999 47.438625 -24.28262499999999 Q42.88215 -24.28262499999999 39.6373875 -27.460815624999988 Q36.392625 -30.639006249999987 36.392625 -35.22999999999999 Q36.392625 -39.820993749999985 39.644587125 -42.999184374999984 Q42.89654925000001 -46.17737499999999 47.463084 -46.17737499999999 Q52.02961875 -46.17737499999999 55.158496875 -42.999184374999984 Q58.287375000000004 -39.820993749999985 58.287375000000004 -35.275860624999986 Q58.287375000000004 -33.50337212499999 57.744937500000006 -31.85179787499999 Q57.2025 -30.200124999999986 56.314875 -28.938020874999985 L65.388375 -19.64724999999999 Q67.65675 -23.888124999999988 69.136125 -28.57281249999999 Q70.6155 -33.257499999999986 70.6155 -38.68187499999999 V-57.22337499999999 L47.34 -65.705125 L24.064500000000002 -57.22337499999999 V-38.68187499999999 Q24.064500000000002 -26.89786412499999 30.6230625 -17.25648137499999 Q37.181625000000004 -7.614999999999988 47.34 -4.458999999999985 Z M47.34 -1.1057499999999862 Q35.998125 -4.557624999999987 28.453312500000003 -15.01187499999999 Q20.9085 -25.46612499999999 20.9085 -38.68187499999999 V-59.39312499999998 L47.34 -69.157 L73.7715 -59.39312499999998 V-38.68187499999999 Q73.7715 -25.46612499999999 66.2266875 -15.01187499999999 Q58.681875000000005 -4.557624999999987 47.34 -1.1057499999999862 Z"/></g></g></svg>