<svg xmlns="http://www.w3.org/2000/svg" version="1.1" width="3300" height="2000"><g id="Notes"><style>
    text {
      font-family: monospace;
      text-anchor: middle;
    }
    text.emphasis {
      font-weight:bold;
    }
    text.lanchor {
      text-anchor: start;
    }
  </style><rect height="2200" id="artboard" fill="white" width="3300" x="0" y="0"/><line id="" style="fill:none;stroke:black;stroke-width:0.5;" x1="263" x2="3036" y1="292" y2="292"/><text class="lanchor emphasis" transform="matrix(1 0 0 1 263 322)">Weight/Scale Variations</text><text transform="matrix(1 0 0 1 559.711 322)">Ultralight</text><text transform="matrix(1 0 0 1 856.422 322)">Thin</text><text transform="matrix(1 0 0 1 1153.13 322)">Light</text><text transform="matrix(1 0 0 1 1449.84 322)">Regular</text><text transform="matrix(1 0 0 1 1746.56 322)">Medium</text><text transform="matrix(1 0 0 1 2043.27 322)">Semibold</text><text transform="matrix(1 0 0 1 2339.98 322)">Bold</text><text transform="matrix(1 0 0 1 2636.69 322)">Heavy</text><text transform="matrix(1 0 0 1 2933.4 322)">Black</text><text id="template-version" style="text-anchor: end;" transform="matrix(1 0 0 1 3036 1933)">Template v.1.0</text><text class="lanchor" transform="matrix(1 0 0 1 263 726)">Small</text><text class="lanchor" transform="matrix(1 0 0 1 263 1156)">Medium</text><text class="lanchor" transform="matrix(1 0 0 1 263 1586)">Large</text></g><g id="Guides"><g id="H-reference" style="fill:#27AAE1;stroke:none;" transform="matrix(1 0 0 1 339 696)"><path d="M 54.9316 0 L 57.666 0 L 30.5664 -70.459 L 28.0762 -70.459 L 0.976562 0 L 3.66211 0 L 12.9395 -24.4629 L 45.7031 -24.4629 Z M 29.1992 -67.0898 L 29.4434 -67.0898 L 44.8242 -26.709 L 13.8184 -26.709 Z"/></g><line id="Baseline-S" style="fill:none;stroke:#27AAE1;opacity:1;stroke-width:0.577;" x1="263" x2="3036" y1="696" y2="696"/><line id="Capline-S" style="fill:none;stroke:#27AAE1;opacity:1;stroke-width:0.577;" x1="263" x2="3036" y1="625.541" y2="625.541"/><g id="H-reference" style="fill:#27AAE1;stroke:none;" transform="matrix(1 0 0 1 339 1126)"><path d="M 54.9316 0 L 57.666 0 L 30.5664 -70.459 L 28.0762 -70.459 L 0.976562 0 L 3.66211 0 L 12.9395 -24.4629 L 45.7031 -24.4629 Z M 29.1992 -67.0898 L 29.4434 -67.0898 L 44.8242 -26.709 L 13.8184 -26.709 Z"/></g><line id="Baseline-M" style="fill:none;stroke:#27AAE1;opacity:1;stroke-width:0.577;" x1="263" x2="3036" y1="1126" y2="1126"/><line id="Capline-M" style="fill:none;stroke:#27AAE1;opacity:1;stroke-width:0.577;" x1="263" x2="3036" y1="1055.54" y2="1055.54"/><g id="H-reference" style="fill:#27AAE1;stroke:none;" transform="matrix(1 0 0 1 339 1556)"><path d="M 54.9316 0 L 57.666 0 L 30.5664 -70.459 L 28.0762 -70.459 L 0.976562 0 L 3.66211 0 L 12.9395 -24.4629 L 45.7031 -24.4629 Z M 29.1992 -67.0898 L 29.4434 -67.0898 L 44.8242 -26.709 L 13.8184 -26.709 Z"/></g><line id="Baseline-L" style="fill:none;stroke:#27AAE1;opacity:1;stroke-width:0.577;" x1="263" x2="3036" y1="1556" y2="1556"/><line id="Capline-L" style="fill:none;stroke:#27AAE1;opacity:1;stroke-width:0.577;" x1="263" x2="3036" y1="1485.54" y2="1485.54"/><rect height="119.336" id="left-margin" style="fill:darkred;stroke:none;opacity:0.4;" width="12.4512" x="1394.06" y="1030.79"/><rect height="119.336" id="right-margin" style="fill:darkgreen;stroke:none;opacity:0.4;" width="12.4512" x="1502.5112" y="1030.79"/><rect x="1406.5112" y="1045" width="96" height="96" fill="none" stroke="blue" stroke-dasharray="5"/><rect x="1394.06" y="1030.79" width="120.9024" height="119.336" fill="none" stroke="blue"/></g><g id="Symbols"><g id="Bold-L" transform="matrix(1 0 0 1 2266 1556)"><path d="M77.367105 -37.48749999999998 Q64.91812125 -37.48749999999998 57.049605 -45.35585499999999 Q49.18125 -53.224371249999976 49.18125 -65.673355 Q49.18125 -78.12249999999999 57.049605 -86.02374999999998 Q64.91812125 -93.92499999999998 77.367105 -93.92499999999998 Q89.81625 -93.92499999999998 97.798125 -86.02374999999998 Q105.78 -78.12249999999999 105.78 -65.673355 Q105.78 -53.224371249999976 97.798125 -45.35585499999999 Q89.81625 -37.48749999999998 77.367105 -37.48749999999998 Z M21.76875 22.497500000000016 V3.019306250000014 Q21.76875 -4.157447499999989 25.449765000000003 -9.513204999999992 Q29.13078 -14.868962499999988 34.99125 -17.653749999999988 Q46.1175 -22.65249999999999 56.51151375 -25.15187499999999 Q66.9055275 -27.65124999999999 77.35662375 -27.65124999999999 Q88.1169975 -27.65124999999999 98.39974875 -25.071249999999992 Q108.6825 -22.49124999999998 119.63476125000001 -17.622467499999985 Q125.74791 -15.028761249999988 129.47020500000002 -9.649461249999987 Q133.1925 -4.269999999999982 133.1925 2.9773812500000147 V22.497500000000016 H21.76875 Z M36.92625 7.340000000000018 H117.87375 V3.6312500000000156 Q117.87375 1.1555787500000108 116.341875 -1.0972449999999867 Q114.81 -3.349907499999979 112.55250000000001 -4.431249999999984 Q102.8775 -8.946249999999985 94.73518125 -10.639374999999987 Q86.59270125 -12.332499999999989 77.32018125 -12.332499999999989 Q68.37 -12.332499999999989 59.904375 -10.639374999999987 Q51.43875 -8.946249999999985 42.15542625 -4.4564049999999895 Q39.82875 -3.373611249999982 38.3775 -1.113531249999987 Q36.92625 1.146548750000015 36.92625 3.6312500000000156 V7.340000000000018 Z M77.367105 -52.64499999999998 Q83.04375 -52.64499999999998 86.7525 -56.32891749999999 Q90.46125 -60.01283499999998 90.46125 -65.70060624999999 Q90.46125 -71.45481249999999 86.785395 -75.11115625 Q83.10937875 -78.76749999999998 77.432895 -78.76749999999998 Q71.75625000000001 -78.76749999999998 68.0475 -75.10373874999999 Q64.33875 -71.43997749999998 64.33875 -65.780425 Q64.33875 -60.05443749999999 68.014605 -56.349718749999994 Q71.69062125 -52.64499999999998 77.367105 -52.64499999999998 Z"/></g><g id="Semibold-L" transform="matrix(1 0 0 1 1970.27 1556)"><path d="M77.38145625 -36.57611499999999 Q65.71776 -36.57611499999999 58.32589875 -43.9681375 Q50.933876250000004 -51.36015999999999 50.933876250000004 -63.02369499999999 Q50.933876250000004 -74.68739124999999 58.32589875 -82.09795749999999 Q65.71776 -89.50852375 77.38145625 -89.50852375 Q89.0451525 -89.50852375 96.50119125 -82.09795749999999 Q103.95723000000001 -74.68739124999999 103.95723000000001 -63.02369499999999 Q103.95723000000001 -51.36015999999999 96.50119125 -43.9681375 Q89.0451525 -36.57611499999999 77.38145625 -36.57611499999999 Z M23.52137625 19.83348875000002 V2.2338575000000134 Q23.52137625 -4.486719999999984 26.93407125 -9.406941249999988 Q30.34676625 -14.327001249999988 35.762347500000004 -16.882652499999992 Q46.74847125 -21.811258749999986 56.93495625 -24.275642499999975 Q67.1216025 -26.739864999999995 77.37549 -26.739864999999995 Q87.8041725 -26.739864999999995 97.89277875 -24.195017499999977 Q107.981385 -21.65000874999999 118.86350250000001 -16.85136999999999 Q124.51338000000001 -14.394887499999989 127.94155500000001 -9.472731249999981 Q131.36973 -4.550413749999983 131.36973 2.2101537500000177 V19.83348875000002 H23.52137625 Z M36.29527875 7.059586250000017 H118.50472125 V2.5797387500000184 Q118.50472125 0.058595000000011055 116.97284625 -2.231154999999987 Q115.44097125 -4.52106624999999 113.18347125000001 -5.623048749999988 Q103.2280575 -10.348318749999983 94.90997625000001 -12.111587499999985 Q86.59205625 -13.874856249999986 77.35485000000001 -13.874856249999986 Q68.29985625 -13.874856249999986 59.729096250000005 -12.111587499999985 Q51.158336250000005 -10.348318749999983 41.49430125 -5.63723874999998 Q39.19777875 -4.534449999999985 37.746528749999996 -2.2405074999999854 Q36.29527875 0.053596250000012446 36.29527875 2.5797387500000184 V7.059586250000017 Z M77.38145625 -49.35017874999998 Q83.32416375000001 -49.35017874999998 87.20819250000001 -53.2200175 Q91.09222125000001 -57.09001749999999 91.09222125000001 -63.03901374999998 Q91.09222125000001 -69.02574249999999 87.22673625 -72.88010125 Q83.36125125000001 -76.73446 77.41854375 -76.73446 Q71.47583625 -76.73446 67.5918075 -72.87590874999998 Q63.70777875 -69.01735749999999 63.70777875 -63.08432499999999 Q63.70777875 -57.11355999999998 67.57326375000001 -53.23178874999999 Q71.43874875 -49.35017874999998 77.38145625 -49.35017874999998 Z"/></g><g id="Medium-L" transform="matrix(1 0 0 1 1674.31 1556)"><path d="M77.39209875 -35.892576249999976 Q66.31761 -35.892576249999976 59.28307875 -42.92710749999999 Q52.2485475 -49.96163874999999 52.2485475 -61.03628874999998 Q52.2485475 -72.11077749999998 59.28307875 -79.15321 Q66.31761 -86.19564249999999 77.39209875 -86.19564249999999 Q88.4665875 -86.19564249999999 95.52837 -79.15321 Q102.5901525 -72.11077749999998 102.5901525 -61.03628874999998 Q102.5901525 -49.96163874999999 95.52837 -42.92710749999999 Q88.4665875 -35.892576249999976 77.39209875 -35.892576249999976 Z M24.8360475 17.835278750000015 V1.6446500000000128 Q24.8360475 -4.733916249999986 28.047341250000002 -9.327122499999987 Q31.258635 -13.920489999999987 36.3409125 -16.304087499999987 Q47.221740000000004 -21.180287499999984 57.25261875 -23.618226249999978 Q67.28365875 -26.056326249999984 77.38968 -26.056326249999984 Q87.56955375 -26.056326249999984 97.51255125000002 -23.53760124999998 Q107.45554874999999 -21.01903749999999 118.28509875000002 -16.272804999999984 Q123.58732125 -13.919522499999985 126.79490625000001 -9.34018374999998 Q130.0026525 -4.760683749999984 130.0026525 1.6344912500000106 V17.835278750000015 H24.8360475 Z M35.82201 6.849316250000015 H118.97798999999999 V1.7909037500000125 Q118.97798999999999 -0.7641024999999857 117.44611499999999 -3.0819099999999864 Q115.91423999999999 -5.399556249999982 113.65674 -6.517018749999984 Q103.490895 -11.399991249999985 95.04123375 -13.215827499999989 Q86.5915725 -15.031663749999979 77.3809725 -15.031663749999979 Q68.24728875 -15.031663749999979 59.5976775 -13.215827499999989 Q50.948066250000004 -11.399991249999985 40.99861875 -6.522984999999984 Q38.72451 -5.4051999999999865 37.27326 -3.0857799999999855 Q35.82201 -0.7663599999999846 35.82201 1.7909037500000125 V6.849316250000015 Z M77.39209875 -46.87853874999999 Q83.53443375 -46.87853874999999 87.5500425 -50.88818124999999 Q91.56549 -54.897662499999996 91.56549 -61.042738749999984 Q91.56549 -67.20361749999998 87.5577825 -71.2064875 Q83.55023625 -75.20951874999997 77.40790125 -75.20951874999997 Q71.26556625 -75.20951874999997 67.2499575 -71.20471375 Q63.23451 -67.20006999999998 63.23451 -61.06176624999999 Q63.23451 -54.90765999999999 67.2422175 -50.89317999999999 Q71.24976375 -46.87853874999999 77.39209875 -46.87853874999999 Z"/></g><g id="Regular-L" transform="matrix(1 0 0 1 1378.56 1556)"><path d="M77.4 -35.391249999999985 Q66.75750000000001 -35.391249999999985 59.985 -42.16374999999999 Q53.2125 -48.93624999999999 53.2125 -59.578749999999985 Q53.2125 -70.22124999999998 59.985 -76.99374999999999 Q66.75750000000001 -83.76624999999999 77.4 -83.76624999999999 Q88.0425 -83.76624999999999 94.815 -76.99374999999999 Q101.5875 -70.22124999999998 101.5875 -59.578749999999985 Q101.5875 -48.93624999999999 94.815 -42.16374999999999 Q88.0425 -35.391249999999985 77.4 -35.391249999999985 Z M25.8 16.370000000000015 V1.2125000000000128 Q25.8 -4.914999999999985 28.86375 -9.268749999999983 Q31.927500000000002 -13.622499999999988 36.765 -15.879999999999988 Q47.56875 -20.717499999999987 57.485625 -23.13624999999999 Q67.4025 -25.554999999999993 77.4 -25.554999999999993 Q87.39750000000001 -25.554999999999993 97.23375 -23.055624999999992 Q107.07000000000001 -20.556249999999984 117.86101125 -15.848717499999985 Q122.9082975 -13.570899999999988 125.95414875 -9.24294999999998 Q129.0 -4.914999999999985 129.0 1.2125000000000128 V16.370000000000015 H25.8 Z M35.475 6.6950000000000145 H119.325 V1.2125000000000128 Q119.325 -1.3674999999999855 117.793125 -3.7056249999999835 Q116.26125 -6.043749999999989 114.00375 -7.172499999999985 Q103.68375 -12.171249999999986 95.1375 -14.025624999999984 Q86.59125 -15.879999999999988 77.4 -15.879999999999988 Q68.20875 -15.879999999999988 59.50125 -14.025624999999984 Q50.79375 -12.171249999999986 40.635 -7.172499999999985 Q38.3775 -6.043749999999989 36.92625 -3.7056249999999835 Q35.475 -1.3674999999999855 35.475 1.2125000000000128 V6.6950000000000145 Z M77.4 -45.06624999999998 Q83.68875 -45.06624999999998 87.800625 -49.17812499999998 Q91.91250000000001 -53.28999999999999 91.91250000000001 -59.578749999999985 Q91.91250000000001 -65.86749999999999 87.800625 -69.97937499999999 Q83.68875 -74.09124999999999 77.4 -74.09124999999999 Q71.11125 -74.09124999999999 66.999375 -69.97937499999999 Q62.8875 -65.86749999999999 62.8875 -59.578749999999985 Q62.8875 -53.28999999999999 66.999375 -49.17812499999998 Q71.11125 -45.06624999999998 77.4 -45.06624999999998 Z"/></g><g id="Light-L" transform="matrix(1 0 0 1 1082.77 1556)"><path d="M77.4 -37.31399499999998 Q68.08797375 -37.31399499999998 62.045775 -43.35619374999999 Q56.00357625000001 -49.398392499999986 56.00357625000001 -58.741378749999996 Q56.00357625000001 -68.08452625 62.045775 -74.09576499999999 Q68.08797375 -80.1068425 77.4 -80.1068425 Q86.71202625000001 -80.1068425 92.754225 -74.09576499999999 Q98.79642375 -68.08452625 98.79642375 -58.741378749999996 Q98.79642375 -49.398392499999986 92.754225 -43.35619374999999 Q86.71202625000001 -37.31399499999998 77.4 -37.31399499999998 Z M29.02516125 11.904342500000016 V-0.3380799999999837 Q29.02516125 -5.535167499999986 31.778827500000002 -9.39275124999999 Q34.53249375 -13.250334999999986 38.93590875 -15.321752499999988 Q49.11933 -19.84916874999999 58.56906375 -22.143917499999986 Q68.01895875 -24.438504999999992 77.398065 -24.438504999999992 Q86.7773325 -24.438504999999992 96.17933625 -22.094252499999982 Q105.58150125 -19.749999999999986 115.72461000000001 -15.277892499999986 Q120.2999175 -13.21195749999999 123.03729750000001 -9.373562499999984 Q125.77483875 -5.535167499999986 125.77483875 -0.3380799999999837 V11.904342500000016 H29.02516125 Z M36.34333125 4.586172500000018 H118.45666875 V-0.3380799999999837 Q118.45666875 -2.8559987499999835 116.8627125 -5.163163749999981 Q115.2689175 -7.470328749999979 112.70117250000001 -8.78516124999998 Q103.18758375 -13.411746249999986 94.753725 -15.266121249999983 Q86.3200275 -17.12049624999998 77.4 -17.12049624999998 Q68.4799725 -17.12049624999998 59.915985 -15.266121249999983 Q51.3519975 -13.411746249999986 41.9994975 -8.78516124999998 Q39.43191375 -7.470328749999979 37.8876225 -5.163163749999981 Q36.34333125 -2.8559987499999835 36.34333125 -0.3380799999999837 V4.586172500000018 Z M77.4 -44.632003749999996 Q83.44058625000001 -44.632003749999996 87.45942000000001 -48.650998749999985 Q91.47825375000001 -52.669832499999984 91.47825375000001 -58.71041874999999 Q91.47825375000001 -64.75100499999999 87.45942000000001 -68.76983874999999 Q83.44058625000001 -72.78867249999999 77.4 -72.78867249999999 Q71.35941375 -72.78867249999999 67.34058 -68.76983874999999 Q63.32174625 -64.75100499999999 63.32174625 -58.71041874999999 Q63.32174625 -52.669832499999984 67.34058 -48.650998749999985 Q71.35941375 -44.632003749999996 77.4 -44.632003749999996 Z"/></g><g id="Thin-L" transform="matrix(1 0 0 1 787.282 1556)"><path d="M77.4 -39.23641749999999 Q69.418125 -39.23641749999999 64.1062275 -44.54831499999999 Q58.794168750000004 -49.86037374999998 58.794168750000004 -57.90416874999998 Q58.794168750000004 -65.94812499999999 64.1062275 -71.19810249999999 Q69.418125 -76.44807999999999 77.4 -76.44807999999999 Q85.38187500000001 -76.44807999999999 90.69393375 -71.19810249999999 Q96.00583125 -65.94812499999999 96.00583125 -57.90416874999998 Q96.00583125 -49.86037374999998 90.69393375 -44.54831499999999 Q85.38187500000001 -39.23641749999999 77.4 -39.23641749999999 Z M32.25 7.4393300000000195 V-1.8884987499999824 Q32.25 -6.155334999999987 34.6935825 -9.516752499999988 Q37.13700375 -12.878331249999981 41.106333750000005 -14.763666249999986 Q50.669748750000004 -18.980998749999983 59.6525025 -21.15158499999999 Q68.63525625 -23.322332499999987 77.39613 -23.322332499999987 Q86.157165 -23.322332499999987 95.12508375 -21.133041249999984 Q104.09316375 -18.943749999999987 113.58853125 -14.707067499999987 Q117.69185999999999 -12.853176249999983 120.12093000000002 -9.504174999999982 Q122.55 -6.155334999999987 122.55 -1.8884987499999824 V7.4393300000000195 H32.25 Z M37.211501250000005 2.477667500000017 H117.58849875 V-1.8884987499999824 Q117.58849875 -4.344336249999991 115.93262250000001 -6.620541249999988 Q114.27658500000001 -8.896584999999988 111.39891750000001 -10.397499999999987 Q102.6914175 -14.652081249999988 94.37011125 -16.506456249999985 Q86.048805 -18.360831249999983 77.4 -18.360831249999983 Q68.751195 -18.360831249999983 60.33072 -16.506456249999985 Q51.91008375 -14.652081249999988 43.363833750000005 -10.397499999999987 Q40.486166250000004 -8.896584999999988 38.848833750000004 -6.620541249999988 Q37.211501250000005 -4.344336249999991 37.211501250000005 -1.8884987499999824 V2.477667500000017 Z M77.4 -44.197918749999985 Q83.19258375 -44.197918749999985 87.11837625 -48.12387249999999 Q91.04416875 -52.04966499999999 91.04416875 -57.84224874999998 Q91.04416875 -63.63483249999999 87.11837625 -67.56062499999999 Q83.19258375 -71.48641749999999 77.4 -71.48641749999999 Q71.60741625 -71.48641749999999 67.68162375 -67.56062499999999 Q63.75583125 -63.63483249999999 63.75583125 -57.84224874999998 Q63.75583125 -52.04966499999999 67.68162375 -48.12387249999999 Q71.60741625 -44.197918749999985 77.4 -44.197918749999985 Z"/></g><g id="Ultralight-L" transform="matrix(1 0 0 1 491.205 1556)"><path d="M77.4 -40.389999999999986 Q70.2163125 -40.389999999999986 65.34253125000001 -45.263781249999994 Q60.46875 -50.13756249999999 60.46875 -57.40187499999999 Q60.46875 -64.66618749999998 65.34253125000001 -69.45934374999999 Q70.2163125 -74.25249999999998 77.4 -74.25249999999998 Q84.5836875 -74.25249999999998 89.45746875 -69.45934374999999 Q94.33125 -64.66618749999998 94.33125 -57.40187499999999 Q94.33125 -50.13756249999999 89.45746875 -45.263781249999994 Q84.5836875 -40.389999999999986 77.4 -40.389999999999986 Z M34.185 4.760000000000012 V-2.818749999999987 Q34.185 -6.527499999999982 36.4425 -9.591249999999988 Q38.7 -12.654999999999987 42.40875 -14.428749999999987 Q51.6 -18.459999999999987 60.30250125 -20.556249999999984 Q69.0050025 -22.65249999999999 77.39500125 -22.65249999999999 Q85.785 -22.65249999999999 94.4925 -20.556249999999984 Q103.2 -18.459999999999987 112.30675500000001 -14.36457249999998 Q116.12692875 -12.637746249999978 118.37088375 -9.582703749999986 Q120.61500000000001 -6.527499999999982 120.61500000000001 -2.818749999999987 V4.760000000000012 H34.185 Z M37.7325 1.2125000000000128 H117.06750000000001 V-2.818749999999987 Q117.06750000000001 -5.237499999999983 115.374375 -7.494999999999983 Q113.68125 -9.752499999999984 110.6175 -11.364999999999988 Q102.39375 -15.396249999999988 94.13984625 -17.250624999999985 Q85.88610374999999 -19.104999999999983 77.4 -19.104999999999983 Q68.91405750000001 -19.104999999999983 60.57952875 -17.250624999999985 Q52.245000000000005 -15.396249999999988 44.182500000000005 -11.364999999999988 Q41.11875 -9.752499999999984 39.425625000000004 -7.494999999999983 Q37.7325 -5.237499999999983 37.7325 -2.818749999999987 V1.2125000000000128 Z M77.4 -43.937499999999986 Q83.04375 -43.937499999999986 86.91375000000001 -47.80749999999999 Q90.78375 -51.67749999999998 90.78375 -57.32124999999999 Q90.78375 -62.96499999999999 86.91375000000001 -66.835 Q83.04375 -70.70499999999998 77.4 -70.70499999999998 Q71.75625000000001 -70.70499999999998 67.88625 -66.835 Q64.01625 -62.96499999999999 64.01625 -57.32124999999999 Q64.01625 -51.67749999999998 67.88625 -47.80749999999999 Q71.75625000000001 -43.937499999999986 77.4 -43.937499999999986 Z"/></g><g id="Bold-M" transform="matrix(1 0 0 1 2281.8 1126)"><path d="M60.0 -37.35499999999999 Q49.875 -37.35499999999999 42.8125 -44.41749999999999 Q35.75 -51.47999999999999 35.75 -61.60499999999999 Q35.75 -71.72999999999999 42.8125 -78.72999999999999 Q49.875 -85.72999999999999 60.0 -85.72999999999999 Q70.125 -85.72999999999999 77.1875 -78.72999999999999 Q84.25 -71.72999999999999 84.25 -61.60499999999999 Q84.25 -51.47999999999999 77.1875 -44.41749999999999 Q70.125 -37.35499999999999 60.0 -37.35499999999999 Z M15.75 11.14500000000001 V-7.35499999999999 Q15.75 -12.767749999999992 18.586875 -17.30487499999999 Q21.423875 -21.84199999999999 26.125 -24.22999999999999 Q34.25 -28.22999999999999 42.744875 -30.29249999999999 Q51.23975 -32.35499999999999 60.0 -32.35499999999999 Q69.0 -32.35499999999999 77.5 -30.35499999999999 Q86.0 -28.35499999999999 93.875 -24.35499999999999 Q98.576125 -21.985249999999986 101.413125 -17.48262499999999 Q104.25 -12.97999999999999 104.25 -7.361874999999991 V11.14500000000001 H15.75 Z M31.5 -4.60499999999999 H88.5 V-6.72999999999999 Q88.5 -7.983624999999989 87.8125 -9.009374999999991 Q87.125 -10.035124999999987 86.0 -10.60499999999999 Q80.0 -13.47999999999999 73.5 -15.04249999999999 Q67.0 -16.60499999999999 60.0 -16.60499999999999 Q53.25 -16.60499999999999 46.5 -15.04249999999999 Q39.75 -13.47999999999999 34.0 -10.60499999999999 Q32.875 -10.035124999999987 32.1875 -9.009374999999991 Q31.5 -7.983624999999989 31.5 -6.72999999999999 V-4.60499999999999 Z M59.995625 -53.10499999999999 Q63.5 -53.10499999999999 66.0 -55.600624999999994 Q68.5 -58.09612499999999 68.5 -61.600624999999994 Q68.5 -65.10499999999999 66.004375 -67.54249999999999 Q63.508875 -69.97999999999999 60.004375 -69.97999999999999 Q56.5 -69.97999999999999 54.0 -67.51987499999998 Q51.5 -65.05975 51.5 -61.60499999999999 Q51.5 -58.098749999999995 53.995625 -55.60187499999999 Q56.491125 -53.10499999999999 59.995625 -53.10499999999999 Z"/></g><g id="Semibold-M" transform="matrix(1 0 0 1 1985.97 1126)"><path d="M60.0 -36.43112499999999 Q50.690125 -36.43112499999999 44.143875 -42.977374999999995 Q37.59775 -49.523624999999996 37.59775 -58.83349999999999 Q37.59775 -68.14325 44.143875 -74.654125 Q50.690125 -81.16512499999999 60.0 -81.16512499999999 Q69.309875 -81.16512499999999 75.856125 -74.654125 Q82.40225 -68.14325 82.40225 -58.83349999999999 Q82.40225 -49.523624999999996 75.856125 -42.977374999999995 Q69.309875 -36.43112499999999 60.0 -36.43112499999999 Z M17.59775 8.37350000000001 V-8.170124999999992 Q17.59775 -13.07737499999999 20.15225 -17.190749999999987 Q22.706875 -21.30424999999999 26.940125 -23.46912499999999 Q34.902125 -27.414874999999988 43.181875 -29.422999999999988 Q51.4615 -31.431124999999987 60.0 -31.431124999999987 Q68.673875 -31.431124999999987 76.9565 -29.45837499999999 Q85.239125 -27.485499999999988 93.059875 -23.539874999999988 Q97.293125 -21.385124999999988 99.84775 -17.29124999999999 Q102.40225 -13.197374999999987 102.40225 -8.173999999999992 V8.37350000000001 H17.59775 Z M30.847875 -4.876749999999991 H89.152125 V-7.816874999999989 Q89.152125 -9.123249999999992 88.464625 -10.192249999999987 Q87.777125 -11.261124999999993 86.652125 -11.854874999999993 Q80.326125 -14.94724999999999 73.663 -16.56412499999999 Q67.0 -18.18099999999999 60.0 -18.18099999999999 Q53.14125 -18.18099999999999 46.337 -16.56412499999999 Q39.532625 -14.94724999999999 33.347875 -11.854874999999993 Q32.222875 -11.261124999999993 31.535375 -10.192249999999987 Q30.847875 -9.123249999999992 30.847875 -7.816874999999989 V-4.876749999999991 Z M59.9975 -49.68137499999999 Q63.77175 -49.68137499999999 66.461875 -52.368999999999986 Q69.152125 -55.056749999999994 69.152125 -58.83099999999999 Q69.152125 -62.60512499999999 66.464375 -65.25999999999999 Q63.77675 -67.914875 60.0025 -67.914875 Q56.22825 -67.914875 53.538125 -65.24725 Q50.847875 -62.579499999999996 50.847875 -58.83349999999999 Q50.847875 -55.05824999999999 53.535625 -52.369749999999996 Q56.22325 -49.68137499999999 59.9975 -49.68137499999999 Z"/></g><g id="Medium-M" transform="matrix(1 0 0 1 1689.91 1126)"><path d="M60.0 -35.73812499999999 Q51.301625 -35.73812499999999 45.142625 -41.89712499999999 Q38.983625 -48.056124999999994 38.983625 -56.75449999999999 Q38.983625 -65.45287499999999 45.142625 -71.59687499999998 Q51.301625 -77.74087499999999 60.0 -77.74087499999999 Q68.698375 -77.74087499999999 74.857375 -71.59687499999998 Q81.016375 -65.45287499999999 81.016375 -56.75449999999999 Q81.016375 -48.056124999999994 74.857375 -41.89712499999999 Q68.698375 -35.73812499999999 60.0 -35.73812499999999 Z M18.983625 6.29450000000001 V-8.781624999999991 Q18.983625 -13.30962499999999 21.3265 -17.10524999999999 Q23.66925 -20.900874999999992 27.551625 -22.89849999999999 Q35.39125 -26.80337499999999 43.509625 -28.770749999999992 Q51.628 -30.73812499999999 60.0 -30.73812499999999 Q68.429375 -30.73812499999999 76.548875 -28.785749999999993 Q84.6685 -26.833249999999992 92.448375 -22.92837499999999 Q96.33075 -20.934999999999988 98.6735 -17.147749999999988 Q101.016375 -13.36037499999999 101.016375 -8.783249999999988 V6.29450000000001 H18.983625 Z M30.35875 -5.08049999999999 H89.64125 V-8.632124999999988 Q89.64125 -9.978124999999991 88.95375 -11.079374999999992 Q88.26625 -12.180624999999992 87.14125 -12.79249999999999 Q80.570625 -16.04787499999999 73.785375 -17.705499999999986 Q67.0 -19.36312499999999 60.0 -19.36312499999999 Q53.05975 -19.36312499999999 46.214625 -17.705499999999986 Q39.369625 -16.04787499999999 32.85875 -12.79249999999999 Q31.73375 -12.180624999999992 31.04625 -11.079374999999992 Q30.35875 -9.978124999999991 30.35875 -8.632124999999988 V-5.08049999999999 Z M59.999 -47.113249999999994 Q63.9755 -47.113249999999994 66.808375 -49.94499999999999 Q69.64125 -52.77687499999999 69.64125 -56.75337499999999 Q69.64125 -60.72999999999999 66.8095 -63.54799999999999 Q63.977625 -66.36587499999999 60.001 -66.36587499999999 Q56.0245 -66.36587499999999 53.191625 -63.54249999999999 Q50.35875 -60.71924999999999 50.35875 -56.75449999999999 Q50.35875 -52.77749999999999 53.1905 -49.945374999999984 Q56.022375 -47.113249999999994 59.999 -47.113249999999994 Z"/></g><g id="Regular-M" transform="matrix(1 0 0 1 1394.06 1126)"><path d="M60.0 -35.22999999999999 Q51.75 -35.22999999999999 45.875 -41.10499999999999 Q40.0 -46.97999999999999 40.0 -55.22999999999999 Q40.0 -63.47999999999999 45.875 -69.35499999999999 Q51.75 -75.22999999999999 60.0 -75.22999999999999 Q68.25 -75.22999999999999 74.125 -69.35499999999999 Q80.0 -63.47999999999999 80.0 -55.22999999999999 Q80.0 -46.97999999999999 74.125 -41.10499999999999 Q68.25 -35.22999999999999 60.0 -35.22999999999999 Z M20.0 4.77000000000001 V-9.22999999999999 Q20.0 -13.47999999999999 22.1875 -17.04249999999999 Q24.375 -20.60499999999999 28.0 -22.47999999999999 Q35.75 -26.35499999999999 43.75 -28.29249999999999 Q51.75 -30.22999999999999 60.0 -30.22999999999999 Q68.25 -30.22999999999999 76.25 -28.29249999999999 Q84.25 -26.35499999999999 92.0 -22.47999999999999 Q95.625 -20.60499999999999 97.8125 -17.04249999999999 Q100.0 -13.47999999999999 100.0 -9.22999999999999 V4.77000000000001 H20.0 Z M30.0 -5.22999999999999 H90.0 V-9.22999999999999 Q90.0 -10.60499999999999 89.3125 -11.72999999999999 Q88.625 -12.85499999999999 87.5 -13.47999999999999 Q80.75 -16.85499999999999 73.875 -18.54249999999999 Q67.0 -20.22999999999999 60.0 -20.22999999999999 Q53.0 -20.22999999999999 46.125 -18.54249999999999 Q39.25 -16.85499999999999 32.5 -13.47999999999999 Q31.375 -12.85499999999999 30.6875 -11.72999999999999 Q30.0 -10.60499999999999 30.0 -9.22999999999999 V-5.22999999999999 Z M60.0 -45.22999999999999 Q64.125 -45.22999999999999 67.0625 -48.16749999999999 Q70.0 -51.10499999999999 70.0 -55.22999999999999 Q70.0 -59.35499999999999 67.0625 -62.29249999999999 Q64.125 -65.22999999999999 60.0 -65.22999999999999 Q55.875 -65.22999999999999 52.9375 -62.29249999999999 Q50.0 -59.35499999999999 50.0 -55.22999999999999 Q50.0 -51.10499999999999 52.9375 -48.16749999999999 Q55.875 -45.22999999999999 60.0 -45.22999999999999 Z"/></g><g id="Light-M" transform="matrix(1 0 0 1 1098.18 1126)"><path d="M60.0 -36.76862499999999 Q52.781375 -36.76862499999999 47.64075 -41.90912499999999 Q42.500125 -47.04974999999999 42.500125 -54.26837499999999 Q42.500125 -61.48712499999999 47.64075 -66.627625 Q52.781375 -71.76825 60.0 -71.76825 Q67.218625 -71.76825 72.35925 -66.627625 Q77.499875 -61.48712499999999 77.499875 -54.26837499999999 Q77.499875 -47.04974999999999 72.35925 -41.90912499999999 Q67.218625 -36.76862499999999 60.0 -36.76862499999999 Z M22.500125 1.3082500000000117 V-9.806999999999988 Q22.500125 -13.47999999999999 24.495375 -16.60974999999999 Q26.4905 -19.739499999999992 29.827 -21.42224999999999 Q37.2405 -25.05687499999999 44.78375 -26.874124999999992 Q52.327 -28.691374999999987 60.0 -28.691374999999987 Q67.673 -28.691374999999987 75.21625 -26.874124999999992 Q82.7595 -25.05687499999999 90.173 -21.42224999999999 Q93.5095 -19.739499999999992 95.504625 -16.60974999999999 Q97.499875 -13.47999999999999 97.499875 -9.806999999999988 V1.3082500000000117 H22.500125 Z M30.0 -6.191624999999991 H90.0 V-9.806999999999988 Q90.0 -11.326249999999987 89.120125 -12.619499999999988 Q88.240375 -13.912749999999988 86.73075 -14.730124999999987 Q80.26925 -17.91274999999999 73.5535 -19.552249999999987 Q66.83775 -21.191624999999988 60.0 -21.191624999999988 Q53.16225 -21.191624999999988 46.4465 -19.552249999999987 Q39.73075 -17.91274999999999 33.26925 -14.730124999999987 Q31.759625 -13.912749999999988 30.879875 -12.619499999999988 Q30.0 -11.326249999999987 30.0 -9.806999999999988 V-6.191624999999991 Z M60.0 -44.26837499999999 Q64.125 -44.26837499999999 67.0625 -47.20587499999999 Q70.0 -50.14337499999999 70.0 -54.26837499999999 Q70.0 -58.39337499999999 67.0625 -61.33087499999999 Q64.125 -64.26837499999999 60.0 -64.26837499999999 Q55.875 -64.26837499999999 52.9375 -61.33087499999999 Q50.0 -58.39337499999999 50.0 -54.26837499999999 Q50.0 -50.14337499999999 52.9375 -47.20587499999999 Q55.875 -44.26837499999999 60.0 -44.26837499999999 Z"/></g><g id="Thin-M" transform="matrix(1 0 0 1 802.565 1126)"><path d="M60.0 -38.30687499999999 Q53.8125 -38.30687499999999 49.40625 -42.71312499999999 Q45.0 -47.11937499999999 45.0 -53.30687499999999 Q45.0 -59.49449999999999 49.40625 -63.90074999999999 Q53.8125 -68.30699999999999 60.0 -68.30699999999999 Q66.1875 -68.30699999999999 70.59375 -63.90074999999999 Q75.0 -59.49449999999999 75.0 -53.30687499999999 Q75.0 -47.11937499999999 70.59375 -42.71312499999999 Q66.1875 -38.30687499999999 60.0 -38.30687499999999 Z M25.0 -2.152999999999988 V-10.383874999999989 Q25.0 -13.47999999999999 26.802875 -16.17712499999999 Q28.60575 -18.87424999999999 31.653875 -20.36462499999999 Q38.73075 -23.75887499999999 45.81725 -25.45599999999999 Q52.903875 -27.15312499999999 60.0 -27.15312499999999 Q67.096125 -27.15312499999999 74.18275 -25.45599999999999 Q81.26925 -23.75887499999999 88.346125 -20.36462499999999 Q91.39425 -18.87424999999999 93.197125 -16.17712499999999 Q95.0 -13.47999999999999 95.0 -10.383874999999989 V-2.152999999999988 H25.0 Z M30.0 -7.153124999999989 H90.0 V-10.383874999999989 Q90.0 -12.047249999999991 88.927875 -13.508874999999989 Q87.85575 -14.97037499999999 85.9615 -15.97999999999999 Q79.7885 -18.97037499999999 73.232 -20.56174999999999 Q66.675625 -22.15312499999999 60.0 -22.15312499999999 Q53.324375 -22.15312499999999 46.768 -20.56174999999999 Q40.2115 -18.97037499999999 34.0385 -15.97999999999999 Q32.14425 -14.97037499999999 31.072125 -13.508874999999989 Q30.0 -12.047249999999991 30.0 -10.383874999999989 V-7.153124999999989 Z M60.0 -43.30687499999999 Q64.125 -43.30687499999999 67.0625 -46.24437499999999 Q70.0 -49.18187499999999 70.0 -53.30687499999999 Q70.0 -57.43187499999999 67.0625 -60.36937499999999 Q64.125 -63.30687499999999 60.0 -63.30687499999999 Q55.875 -63.30687499999999 52.9375 -60.36937499999999 Q50.0 -57.43187499999999 50.0 -53.30687499999999 Q50.0 -49.18187499999999 52.9375 -46.24437499999999 Q55.875 -43.30687499999999 60.0 -43.30687499999999 Z"/></g><g id="Ultralight-M" transform="matrix(1 0 0 1 506.415 1126)"><path d="M60.0 -39.22999999999999 Q54.43125 -39.22999999999999 50.465625 -43.19562499999999 Q46.5 -47.161249999999995 46.5 -52.72999999999999 Q46.5 -58.298749999999984 50.465625 -62.26437499999999 Q54.43125 -66.22999999999999 60.0 -66.22999999999999 Q65.56875 -66.22999999999999 69.534375 -62.26437499999999 Q73.5 -58.298749999999984 73.5 -52.72999999999999 Q73.5 -47.161249999999995 69.534375 -43.19562499999999 Q65.56875 -39.22999999999999 60.0 -39.22999999999999 Z M26.5 -4.22999999999999 V-10.72999999999999 Q26.5 -13.47999999999999 28.1875 -15.91749999999999 Q29.875 -18.35499999999999 32.75 -19.72999999999999 Q39.625 -22.97999999999999 46.4375 -24.60499999999999 Q53.25 -26.22999999999999 60.0 -26.22999999999999 Q66.75 -26.22999999999999 73.5625 -24.60499999999999 Q80.375 -22.97999999999999 87.25 -19.72999999999999 Q90.125 -18.35499999999999 91.8125 -15.91749999999999 Q93.5 -13.47999999999999 93.5 -10.72999999999999 V-4.22999999999999 H26.5 Z M30.0 -7.72999999999999 H90.0 V-10.72999999999999 Q90.0 -12.47999999999999 88.8125 -14.04249999999999 Q87.625 -15.60499999999999 85.5 -16.72999999999999 Q79.5 -19.60499999999999 73.039125 -21.16749999999999 Q66.578375 -22.72999999999999 60.0 -22.72999999999999 Q53.42175 -22.72999999999999 46.960875 -21.16749999999999 Q40.5 -19.60499999999999 34.5 -16.72999999999999 Q32.375 -15.60499999999999 31.1875 -14.04249999999999 Q30.0 -12.47999999999999 30.0 -10.72999999999999 V-7.72999999999999 Z M60.0 -42.72999999999999 Q64.125 -42.72999999999999 67.0625 -45.66749999999999 Q70.0 -48.60499999999999 70.0 -52.72999999999999 Q70.0 -56.85499999999999 67.0625 -59.79249999999999 Q64.125 -62.72999999999999 60.0 -62.72999999999999 Q55.875 -62.72999999999999 52.9375 -59.79249999999999 Q50.0 -56.85499999999999 50.0 -52.72999999999999 Q50.0 -48.60499999999999 52.9375 -45.66749999999999 Q55.875 -42.72999999999999 60.0 -42.72999999999999 Z"/></g><g id="Bold-S" transform="matrix(1 0 0 1 2294.23 696)"><path d="M47.34 -36.90662499999999 Q39.943125 -36.90662499999999 34.8639375 -41.98581249999999 Q29.784750000000003 -47.06499999999999 29.784750000000003 -54.46187499999999 Q29.784750000000003 -61.858749999999986 34.8639375 -66.88862499999999 Q39.943125 -71.9185 47.34 -71.9185 Q54.736875000000005 -71.9185 59.8160625 -66.88862499999999 Q64.89525 -61.858749999999986 64.89525 -54.46187499999999 Q64.89525 -47.06499999999999 59.8160625 -41.98581249999999 Q54.736875000000005 -36.90662499999999 47.34 -36.90662499999999 Z M15.58275 -1.7961249999999875 V-14.814624999999989 Q15.58275 -18.00040974999999 17.327919375 -20.791201374999986 Q19.073187375 -23.58199299999999 22.092000000000002 -25.367499999999986 Q27.812250000000002 -28.62212499999999 34.247629875 -30.39737499999999 Q40.683009750000004 -32.17262499999999 47.319486 -32.17262499999999 Q54.145125 -32.17262499999999 60.6050625 -30.44668749999999 Q67.065 -28.72074999999999 72.58800000000001 -25.46612499999999 Q75.606812625 -23.793642249999984 77.352080625 -20.980758624999986 Q79.09725 -18.167874999999988 79.09725 -14.82004937499999 V-1.7961249999999875 H15.58275 Z M27.2205 -13.433874999999986 H67.4595 V-14.321499999999986 Q67.4595 -14.73631674999999 67.16115937500001 -15.075685374999988 Q66.86281875 -15.41505399999999 66.37462500000001 -15.603624999999987 Q62.429625 -17.970624999999988 57.597 -19.25274999999999 Q52.764375 -20.534874999999985 47.34 -20.534874999999985 Q42.112875 -20.534874999999985 37.083 -19.25274999999999 Q32.053125 -17.970624999999988 28.305375 -15.603624999999987 Q27.812250000000002 -15.252618624999986 27.516375 -14.96364737499999 Q27.2205 -14.67467612499999 27.2205 -14.321499999999986 V-13.433874999999986 Z M47.357456625000005 -48.54437499999999 Q49.805625 -48.54437499999999 51.5315625 -50.28776912499999 Q53.2575 -52.03116324999999 53.2575 -54.479331624999986 Q53.2575 -56.927499999999995 51.514105875 -58.604124999999996 Q49.770711750000004 -60.28074999999998 47.322543375 -60.28074999999998 Q44.874375 -60.28074999999998 43.1484375 -58.56526674999999 Q41.4225 -56.84988212499998 41.4225 -54.44096649999999 Q41.4225 -51.99131874999999 43.165894125 -50.26784687499999 Q44.90928825 -48.54437499999999 47.357456625000005 -48.54437499999999 Z"/></g><g id="Semibold-S" transform="matrix(1 0 0 1 1998.1 696)"><path d="M47.34 -36.17768762499998 Q40.586258625000006 -36.17768762499998 35.914392375000006 -40.84955387499999 Q31.24262475 -45.52142012499999 31.24262475 -52.27516149999998 Q31.24262475 -59.02880424999999 35.914392375000006 -63.672759625 Q40.586258625000006 -68.316813625 47.34 -68.316813625 Q54.09374137500001 -68.316813625 58.76560762500001 -63.672759625 Q63.43737525 -59.02880424999999 63.43737525 -52.27516149999998 Q63.43737525 -45.52142012499999 58.76560762500001 -40.84955387499999 Q54.09374137500001 -36.17768762499998 47.34 -36.17768762499998 Z M17.040624750000003 -3.9828384999999855 V-15.45775862499999 Q17.040624750000003 -18.24470387499999 18.563000249999998 -20.70115674999999 Q20.085474375 -23.157708249999985 22.735133625 -24.767169624999987 Q28.326776625 -27.978991374999985 34.592422875000004 -29.711339499999987 Q40.858069125 -31.44368762499999 47.319486 -31.44368762499999 Q53.887812374999996 -31.44368762499999 60.176241000000005 -29.73925037499999 Q66.464669625 -28.034714499999986 71.944866375 -24.822991374999987 Q74.594525625 -23.320143624999986 76.11699975 -20.82976374999999 Q77.63937525 -18.339383874999985 77.63937525 -15.46081599999999 V-3.9828384999999855 H17.040624750000003 Z M26.705973375000003 -13.648285749999985 H67.97402662500001 V-15.179044374999986 Q67.97402662500001 -15.635480874999985 67.675686 -16.008875124999985 Q67.377345375 -16.38236799999999 66.889151625 -16.58977637499999 Q62.686937625000006 -19.128285249999987 57.725607 -20.45331212499999 Q52.764375 -21.77833899999999 47.34 -21.77833899999999 Q42.02707125 -21.77833899999999 36.954393 -20.45331212499999 Q31.881616125000004 -19.128285249999987 27.790848375000003 -16.58977637499999 Q27.297723375000004 -16.21993262499999 27.001848375 -15.89683712499999 Q26.705973375000003 -15.573840249999986 26.705973375000003 -15.179044374999986 V-13.648285749999985 Z M47.358936 -45.84313487499999 Q50.02003575 -45.84313487499999 51.895981875000004 -47.73811562499999 Q53.772026625 -49.63309637499999 53.772026625 -52.29409749999999 Q53.772026625 -54.95509862499999 51.87704587500001 -56.80323249999999 Q49.982065125 -58.651366374999995 47.321064 -58.651366374999995 Q44.65996425 -58.651366374999995 42.784018125 -56.77226424999999 Q40.907973375000005 -54.89306349999998 40.907973375000005 -52.254154374999985 Q40.907973375000005 -49.59236424999999 42.80295412500001 -47.71770024999999 Q44.697934875 -45.84313487499999 47.358936 -45.84313487499999 Z"/></g><g id="Medium-S" transform="matrix(1 0 0 1 1701.85 696)"><path d="M47.34 -35.63091062499999 Q41.068732125000004 -35.63091062499999 36.702406125 -39.997236624999985 Q32.336080125 -44.36356262499999 32.336080125 -50.63483049999999 Q32.336080125 -56.906098374999985 36.702406125 -61.26058937499998 Q41.068732125000004 -65.61508037499999 47.34 -65.61508037499999 Q53.611267875 -65.61508037499999 57.977593875000004 -61.26058937499998 Q62.343919875 -56.906098374999985 62.343919875 -50.63483049999999 Q62.343919875 -44.36356262499999 57.977593875000004 -39.997236624999985 Q53.611267875 -35.63091062499999 47.34 -35.63091062499999 Z M18.134080125 -5.623169499999989 V-15.940232124999987 Q18.134080125 -18.427949124999987 19.4894835 -20.63369724999999 Q20.84478825 -22.83944537499999 23.217607125 -24.316946499999986 Q28.71269625 -27.496517874999988 34.851017625000004 -29.196714249999992 Q40.989339 -30.89691062499999 47.319486 -30.89691062499999 Q53.694901875 -30.89691062499999 59.854624875 -29.20854924999999 Q66.0144465 -27.52008924999999 71.462392875 -24.34051787499999 Q73.83521175 -22.964994999999988 75.1905165 -20.71654224999999 Q76.545919875 -18.467990874999987 76.545919875 -15.941514249999987 V-5.623169499999989 H18.134080125 Z M26.320053750000003 -13.809044499999985 H68.35994625000001 V-15.822276624999986 Q68.35994625000001 -16.309977249999985 68.061605625 -16.708915374999986 Q67.763265 -17.10785349999999 67.27507125 -17.329562499999987 Q62.87984812500001 -19.996678374999988 57.822160875 -21.353856999999984 Q52.764375 -22.711035624999987 47.34 -22.711035624999987 Q41.962767750000005 -22.711035624999987 36.857839125 -21.353856999999984 Q31.753009125000002 -19.996678374999988 27.404928750000003 -17.329562499999987 Q26.91180375 -16.94541812499999 26.615928750000002 -16.59687737499999 Q26.320053750000003 -16.248336624999986 26.320053750000003 -15.822276624999986 V-13.809044499999985 Z M47.3601195 -43.816884249999994 Q50.1807945 -43.816884249999994 52.169370375 -45.82548099999999 Q54.15794625 -47.834176374999984 54.15794625 -50.654949999999985 Q54.15794625 -53.475624999999994 52.14925087500001 -55.45246449999999 Q50.140555500000005 -57.429205374999995 47.319880500000004 -57.429205374999995 Q44.4992055 -57.429205374999995 42.510629625 -55.427216499999986 Q40.522053750000005 -53.42522762499999 40.522053750000005 -50.613921999999995 Q40.522053750000005 -47.79285249999999 42.53074912500001 -45.804868374999984 Q44.5394445 -43.816884249999994 47.3601195 -43.816884249999994 Z"/></g><g id="Regular-S" transform="matrix(1 0 0 1 1405.73 696)"><path d="M47.34 -35.22999999999999 Q41.4225 -35.22999999999999 37.28025 -39.37224999999999 Q33.138 -43.51449999999999 33.138 -49.43199999999999 Q33.138 -55.34949999999999 37.28025 -59.491749999999996 Q41.4225 -63.633999999999986 47.34 -63.633999999999986 Q53.2575 -63.633999999999986 57.399750000000004 -59.491749999999996 Q61.542 -55.34949999999999 61.542 -49.43199999999999 Q61.542 -43.51449999999999 57.399750000000004 -39.37224999999999 Q53.2575 -35.22999999999999 47.34 -35.22999999999999 Z M18.936 -6.825999999999986 V-16.293999999999986 Q18.936 -18.56237499999999 20.1688125 -20.584187499999985 Q21.401625 -22.605999999999987 23.571375 -23.986749999999986 Q28.99575 -27.142749999999985 35.0406735 -28.819374999999987 Q41.085695625 -30.495999999999988 47.319486 -30.495999999999988 Q53.553375 -30.495999999999988 59.618812500000004 -28.819374999999987 Q65.68425 -27.142749999999985 71.108625 -23.986749999999986 Q73.278375 -22.704624999999986 74.5111875 -20.63349999999999 Q75.744 -18.56237499999999 75.744 -16.293999999999986 V-6.825999999999986 H18.936 Z M26.037000000000003 -13.926999999999989 H68.643 V-16.293999999999986 Q68.643 -16.804482999999987 68.344659375 -17.222258499999985 Q68.04631875000001 -17.639935374999986 67.558125 -17.87199999999999 Q63.021375000000006 -20.63349999999999 57.892875000000004 -22.01424999999999 Q52.764375 -23.39499999999999 47.34 -23.39499999999999 Q41.915625 -23.39499999999999 36.787125 -22.01424999999999 Q31.658625 -20.63349999999999 27.121875000000003 -17.87199999999999 Q26.62875 -17.47749999999999 26.332875 -17.11022049999999 Q26.037000000000003 -16.74294099999999 26.037000000000003 -16.293999999999986 V-13.926999999999989 Z M47.3609085 -42.33099999999999 Q50.298750000000005 -42.33099999999999 52.369875 -44.42303349999999 Q54.441 -46.51516562499999 54.441 -49.452908499999985 Q54.441 -52.39074999999998 52.3489665 -54.46187499999999 Q50.256834375000004 -56.53299999999999 47.319091500000006 -56.53299999999999 Q44.38125 -56.53299999999999 42.310125 -54.44096649999999 Q40.239000000000004 -52.348834374999996 40.239000000000004 -49.41109149999999 Q40.239000000000004 -46.473249999999986 42.331033500000004 -44.40212499999999 Q44.423165625 -42.33099999999999 47.3609085 -42.33099999999999 Z"/></g><g id="Light-S" transform="matrix(1 0 0 1 1109.75 696)"><path d="M47.34 -36.443975124999994 Q42.236254875 -36.443975124999994 38.67342675 -40.00670462499999 Q35.110598625 -43.569532749999986 35.110598625 -48.67327787499999 Q35.110598625 -53.77712162499999 38.67342675 -57.339851124999996 Q42.236254875 -60.90267924999999 47.34 -60.90267924999999 Q52.44374512500001 -60.90267924999999 56.00657325 -57.339851124999996 Q59.569401375000005 -53.77712162499999 59.569401375000005 -48.67327787499999 Q59.569401375000005 -43.569532749999986 56.00657325 -40.00670462499999 Q52.44374512500001 -36.443975124999994 47.34 -36.443975124999994 Z M20.908598625 -9.557320749999985 V-16.749252999999985 Q20.908598625 -18.56237499999999 21.989725875 -20.242747749999992 Q23.070754500000003 -21.92312049999999 25.012878000000004 -23.152185249999988 Q30.1717545 -26.118529374999987 35.856302250000006 -27.700277124999992 Q41.54085 -29.282024874999983 47.319486 -29.282024874999983 Q53.098122000000004 -29.282024874999983 58.80318375 -27.700277124999992 Q64.5082455 -26.118529374999987 69.667122 -23.152185249999988 Q71.6092455 -22.021745499999987 72.690274125 -20.29206024999999 Q73.77140137500001 -18.56237499999999 73.77140137500001 -16.749252999999985 V-9.557320749999985 H20.908598625 Z M26.037000000000003 -14.685722124999987 H68.643 V-16.749252999999985 Q68.643 -17.37354924999999 68.1928755 -17.92407399999999 Q67.742849625 -18.474500124999985 66.95118675 -18.858348624999984 Q62.64206325 -21.46806474999999 57.6392115 -22.810942749999988 Q52.636359750000004 -24.153722124999987 47.34 -24.153722124999987 Q42.04364025 -24.153722124999987 37.040788500000005 -22.810942749999988 Q32.03793675 -21.46806474999999 27.72881325 -18.858348624999984 Q26.932219125 -18.312064749999987 26.484658875 -17.81203599999999 Q26.037000000000003 -17.31190862499999 26.037000000000003 -16.749252999999985 V-14.685722124999987 Z M47.3609085 -41.57227787499999 Q50.298750000000005 -41.57227787499999 52.369875 -43.66440999999999 Q54.441 -45.75644349999999 54.441 -48.69428499999999 Q54.441 -51.63202787499999 52.3489665 -53.70315287499999 Q50.256834375000004 -55.774277874999996 47.319091500000006 -55.774277874999996 Q44.38125 -55.774277874999996 42.310125 -53.682244374999996 Q40.239000000000004 -51.59011224999998 40.239000000000004 -48.65236937499999 Q40.239000000000004 -45.71452787499999 42.331033500000004 -43.64340287499999 Q44.423165625 -41.57227787499999 47.3609085 -41.57227787499999 Z"/></g><g id="Thin-S" transform="matrix(1 0 0 1 814.015 696)"><path d="M47.34 -37.65765437499999 Q43.0498125 -37.65765437499999 40.06640625 -40.64106062499999 Q37.083 -43.62446687499999 37.083 -47.91465437499999 Q37.083 -52.20494049999999 40.06640625 -55.188346749999994 Q43.0498125 -58.17175299999998 47.34 -58.17175299999998 Q51.630187500000005 -58.17175299999998 54.61359375 -55.188346749999994 Q57.597 -52.20494049999999 57.597 -47.91465437499999 Q57.597 -43.62446687499999 54.61359375 -40.64106062499999 Q51.630187500000005 -37.65765437499999 47.34 -37.65765437499999 Z M22.881 -12.288246999999988 V-17.204407374999988 Q22.881 -18.56237499999999 23.810343375000002 -19.901406624999986 Q24.73968675 -21.24043824999999 26.454282375000002 -22.31771912499999 Q31.34756175 -25.09440737499999 36.671832375 -26.58137649999999 Q41.996004375 -28.068345624999985 47.319486 -28.068345624999985 Q52.642967625000004 -28.068345624999985 57.98775225 -26.58137649999999 Q63.33243825 -25.09440737499999 68.225717625 -22.31771912499999 Q69.94031325 -21.339063249999988 70.869656625 -19.950719124999985 Q71.799 -18.56237499999999 71.799 -17.204407374999988 V-12.288246999999988 H22.881 Z M26.037000000000003 -15.444345624999986 H68.643 V-17.204407374999988 Q68.643 -17.942516874999985 68.04119025 -18.625692249999986 Q67.43938050000001 -19.308966249999987 66.3442485 -19.84449999999999 Q62.2627515 -22.302530874999988 57.385548 -23.607438249999987 Q52.508443125 -24.912345624999986 47.34 -24.912345624999986 Q42.17155687500001 -24.912345624999986 37.294452 -23.607438249999987 Q32.4172485 -22.302530874999988 28.3357515 -19.84449999999999 Q27.235688250000003 -19.14653087499999 26.636344125 -18.513752874999987 Q26.037000000000003 -17.880876249999986 26.037000000000003 -17.204407374999988 V-15.444345624999986 Z M47.3609085 -40.81365437499999 Q50.298750000000005 -40.81365437499999 52.369875 -42.905786499999984 Q54.441 -44.99781999999998 54.441 -47.93566149999999 Q54.441 -50.87340437499999 52.3489665 -52.94452937499999 Q50.256834375000004 -55.015654375 47.319091500000006 -55.015654375 Q44.38125 -55.015654375 42.310125 -52.923620875 Q40.239000000000004 -50.83158737499999 40.239000000000004 -47.89374587499999 Q40.239000000000004 -44.95590437499999 42.331033500000004 -42.88477937499999 Q44.423165625 -40.81365437499999 47.3609085 -40.81365437499999 Z"/></g><g id="Ultralight-S" transform="matrix(1 0 0 1 517.792 696)"><path d="M47.34 -38.38599999999999 Q43.53800625 -38.38599999999999 40.902253125 -41.02175312499999 Q38.2665 -43.65750624999999 38.2665 -47.45949999999999 Q38.2665 -51.261493749999985 40.902253125 -53.89724687499999 Q43.53800625 -56.53299999999999 47.34 -56.53299999999999 Q51.14199375 -56.53299999999999 53.777746875 -53.89724687499999 Q56.4135 -51.261493749999985 56.4135 -47.45949999999999 Q56.4135 -43.65750624999999 53.777746875 -41.02175312499999 Q51.14199375 -38.38599999999999 47.34 -38.38599999999999 Z M24.064500000000002 -13.926999999999989 V-17.47749999999999 Q24.064500000000002 -18.56237499999999 24.9028125 -19.696562499999988 Q25.741125 -20.830749999999988 27.319125 -21.816999999999986 Q32.053125 -24.479874999999986 37.161111 -25.90993749999999 Q42.269195625 -27.33999999999999 47.319486 -27.33999999999999 Q52.369875 -27.33999999999999 57.498375 -25.90993749999999 Q62.626875000000005 -24.479874999999986 67.36087500000001 -21.816999999999986 Q68.93887500000001 -20.929374999999986 69.7771875 -19.745874999999987 Q70.6155 -18.56237499999999 70.6155 -17.47749999999999 V-13.926999999999989 H24.064500000000002 Z M26.037000000000003 -15.899499999999989 H68.643 V-17.47749999999999 Q68.643 -18.283857999999988 67.950159375 -19.046820999999987 Q67.25731875000001 -19.809685374999987 65.980125 -20.436249999999987 Q62.035125 -22.80324999999999 57.233369625 -24.085374999999985 Q52.431712874999995 -25.367499999999986 47.34 -25.367499999999986 Q42.248385750000004 -25.367499999999986 37.446630375000005 -24.085374999999985 Q32.644875 -22.80324999999999 28.699875000000002 -20.436249999999987 Q27.41775 -19.64724999999999 26.727375000000002 -18.93478299999999 Q26.037000000000003 -18.22231599999999 26.037000000000003 -17.47749999999999 V-15.899499999999989 Z M47.3609085 -40.358499999999985 Q50.298750000000005 -40.358499999999985 52.369875 -42.450533499999985 Q54.441 -44.542665624999984 54.441 -47.48040849999999 Q54.441 -50.418249999999986 52.3489665 -52.489374999999995 Q50.256834375000004 -54.56049999999999 47.319091500000006 -54.56049999999999 Q44.38125 -54.56049999999999 42.310125 -52.46846649999999 Q40.239000000000004 -50.37633437499999 40.239000000000004 -47.43859149999999 Q40.239000000000004 -44.50074999999999 42.331033500000004 -42.42962499999999 Q44.423165625 -40.358499999999985 47.3609085 -40.358499999999985 Z"/></g></g></svg>