<svg xmlns="http://www.w3.org/2000/svg" version="1.1" width="3300" height="2000"><g id="Notes"><style>
    text {
      font-family: monospace;
      text-anchor: middle;
    }
    text.emphasis {
      font-weight:bold;
    }
    text.lanchor {
      text-anchor: start;
    }
  </style><rect height="2200" id="artboard" fill="white" width="3300" x="0" y="0"/><line id="" style="fill:none;stroke:black;stroke-width:0.5;" x1="263" x2="3036" y1="292" y2="292"/><text class="lanchor emphasis" transform="matrix(1 0 0 1 263 322)">Weight/Scale Variations</text><text transform="matrix(1 0 0 1 559.711 322)">Ultralight</text><text transform="matrix(1 0 0 1 856.422 322)">Thin</text><text transform="matrix(1 0 0 1 1153.13 322)">Light</text><text transform="matrix(1 0 0 1 1449.84 322)">Regular</text><text transform="matrix(1 0 0 1 1746.56 322)">Medium</text><text transform="matrix(1 0 0 1 2043.27 322)">Semibold</text><text transform="matrix(1 0 0 1 2339.98 322)">Bold</text><text transform="matrix(1 0 0 1 2636.69 322)">Heavy</text><text transform="matrix(1 0 0 1 2933.4 322)">Black</text><text id="template-version" style="text-anchor: end;" transform="matrix(1 0 0 1 3036 1933)">Template v.1.0</text><text class="lanchor" transform="matrix(1 0 0 1 263 726)">Small</text><text class="lanchor" transform="matrix(1 0 0 1 263 1156)">Medium</text><text class="lanchor" transform="matrix(1 0 0 1 263 1586)">Large</text></g><g id="Guides"><g id="H-reference" style="fill:#27AAE1;stroke:none;" transform="matrix(1 0 0 1 339 696)"><path d="M 54.9316 0 L 57.666 0 L 30.5664 -70.459 L 28.0762 -70.459 L 0.976562 0 L 3.66211 0 L 12.9395 -24.4629 L 45.7031 -24.4629 Z M 29.1992 -67.0898 L 29.4434 -67.0898 L 44.8242 -26.709 L 13.8184 -26.709 Z"/></g><line id="Baseline-S" style="fill:none;stroke:#27AAE1;opacity:1;stroke-width:0.577;" x1="263" x2="3036" y1="696" y2="696"/><line id="Capline-S" style="fill:none;stroke:#27AAE1;opacity:1;stroke-width:0.577;" x1="263" x2="3036" y1="625.541" y2="625.541"/><g id="H-reference" style="fill:#27AAE1;stroke:none;" transform="matrix(1 0 0 1 339 1126)"><path d="M 54.9316 0 L 57.666 0 L 30.5664 -70.459 L 28.0762 -70.459 L 0.976562 0 L 3.66211 0 L 12.9395 -24.4629 L 45.7031 -24.4629 Z M 29.1992 -67.0898 L 29.4434 -67.0898 L 44.8242 -26.709 L 13.8184 -26.709 Z"/></g><line id="Baseline-M" style="fill:none;stroke:#27AAE1;opacity:1;stroke-width:0.577;" x1="263" x2="3036" y1="1126" y2="1126"/><line id="Capline-M" style="fill:none;stroke:#27AAE1;opacity:1;stroke-width:0.577;" x1="263" x2="3036" y1="1055.54" y2="1055.54"/><g id="H-reference" style="fill:#27AAE1;stroke:none;" transform="matrix(1 0 0 1 339 1556)"><path d="M 54.9316 0 L 57.666 0 L 30.5664 -70.459 L 28.0762 -70.459 L 0.976562 0 L 3.66211 0 L 12.9395 -24.4629 L 45.7031 -24.4629 Z M 29.1992 -67.0898 L 29.4434 -67.0898 L 44.8242 -26.709 L 13.8184 -26.709 Z"/></g><line id="Baseline-L" style="fill:none;stroke:#27AAE1;opacity:1;stroke-width:0.577;" x1="263" x2="3036" y1="1556" y2="1556"/><line id="Capline-L" style="fill:none;stroke:#27AAE1;opacity:1;stroke-width:0.577;" x1="263" x2="3036" y1="1485.54" y2="1485.54"/><rect height="119.336" id="left-margin" style="fill:darkred;stroke:none;opacity:0.4;" width="12.4512" x="1394.06" y="1030.79"/><rect height="119.336" id="right-margin" style="fill:darkgreen;stroke:none;opacity:0.4;" width="12.4512" x="1502.5112" y="1030.79"/><rect x="1406.5112" y="1045" width="96" height="96" fill="none" stroke="blue" stroke-dasharray="5"/><rect x="1394.06" y="1030.79" width="120.9024" height="119.336" fill="none" stroke="blue"/></g><g id="Symbols"><g id="Bold-L" transform="matrix(1 0 0 1 2266 1556)"><path d="M119.97 -27.48999999999998 V-47.484999999999985 H99.97500000000001 V-59.094999999999985 H119.97 V-79.08999999999999 H131.58 V-59.094999999999985 H151.57500000000002 V-47.484999999999985 H131.58 V-27.48999999999998 H119.97 Z M58.339605 -37.48749999999998 Q45.89062125 -37.48749999999998 38.022104999999996 -45.35585499999999 Q30.153750000000002 -53.224371249999976 30.153750000000002 -65.673355 Q30.153750000000002 -78.12249999999999 38.022104999999996 -86.02374999999998 Q45.89062125 -93.92499999999998 58.339605 -93.92499999999998 Q70.78875000000001 -93.92499999999998 78.770625 -86.02374999999998 Q86.7525 -78.12249999999999 86.7525 -65.673355 Q86.7525 -53.224371249999976 78.770625 -45.35585499999999 Q70.78875000000001 -37.48749999999998 58.339605 -37.48749999999998 Z M2.74125 22.497500000000016 V2.9862500000000125 Q2.74125 -3.8349474999999913 6.23956875 -9.28471374999998 Q9.73804875 -14.73447999999999 15.963750000000001 -17.653749999999988 Q28.380000000000003 -23.13624999999999 38.183516250000004 -25.393749999999983 Q47.9870325 -27.65124999999999 58.265752500000005 -27.65124999999999 Q68.85375 -27.65124999999999 78.69 -25.393749999999983 Q88.52625 -23.13624999999999 100.78125 -17.653749999999988 Q107.00695125000001 -14.758022499999981 110.58605625 -9.392428749999986 Q114.165 -4.026996249999982 114.165 2.949646250000015 V22.497500000000016 H2.74125 Z M17.89875 7.340000000000018 H98.84625 V3.6312500000000156 Q98.84625 1.1496125000000177 97.38306750000001 -1.1080487499999876 Q95.91972375 -3.3657099999999858 93.4814625 -4.449793749999984 Q82.88250000000001 -9.268749999999983 75.30375000000001 -10.800624999999982 Q67.72500000000001 -12.332499999999989 58.291875000000005 -12.332499999999989 Q49.18125 -12.332499999999989 41.441250000000004 -10.800624999999982 Q33.70125 -9.268749999999983 23.12792625 -4.4564049999999895 Q20.64 -3.373611249999982 19.269375 -1.113531249999987 Q17.89875 1.146548750000015 17.89875 3.6312500000000156 V7.340000000000018 Z M58.36685625 -52.64499999999998 Q64.1775 -52.64499999999998 67.805625 -56.32891749999999 Q71.43375 -60.01283499999998 71.43375 -65.70060624999999 Q71.43375 -71.45481249999999 67.81126875000001 -75.11115625 Q64.18894875000001 -78.76749999999998 58.458768750000004 -78.76749999999998 Q52.72875 -78.76749999999998 49.02 -75.10373874999999 Q45.31125 -71.43997749999998 45.31125 -65.780425 Q45.31125 -60.05443749999999 48.9951675 -56.349718749999994 Q52.679085 -52.64499999999998 58.36685625 -52.64499999999998 Z"/></g><g id="Semibold-L" transform="matrix(1 0 0 1 1970.27 1556)"><path d="M118.98847125 -25.246689999999987 V-45.662229999999994 H98.57293125 V-56.43098875 H118.98847125 V-76.84668999999998 H129.75723000000002 V-56.43098875 H150.17293125 V-45.662229999999994 H129.75723000000002 V-25.246689999999987 H118.98847125 Z M58.21366875 -36.57611499999999 Q46.55013375 -36.57611499999999 39.158111250000005 -43.9681375 Q31.76608875 -51.36015999999999 31.76608875 -63.02369499999999 Q31.76608875 -74.68739124999999 39.158111250000005 -82.09795749999999 Q46.55013375 -89.50852375 58.21366875 -89.50852375 Q69.877365 -89.50852375 77.33356500000001 -82.09795749999999 Q84.78960375 -74.68739124999999 84.78960375 -63.02369499999999 Q84.78960375 -51.36015999999999 77.33356500000001 -43.9681375 Q69.877365 -36.57611499999999 58.21366875 -36.57611499999999 Z M4.35358875 19.83348875000002 V2.2151525000000163 Q4.35358875 -4.094237499999991 7.55794875 -9.172644999999982 Q10.762147500000001 -14.251052499999993 16.59472125 -16.882652499999992 Q28.87068375 -22.295008749999994 38.501985 -24.517517499999983 Q48.133125 -26.739864999999995 58.1606175 -26.739864999999995 Q68.36306625 -26.739864999999995 77.988885 -24.517517499999983 Q87.614865 -22.295008749999994 99.79972125 -16.882652499999992 Q105.632295 -14.194292499999982 108.91728 -9.198444999999992 Q112.20210375 -4.202758749999987 112.20210375 2.194351250000011 V19.83348875000002 H4.35358875 Z M17.1276525 7.059586250000017 H99.33693375 V2.5797387500000184 Q99.33693375 0.055208750000012685 97.87891125 -2.237282499999985 Q96.42088874999999 -4.529934999999988 93.99117375 -5.633529999999986 Q83.0227875 -10.670818749999981 75.30375000000001 -12.272837499999987 Q67.5847125 -13.874856249999986 58.18674 -13.874856249999986 Q48.970980000000004 -13.874856249999986 41.125845000000005 -12.272837499999987 Q33.28054875 -10.670818749999981 22.326675 -5.63723874999998 Q19.8689025 -4.534449999999985 18.4982775 -2.2405074999999854 Q17.1276525 0.053596250000012446 17.1276525 2.5797387500000184 V7.059586250000017 Z M58.2289875 -49.35017874999998 Q64.24764375000001 -49.35017874999998 68.08603875 -53.2200175 Q71.92443375 -57.09001749999999 71.92443375 -63.03901374999998 Q71.92443375 -69.02574249999999 68.08926375 -72.88010125 Q64.25409375000001 -76.73446 58.281071250000004 -76.73446 Q52.308048750000005 -76.73446 48.424181250000004 -72.87590874999998 Q44.540152500000005 -69.01735749999999 44.540152500000005 -63.08432499999999 Q44.540152500000005 -57.11355999999998 48.40999125 -53.23178874999999 Q52.27999125 -49.35017874999998 58.2289875 -49.35017874999998 Z"/></g><g id="Medium-L" transform="matrix(1 0 0 1 1674.31 1556)"><path d="M118.252365 -23.563884999999985 V-44.295152499999986 H97.52125875 V-54.43277874999998 H118.252365 V-75.163885 H128.3901525 V-54.43277874999998 H149.12125875 V-44.295152499999986 H128.3901525 V-23.563884999999985 H118.252365 Z M58.1193375 -35.892576249999976 Q47.0446875 -35.892576249999976 40.01015625 -42.92710749999999 Q32.975625 -49.96163874999999 32.975625 -61.03628874999998 Q32.975625 -72.11077749999998 40.01015625 -79.15321 Q47.0446875 -86.19564249999999 58.1193375 -86.19564249999999 Q69.19382625 -86.19564249999999 76.2554475 -79.15321 Q83.31723000000001 -72.11077749999998 83.31723000000001 -61.03628874999998 Q83.31723000000001 -49.96163874999999 76.2554475 -42.92710749999999 Q69.19382625 -35.892576249999976 58.1193375 -35.892576249999976 Z M5.563125 17.835278750000015 V1.6365875000000116 Q5.563125 -4.288704999999986 8.54673375 -9.088472499999988 Q11.5303425 -13.888401249999987 17.06799 -16.304087499999987 Q29.2388175 -21.664037499999985 38.740635000000005 -23.860101249999985 Q48.24261375 -26.056326249999984 58.08176625 -26.056326249999984 Q67.9949325 -26.056326249999984 77.46304875 -23.860101249999985 Q86.93132625000001 -21.664037499999985 99.063615 -16.304087499999987 Q104.60110125 -13.771333749999982 107.66549625 -9.052997499999982 Q110.72973 -4.334499999999984 110.72973 1.6278800000000118 V17.835278750000015 H5.563125 Z M16.5490875 6.849316250000015 H99.70506750000001 V1.7909037500000125 Q99.70506750000001 -0.765553749999988 98.250915 -3.084489999999988 Q96.79692375 -5.40326499999999 94.37333625 -6.521372499999984 Q83.12792250000001 -11.722491249999983 75.30375000000001 -13.377077499999984 Q67.4795775 -15.031663749999979 58.10788875 -15.031663749999979 Q48.81311625 -15.031663749999979 40.88913 -13.377077499999984 Q32.96514375 -11.722491249999983 21.725696250000002 -6.522984999999984 Q19.2903375 -5.4051999999999865 17.9197125 -3.0857799999999855 Q16.5490875 -0.7663599999999846 16.5490875 1.7909037500000125 V6.849316250000015 Z M58.12578750000001 -46.87853874999999 Q64.30021125 -46.87853874999999 68.29630875000001 -50.88818124999999 Q72.2925675 -54.897662499999996 72.2925675 -61.042738749999984 Q72.2925675 -67.20361749999998 68.29776000000001 -71.2064875 Q64.3029525 -75.20951874999997 58.1477175 -75.20951874999997 Q51.99264375 -75.20951874999997 47.977196250000006 -71.20471375 Q43.9615875 -67.20006999999998 43.9615875 -61.06176624999999 Q43.9615875 -54.90765999999999 47.97123 -50.89317999999999 Q51.98071125 -46.87853874999999 58.12578750000001 -46.87853874999999 Z"/></g><g id="Regular-L" transform="matrix(1 0 0 1 1378.56 1556)"><path d="M117.7125 -22.329999999999984 V-43.29249999999999 H96.75 V-52.96749999999999 H117.7125 V-73.92999999999999 H127.3875 V-52.96749999999999 H148.35 V-43.29249999999999 H127.3875 V-22.329999999999984 H117.7125 Z M58.050000000000004 -35.391249999999985 Q47.4075 -35.391249999999985 40.635 -42.16374999999999 Q33.862500000000004 -48.93624999999999 33.862500000000004 -59.578749999999985 Q33.862500000000004 -70.22124999999998 40.635 -76.99374999999999 Q47.4075 -83.76624999999999 58.050000000000004 -83.76624999999999 Q68.6925 -83.76624999999999 75.465 -76.99374999999999 Q82.2375 -70.22124999999998 82.2375 -59.578749999999985 Q82.2375 -48.93624999999999 75.465 -42.16374999999999 Q68.6925 -35.391249999999985 58.050000000000004 -35.391249999999985 Z M6.45 16.370000000000015 V1.2125000000000128 Q6.45 -4.431249999999984 9.271875 -9.026874999999983 Q12.09375 -13.622499999999988 17.415 -15.879999999999988 Q29.50875 -21.201249999999987 38.9157525 -23.378124999999983 Q48.322916250000006 -25.554999999999993 58.023877500000005 -25.554999999999993 Q67.72500000000001 -25.554999999999993 77.0775 -23.378124999999983 Q86.43 -21.201249999999987 98.52375 -15.879999999999988 Q103.845 -13.461249999999986 106.7475 -8.946249999999985 Q109.65 -4.431249999999984 109.65 1.2125000000000128 V16.370000000000015 H6.45 Z M16.125 6.6950000000000145 H99.97500000000001 V1.2125000000000128 Q99.97500000000001 -1.3674999999999855 98.52375 -3.7056249999999835 Q97.0725 -6.043749999999989 94.65375 -7.172499999999985 Q83.205 -12.493749999999984 75.30375000000001 -14.186874999999986 Q67.4025 -15.879999999999988 58.050000000000004 -15.879999999999988 Q48.6975 -15.879999999999988 40.715625 -14.186874999999986 Q32.73375 -12.493749999999984 21.285 -7.172499999999985 Q18.86625 -6.043749999999989 17.495625 -3.7056249999999835 Q16.125 -1.3674999999999855 16.125 1.2125000000000128 V6.6950000000000145 Z M58.050000000000004 -45.06624999999998 Q64.33875 -45.06624999999998 68.450625 -49.17812499999998 Q72.5625 -53.28999999999999 72.5625 -59.578749999999985 Q72.5625 -65.86749999999999 68.450625 -69.97937499999999 Q64.33875 -74.09124999999999 58.050000000000004 -74.09124999999999 Q51.761250000000004 -74.09124999999999 47.649375 -69.97937499999999 Q43.5375 -65.86749999999999 43.5375 -59.578749999999985 Q43.5375 -53.28999999999999 47.649375 -49.17812499999998 Q51.761250000000004 -45.06624999999998 58.050000000000004 -45.06624999999998 Z"/></g><g id="Light-L" transform="matrix(1 0 0 1 1082.77 1556)"><path d="M118.084665 -23.942661249999986 V-44.47091499999999 H97.55625 V-51.789084999999986 H118.084665 V-72.31733874999999 H125.40267375 V-51.789084999999986 H145.93108875000001 V-44.47091499999999 H125.40267375 V-23.942661249999986 H118.084665 Z M58.050000000000004 -37.31399499999998 Q48.737973749999995 -37.31399499999998 42.695775 -43.35619374999999 Q36.65357625 -49.398392499999986 36.65357625 -58.741378749999996 Q36.65357625 -68.08452625 42.695775 -74.09576499999999 Q48.737973749999995 -80.1068425 58.050000000000004 -80.1068425 Q67.36202625 -80.1068425 73.40422500000001 -74.09576499999999 Q79.44642375 -68.08452625 79.44642375 -58.741378749999996 Q79.44642375 -49.398392499999986 73.40422500000001 -43.35619374999999 Q67.36202625 -37.31399499999998 58.050000000000004 -37.31399499999998 Z M9.6753225 11.904342500000016 V-0.3380799999999837 Q9.6753225 -5.175579999999982 12.249033749999999 -9.212957499999987 Q14.822745000000001 -13.250334999999986 19.585908749999998 -15.321752499999988 Q30.687165 -20.208917499999984 39.74925375 -22.323711249999988 Q48.81150375 -24.438504999999992 58.02016875 -24.438504999999992 Q67.22883375 -24.438504999999992 76.27125000000001 -22.323711249999988 Q85.313505 -20.208917499999984 96.4149225 -15.321752499999988 Q101.177925 -13.08908499999999 103.80130125000001 -9.132332499999983 Q106.42483875 -5.175579999999982 106.42483875 -0.3380799999999837 V11.904342500000016 H9.6753225 Z M16.99333125 4.586172500000018 H99.10666875 V-0.3380799999999837 Q99.10666875 -2.8559987499999835 97.56237750000001 -5.163163749999981 Q96.01808625000001 -7.470328749999979 93.3511725 -8.78516124999998 Q83.0189175 -13.610244999999985 75.0750975 -15.365289999999987 Q67.1312775 -17.12049624999998 58.050000000000004 -17.12049624999998 Q48.968722500000005 -17.12049624999998 40.944277500000005 -15.365289999999987 Q32.9198325 -13.610244999999985 22.6494975 -8.78516124999998 Q19.92066375 -7.470328749999979 18.4569975 -5.163163749999981 Q16.99333125 -2.8559987499999835 16.99333125 -0.3380799999999837 V4.586172500000018 Z M58.050000000000004 -44.632003749999996 Q64.09058625 -44.632003749999996 68.10942 -48.650998749999985 Q72.12825375 -52.669832499999984 72.12825375 -58.71041874999999 Q72.12825375 -64.75100499999999 68.10942 -68.76983874999999 Q64.09058625 -72.78867249999999 58.050000000000004 -72.78867249999999 Q52.00941375 -72.78867249999999 47.99058 -68.76983874999999 Q43.971746249999995 -64.75100499999999 43.971746249999995 -58.71041874999999 Q43.971746249999995 -52.669832499999984 47.99058 -48.650998749999985 Q52.00941375 -44.632003749999996 58.050000000000004 -44.632003749999996 Z"/></g><g id="Thin-L" transform="matrix(1 0 0 1 787.282 1556)"><path d="M118.45666875 -25.554999999999993 V-45.64916874999999 H98.3625 V-50.61083124999999 H118.45666875 V-70.70499999999998 H123.41833125000001 V-50.61083124999999 H143.51250000000002 V-45.64916874999999 H123.41833125000001 V-25.554999999999993 H118.45666875 Z M58.050000000000004 -39.23641749999999 Q50.068125 -39.23641749999999 44.7562275 -44.54831499999999 Q39.44416875 -49.86037374999998 39.44416875 -57.90416874999998 Q39.44416875 -65.94812499999999 44.7562275 -71.19810249999999 Q50.068125 -76.44807999999999 58.050000000000004 -76.44807999999999 Q66.031875 -76.44807999999999 71.3437725 -71.19810249999999 Q76.65583125 -65.94812499999999 76.65583125 -57.90416874999998 Q76.65583125 -49.86037374999998 71.3437725 -44.54831499999999 Q66.031875 -39.23641749999999 58.050000000000004 -39.23641749999999 Z M12.9 7.4393300000000195 V-1.8884987499999824 Q12.9 -5.919748749999982 15.22570875 -9.399039999999985 Q17.5514175 -12.878331249999981 21.75633375 -14.763666249999986 Q31.865418750000003 -19.216584999999988 40.582755 -21.269458749999984 Q49.299929999999996 -23.322332499999987 58.016298750000004 -23.322332499999987 Q66.7326675 -23.322332499999987 75.465 -21.269458749999984 Q84.1973325 -19.216584999999988 94.30641750000001 -14.763666249999986 Q98.51133375 -12.717081249999985 100.8557475 -9.318414999999987 Q103.2 -5.919748749999982 103.2 -1.8884987499999824 V7.4393300000000195 H12.9 Z M17.86150125 2.477667500000017 H98.23849875 V-1.8884987499999824 Q98.23849875 -4.344336249999991 96.60116625 -6.620541249999988 Q94.96383375 -8.896584999999988 92.0489175 -10.397499999999987 Q82.832835 -14.72641749999999 74.846445 -16.54354374999999 Q66.860055 -18.360831249999983 58.050000000000004 -18.360831249999983 Q49.239945 -18.360831249999983 41.17293 -16.54354374999999 Q33.105915 -14.72641749999999 24.01383375 -10.397499999999987 Q20.97491625 -8.896584999999988 19.41820875 -6.620541249999988 Q17.86150125 -4.344336249999991 17.86150125 -1.8884987499999824 V2.477667500000017 Z M58.050000000000004 -44.197918749999985 Q63.84258375 -44.197918749999985 67.76837625 -48.12387249999999 Q71.69416875 -52.04966499999999 71.69416875 -57.84224874999998 Q71.69416875 -63.63483249999999 67.76837625 -67.56062499999999 Q63.84258375 -71.48641749999999 58.050000000000004 -71.48641749999999 Q52.25741625 -71.48641749999999 48.33162375 -67.56062499999999 Q44.40583125 -63.63483249999999 44.40583125 -57.84224874999998 Q44.40583125 -52.04966499999999 48.33162375 -48.12387249999999 Q52.25741625 -44.197918749999985 58.050000000000004 -44.197918749999985 Z"/></g><g id="Ultralight-L" transform="matrix(1 0 0 1 491.205 1556)"><path d="M118.68 -26.52249999999998 V-46.35624999999999 H98.84625 V-49.90374999999999 H118.68 V-69.73749999999998 H122.2275 V-49.90374999999999 H142.06125 V-46.35624999999999 H122.2275 V-26.52249999999998 H118.68 Z M58.050000000000004 -40.389999999999986 Q50.8663125 -40.389999999999986 45.992531250000006 -45.263781249999994 Q41.11875 -50.13756249999999 41.11875 -57.40187499999999 Q41.11875 -64.66618749999998 45.992531250000006 -69.45934374999999 Q50.8663125 -74.25249999999998 58.050000000000004 -74.25249999999998 Q65.2336875 -74.25249999999998 70.10746875 -69.45934374999999 Q74.98125 -64.66618749999998 74.98125 -57.40187499999999 Q74.98125 -50.13756249999999 70.10746875 -45.263781249999994 Q65.2336875 -40.389999999999986 58.050000000000004 -40.389999999999986 Z M14.835 4.760000000000012 V-2.818749999999987 Q14.835 -6.366249999999987 17.011875 -9.510624999999983 Q19.18875 -12.654999999999987 23.05875 -14.428749999999987 Q32.5725 -18.62124999999999 41.08279125 -20.63687499999999 Q49.593082499999994 -22.65249999999999 58.01404125 -22.65249999999999 Q66.435 -22.65249999999999 74.98125 -20.63687499999999 Q83.5275 -18.62124999999999 93.04125 -14.428749999999987 Q96.91125000000001 -12.493749999999984 99.088125 -9.429999999999986 Q101.265 -6.366249999999987 101.265 -2.818749999999987 V4.760000000000012 H14.835 Z M18.3825 1.2125000000000128 H97.7175 V-2.818749999999987 Q97.7175 -5.237499999999983 96.024375 -7.494999999999983 Q94.33125 -9.752499999999984 91.2675 -11.364999999999988 Q82.72125 -15.396249999999988 74.70922125 -17.250624999999985 Q66.6971925 -19.104999999999983 58.050000000000004 -19.104999999999983 Q49.40280750000001 -19.104999999999983 41.310153750000005 -17.250624999999985 Q33.2175 -15.396249999999988 24.8325 -11.364999999999988 Q21.6075 -9.752499999999984 19.995 -7.494999999999983 Q18.3825 -5.237499999999983 18.3825 -2.818749999999987 V1.2125000000000128 Z M58.050000000000004 -43.937499999999986 Q63.69375 -43.937499999999986 67.56375 -47.80749999999999 Q71.43375 -51.67749999999998 71.43375 -57.32124999999999 Q71.43375 -62.96499999999999 67.56375 -66.835 Q63.69375 -70.70499999999998 58.050000000000004 -70.70499999999998 Q52.40625 -70.70499999999998 48.53625 -66.835 Q44.66625 -62.96499999999999 44.66625 -57.32124999999999 Q44.66625 -51.67749999999998 48.53625 -47.80749999999999 Q52.40625 -43.937499999999986 58.050000000000004 -43.937499999999986 Z"/></g><g id="Bold-M" transform="matrix(1 0 0 1 2281.8 1126)"><path d="M92.25 -30.60499999999999 V-44.60499999999999 H78.25 V-56.60499999999999 H92.25 V-70.60499999999999 H104.25 V-56.60499999999999 H118.25 V-44.60499999999999 H104.25 V-30.60499999999999 H92.25 Z M45.375 -37.35499999999999 Q35.25 -37.35499999999999 28.1875 -44.41749999999999 Q21.125 -51.47999999999999 21.125 -61.60499999999999 Q21.125 -71.72999999999999 28.1875 -78.72999999999999 Q35.25 -85.72999999999999 45.375 -85.72999999999999 Q55.5 -85.72999999999999 62.5625 -78.72999999999999 Q69.625 -71.72999999999999 69.625 -61.60499999999999 Q69.625 -51.47999999999999 62.5625 -44.41749999999999 Q55.5 -37.35499999999999 45.375 -37.35499999999999 Z M1.125 11.14500000000001 V-7.35499999999999 Q1.125 -12.767749999999992 3.961875 -17.30487499999999 Q6.798875 -21.84199999999999 11.5 -24.22999999999999 Q19.625 -28.22999999999999 28.119875 -30.29249999999999 Q36.61475 -32.35499999999999 45.375 -32.35499999999999 Q54.375 -32.35499999999999 62.875 -30.35499999999999 Q71.375 -28.35499999999999 79.25 -24.35499999999999 Q83.951125 -21.985249999999986 86.788125 -17.48262499999999 Q89.625 -12.97999999999999 89.625 -7.361874999999991 V11.14500000000001 H1.125 Z M16.875 -4.60499999999999 H73.875 V-6.72999999999999 Q73.875 -7.983624999999989 73.1875 -9.009374999999991 Q72.5 -10.035124999999987 71.375 -10.60499999999999 Q65.375 -13.47999999999999 58.875 -15.04249999999999 Q52.375 -16.60499999999999 45.375 -16.60499999999999 Q38.625 -16.60499999999999 31.875 -15.04249999999999 Q25.125 -13.47999999999999 19.375 -10.60499999999999 Q18.25 -10.035124999999987 17.5625 -9.009374999999991 Q16.875 -7.983624999999989 16.875 -6.72999999999999 V-4.60499999999999 Z M45.370625 -53.10499999999999 Q48.875 -53.10499999999999 51.375 -55.600624999999994 Q53.875 -58.09612499999999 53.875 -61.600624999999994 Q53.875 -65.10499999999999 51.379375 -67.54249999999999 Q48.883875 -69.97999999999999 45.379375 -69.97999999999999 Q41.875 -69.97999999999999 39.375 -67.51987499999998 Q36.875 -65.05975 36.875 -61.60499999999999 Q36.875 -58.098749999999995 39.370625 -55.60187499999999 Q41.866125 -53.10499999999999 45.370625 -53.10499999999999 Z"/></g><g id="Semibold-M" transform="matrix(1 0 0 1 1985.97 1126)"><path d="M91.27175 -28.268249999999988 V-42.70299999999999 H76.837 V-53.83349999999999 H91.27175 V-68.26825 H102.40225 V-53.83349999999999 H116.837 V-42.70299999999999 H102.40225 V-28.268249999999988 H91.27175 Z M45.212 -36.43112499999999 Q35.902125 -36.43112499999999 29.355875 -42.977374999999995 Q22.809625 -49.523624999999996 22.809625 -58.83349999999999 Q22.809625 -68.14325 29.355875 -74.654125 Q35.902125 -81.16512499999999 45.212 -81.16512499999999 Q54.52175 -81.16512499999999 61.068 -74.654125 Q67.61425 -68.14325 67.61425 -58.83349999999999 Q67.61425 -49.523624999999996 61.068 -42.977374999999995 Q54.52175 -36.43112499999999 45.212 -36.43112499999999 Z M2.809625 8.37350000000001 V-8.170124999999992 Q2.809625 -13.07737499999999 5.36425 -17.190749999999987 Q7.918875 -21.30424999999999 12.152125 -23.46912499999999 Q20.114125 -27.414874999999988 28.39375 -29.422999999999988 Q36.6735 -31.431124999999987 45.212 -31.431124999999987 Q53.885875 -31.431124999999987 62.1685 -29.45837499999999 Q70.451125 -27.485499999999988 78.27175 -23.539874999999988 Q82.505125 -21.385124999999988 85.059625 -17.29124999999999 Q87.61425 -13.197374999999987 87.61425 -8.173999999999992 V8.37350000000001 H2.809625 Z M16.059875 -4.876749999999991 H74.364125 V-7.816874999999989 Q74.364125 -9.123249999999992 73.676625 -10.192249999999987 Q72.989125 -11.261124999999993 71.864125 -11.854874999999993 Q65.538 -14.94724999999999 58.875 -16.56412499999999 Q52.212 -18.18099999999999 45.212 -18.18099999999999 Q38.35325 -18.18099999999999 31.548875 -16.56412499999999 Q24.744625 -14.94724999999999 18.559875 -11.854874999999993 Q17.434875 -11.261124999999993 16.747375 -10.192249999999987 Q16.059875 -9.123249999999992 16.059875 -7.816874999999989 V-4.876749999999991 Z M45.2095 -49.68137499999999 Q48.98375 -49.68137499999999 51.673875 -52.368999999999986 Q54.364125 -55.056749999999994 54.364125 -58.83099999999999 Q54.364125 -62.60512499999999 51.676375 -65.25999999999999 Q48.98875 -67.914875 45.2145 -67.914875 Q41.44025 -67.914875 38.75 -65.24725 Q36.059875 -62.579499999999996 36.059875 -58.83349999999999 Q36.059875 -55.05824999999999 38.7475 -52.369749999999996 Q41.43525 -49.68137499999999 45.2095 -49.68137499999999 Z"/></g><g id="Medium-M" transform="matrix(1 0 0 1 1689.91 1126)"><path d="M90.538 -26.51537499999999 V-41.27624999999999 H75.77725 V-51.75449999999999 H90.538 V-66.51537499999999 H101.016375 V-51.75449999999999 H115.77725 V-41.27624999999999 H101.016375 V-26.51537499999999 H90.538 Z M45.089625 -35.73812499999999 Q36.39125 -35.73812499999999 30.232375 -41.89712499999999 Q24.073375 -48.056124999999994 24.073375 -56.75449999999999 Q24.073375 -65.45287499999999 30.232375 -71.59687499999998 Q36.39125 -77.74087499999999 45.089625 -77.74087499999999 Q53.788 -77.74087499999999 59.947 -71.59687499999998 Q66.106 -65.45287499999999 66.106 -56.75449999999999 Q66.106 -48.056124999999994 59.947 -41.89712499999999 Q53.788 -35.73812499999999 45.089625 -35.73812499999999 Z M4.073375 6.29450000000001 V-8.781624999999991 Q4.073375 -13.30962499999999 6.416125 -17.10524999999999 Q8.759 -20.900874999999992 12.64125 -22.89849999999999 Q20.481 -26.80337499999999 28.59925 -28.770749999999992 Q36.717625 -30.73812499999999 45.089625 -30.73812499999999 Q53.519 -30.73812499999999 61.638625 -28.785749999999993 Q69.758125 -26.833249999999992 77.538 -22.92837499999999 Q81.420375 -20.934999999999988 83.76325 -17.147749999999988 Q86.106 -13.36037499999999 86.106 -8.783249999999988 V6.29450000000001 H4.073375 Z M15.448375 -5.08049999999999 H74.731 V-8.632124999999988 Q74.731 -9.978124999999991 74.0435 -11.079374999999992 Q73.356 -12.180624999999992 72.231 -12.79249999999999 Q65.660375 -16.04787499999999 58.875 -17.705499999999986 Q52.089625 -19.36312499999999 45.089625 -19.36312499999999 Q38.1495 -19.36312499999999 31.304375 -17.705499999999986 Q24.45925 -16.04787499999999 17.948375 -12.79249999999999 Q16.823375 -12.180624999999992 16.135875 -11.079374999999992 Q15.448375 -9.978124999999991 15.448375 -8.632124999999988 V-5.08049999999999 Z M45.088625 -47.113249999999994 Q49.06525 -47.113249999999994 51.898125 -49.94499999999999 Q54.731 -52.77687499999999 54.731 -56.75337499999999 Q54.731 -60.72999999999999 51.899125 -63.54799999999999 Q49.067375 -66.36587499999999 45.09075 -66.36587499999999 Q41.114125 -66.36587499999999 38.28125 -63.54249999999999 Q35.448375 -60.71924999999999 35.448375 -56.75449999999999 Q35.448375 -52.77749999999999 38.28025 -49.945374999999984 Q41.112 -47.113249999999994 45.088625 -47.113249999999994 Z"/></g><g id="Regular-M" transform="matrix(1 0 0 1 1394.06 1126)"><path d="M90.0 -25.22999999999999 V-40.22999999999999 H75.0 V-50.22999999999999 H90.0 V-65.22999999999999 H100.0 V-50.22999999999999 H115.0 V-40.22999999999999 H100.0 V-25.22999999999999 H90.0 Z M45.0 -35.22999999999999 Q36.75 -35.22999999999999 30.875 -41.10499999999999 Q25.0 -46.97999999999999 25.0 -55.22999999999999 Q25.0 -63.47999999999999 30.875 -69.35499999999999 Q36.75 -75.22999999999999 45.0 -75.22999999999999 Q53.25 -75.22999999999999 59.125 -69.35499999999999 Q65.0 -63.47999999999999 65.0 -55.22999999999999 Q65.0 -46.97999999999999 59.125 -41.10499999999999 Q53.25 -35.22999999999999 45.0 -35.22999999999999 Z M5.0 4.77000000000001 V-9.22999999999999 Q5.0 -13.47999999999999 7.1875 -17.04249999999999 Q9.375 -20.60499999999999 13.0 -22.47999999999999 Q20.75 -26.35499999999999 28.75 -28.29249999999999 Q36.75 -30.22999999999999 45.0 -30.22999999999999 Q53.25 -30.22999999999999 61.25 -28.29249999999999 Q69.25 -26.35499999999999 77.0 -22.47999999999999 Q80.625 -20.60499999999999 82.8125 -17.04249999999999 Q85.0 -13.47999999999999 85.0 -9.22999999999999 V4.77000000000001 H5.0 Z M15.0 -5.22999999999999 H75.0 V-9.22999999999999 Q75.0 -10.60499999999999 74.3125 -11.72999999999999 Q73.625 -12.85499999999999 72.5 -13.47999999999999 Q65.75 -16.85499999999999 58.875 -18.54249999999999 Q52.0 -20.22999999999999 45.0 -20.22999999999999 Q38.0 -20.22999999999999 31.125 -18.54249999999999 Q24.25 -16.85499999999999 17.5 -13.47999999999999 Q16.375 -12.85499999999999 15.6875 -11.72999999999999 Q15.0 -10.60499999999999 15.0 -9.22999999999999 V-5.22999999999999 Z M45.0 -45.22999999999999 Q49.125 -45.22999999999999 52.0625 -48.16749999999999 Q55.0 -51.10499999999999 55.0 -55.22999999999999 Q55.0 -59.35499999999999 52.0625 -62.29249999999999 Q49.125 -65.22999999999999 45.0 -65.22999999999999 Q40.875 -65.22999999999999 37.9375 -62.29249999999999 Q35.0 -59.35499999999999 35.0 -55.22999999999999 Q35.0 -51.10499999999999 37.9375 -48.16749999999999 Q40.875 -45.22999999999999 45.0 -45.22999999999999 Z"/></g><g id="Light-M" transform="matrix(1 0 0 1 1098.18 1126)"><path d="M90.625 -26.480124999999987 V-41.48012499999999 H75.625 V-48.97987499999999 H90.625 V-63.97987499999999 H98.124875 V-48.97987499999999 H113.124875 V-41.48012499999999 H98.124875 V-26.480124999999987 H90.625 Z M45.0 -36.76862499999999 Q37.781375 -36.76862499999999 32.64075 -41.90912499999999 Q27.500125 -47.04974999999999 27.500125 -54.26837499999999 Q27.500125 -61.48712499999999 32.64075 -66.627625 Q37.781375 -71.76825 45.0 -71.76825 Q52.218625 -71.76825 57.35925 -66.627625 Q62.499875 -61.48712499999999 62.499875 -54.26837499999999 Q62.499875 -47.04974999999999 57.35925 -41.90912499999999 Q52.218625 -36.76862499999999 45.0 -36.76862499999999 Z M7.50025 1.3082500000000117 V-9.806999999999988 Q7.50025 -13.47999999999999 9.495375 -16.60974999999999 Q11.4905 -19.739499999999992 14.827 -21.42224999999999 Q22.2405 -25.05687499999999 29.78375 -26.874124999999992 Q37.327 -28.691374999999987 45.0 -28.691374999999987 Q52.673 -28.691374999999987 60.21625 -26.874124999999992 Q67.7595 -25.05687499999999 75.173 -21.42224999999999 Q78.5095 -19.739499999999992 80.504625 -16.60974999999999 Q82.499875 -13.47999999999999 82.499875 -9.806999999999988 V1.3082500000000117 H7.50025 Z M15.0 -6.191624999999991 H75.0 V-9.806999999999988 Q75.0 -11.326249999999987 74.120125 -12.619499999999988 Q73.240375 -13.912749999999988 71.73075 -14.730124999999987 Q65.26925 -17.91274999999999 58.5535 -19.552249999999987 Q51.83775 -21.191624999999988 45.0 -21.191624999999988 Q38.16225 -21.191624999999988 31.4465 -19.552249999999987 Q24.73075 -17.91274999999999 18.26925 -14.730124999999987 Q16.759625 -13.912749999999988 15.879875 -12.619499999999988 Q15.0 -11.326249999999987 15.0 -9.806999999999988 V-6.191624999999991 Z M45.0 -44.26837499999999 Q49.125 -44.26837499999999 52.0625 -47.20587499999999 Q55.0 -50.14337499999999 55.0 -54.26837499999999 Q55.0 -58.39337499999999 52.0625 -61.33087499999999 Q49.125 -64.26837499999999 45.0 -64.26837499999999 Q40.875 -64.26837499999999 37.9375 -61.33087499999999 Q35.0 -58.39337499999999 35.0 -54.26837499999999 Q35.0 -50.14337499999999 37.9375 -47.20587499999999 Q40.875 -44.26837499999999 45.0 -44.26837499999999 Z"/></g><g id="Thin-M" transform="matrix(1 0 0 1 802.565 1126)"><path d="M91.25 -27.72999999999999 V-42.72999999999999 H76.25 V-47.72999999999999 H91.25 V-62.72999999999999 H96.25 V-47.72999999999999 H111.25 V-42.72999999999999 H96.25 V-27.72999999999999 H91.25 Z M45.0 -38.30687499999999 Q38.8125 -38.30687499999999 34.40625 -42.71312499999999 Q30.0 -47.11937499999999 30.0 -53.30687499999999 Q30.0 -59.49449999999999 34.40625 -63.90074999999999 Q38.8125 -68.30699999999999 45.0 -68.30699999999999 Q51.1875 -68.30699999999999 55.59375 -63.90074999999999 Q60.0 -59.49449999999999 60.0 -53.30687499999999 Q60.0 -47.11937499999999 55.59375 -42.71312499999999 Q51.1875 -38.30687499999999 45.0 -38.30687499999999 Z M10.0 -2.152999999999988 V-10.383874999999989 Q10.0 -13.47999999999999 11.802875 -16.17712499999999 Q13.60575 -18.87424999999999 16.653875 -20.36462499999999 Q23.73075 -23.75887499999999 30.81725 -25.45599999999999 Q37.903875 -27.15312499999999 45.0 -27.15312499999999 Q52.096125 -27.15312499999999 59.18275 -25.45599999999999 Q66.26925 -23.75887499999999 73.346125 -20.36462499999999 Q76.39425 -18.87424999999999 78.197125 -16.17712499999999 Q80.0 -13.47999999999999 80.0 -10.383874999999989 V-2.152999999999988 H10.0 Z M15.0 -7.153124999999989 H75.0 V-10.383874999999989 Q75.0 -12.047249999999991 73.927875 -13.508874999999989 Q72.85575 -14.97037499999999 70.9615 -15.97999999999999 Q64.7885 -18.97037499999999 58.232 -20.56174999999999 Q51.675625 -22.15312499999999 45.0 -22.15312499999999 Q38.324375 -22.15312499999999 31.768 -20.56174999999999 Q25.2115 -18.97037499999999 19.0385 -15.97999999999999 Q17.14425 -14.97037499999999 16.072125 -13.508874999999989 Q15.0 -12.047249999999991 15.0 -10.383874999999989 V-7.153124999999989 Z M45.0 -43.30687499999999 Q49.125 -43.30687499999999 52.0625 -46.24437499999999 Q55.0 -49.18187499999999 55.0 -53.30687499999999 Q55.0 -57.43187499999999 52.0625 -60.36937499999999 Q49.125 -63.30687499999999 45.0 -63.30687499999999 Q40.875 -63.30687499999999 37.9375 -60.36937499999999 Q35.0 -57.43187499999999 35.0 -53.30687499999999 Q35.0 -49.18187499999999 37.9375 -46.24437499999999 Q40.875 -43.30687499999999 45.0 -43.30687499999999 Z"/></g><g id="Ultralight-M" transform="matrix(1 0 0 1 506.415 1126)"><path d="M91.625 -28.47999999999999 V-43.47999999999999 H76.625 V-46.97999999999999 H91.625 V-61.97999999999999 H95.125 V-46.97999999999999 H110.125 V-43.47999999999999 H95.125 V-28.47999999999999 H91.625 Z M45.0 -39.22999999999999 Q39.43125 -39.22999999999999 35.465625 -43.19562499999999 Q31.5 -47.161249999999995 31.5 -52.72999999999999 Q31.5 -58.298749999999984 35.465625 -62.26437499999999 Q39.43125 -66.22999999999999 45.0 -66.22999999999999 Q50.56875 -66.22999999999999 54.534375 -62.26437499999999 Q58.5 -58.298749999999984 58.5 -52.72999999999999 Q58.5 -47.161249999999995 54.534375 -43.19562499999999 Q50.56875 -39.22999999999999 45.0 -39.22999999999999 Z M11.5 -4.22999999999999 V-10.72999999999999 Q11.5 -13.47999999999999 13.1875 -15.91749999999999 Q14.875 -18.35499999999999 17.75 -19.72999999999999 Q24.625 -22.97999999999999 31.4375 -24.60499999999999 Q38.25 -26.22999999999999 45.0 -26.22999999999999 Q51.75 -26.22999999999999 58.5625 -24.60499999999999 Q65.375 -22.97999999999999 72.25 -19.72999999999999 Q75.125 -18.35499999999999 76.8125 -15.91749999999999 Q78.5 -13.47999999999999 78.5 -10.72999999999999 V-4.22999999999999 H11.5 Z M15.0 -7.72999999999999 H75.0 V-10.72999999999999 Q75.0 -12.47999999999999 73.8125 -14.04249999999999 Q72.625 -15.60499999999999 70.5 -16.72999999999999 Q64.5 -19.60499999999999 58.039125 -21.16749999999999 Q51.57825 -22.72999999999999 45.0 -22.72999999999999 Q38.42175 -22.72999999999999 31.960875 -21.16749999999999 Q25.5 -19.60499999999999 19.5 -16.72999999999999 Q17.375 -15.60499999999999 16.1875 -14.04249999999999 Q15.0 -12.47999999999999 15.0 -10.72999999999999 V-7.72999999999999 Z M45.0 -42.72999999999999 Q49.125 -42.72999999999999 52.0625 -45.66749999999999 Q55.0 -48.60499999999999 55.0 -52.72999999999999 Q55.0 -56.85499999999999 52.0625 -59.79249999999999 Q49.125 -62.72999999999999 45.0 -62.72999999999999 Q40.875 -62.72999999999999 37.9375 -59.79249999999999 Q35.0 -56.85499999999999 35.0 -52.72999999999999 Q35.0 -48.60499999999999 37.9375 -45.66749999999999 Q40.875 -42.72999999999999 45.0 -42.72999999999999 Z"/></g><g id="Bold-S" transform="matrix(1 0 0 1 2294.23 696)"><path d="M71.60175000000001 -34.73687499999999 V-42.23237499999999 H64.10625 V-50.91137499999999 H71.60175000000001 V-58.406874999999985 H80.28075 V-50.91137499999999 H87.77625 V-42.23237499999999 H80.28075 V-34.73687499999999 H71.60175000000001 Z M38.167875 -36.90662499999999 Q30.771 -36.90662499999999 25.6918125 -41.98581249999999 Q20.612625 -47.06499999999999 20.612625 -54.46187499999999 Q20.612625 -61.858749999999986 25.6918125 -66.88862499999999 Q30.771 -71.9185 38.167875 -71.9185 Q45.564750000000004 -71.9185 50.6439375 -66.88862499999999 Q55.723125 -61.858749999999986 55.723125 -54.46187499999999 Q55.723125 -47.06499999999999 50.6439375 -41.98581249999999 Q45.564750000000004 -36.90662499999999 38.167875 -36.90662499999999 Z M6.4106250000000005 -1.7961249999999875 V-14.420124999999988 Q6.4106250000000005 -17.88008724999999 8.155794375 -20.780352624999985 Q9.901062375 -23.68061799999999 12.919875000000001 -25.367499999999986 Q18.640125 -28.62212499999999 25.046706375000003 -30.39737499999999 Q31.45328775 -32.17262499999999 38.167875 -32.17262499999999 Q45.071625000000004 -32.17262499999999 51.48225 -30.44668749999999 Q57.892875000000004 -28.72074999999999 63.415875 -25.46612499999999 Q66.43468762500001 -23.793642249999984 68.17995562499999 -20.920597374999986 Q69.92512500000001 -18.047552499999984 69.92512500000001 -14.425549374999989 V-1.7961249999999875 H6.4106250000000005 Z M18.048375 -13.433874999999986 H58.287375000000004 V-13.926999999999989 Q58.287375000000004 -14.469437499999987 57.989034375 -14.913249999999987 Q57.69069375000001 -15.357062499999987 57.2025 -15.603624999999987 Q53.158875 -17.87199999999999 48.32625 -19.20343749999999 Q43.493625 -20.534874999999985 38.167875 -20.534874999999985 Q33.039375 -20.534874999999985 28.009500000000003 -19.20343749999999 Q22.979625000000002 -17.87199999999999 19.13325 -15.603624999999987 Q18.645056250000003 -15.357062499999987 18.346715625 -14.913249999999987 Q18.048375 -14.469437499999987 18.048375 -13.926999999999989 V-13.433874999999986 Z M38.185331625 -48.54437499999999 Q40.633500000000005 -48.54437499999999 42.3594375 -50.28776912499999 Q44.085375 -52.03116324999999 44.085375 -54.479331624999986 Q44.085375 -56.927499999999995 42.341980875 -58.604124999999996 Q40.59858675 -60.28074999999998 38.150418375 -60.28074999999998 Q35.70225 -60.28074999999998 33.9763125 -58.56526674999999 Q32.250375 -56.84988212499998 32.250375 -54.44096649999999 Q32.250375 -51.99131874999999 33.993769125 -50.26784687499999 Q35.73716325 -48.54437499999999 38.185331625 -48.54437499999999 Z"/></g><g id="Semibold-S" transform="matrix(1 0 0 1 1998.1 696)"><path d="M70.82991075 -32.89317924999999 V-40.73169699999999 H62.991393 V-48.72466149999999 H70.82991075 V-56.56317924999999 H78.82287525 V-48.72466149999999 H86.661393 V-40.73169699999999 H78.82287525 V-32.89317924999999 H70.82991075 Z M38.03926800000001 -36.17768762499998 Q31.285526625 -36.17768762499998 26.613660375 -40.84955387499999 Q21.941794125 -45.52142012499999 21.941794125 -52.27516149999998 Q21.941794125 -59.02880424999999 26.613660375 -63.672759625 Q31.285526625 -68.316813625 38.03926800000001 -68.316813625 Q44.79291075 -68.316813625 49.464777 -63.672759625 Q54.13664325 -59.02880424999999 54.13664325 -52.27516149999998 Q54.13664325 -45.52142012499999 49.464777 -40.84955387499999 Q44.79291075 -36.17768762499998 38.03926800000001 -36.17768762499998 Z M7.739794125 -3.9828384999999855 V-15.063258624999989 Q7.739794125 -18.12438137499999 9.26226825 -20.690406624999987 Q10.784742375 -23.25633324999999 13.434401625000001 -24.767169624999987 Q19.026044625 -27.978991374999985 25.26279375 -29.711339499999987 Q31.4996415 -31.44368762499999 38.03926800000001 -31.44368762499999 Q44.685705375 -31.44368762499999 50.9248215 -29.73925037499999 Q57.163937625 -28.034714499999986 62.64403575 -24.822991374999987 Q65.293793625 -23.320143624999986 66.816169125 -20.76960249999999 Q68.33864325 -18.21906137499999 68.33864325 -15.06631599999999 V-3.9828384999999855 H7.739794125 Z M17.405241375000003 -13.648285749999985 H58.673294625000004 V-14.784544374999985 Q58.673294625000004 -15.36860162499999 58.374954 -15.846439749999988 Q58.07661337500001 -16.324376499999985 57.588419625 -16.58977637499999 Q53.287482 -19.02966024999999 48.32625 -20.40399962499999 Q43.365018000000006 -21.77833899999999 38.03926800000001 -21.77833899999999 Q32.82496425 -21.77833899999999 27.752187375000002 -20.40399962499999 Q22.679509125 -19.02966024999999 18.490116375000003 -16.58977637499999 Q18.001922625 -16.324376499999985 17.703582 -15.846439749999988 Q17.405241375000003 -15.36860162499999 17.405241375000003 -14.784544374999985 V-13.648285749999985 Z M38.058203999999996 -45.84313487499999 Q40.71930375 -45.84313487499999 42.595249875 -47.73811562499999 Q44.471294625000006 -49.63309637499999 44.471294625000006 -52.29409749999999 Q44.471294625000006 -54.95509862499999 42.576313875000004 -56.80323249999999 Q40.681333125 -58.651366374999995 38.020233375000004 -58.651366374999995 Q35.35923225 -58.651366374999995 33.4831875 -56.77226424999999 Q31.607241375 -54.89306349999998 31.607241375 -52.254154374999985 Q31.607241375 -49.59236424999999 33.502222125 -47.71770024999999 Q35.397202875 -45.84313487499999 38.058203999999996 -45.84313487499999 Z"/></g><g id="Medium-S" transform="matrix(1 0 0 1 1701.85 696)"><path d="M70.25098200000001 -31.51016087499999 V-39.60599124999999 H62.15525025 V-47.08433049999999 H70.25098200000001 V-55.180160874999984 H77.729419875 V-47.08433049999999 H85.82525025 V-39.60599124999999 H77.729419875 V-31.51016087499999 H70.25098200000001 Z M37.942714125 -35.63091062499999 Q31.671446250000002 -35.63091062499999 27.305218874999998 -39.997236624999985 Q22.938892875 -44.36356262499999 22.938892875 -50.63483049999999 Q22.938892875 -56.906098374999985 27.305218874999998 -61.26058937499998 Q31.671446250000002 -65.61508037499999 37.942714125 -65.61508037499999 Q44.213982 -65.61508037499999 48.580308 -61.26058937499998 Q52.946633999999996 -56.906098374999985 52.946633999999996 -50.63483049999999 Q52.946633999999996 -44.36356262499999 48.580308 -39.997236624999985 Q44.213982 -35.63091062499999 37.942714125 -35.63091062499999 Z M8.736892875 -5.623169499999989 V-15.54573212499999 Q8.736892875 -18.30772524999999 10.092197624999999 -20.62284849999999 Q11.447601 -22.938070374999988 13.820321250000001 -24.316946499999986 Q19.315509000000002 -27.496517874999988 25.42493325 -29.196714249999992 Q31.534456125 -30.89691062499999 37.942714125 -30.89691062499999 Q44.396241 -30.89691062499999 50.506750125 -29.20854924999999 Q56.61716062500001 -27.52008924999999 62.065107 -24.34051787499999 Q64.437925875 -22.964994999999988 65.79332925 -20.65638099999999 Q67.148634 -18.34776699999999 67.148634 -15.547014249999986 V-5.623169499999989 H8.736892875 Z M16.922767874999998 -13.809044499999985 H58.962759 V-15.427776624999986 Q58.962759 -16.04309799999999 58.664418375000004 -16.54647999999999 Q58.36607775 -17.049861999999987 57.877884 -17.329562499999987 Q53.384035875 -19.89805337499999 48.32625 -21.304544499999984 Q43.268464125 -22.711035624999987 37.942714125 -22.711035624999987 Q32.6642055 -22.711035624999987 27.559276875000002 -21.304544499999984 Q22.454348250000002 -19.89805337499999 18.007642875 -17.329562499999987 Q17.519449125 -17.049861999999987 17.2211085 -16.54647999999999 Q16.922767874999998 -16.04309799999999 16.922767874999998 -15.427776624999986 V-13.809044499999985 Z M37.962833625 -43.816884249999994 Q40.78360725 -43.816884249999994 42.772183125000005 -45.82548099999999 Q44.760759 -47.834176374999984 44.760759 -50.654949999999985 Q44.760759 -53.475624999999994 42.752063625 -55.45246449999999 Q40.743368249999996 -57.429205374999995 37.922594625 -57.429205374999995 Q35.101919625 -57.429205374999995 33.11334375 -55.427216499999986 Q31.124767875 -53.42522762499999 31.124767875 -50.613921999999995 Q31.124767875 -47.79285249999999 33.133463250000005 -45.804868374999984 Q35.14215862500001 -43.816884249999994 37.962833625 -43.816884249999994 Z"/></g><g id="Regular-S" transform="matrix(1 0 0 1 1405.73 696)"><path d="M69.82650000000001 -30.495999999999988 V-38.78049999999999 H61.542 V-45.88149999999999 H69.82650000000001 V-54.16599999999998 H76.92750000000001 V-45.88149999999999 H85.212 V-38.78049999999999 H76.92750000000001 V-30.495999999999988 H69.82650000000001 Z M37.872 -35.22999999999999 Q31.954500000000003 -35.22999999999999 27.812250000000002 -39.37224999999999 Q23.67 -43.51449999999999 23.67 -49.43199999999999 Q23.67 -55.34949999999999 27.812250000000002 -59.491749999999996 Q31.954500000000003 -63.633999999999986 37.872 -63.633999999999986 Q43.789500000000004 -63.633999999999986 47.93175 -59.491749999999996 Q52.074000000000005 -55.34949999999999 52.074000000000005 -49.43199999999999 Q52.074000000000005 -43.51449999999999 47.93175 -39.37224999999999 Q43.789500000000004 -35.22999999999999 37.872 -35.22999999999999 Z M9.468 -6.825999999999986 V-15.899499999999989 Q9.468 -18.442052499999985 10.7008125 -20.573338749999984 Q11.933625000000001 -22.704624999999986 14.103375 -23.986749999999986 Q19.52775 -27.142749999999985 25.543875 -28.819374999999987 Q31.560000000000002 -30.495999999999988 37.872 -30.495999999999988 Q44.184000000000005 -30.495999999999988 50.200125 -28.819374999999987 Q56.21625 -27.142749999999985 61.640625 -23.986749999999986 Q63.810375 -22.704624999999986 65.0431875 -20.573338749999984 Q66.276 -18.442052499999985 66.276 -15.899499999999989 V-6.825999999999986 H9.468 Z M16.569 -13.926999999999989 H59.175000000000004 V-15.899499999999989 Q59.175000000000004 -16.537702374999988 58.876659375 -17.059823124999987 Q58.57831875000001 -17.58194387499999 58.090125 -17.87199999999999 Q53.454750000000004 -20.534874999999985 48.32625 -21.96493749999999 Q43.19775 -23.39499999999999 37.872 -23.39499999999999 Q32.54625 -23.39499999999999 27.41775 -21.96493749999999 Q22.289250000000003 -20.534874999999985 17.653875 -17.87199999999999 Q17.165681250000002 -17.58194387499999 16.867340625 -17.059823124999987 Q16.569 -16.537702374999988 16.569 -15.899499999999989 V-13.926999999999989 Z M37.8929085 -42.33099999999999 Q40.83075 -42.33099999999999 42.901875000000004 -44.42303349999999 Q44.973 -46.51516562499999 44.973 -49.452908499999985 Q44.973 -52.39074999999998 42.8809665 -54.46187499999999 Q40.788834375 -56.53299999999999 37.8510915 -56.53299999999999 Q34.913250000000005 -56.53299999999999 32.842125 -54.44096649999999 Q30.771 -52.348834374999996 30.771 -49.41109149999999 Q30.771 -46.473249999999986 32.8630335 -44.40212499999999 Q34.955165625 -42.33099999999999 37.8929085 -42.33099999999999 Z"/></g><g id="Light-S" transform="matrix(1 0 0 1 1109.75 696)"><path d="M70.319625 -31.482348624999986 V-39.76684862499999 H62.035125 V-44.89515137499999 H70.319625 V-53.17965137499999 H75.44802637500001 V-44.89515137499999 H83.732526375 V-39.76684862499999 H75.44802637500001 V-31.482348624999986 H70.319625 Z M37.872 -36.443975124999994 Q32.768254875 -36.443975124999994 29.205426749999997 -40.00670462499999 Q25.642598624999998 -43.569532749999986 25.642598624999998 -48.67327787499999 Q25.642598624999998 -53.77712162499999 29.205426749999997 -57.339851124999996 Q32.768254875 -60.90267924999999 37.872 -60.90267924999999 Q42.975745125 -60.90267924999999 46.538573250000006 -57.339851124999996 Q50.101401375 -53.77712162499999 50.101401375 -48.67327787499999 Q50.101401375 -43.569532749999986 46.538573250000006 -40.00670462499999 Q42.975745125 -36.443975124999994 37.872 -36.443975124999994 Z M11.440598625000002 -9.557320749999985 V-16.354752999999985 Q11.440598625000002 -18.442052499999985 12.521725875 -20.231898999999984 Q13.602754500000001 -22.021745499999987 15.544878000000002 -23.152185249999988 Q20.703754500000002 -26.118529374999987 26.35950375 -27.700277124999992 Q32.015253 -29.282024874999983 37.872 -29.282024874999983 Q43.728747000000006 -29.282024874999983 49.384496250000005 -27.700277124999992 Q55.040245500000005 -26.118529374999987 60.199122 -23.152185249999988 Q62.141245500000004 -22.021745499999987 63.222274125000006 -20.231898999999984 Q64.303401375 -18.442052499999985 64.303401375 -16.354752999999985 V-9.557320749999985 H11.440598625000002 Z M16.569 -14.685722124999987 H59.175000000000004 V-16.354752999999985 Q59.175000000000004 -17.106669999999987 58.7248755 -17.761638624999986 Q58.27484962500001 -18.416508624999988 57.48318675 -18.858348624999984 Q53.075438250000005 -21.369439749999984 48.0725865 -22.761630249999982 Q43.06973475 -24.153722124999987 37.872 -24.153722124999987 Q32.674265250000005 -24.153722124999987 27.6714135 -22.761630249999982 Q22.668561750000002 -21.369439749999984 18.26081325 -18.858348624999984 Q17.469150375 -18.416508624999988 17.0191245 -17.761638624999986 Q16.569 -17.106669999999987 16.569 -16.354752999999985 V-14.685722124999987 Z M37.8929085 -41.57227787499999 Q40.83075 -41.57227787499999 42.901875000000004 -43.66440999999999 Q44.973 -45.75644349999999 44.973 -48.69428499999999 Q44.973 -51.63202787499999 42.8809665 -53.70315287499999 Q40.788834375 -55.774277874999996 37.8510915 -55.774277874999996 Q34.913250000000005 -55.774277874999996 32.842125 -53.682244374999996 Q30.771 -51.59011224999998 30.771 -48.65236937499999 Q30.771 -45.71452787499999 32.8630335 -43.64340287499999 Q34.955165625 -41.57227787499999 37.8929085 -41.57227787499999 Z"/></g><g id="Thin-S" transform="matrix(1 0 0 1 814.015 696)"><path d="M70.81275000000001 -32.46849999999999 V-40.752999999999986 H62.52825 V-43.90899999999999 H70.81275000000001 V-52.193499999999986 H73.96875 V-43.90899999999999 H82.25325000000001 V-40.752999999999986 H73.96875 V-32.46849999999999 H70.81275000000001 Z M37.872 -37.65765437499999 Q33.5818125 -37.65765437499999 30.59840625 -40.64106062499999 Q27.615000000000002 -43.62446687499999 27.615000000000002 -47.91465437499999 Q27.615000000000002 -52.20494049999999 30.59840625 -55.188346749999994 Q33.5818125 -58.17175299999998 37.872 -58.17175299999998 Q42.1621875 -58.17175299999998 45.14559375 -55.188346749999994 Q48.129000000000005 -52.20494049999999 48.129000000000005 -47.91465437499999 Q48.129000000000005 -43.62446687499999 45.14559375 -40.64106062499999 Q42.1621875 -37.65765437499999 37.872 -37.65765437499999 Z M13.413 -12.288246999999988 V-16.809907374999987 Q13.413 -18.442052499999985 14.342343375 -19.890557874999985 Q15.27168675 -21.339063249999988 16.986282375000002 -22.31771912499999 Q21.87956175 -25.09440737499999 27.17493525 -26.58137649999999 Q32.470407375 -28.068345624999985 37.872 -28.068345624999985 Q43.273592625 -28.068345624999985 48.56906475 -26.58137649999999 Q53.86443825 -25.09440737499999 58.757717625000005 -22.31771912499999 Q60.47231325 -21.339063249999988 61.401656625 -19.890557874999985 Q62.331 -18.442052499999985 62.331 -16.809907374999987 V-12.288246999999988 H13.413 Z M16.569 -15.444345624999986 H59.175000000000004 V-16.809907374999987 Q59.175000000000004 -17.67563762499999 58.57319025 -18.46325687499999 Q57.97138050000001 -19.25097474999999 56.8762485 -19.84449999999999 Q52.6961265 -22.20390587499999 47.818923 -23.558125749999988 Q42.941818125 -24.912345624999986 37.872 -24.912345624999986 Q32.802181875 -24.912345624999986 27.925077 -23.558125749999988 Q23.0478735 -22.20390587499999 18.8677515 -19.84449999999999 Q17.7726195 -19.25097474999999 17.17080975 -18.46325687499999 Q16.569 -17.67563762499999 16.569 -16.809907374999987 V-15.444345624999986 Z M37.8929085 -40.81365437499999 Q40.83075 -40.81365437499999 42.901875000000004 -42.905786499999984 Q44.973 -44.99781999999998 44.973 -47.93566149999999 Q44.973 -50.87340437499999 42.8809665 -52.94452937499999 Q40.788834375 -55.015654375 37.8510915 -55.015654375 Q34.913250000000005 -55.015654375 32.842125 -52.923620875 Q30.771 -50.83158737499999 30.771 -47.89374587499999 Q30.771 -44.95590437499999 32.8630335 -42.88477937499999 Q34.955165625 -40.81365437499999 37.8929085 -40.81365437499999 Z"/></g><g id="Ultralight-S" transform="matrix(1 0 0 1 517.792 696)"><path d="M71.108625 -33.06024999999999 V-41.34474999999999 H62.824125 V-43.31724999999999 H71.108625 V-51.60174999999999 H73.081125 V-43.31724999999999 H81.36562500000001 V-41.34474999999999 H73.081125 V-33.06024999999999 H71.108625 Z M37.872 -38.38599999999999 Q34.07000625 -38.38599999999999 31.434253125000005 -41.02175312499999 Q28.7985 -43.65750624999999 28.7985 -47.45949999999999 Q28.7985 -51.261493749999985 31.434253125000005 -53.89724687499999 Q34.07000625 -56.53299999999999 37.872 -56.53299999999999 Q41.67399375 -56.53299999999999 44.309746875 -53.89724687499999 Q46.9455 -51.261493749999985 46.9455 -47.45949999999999 Q46.9455 -43.65750624999999 44.309746875 -41.02175312499999 Q41.67399375 -38.38599999999999 37.872 -38.38599999999999 Z M14.5965 -13.926999999999989 V-17.082999999999988 Q14.5965 -18.442052499999985 15.434812500000001 -19.685713749999987 Q16.273125 -20.929374999999986 17.851125 -21.816999999999986 Q22.585125 -24.479874999999986 27.6643125 -25.90993749999999 Q32.743500000000004 -27.33999999999999 37.872 -27.33999999999999 Q43.0005 -27.33999999999999 48.0796875 -25.90993749999999 Q53.158875 -24.479874999999986 57.892875000000004 -21.816999999999986 Q59.470875 -20.929374999999986 60.3091875 -19.685713749999987 Q61.1475 -18.442052499999985 61.1475 -17.082999999999988 V-13.926999999999989 H14.5965 Z M16.569 -15.899499999999989 H59.175000000000004 V-17.082999999999988 Q59.175000000000004 -18.01707737499999 58.482159375 -18.884385624999986 Q57.78931875000001 -19.75169387499999 56.512125000000005 -20.436249999999987 Q52.4685 -22.704624999999986 47.666744625 -24.036062499999986 Q42.86498925 -25.367499999999986 37.872 -25.367499999999986 Q32.879010750000006 -25.367499999999986 28.077255375000004 -24.036062499999986 Q23.2755 -22.704624999999986 19.231875000000002 -20.436249999999987 Q17.95468125 -19.75169387499999 17.261840625 -18.884385624999986 Q16.569 -18.01707737499999 16.569 -17.082999999999988 V-15.899499999999989 Z M37.8929085 -40.358499999999985 Q40.83075 -40.358499999999985 42.901875000000004 -42.450533499999985 Q44.973 -44.542665624999984 44.973 -47.48040849999999 Q44.973 -50.418249999999986 42.8809665 -52.489374999999995 Q40.788834375 -54.56049999999999 37.8510915 -54.56049999999999 Q34.913250000000005 -54.56049999999999 32.842125 -52.46846649999999 Q30.771 -50.37633437499999 30.771 -47.43859149999999 Q30.771 -44.50074999999999 32.8630335 -42.42962499999999 Q34.955165625 -40.358499999999985 37.8929085 -40.358499999999985 Z"/></g></g></svg>