<svg xmlns="http://www.w3.org/2000/svg" version="1.1" width="3300" height="2000"><g id="Notes"><style>
    text {
      font-family: monospace;
      text-anchor: middle;
    }
    text.emphasis {
      font-weight:bold;
    }
    text.lanchor {
      text-anchor: start;
    }
  </style><rect height="2200" id="artboard" fill="white" width="3300" x="0" y="0"/><line id="" style="fill:none;stroke:black;stroke-width:0.5;" x1="263" x2="3036" y1="292" y2="292"/><text class="lanchor emphasis" transform="matrix(1 0 0 1 263 322)">Weight/Scale Variations</text><text transform="matrix(1 0 0 1 559.711 322)">Ultralight</text><text transform="matrix(1 0 0 1 856.422 322)">Thin</text><text transform="matrix(1 0 0 1 1153.13 322)">Light</text><text transform="matrix(1 0 0 1 1449.84 322)">Regular</text><text transform="matrix(1 0 0 1 1746.56 322)">Medium</text><text transform="matrix(1 0 0 1 2043.27 322)">Semibold</text><text transform="matrix(1 0 0 1 2339.98 322)">Bold</text><text transform="matrix(1 0 0 1 2636.69 322)">Heavy</text><text transform="matrix(1 0 0 1 2933.4 322)">Black</text><text id="template-version" style="text-anchor: end;" transform="matrix(1 0 0 1 3036 1933)">Template v.1.0</text><text class="lanchor" transform="matrix(1 0 0 1 263 726)">Small</text><text class="lanchor" transform="matrix(1 0 0 1 263 1156)">Medium</text><text class="lanchor" transform="matrix(1 0 0 1 263 1586)">Large</text></g><g id="Guides"><g id="H-reference" style="fill:#27AAE1;stroke:none;" transform="matrix(1 0 0 1 339 696)"><path d="M 54.9316 0 L 57.666 0 L 30.5664 -70.459 L 28.0762 -70.459 L 0.976562 0 L 3.66211 0 L 12.9395 -24.4629 L 45.7031 -24.4629 Z M 29.1992 -67.0898 L 29.4434 -67.0898 L 44.8242 -26.709 L 13.8184 -26.709 Z"/></g><line id="Baseline-S" style="fill:none;stroke:#27AAE1;opacity:1;stroke-width:0.577;" x1="263" x2="3036" y1="696" y2="696"/><line id="Capline-S" style="fill:none;stroke:#27AAE1;opacity:1;stroke-width:0.577;" x1="263" x2="3036" y1="625.541" y2="625.541"/><g id="H-reference" style="fill:#27AAE1;stroke:none;" transform="matrix(1 0 0 1 339 1126)"><path d="M 54.9316 0 L 57.666 0 L 30.5664 -70.459 L 28.0762 -70.459 L 0.976562 0 L 3.66211 0 L 12.9395 -24.4629 L 45.7031 -24.4629 Z M 29.1992 -67.0898 L 29.4434 -67.0898 L 44.8242 -26.709 L 13.8184 -26.709 Z"/></g><line id="Baseline-M" style="fill:none;stroke:#27AAE1;opacity:1;stroke-width:0.577;" x1="263" x2="3036" y1="1126" y2="1126"/><line id="Capline-M" style="fill:none;stroke:#27AAE1;opacity:1;stroke-width:0.577;" x1="263" x2="3036" y1="1055.54" y2="1055.54"/><g id="H-reference" style="fill:#27AAE1;stroke:none;" transform="matrix(1 0 0 1 339 1556)"><path d="M 54.9316 0 L 57.666 0 L 30.5664 -70.459 L 28.0762 -70.459 L 0.976562 0 L 3.66211 0 L 12.9395 -24.4629 L 45.7031 -24.4629 Z M 29.1992 -67.0898 L 29.4434 -67.0898 L 44.8242 -26.709 L 13.8184 -26.709 Z"/></g><line id="Baseline-L" style="fill:none;stroke:#27AAE1;opacity:1;stroke-width:0.577;" x1="263" x2="3036" y1="1556" y2="1556"/><line id="Capline-L" style="fill:none;stroke:#27AAE1;opacity:1;stroke-width:0.577;" x1="263" x2="3036" y1="1485.54" y2="1485.54"/><rect height="119.336" id="left-margin" style="fill:darkred;stroke:none;opacity:0.4;" width="12.4512" x="1394.06" y="1030.79"/><rect height="119.336" id="right-margin" style="fill:darkgreen;stroke:none;opacity:0.4;" width="12.4512" x="1502.5112" y="1030.79"/><rect x="1406.5112" y="1045" width="96" height="96" fill="none" stroke="blue" stroke-dasharray="5"/><rect x="1394.06" y="1030.79" width="120.9024" height="119.336" fill="none" stroke="blue"/></g><g id="Symbols"><g id="Bold-L" transform="matrix(1 0 0 1 2266 1556)"><path d="M62.40375 -7.656249999999986 H91.59 Q94.87546875 -7.656249999999986 96.619065 -9.651718749999986 Q98.3625 -11.647187499999987 98.3625 -14.58999999999999 V-27.65124999999999 H84.97875 V-20.878749999999982 H69.66 V-49.58124999999998 H84.97875 V-42.64749999999998 H98.3625 V-55.82178624999999 Q98.3625 -58.93374999999999 96.619065 -60.86874999999999 Q94.87546875 -62.803749999999994 91.59 -62.803749999999994 H62.40375 Q59.279531250000005 -62.803749999999994 57.77781 -60.73781499999998 Q56.276250000000005 -58.67171874999998 56.276250000000005 -55.547499999999985 V-14.751249999999985 Q56.276250000000005 -11.627031249999987 57.77781 -9.641559999999984 Q59.279531250000005 -7.656249999999986 62.40375 -7.656249999999986 Z M77.4222525 33.30125000000002 Q63.21 33.30125000000002 50.71522125 27.966455000000018 Q38.22028125 22.631821250000016 28.87923 13.290770000000016 Q19.53817875 3.9497187500000166 14.203545 -8.522968749999983 Q8.86875 -20.995494999999984 8.86875 -35.207747499999996 Q8.86875 -49.58124999999998 14.203545 -62.07602874999998 Q19.53817875 -74.57096874999999 28.85391375 -83.83977999999999 Q38.16964875 -93.10875249999998 50.6541075 -98.51562625 Q63.138566250000004 -103.92249999999999 77.36436375 -103.92249999999999 Q91.75125 -103.92249999999999 104.2652175 -98.5280425 Q116.77902375000001 -93.13374624999997 126.0359025 -83.88622 Q135.29278125 -74.63869374999999 140.69272125 -62.13730374999999 Q146.0925 -49.63607499999999 146.0925 -35.22999999999999 Q146.0925 -20.995494999999984 140.68562625 -8.503296249999984 Q135.2787525 3.988902500000016 126.00978 13.310281250000017 Q116.74096875000001 22.631821250000016 104.26828125 27.966455000000018 Q91.795755 33.30125000000002 77.4222525 33.30125000000002 Z M77.4 18.143750000000015 Q99.6525 18.143750000000015 115.213125 2.60376500000001 Q130.77375 -12.936219999999992 130.77375 -35.22999999999999 Q130.77375 -57.48249999999999 115.213125 -73.04312499999999 Q99.6525 -88.60374999999999 77.31937500000001 -88.60374999999999 Q55.1475 -88.60374999999999 39.586875 -73.04312499999999 Q24.02625 -57.48249999999999 24.02625 -35.14937499999999 Q24.02625 -12.977499999999985 39.566235000000006 2.5831250000000168 Q55.10622000000001 18.143750000000015 77.4 18.143750000000015 Z"/></g><g id="Semibold-L" transform="matrix(1 0 0 1 1970.27 1556)"><path d="M62.824451249999996 -8.427347499999982 H91.4497125 Q94.2883575 -8.427347499999982 95.72961000000001 -10.221253749999981 Q97.17070125000001 -12.01515999999998 97.17070125000001 -14.660143749999989 V-27.160566249999988 H85.39945125000001 V-20.107652499999986 H69.23929875 V-50.35234749999999 H85.39945125000001 V-43.13818374999998 H97.17070125000001 V-55.702461249999985 Q97.17070125000001 -58.44306624999999 95.72961000000001 -60.23777874999999 Q94.2883575 -62.03265249999998 91.4497125 -62.03265249999998 H62.824451249999996 Q60.0769125 -62.03265249999998 58.77256125 -60.163765 Q57.46804875 -58.294877499999984 57.46804875 -55.547499999999985 V-14.751249999999985 Q57.46804875 -12.003872499999986 58.77256125 -10.215609999999991 Q60.0769125 -8.427347499999982 62.824451249999996 -8.427347499999982 Z M77.4125775 31.548623750000015 Q63.63070125 31.548623750000015 51.45036 26.324930000000016 Q39.27018 21.101236250000017 30.169391250000004 12.000608750000012 Q21.06876375 2.8998200000000125 15.84507 -9.267782499999988 Q10.62137625 -21.43554624999998 10.62137625 -35.217422499999984 Q10.62137625 -49.160548749999975 15.84507 -61.34088999999999 Q21.06876375 -73.52107 30.155201249999998 -82.54590999999999 Q39.2414775 -91.57074999999998 51.4158525 -96.83524 Q63.590227500000005 -102.09973 77.37984375 -102.09973 Q91.33054874999999 -102.09973 103.52169375 -96.84233499999999 Q115.7126775 -91.58493999999999 124.730745 -82.57219375 Q133.7488125 -73.55944749999999 139.00927125 -61.375558749999996 Q144.26973 -49.191669999999974 144.26973 -35.22999999999999 Q144.26973 -21.43554624999998 139.00524000000001 -9.256656249999985 Q133.74075 2.922072500000013 124.71591000000001 12.011573750000014 Q115.69107000000001 21.101236250000017 103.5234675 26.324930000000016 Q91.35570375 31.548623750000015 77.4125775 31.548623750000015 Z M77.4 18.774721250000017 Q99.93291375000001 18.774721250000017 115.6688175 3.0154362500000147 Q131.40472125 -12.743848749999984 131.40472125 -35.22999999999999 Q131.40472125 -57.762913749999996 115.6688175 -73.49881749999999 Q99.93291375000001 -89.23472124999998 77.35436625 -89.23472124999998 Q54.93723000000001 -89.23472124999998 39.16617375 -73.49881749999999 Q23.39527875 -57.762913749999996 23.39527875 -35.18436624999998 Q23.39527875 -12.76722999999999 39.15456375 3.0038262500000172 Q54.91384875 18.774721250000017 77.4 18.774721250000017 Z"/></g><g id="Medium-L" transform="matrix(1 0 0 1 1674.31 1556)"><path d="M63.13985625 -9.005912499999987 H91.3445775 Q93.84798375000001 -9.005912499999987 95.0623575 -10.648566249999988 Q96.27673125000001 -12.291381249999986 96.27673125000001 -14.712711249999991 V-26.792432499999975 H85.71485625000001 V-19.52908749999998 H68.92389375 V-50.93091249999999 H85.71485625000001 V-43.506317499999994 H96.27673125000001 V-55.61312874999999 Q96.27673125000001 -58.07493249999999 95.0623575 -59.76450999999999 Q93.84798375000001 -61.454087499999986 91.3445775 -61.454087499999986 H63.13985625 Q60.675149999999995 -61.454087499999986 59.51850375000001 -59.733227499999984 Q58.362018750000004 -58.01220624999998 58.362018750000004 -55.547499999999985 V-14.751249999999985 Q58.362018750000004 -12.286543749999979 59.51850375000001 -10.646147499999984 Q60.675149999999995 -9.005912499999987 63.13985625 -9.005912499999987 Z M77.40532125 30.233952500000015 Q63.94610625 30.233952500000015 52.00183500000001 25.093625000000014 Q40.05756375 19.953136250000014 31.13721375 11.032786250000015 Q22.21686375 2.112436250000016 17.076375000000002 -9.82651374999999 Q11.9360475 -21.765463749999988 11.9360475 -35.22467874999998 Q11.9360475 -48.84514374999998 17.076375000000002 -60.78941499999999 Q22.21686375 -72.73368624999999 31.131086250000003 -81.57550749999999 Q40.04547 -90.41716749999998 51.9873225 -95.57490999999999 Q63.92901375 -100.73265249999997 77.39145375 -100.73265249999997 Q91.01514375 -100.73265249999997 102.96392999999999 -95.5778125 Q114.91287750000001 -90.42313374999998 123.75163500000001 -81.58647249999999 Q132.59055375 -72.74981125 137.7465225 -60.80408874999999 Q142.9026525 -48.858204999999984 142.9026525 -35.22999999999999 Q142.9026525 -21.765463749999988 137.74491 -9.821837499999987 Q132.5871675 2.1217887500000145 123.7455075 11.037462500000014 Q114.90368625 19.953136250000014 102.96473625000002 25.093625000000014 Q91.02578625 30.233952500000015 77.40532125 30.233952500000015 Z M77.4 19.247990000000016 Q100.14318375 19.247990000000016 116.01066750000001 3.3242300000000142 Q131.87798999999998 -12.599529999999987 131.87798999999998 -35.22999999999999 Q131.87798999999998 -57.97318374999999 116.01066750000001 -73.8406675 Q100.14318375 -89.70798999999997 77.38065 -89.70798999999997 Q54.77936625 -89.70798999999997 38.85076875 -73.8406675 Q22.92201 -57.97318374999999 22.92201 -35.21064999999999 Q22.92201 -12.609366249999987 38.84577 3.3192312500000156 Q54.76953 19.247990000000016 77.4 19.247990000000016 Z"/></g><g id="Regular-L" transform="matrix(1 0 0 1 1378.56 1556)"><path d="M63.37125 -9.429999999999986 H91.2675 Q93.525 -9.429999999999986 94.573125 -10.961874999999985 Q95.62125 -12.493749999999984 95.62125 -14.751249999999985 V-26.52249999999998 H85.94625 V-19.104999999999983 H68.6925 V-51.35499999999999 H85.94625 V-43.77624999999999 H95.62125 V-55.547499999999985 Q95.62125 -57.80499999999999 94.573125 -59.41749999999999 Q93.525 -61.02999999999999 91.2675 -61.02999999999999 H63.37125 Q61.11375 -61.02999999999999 60.065625000000004 -59.41749999999999 Q59.0175 -57.80499999999999 59.0175 -55.547499999999985 V-14.751249999999985 Q59.0175 -12.493749999999984 60.065625000000004 -10.961874999999985 Q61.11375 -9.429999999999986 63.37125 -9.429999999999986 Z M77.4 29.270000000000017 Q64.1775 29.270000000000017 52.40625 24.190625000000015 Q40.635 19.111250000000016 31.846875 10.323125000000015 Q23.05875 1.535000000000018 17.979375 -10.236249999999984 Q12.9 -22.00749999999998 12.9 -35.22999999999999 Q12.9 -48.61374999999998 17.979375 -60.38499999999999 Q23.05875 -72.15624999999999 31.846875 -80.86374999999998 Q40.635 -89.57124999999999 52.40625 -94.65062499999999 Q64.1775 -99.72999999999999 77.4 -99.72999999999999 Q90.78375 -99.72999999999999 102.555 -94.65062499999999 Q114.32625 -89.57124999999999 123.03375 -80.86374999999998 Q131.74125 -72.15624999999999 136.820625 -60.38499999999999 Q141.9 -48.61374999999998 141.9 -35.22999999999999 Q141.9 -22.00749999999998 136.820625 -10.236249999999984 Q131.74125 1.535000000000018 123.03375 10.323125000000015 Q114.32625 19.111250000000016 102.555 24.190625000000015 Q90.78375 29.270000000000017 77.4 29.270000000000017 Z M77.4 19.595000000000017 Q100.2975 19.595000000000017 116.26125 3.550625000000018 Q132.225 -12.493749999999984 132.225 -35.22999999999999 Q132.225 -58.12749999999998 116.26125 -74.09124999999999 Q100.2975 -90.05499999999998 77.4 -90.05499999999998 Q54.66375 -90.05499999999998 38.619375 -74.09124999999999 Q22.575 -58.12749999999998 22.575 -35.22999999999999 Q22.575 -12.493749999999984 38.619375 3.550625000000018 Q54.66375 19.595000000000017 77.4 19.595000000000017 Z"/></g><g id="Light-L" transform="matrix(1 0 0 1 1082.77 1556)"><path d="M63.68133375 -11.04266124999998 H91.01933625000001 Q92.715525 -11.04266124999998 93.51709875 -12.203822499999987 Q94.3186725 -13.365144999999984 94.3186725 -15.061333749999989 V-25.53016749999999 H87.00066375 V-18.360669999999985 H67.7001675 V-52.09932999999998 H87.00066375 V-44.830663749999985 H94.3186725 V-55.301593749999995 Q94.3186725 -56.99874999999999 93.51709875 -58.20796374999999 Q92.715525 -59.417338749999985 91.01933625000001 -59.417338749999985 H63.68133375 Q61.985145 -59.417338749999985 61.18357125 -58.20651249999999 Q60.3819975 -56.99552499999999 60.3819975 -55.29933624999998 V-15.061333749999989 Q60.3819975 -13.365144999999984 61.18357125 -12.203822499999987 Q61.985145 -11.04266124999998 63.68133375 -11.04266124999998 Z M77.41080375 26.044838750000014 Q64.7976675 26.044838750000014 53.643037500000005 21.220238750000018 Q42.48840750000001 16.395638750000014 34.13356125 8.044501250000017 Q25.77855375 -0.3067974999999876 20.9518575 -11.456428749999986 Q16.12516125 -22.60622124999999 16.12516125 -35.21919624999998 Q16.12516125 -47.93150124999998 20.949761249999998 -59.11709124999997 Q25.774361250000002 -70.30284249999998 34.12549875 -78.57706374999998 Q42.4767975 -86.85144624999998 53.62642875 -91.67814249999998 Q64.77622125 -96.50483875 77.38919625 -96.50483875 Q90.10150125 -96.50483875 101.28709124999999 -91.68023874999997 Q112.4728425 -86.85563875 120.74706375 -78.58512624999999 Q129.02144625 -70.31445249999999 133.8481425 -59.13369999999999 Q138.67483875000002 -47.953108749999984 138.67483875000002 -35.24080374999998 Q138.67483875000002 -22.627667499999987 133.85023875 -11.47303749999999 Q129.02563875 -0.3184074999999922 120.75512625 8.036438750000016 Q112.4844525 16.391446250000016 101.3037 21.218142500000017 Q90.12310875 26.044838750000014 77.41080375 26.044838750000014 Z M77.4 18.726668750000016 Q99.925335 18.726668750000016 115.6410825 2.9614175000000174 Q131.35666875 -12.803833749999988 131.35666875 -35.22999999999999 Q131.35666875 -57.75533499999999 115.6410825 -73.47108249999998 Q99.925335 -89.18666875 77.4 -89.18666875 Q54.973833750000004 -89.18666875 39.2085825 -73.47108249999998 Q23.44333125 -57.75533499999999 23.44333125 -35.22999999999999 Q23.44333125 -12.803833749999988 39.2085825 2.9614175000000174 Q54.973833750000004 18.726668750000016 77.4 18.726668750000016 Z"/></g><g id="Thin-L" transform="matrix(1 0 0 1 787.282 1556)"><path d="M63.991417500000004 -12.654999999999987 H90.77133375 Q91.9063725 -12.654999999999987 92.461395 -13.445769999999982 Q93.0164175 -14.236539999999984 93.0164175 -15.371417499999986 V-24.537834999999987 H88.05491625 V-17.616501249999985 H66.707835 V-52.84349874999998 H88.05491625 V-45.88491624999999 H93.0164175 V-55.05568749999999 Q93.0164175 -56.19249999999998 92.461395 -56.99874999999999 Q91.9063725 -57.80499999999999 90.77133375 -57.80499999999999 H63.991417500000004 Q62.85654 -57.80499999999999 62.301356250000005 -56.99568624999999 Q61.746333750000005 -56.18637249999999 61.746333750000005 -55.05133374999998 V-15.371417499999986 Q61.746333750000005 -14.236539999999984 62.301356250000005 -13.445769999999982 Q62.85654 -12.654999999999987 63.991417500000004 -12.654999999999987 Z M77.42160750000001 22.820000000000014 Q65.417835 22.820000000000014 54.879825 18.250336250000014 Q44.341653750000006 13.680511250000016 36.41976375 5.766038750000014 Q28.498035 -2.148433749999988 23.9240175 -12.676607499999989 Q19.35 -23.204781249999982 19.35 -35.20839249999999 Q19.35 -47.24941374999999 23.91966375 -57.84950499999998 Q28.48948875 -68.44959625 36.40396125 -76.29086124999998 Q44.318433750000004 -84.131965 54.846607500000005 -88.70598249999998 Q65.37478125 -93.28 77.3783925 -93.28 Q89.41941375 -93.28 100.019505 -88.71033624999998 Q110.61959625000001 -84.14051124999999 118.46086125 -76.30666375 Q126.30196500000001 -68.47281625 130.8759825 -57.882722499999986 Q135.45000000000002 -47.29246749999999 135.45000000000002 -35.25160749999999 Q135.45000000000002 -23.24783499999998 130.88033625 -12.70982499999998 Q126.31051125 -2.17165374999999 118.47666375000001 5.750236250000015 Q110.64281625000001 13.671965000000014 100.0527225 18.245982500000014 Q89.4624675 22.820000000000014 77.42160750000001 22.820000000000014 Z M77.4 17.858498750000013 Q99.55333125 17.858498750000013 115.020915 2.372210000000017 Q130.48849875 -13.113917499999985 130.48849875 -35.22999999999999 Q130.48849875 -57.38333124999998 115.020915 -72.85091499999999 Q99.55333125 -88.31849874999997 77.4 -88.31849874999997 Q55.2839175 -88.31849874999997 39.79779 -72.85091499999999 Q24.311501250000003 -57.38333124999998 24.311501250000003 -35.22999999999999 Q24.311501250000003 -13.113917499999985 39.79779 2.372210000000017 Q55.2839175 17.858498750000013 77.4 17.858498750000013 Z"/></g><g id="Ultralight-L" transform="matrix(1 0 0 1 491.205 1556)"><path d="M64.1775 -13.622499999999988 H90.6225 Q91.42068750000001 -13.622499999999988 91.82784375 -14.190906249999983 Q92.235 -14.759312499999986 92.235 -15.557499999999983 V-23.94249999999998 H88.6875 V-17.169999999999987 H66.1125 V-53.28999999999999 H88.6875 V-46.517499999999984 H92.235 V-54.90814374999998 Q92.235 -55.70874999999998 91.82784375 -56.27312499999999 Q91.42068750000001 -56.83749999999999 90.6225 -56.83749999999999 H64.1775 Q63.379312500000005 -56.83749999999999 62.97215625 -56.269093749999996 Q62.565000000000005 -55.7006875 62.565000000000005 -54.90249999999999 V-15.557499999999983 Q62.565000000000005 -14.759312499999986 62.97215625 -14.190906249999983 Q63.379312500000005 -13.622499999999988 64.1775 -13.622499999999988 Z M77.4280575 20.885000000000016 Q65.79 20.885000000000016 55.6218975 16.468201250000018 Q45.45363375 12.051241250000018 37.79167875 4.3989612500000135 Q30.129885 -3.253479999999989 25.7074425 -13.408682499999983 Q21.285 -23.563884999999985 21.285 -35.20194249999999 Q21.285 -46.83999999999999 25.70179875 -57.08872749999999 Q30.118758749999998 -67.33761624999998 37.77103875 -74.91878499999999 Q45.423480000000005 -82.500115 55.5786825 -86.92255749999998 Q65.733885 -91.345 77.3719425 -91.345 Q89.01 -91.345 99.2587275 -86.92820125 Q109.50761625 -82.51124124999998 117.088785 -74.93958624999998 Q124.67011500000001 -67.36776999999998 129.0925575 -57.131942499999994 Q133.51500000000001 -46.89611499999998 133.51500000000001 -35.25805749999998 Q133.51500000000001 -23.61999999999999 129.09820125000002 -13.451897499999987 Q124.68124125 -3.2836337499999857 117.10958624999999 4.378321250000013 Q109.53777 12.040115000000014 99.30194250000001 16.462557500000017 Q89.066115 20.885000000000016 77.4280575 20.885000000000016 Z M77.4 17.337500000000016 Q99.33 17.337500000000016 114.64875 2.0187500000000114 Q129.9675 -13.299999999999983 129.9675 -35.22999999999999 Q129.9675 -57.15999999999998 114.64875 -72.47874999999999 Q99.33 -87.79749999999999 77.4 -87.79749999999999 Q55.47 -87.79749999999999 40.151250000000005 -72.47874999999999 Q24.8325 -57.15999999999998 24.8325 -35.22999999999999 Q24.8325 -13.299999999999983 40.151250000000005 2.0187500000000114 Q55.47 17.337500000000016 77.4 17.337500000000016 Z"/></g><g id="Bold-M" transform="matrix(1 0 0 1 2281.8 1126)"><path d="M49.0 -13.35499999999999 H70.375 Q73.5625 -13.35499999999999 75.71875 -15.259624999999993 Q77.875 -17.164374999999993 77.875 -19.97999999999999 V-31.35499999999999 H64.0 V-27.10499999999999 H56.0 V-43.35499999999999 H64.0 V-39.10499999999999 H77.875 V-50.60499999999999 Q77.875 -53.47999999999999 75.71875 -55.29249999999999 Q73.5625 -57.10499999999999 70.375 -57.10499999999999 H49.0 Q46.078125 -57.10499999999999 44.1015 -55.12849999999999 Q42.125 -53.15187499999999 42.125 -50.22999999999999 V-20.22999999999999 Q42.125 -17.30812499999999 44.1015 -15.331499999999991 Q46.078125 -13.35499999999999 49.0 -13.35499999999999 Z M60.0 19.02000000000001 Q48.625 19.02000000000001 38.751625 14.75950000000001 Q28.878125 10.49912500000001 21.5745 3.1955000000000098 Q14.270875 -4.1081249999999905 10.0105 -13.981624999999987 Q5.75 -23.85499999999999 5.75 -35.22999999999999 Q5.75 -46.60499999999999 10.0105 -56.478374999999986 Q14.270875 -66.35187499999999 21.5745 -73.65549999999999 Q28.878125 -80.95912499999999 38.751625 -85.2195 Q48.625 -89.47999999999999 60.0 -89.47999999999999 Q71.375 -89.47999999999999 81.248375 -85.2195 Q91.121875 -80.95912499999999 98.4255 -73.65549999999999 Q105.729125 -66.35187499999999 109.9895 -56.478374999999986 Q114.25 -46.60499999999999 114.25 -35.22999999999999 Q114.25 -23.85499999999999 109.9895 -13.981624999999987 Q105.729125 -4.1081249999999905 98.4255 3.1955000000000098 Q91.121875 10.49912500000001 81.248375 14.75950000000001 Q71.375 19.02000000000001 60.0 19.02000000000001 Z M60.0 3.2700000000000102 Q76.25 3.2700000000000102 87.375 -7.85499999999999 Q98.5 -18.97999999999999 98.5 -35.22999999999999 Q98.5 -51.47999999999999 87.375 -62.60499999999999 Q76.25 -73.72999999999999 60.0 -73.72999999999999 Q43.75 -73.72999999999999 32.625 -62.60499999999999 Q21.5 -51.47999999999999 21.5 -35.22999999999999 Q21.5 -18.97999999999999 32.625 -7.85499999999999 Q43.75 3.2700000000000102 60.0 3.2700000000000102 Z"/></g><g id="Semibold-M" transform="matrix(1 0 0 1 1985.97 1126)"><path d="M49.43475 -14.170124999999992 H70.212 Q72.9375 -14.170124999999992 74.78125 -15.871749999999992 Q76.625125 -17.57337499999999 76.625125 -20.08874999999999 V-30.86587499999999 H64.43475 V-26.289874999999988 H55.56525 V-44.170124999999985 H64.43475 V-39.59412499999999 H76.625125 V-50.44199999999999 Q76.625125 -52.99087499999999 74.78125 -54.64037499999999 Q72.9375 -56.289874999999995 70.212 -56.289874999999995 H49.43475 Q46.859375 -56.289874999999995 45.117125 -54.547625 Q43.374875 -52.805374999999984 43.374875 -50.22999999999999 V-20.22999999999999 Q43.374875 -17.65462499999999 45.117125 -15.91237499999999 Q46.859375 -14.170124999999992 49.43475 -14.170124999999992 Z M60.0 17.172250000000012 Q49.05975 17.172250000000012 39.51175 13.05225000000001 Q29.963625 8.93225000000001 22.90075 1.8692500000000116 Q15.83775 -5.19362499999999 11.71775 -14.741749999999989 Q7.59775 -24.28974999999999 7.59775 -35.22999999999999 Q7.59775 -46.170249999999996 11.71775 -55.71824999999998 Q15.83775 -65.266375 22.90075 -72.32924999999999 Q29.963625 -79.39224999999999 39.51175 -83.51225 Q49.05975 -87.63224999999998 60.0 -87.63224999999998 Q70.94025 -87.63224999999998 80.48825 -83.51225 Q90.036375 -79.39224999999999 97.09925 -72.32924999999999 Q104.16225 -65.266375 108.28225 -55.71824999999998 Q112.40225 -46.170249999999996 112.40225 -35.22999999999999 Q112.40225 -24.28974999999999 108.28225 -14.741749999999989 Q104.16225 -5.19362499999999 97.09925 1.8692500000000116 Q90.036375 8.93225000000001 80.48825 13.05225000000001 Q70.94025 17.172250000000012 60.0 17.172250000000012 Z M60.0 3.922125000000012 Q76.467375 3.922125000000012 87.80975 -7.420249999999989 Q99.152125 -18.762624999999993 99.152125 -35.22999999999999 Q99.152125 -51.697374999999994 87.80975 -63.039749999999984 Q76.467375 -74.38212499999999 60.0 -74.38212499999999 Q43.532625 -74.38212499999999 32.19025 -63.039749999999984 Q20.847875 -51.697374999999994 20.847875 -35.22999999999999 Q20.847875 -18.762624999999993 32.19025 -7.420249999999989 Q43.532625 3.922125000000012 60.0 3.922125000000012 Z"/></g><g id="Medium-M" transform="matrix(1 0 0 1 1689.91 1126)"><path d="M49.760875 -14.781624999999991 H70.089625 Q72.46875 -14.781624999999991 74.078125 -16.330874999999992 Q75.6875 -17.880124999999992 75.6875 -20.17024999999999 V-30.498999999999988 H64.760875 V-25.67837499999999 H55.239125 V-44.78162499999999 H64.760875 V-39.960999999999984 H75.6875 V-50.31962499999999 Q75.6875 -52.623999999999995 74.078125 -54.15124999999999 Q72.46875 -55.67837499999999 70.089625 -55.67837499999999 H49.760875 Q47.44525 -55.67837499999999 45.878875 -54.111999999999995 Q44.3125 -52.54549999999999 44.3125 -50.22999999999999 V-20.22999999999999 Q44.3125 -17.91449999999999 45.878875 -16.347999999999992 Q47.44525 -14.781624999999991 49.760875 -14.781624999999991 Z M60.0 15.78637500000001 Q49.385875 15.78637500000001 40.081875 11.77162500000001 Q30.777875 7.7568750000000115 23.8955 0.8745000000000118 Q17.013125 -6.007874999999991 12.998375 -15.311874999999986 Q8.983625 -24.61587499999999 8.983625 -35.22999999999999 Q8.983625 -45.84412499999999 12.998375 -55.14812499999999 Q17.013125 -64.452125 23.8955 -71.33449999999999 Q30.777875 -78.21687499999999 40.081875 -82.231625 Q49.385875 -86.24637499999999 60.0 -86.24637499999999 Q70.614125 -86.24637499999999 79.918125 -82.231625 Q89.222125 -78.21687499999999 96.1045 -71.33449999999999 Q102.986875 -64.452125 107.001625 -55.14812499999999 Q111.016375 -45.84412499999999 111.016375 -35.22999999999999 Q111.016375 -24.61587499999999 107.001625 -15.311874999999986 Q102.986875 -6.007874999999991 96.1045 0.8745000000000118 Q89.222125 7.7568750000000115 79.918125 11.77162500000001 Q70.614125 15.78637500000001 60.0 15.78637500000001 Z M60.0 4.41125000000001 Q76.630375 4.41125000000001 88.135875 -7.094124999999991 Q99.64125 -18.59962499999999 99.64125 -35.22999999999999 Q99.64125 -51.86037499999999 88.135875 -63.36587499999999 Q76.630375 -74.87124999999999 60.0 -74.87124999999999 Q43.369625 -74.87124999999999 31.864125 -63.36587499999999 Q20.35875 -51.86037499999999 20.35875 -35.22999999999999 Q20.35875 -18.59962499999999 31.864125 -7.094124999999991 Q43.369625 4.41125000000001 60.0 4.41125000000001 Z"/></g><g id="Regular-M" transform="matrix(1 0 0 1 1394.06 1126)"><path d="M50.0 -15.22999999999999 H70.0 Q72.125 -15.22999999999999 73.5625 -16.66749999999999 Q75.0 -18.10499999999999 75.0 -20.22999999999999 V-30.22999999999999 H65.0 V-25.22999999999999 H55.0 V-45.22999999999999 H65.0 V-40.22999999999999 H75.0 V-50.22999999999999 Q75.0 -52.35499999999999 73.5625 -53.79249999999999 Q72.125 -55.22999999999999 70.0 -55.22999999999999 H50.0 Q47.875 -55.22999999999999 46.4375 -53.79249999999999 Q45.0 -52.35499999999999 45.0 -50.22999999999999 V-20.22999999999999 Q45.0 -18.10499999999999 46.4375 -16.66749999999999 Q47.875 -15.22999999999999 50.0 -15.22999999999999 Z M60.0 14.77000000000001 Q49.625 14.77000000000001 40.5 10.83250000000001 Q31.375 6.89500000000001 24.625 0.14500000000001023 Q17.875 -6.60499999999999 13.9375 -15.72999999999999 Q10.0 -24.85499999999999 10.0 -35.22999999999999 Q10.0 -45.60499999999999 13.9375 -54.72999999999999 Q17.875 -63.85499999999999 24.625 -70.60499999999999 Q31.375 -77.35499999999999 40.5 -81.29249999999999 Q49.625 -85.22999999999999 60.0 -85.22999999999999 Q70.375 -85.22999999999999 79.5 -81.29249999999999 Q88.625 -77.35499999999999 95.375 -70.60499999999999 Q102.125 -63.85499999999999 106.0625 -54.72999999999999 Q110.0 -45.60499999999999 110.0 -35.22999999999999 Q110.0 -24.85499999999999 106.0625 -15.72999999999999 Q102.125 -6.60499999999999 95.375 0.14500000000001023 Q88.625 6.89500000000001 79.5 10.83250000000001 Q70.375 14.77000000000001 60.0 14.77000000000001 Z M60.0 4.77000000000001 Q76.75 4.77000000000001 88.375 -6.85499999999999 Q100.0 -18.47999999999999 100.0 -35.22999999999999 Q100.0 -51.97999999999999 88.375 -63.60499999999999 Q76.75 -75.22999999999999 60.0 -75.22999999999999 Q43.25 -75.22999999999999 31.625 -63.60499999999999 Q20.0 -51.97999999999999 20.0 -35.22999999999999 Q20.0 -18.47999999999999 31.625 -6.85499999999999 Q43.25 4.77000000000001 60.0 4.77000000000001 Z"/></g><g id="Light-M" transform="matrix(1 0 0 1 1098.18 1126)"><path d="M50.0 -16.480124999999987 H70.0 Q71.59375 -16.480124999999987 72.671875 -17.558249999999987 Q73.749875 -18.63624999999999 73.749875 -20.22999999999999 V-28.979874999999993 H66.250125 V-23.979874999999993 H53.749875 V-46.48012499999999 H66.250125 V-41.48012499999999 H73.749875 V-50.231624999999994 Q73.749875 -51.82612499999999 72.671875 -52.90299999999999 Q71.59375 -53.97987499999999 70.0 -53.97987499999999 H50.0 Q48.40625 -53.97987499999999 47.32825 -52.90187499999999 Q46.250125 -51.82374999999999 46.250125 -50.22999999999999 V-20.22999999999999 Q46.250125 -18.63624999999999 47.32825 -17.558249999999987 Q48.40625 -16.480124999999987 50.0 -16.480124999999987 Z M60.008375 12.26987500000001 Q50.153875 12.26987500000001 41.482875 8.529875000000011 Q32.81175 4.789875000000009 26.397625 -1.6213749999999898 Q19.983375 -8.032749999999993 16.24175 -16.69999999999999 Q12.500125 -25.367124999999987 12.500125 -35.22162499999999 Q12.500125 -45.07612499999999 16.240125 -53.74712499999998 Q19.980125 -62.418249999999986 26.391375 -68.83237499999998 Q32.80275 -75.246625 41.47 -78.98825 Q50.137125 -82.72987499999999 59.991625 -82.72987499999999 Q69.846125 -82.72987499999999 78.517125 -78.98987499999998 Q87.18825 -75.24987499999999 93.602375 -68.838625 Q100.016625 -62.42724999999999 103.75825 -53.75999999999999 Q107.499875 -45.09287499999999 107.499875 -35.23837499999999 Q107.499875 -25.38387499999999 103.759875 -16.71287499999999 Q100.019875 -8.041749999999993 93.608625 -1.6276249999999912 Q87.19725 4.7866250000000115 78.53 8.52825000000001 Q69.862875 12.26987500000001 60.008375 12.26987500000001 Z M60.0 4.77000000000001 Q76.75 4.77000000000001 88.375 -6.85499999999999 Q100.0 -18.47999999999999 100.0 -35.22999999999999 Q100.0 -51.97999999999999 88.375 -63.60499999999999 Q76.75 -75.22999999999999 60.0 -75.22999999999999 Q43.25 -75.22999999999999 31.625 -63.60499999999999 Q20.0 -51.97999999999999 20.0 -35.22999999999999 Q20.0 -18.47999999999999 31.625 -6.85499999999999 Q43.25 4.77000000000001 60.0 4.77000000000001 Z"/></g><g id="Thin-M" transform="matrix(1 0 0 1 802.565 1126)"><path d="M50.0 -17.72999999999999 H70.0 Q71.0625 -17.72999999999999 71.78125 -18.44874999999999 Q72.5 -19.16749999999999 72.5 -20.22999999999999 V-27.72999999999999 H67.5 V-22.72999999999999 H52.5 V-47.72999999999999 H67.5 V-42.72999999999999 H72.5 V-50.233374999999995 Q72.5 -51.29737499999999 71.78125 -52.01362499999999 Q71.0625 -52.72999999999999 70.0 -52.72999999999999 H50.0 Q48.9375 -52.72999999999999 48.21875 -52.01124999999999 Q47.5 -51.29249999999999 47.5 -50.22999999999999 V-20.22999999999999 Q47.5 -19.16749999999999 48.21875 -18.44874999999999 Q48.9375 -17.72999999999999 50.0 -17.72999999999999 Z M60.01675 9.77000000000001 Q50.682625 9.77000000000001 42.4655 6.22762500000001 Q34.248375 2.68512500000001 28.169875 -3.3876249999999892 Q22.0915 -9.460374999999992 18.54575 -17.669749999999986 Q15.0 -25.879249999999992 15.0 -35.21324999999999 Q15.0 -44.54737499999999 18.542375 -52.764499999999984 Q22.084875 -60.981624999999994 28.157625 -67.06012499999999 Q34.230375 -73.1385 42.43975 -76.68424999999999 Q50.64925 -80.22999999999999 59.98325 -80.22999999999999 Q69.317375 -80.22999999999999 77.5345 -76.68762499999998 Q85.751625 -73.145125 91.830125 -67.072375 Q97.9085 -60.999624999999995 101.45425 -52.790249999999986 Q105.0 -44.580749999999995 105.0 -35.24674999999999 Q105.0 -25.91262499999999 101.457625 -17.69549999999999 Q97.915125 -9.478374999999993 91.842375 -3.399874999999991 Q85.769625 2.6785000000000103 77.56025 6.2242500000000085 Q69.35075 9.77000000000001 60.01675 9.77000000000001 Z M60.0 4.77000000000001 Q76.75 4.77000000000001 88.375 -6.85499999999999 Q100.0 -18.47999999999999 100.0 -35.22999999999999 Q100.0 -51.97999999999999 88.375 -63.60499999999999 Q76.75 -75.22999999999999 60.0 -75.22999999999999 Q43.25 -75.22999999999999 31.625 -63.60499999999999 Q20.0 -51.97999999999999 20.0 -35.22999999999999 Q20.0 -18.47999999999999 31.625 -6.85499999999999 Q43.25 4.77000000000001 60.0 4.77000000000001 Z"/></g><g id="Ultralight-M" transform="matrix(1 0 0 1 506.415 1126)"><path d="M50.0 -18.47999999999999 H70.0 Q70.74375 -18.47999999999999 71.246875 -18.983124999999987 Q71.75 -19.48624999999999 71.75 -20.22999999999999 V-26.97999999999999 H68.25 V-21.97999999999999 H51.75 V-48.47999999999999 H68.25 V-43.47999999999999 H71.75 V-50.234374999999986 Q71.75 -50.97999999999999 71.246875 -51.47999999999999 Q70.74375 -51.97999999999999 70.0 -51.97999999999999 H50.0 Q49.25625 -51.97999999999999 48.753125 -51.47687499999999 Q48.25 -50.973749999999995 48.25 -50.22999999999999 V-20.22999999999999 Q48.25 -19.48624999999999 48.753125 -18.983124999999987 Q49.25625 -18.47999999999999 50.0 -18.47999999999999 Z M60.02175 8.27000000000001 Q51.0 8.27000000000001 43.05525 4.846125000000011 Q35.110375 1.4221250000000119 29.233375 -4.44737499999999 Q23.3565 -10.316999999999993 19.92825 -18.251749999999987 Q16.5 -26.186499999999988 16.5 -35.20824999999999 Q16.5 -44.22999999999999 19.923875 -52.17474999999999 Q23.347875 -60.119624999999985 29.217375 -65.99649999999998 Q35.087 -71.87349999999999 43.02175 -75.30174999999998 Q50.9565 -78.72999999999999 59.97825 -78.72999999999999 Q69.0 -78.72999999999999 76.94475 -75.306125 Q84.889625 -71.88212499999999 90.7665 -66.01262499999999 Q96.6435 -60.14299999999999 100.07175 -52.20824999999999 Q103.5 -44.273499999999984 103.5 -35.25174999999999 Q103.5 -26.22999999999999 100.076125 -18.28524999999999 Q96.652125 -10.340374999999987 90.782625 -4.4633749999999885 Q84.913 1.4135000000000097 76.97825 4.841750000000012 Q69.0435 8.27000000000001 60.02175 8.27000000000001 Z M60.0 4.77000000000001 Q76.75 4.77000000000001 88.375 -6.85499999999999 Q100.0 -18.47999999999999 100.0 -35.22999999999999 Q100.0 -51.97999999999999 88.375 -63.60499999999999 Q76.75 -75.22999999999999 60.0 -75.22999999999999 Q43.25 -75.22999999999999 31.625 -63.60499999999999 Q20.0 -51.97999999999999 20.0 -35.22999999999999 Q20.0 -18.47999999999999 31.625 -6.85499999999999 Q43.25 4.77000000000001 60.0 4.77000000000001 Z"/></g><g id="Bold-S" transform="matrix(1 0 0 1 2294.23 696)"><path d="M39.45 -17.181624999999986 H54.736875000000005 Q57.5871375 -17.181624999999986 59.51525625000001 -18.91131024999999 Q61.443375 -20.64089687499999 61.443375 -23.197749999999985 V-31.383624999999988 H51.285000000000004 V-27.24137499999999 H43.395 V-43.21862499999999 H51.285000000000004 V-39.07637499999999 H61.443375 V-47.360874999999986 Q61.443375 -49.96457499999999 59.51525625000001 -51.621475 Q57.5871375 -53.27837499999998 54.736875000000005 -53.27837499999998 H39.45 Q36.809315625 -53.27837499999998 35.022921000000004 -51.49207899999999 Q33.236625000000004 -49.70568437499999 33.236625000000004 -47.06499999999999 V-23.39499999999999 Q33.236625000000004 -20.75431562499999 35.022921000000004 -18.96792099999999 Q36.809315625 -17.181624999999986 39.45 -17.181624999999986 Z M47.3672205 5.995250000000014 Q38.759625 5.995250000000014 31.265407125 2.781653000000013 Q23.771090625000003 -0.43184537499998754 18.156468 -6.046467999999987 Q12.541845375000001 -11.66109062499999 9.328347 -19.15126487499999 Q6.11475 -26.641439124999984 6.11475 -35.27517024999999 Q6.11475 -43.90899999999999 9.328347 -51.35390537499998 Q12.541845375000001 -58.798909374999994 18.156468 -64.41353199999999 Q23.771090625000003 -70.02815462499998 31.261264875000002 -73.241653 Q38.751439125 -76.45524999999999 47.38517025 -76.45524999999999 Q56.019000000000005 -76.45524999999999 63.463905374999996 -73.241653 Q70.90890937500001 -70.02815462499998 76.523532 -64.41353199999999 Q82.138154625 -58.798909374999994 85.35165300000001 -51.331813374999996 Q88.56525 -43.86471737499999 88.56525 -35.25722049999999 Q88.56525 -26.649624999999986 85.35165300000001 -19.155407124999986 Q82.138154625 -11.66109062499999 76.523532 -6.046467999999987 Q70.90890937500001 -0.43184537499998754 63.44181337500001 2.781653000000013 Q55.974717375000004 5.995250000000014 47.3672205 5.995250000000014 Z M47.34 -5.642499999999988 Q59.76675 -5.642499999999988 68.347125 -14.222874999999988 Q76.92750000000001 -22.80324999999999 76.92750000000001 -35.22999999999999 Q76.92750000000001 -47.65674999999999 68.347125 -56.23712499999999 Q59.76675 -64.8175 47.34 -64.8175 Q34.913250000000005 -64.8175 26.332875 -56.23712499999999 Q17.7525 -47.65674999999999 17.7525 -35.22999999999999 Q17.7525 -22.80324999999999 26.332875 -14.222874999999988 Q34.913250000000005 -5.642499999999988 47.34 -5.642499999999988 Z"/></g><g id="Semibold-S" transform="matrix(1 0 0 1 1998.1 696)"><path d="M39.793017750000004 -17.82475862499999 H54.608268 Q57.0940125 -17.82475862499999 58.775667375000005 -19.39417824999999 Q60.457223625 -20.963597874999984 60.457223625 -23.28355374999999 V-30.99770537499999 H51.62801775 V-26.598241374999986 H43.05198225 V-43.861758624999986 H51.62801775 V-39.46229462499999 H60.457223625 V-47.23226799999999 Q60.457223625 -49.57865537499998 58.775667375000005 -51.10694837499998 Q57.0940125 -52.63524137499999 54.608268 -52.63524137499999 H39.793017750000004 Q37.425721875 -52.63524137499999 35.824249125 -51.033768624999986 Q34.222776375 -49.432295874999994 34.222776375 -47.06499999999999 V-23.39499999999999 Q34.222776375 -21.027704124999993 35.824249125 -19.42623137499999 Q37.425721875 -17.82475862499999 39.793017750000004 -17.82475862499999 Z M47.3672205 4.5373752500000135 Q39.10264275 4.5373752500000135 31.86514575 1.434632750000013 Q24.627550125000003 -1.6681097499999868 19.20287925 -7.092879249999985 Q13.77810975 -12.517550124999989 10.67536725 -19.75100349999999 Q7.57262475 -26.984456874999985 7.57262475 -35.27517024999999 Q7.57262475 -43.56598224999999 10.67536725 -50.75416674999998 Q13.77810975 -57.942449874999994 19.20287925 -63.367120749999984 Q24.627550125000003 -68.79189025 31.861003500000002 -71.89463275 Q39.094456875 -74.99737524999999 47.38517025 -74.99737524999999 Q55.675982250000004 -74.99737524999999 62.864166749999995 -71.89463275 Q70.05244987500001 -68.79189025 75.47712075 -63.367120749999984 Q80.90189025000001 -57.942449874999994 84.00463275000001 -50.73207474999999 Q87.10737525 -43.52169962499999 87.10737525 -35.25722049999999 Q87.10737525 -26.992642749999987 84.00463275000001 -19.755145749999986 Q80.90189025000001 -12.517550124999989 75.47712075 -7.092879249999985 Q70.05244987500001 -1.6681097499999868 62.84207475 1.434632750000013 Q55.631699625 4.5373752500000135 47.3672205 4.5373752500000135 Z M47.34 -5.127973374999986 Q59.938258875 -5.127973374999986 68.69014274999999 -13.879857249999986 Q77.442026625 -22.63174112499999 77.442026625 -35.22999999999999 Q77.442026625 -47.82825887499999 68.69014274999999 -56.58014274999998 Q59.938258875 -65.33202662499998 47.34 -65.33202662499998 Q34.741741125000004 -65.33202662499998 25.98985725 -56.58014274999998 Q17.237973375 -47.82825887499999 17.237973375 -35.22999999999999 Q17.237973375 -22.63174112499999 25.98985725 -13.879857249999986 Q34.741741125000004 -5.127973374999986 47.34 -5.127973374999986 Z"/></g><g id="Medium-S" transform="matrix(1 0 0 1 1701.85 696)"><path d="M40.050330375 -18.307232124999988 H54.511714125 Q56.72416875 -18.307232124999988 58.22080312500001 -19.75642787499999 Q59.7174375 -21.205623624999987 59.7174375 -23.34785724999999 V-30.708240999999987 H51.885330375 V-26.11576787499999 H42.794669625000004 V-44.34423212499999 H51.885330375 V-39.751758999999986 H59.7174375 V-47.135714124999986 Q59.7174375 -49.28919099999999 58.22080312500001 -50.721028749999995 Q56.72416875 -52.152767874999995 54.511714125 -52.152767874999995 H40.050330375 Q37.88797725 -52.152767874999995 36.425269875000005 -50.69006049999999 Q34.962562500000004 -49.22725449999999 34.962562500000004 -47.06499999999999 V-23.39499999999999 Q34.962562500000004 -21.232745499999993 36.425269875000005 -19.76993949999999 Q37.88797725 -18.307232124999988 40.050330375 -18.307232124999988 Z M47.3672205 3.443919875000013 Q39.359955375 3.443919875000013 32.314974375 0.4242196250000134 Q25.269993375000002 -2.595480624999986 19.987737 -7.877736999999986 Q14.705480625 -13.159993374999988 11.685780375 -20.20083212499999 Q8.666080125 -27.24176949999999 8.666080125 -35.27517024999999 Q8.666080125 -43.30866962499999 11.685780375 -50.304338124999994 Q14.705480625 -57.300006624999995 19.987737 -62.582263 Q25.269993375000002 -67.86451937499999 32.310832125000005 -70.884219625 Q39.3517695 -73.90391987499999 47.38517025 -73.90391987499999 Q55.41866962500001 -73.90391987499999 62.41433812500001 -70.884219625 Q69.41000662500001 -67.86451937499999 74.69226300000001 -62.582263 Q79.974519375 -57.300006624999995 82.99421962500001 -50.28214749999999 Q86.013919875 -43.26438699999999 86.013919875 -35.25722049999999 Q86.013919875 -27.249955374999985 82.99421962500001 -20.204974374999985 Q79.974519375 -13.159993374999988 74.69226300000001 -7.877736999999986 Q69.41000662500001 -2.595480624999986 62.3921475 0.4242196250000134 Q55.374387000000006 3.443919875000013 47.3672205 3.443919875000013 Z M47.34 -4.742053749999986 Q60.066865875000005 -4.742053749999986 68.947455375 -13.622544624999989 Q77.82794625 -22.50313412499999 77.82794625 -35.22999999999999 Q77.82794625 -47.95686587499999 68.947455375 -56.83745537499999 Q60.066865875000005 -65.71794624999998 47.34 -65.71794624999998 Q34.613134125 -65.71794624999998 25.732544625000003 -56.83745537499999 Q16.85205375 -47.95686587499999 16.85205375 -35.22999999999999 Q16.85205375 -22.50313412499999 25.732544625000003 -13.622544624999989 Q34.613134125 -4.742053749999986 47.34 -4.742053749999986 Z"/></g><g id="Regular-S" transform="matrix(1 0 0 1 1405.73 696)"><path d="M40.239000000000004 -18.660999999999987 H54.441 Q56.45295 -18.660999999999987 57.813975000000006 -20.022024999999992 Q59.175000000000004 -21.38304999999999 59.175000000000004 -23.39499999999999 V-30.495999999999988 H52.074000000000005 V-25.761999999999986 H42.606 V-44.697999999999986 H52.074000000000005 V-39.96399999999999 H59.175000000000004 V-47.06499999999999 Q59.175000000000004 -49.07694999999999 57.813975000000006 -50.437974999999994 Q56.45295 -51.79899999999999 54.441 -51.79899999999999 H40.239000000000004 Q38.227050000000006 -51.79899999999999 36.866025 -50.437974999999994 Q35.505 -49.07694999999999 35.505 -47.06499999999999 V-23.39499999999999 Q35.505 -21.38304999999999 36.866025 -20.022024999999992 Q38.227050000000006 -18.660999999999987 40.239000000000004 -18.660999999999987 Z M47.3672205 2.6420000000000137 Q39.548625 2.6420000000000137 32.644875 -0.31674999999998654 Q25.741125 -3.2754999999999868 20.563312500000002 -8.453312499999988 Q15.3855 -13.631124999999987 12.42675 -20.53073274999999 Q9.468 -27.430439124999985 9.468 -35.27517024999999 Q9.468 -43.11999999999999 12.42675 -49.974437499999986 Q15.3855 -56.828875 20.563312500000002 -62.006687499999984 Q25.741125 -67.18449999999999 32.640732750000005 -70.14325 Q39.540439125 -73.10199999999999 47.38517025 -73.10199999999999 Q55.230000000000004 -73.10199999999999 62.0844375 -70.14325 Q68.93887500000001 -67.18449999999999 74.1166875 -62.006687499999984 Q79.2945 -56.828875 82.25325000000001 -49.952345499999986 Q85.212 -43.075717374999996 85.212 -35.25722049999999 Q85.212 -27.438624999999988 82.25325000000001 -20.534874999999985 Q79.2945 -13.631124999999987 74.1166875 -8.453312499999988 Q68.93887500000001 -3.2754999999999868 62.0623455 -0.31674999999998654 Q55.18571737500001 2.6420000000000137 47.3672205 2.6420000000000137 Z M47.34 -4.458999999999985 Q60.16125 -4.458999999999985 69.136125 -13.433874999999986 Q78.111 -22.40874999999999 78.111 -35.22999999999999 Q78.111 -48.05124999999999 69.136125 -57.02612499999999 Q60.16125 -66.00099999999999 47.34 -66.00099999999999 Q34.518750000000004 -66.00099999999999 25.543875 -57.02612499999999 Q16.569 -48.05124999999999 16.569 -35.22999999999999 Q16.569 -22.40874999999999 25.543875 -13.433874999999986 Q34.518750000000004 -4.458999999999985 47.34 -4.458999999999985 Z"/></g><g id="Light-S" transform="matrix(1 0 0 1 1109.75 696)"><path d="M40.239000000000004 -19.647348624999985 H54.441 Q56.03379375 -19.647348624999985 57.11117325 -20.724826749999984 Q58.188651375000006 -21.80220624999999 58.188651375000006 -23.39499999999999 V-29.50965137499999 H53.060348625 V-24.77565137499999 H41.619651375000004 V-45.684348624999984 H53.060348625 V-40.95034862499999 H58.188651375000006 V-47.066282124999994 Q58.188651375000006 -48.65966762499999 57.11117325 -49.736159499999985 Q56.03379375 -50.812651374999994 54.441 -50.812651374999994 H40.239000000000004 Q38.646206250000006 -50.812651374999994 37.56882675 -49.73517324999998 Q36.491348625 -48.65779374999999 36.491348625 -47.06499999999999 V-23.39499999999999 Q36.491348625 -21.80220624999999 37.56882675 -20.724826749999984 Q38.646206250000006 -19.647348624999985 40.239000000000004 -19.647348624999985 Z M47.373828375 0.6694013750000121 Q39.965907375 0.6694013750000121 33.420363375 -2.1335211249999855 Q26.874720750000005 -4.936443624999988 21.961913625 -9.846982374999989 Q17.049007875 -14.75761974999999 14.24480325 -21.29606274999999 Q11.440598625000002 -27.83450574999999 11.440598625000002 -35.26856237499999 Q11.440598625000002 -42.70271762499999 14.243521125 -49.198949124999984 Q17.046443625000002 -55.695279249999984 21.956982375000003 -60.608086374999985 Q26.867619750000003 -65.52099212499999 33.406062750000004 -68.32519674999999 Q39.944505750000005 -71.12940137499999 47.378562375 -71.12940137499999 Q54.812717625000005 -71.12940137499999 61.308949125 -68.32647887499998 Q67.80527925 -65.52355637499998 72.718086375 -60.613017625 Q77.630992125 -55.70238024999999 80.43519675 -49.18701549999999 Q83.239401375 -42.67165074999998 83.239401375 -35.26382837499999 Q83.239401375 -27.855907374999987 80.43647887499999 -21.310363374999987 Q77.633556375 -14.764720749999992 72.72301762500001 -9.851913624999987 Q67.81238025 -4.939007874999987 61.2970155 -2.1348032499999867 Q54.78165075 0.6694013750000121 47.373828375 0.6694013750000121 Z M47.34 -4.458999999999985 Q60.16125 -4.458999999999985 69.136125 -13.433874999999986 Q78.111 -22.40874999999999 78.111 -35.22999999999999 Q78.111 -48.05124999999999 69.136125 -57.02612499999999 Q60.16125 -66.00099999999999 47.34 -66.00099999999999 Q34.518750000000004 -66.00099999999999 25.543875 -57.02612499999999 Q16.569 -48.05124999999999 16.569 -35.22999999999999 Q16.569 -22.40874999999999 25.543875 -13.433874999999986 Q34.518750000000004 -4.458999999999985 47.34 -4.458999999999985 Z"/></g><g id="Thin-S" transform="matrix(1 0 0 1 814.015 696)"><path d="M40.239000000000004 -20.63349999999999 H54.441 Q55.6146375 -20.63349999999999 56.40856875000001 -21.42743124999999 Q57.2025 -22.22136249999999 57.2025 -23.39499999999999 V-28.52349999999999 H54.0465 V-23.78949999999999 H40.633500000000005 V-46.67049999999999 H54.0465 V-41.93649999999999 H57.2025 V-47.067662874999996 Q57.2025 -48.242483874999984 56.40856875000001 -49.034442625 Q55.6146375 -49.82649999999999 54.441 -49.82649999999999 H40.239000000000004 Q39.065362500000006 -49.82649999999999 38.271431250000006 -49.032568749999996 Q37.4775 -48.23863749999999 37.4775 -47.06499999999999 V-23.39499999999999 Q37.4775 -22.22136249999999 38.271431250000006 -21.42743124999999 Q39.065362500000006 -20.63349999999999 40.239000000000004 -20.63349999999999 Z M47.380337625 -1.3029999999999866 Q40.383091125 -1.3029999999999866 34.1956545 -3.949996374999987 Q28.008217875000003 -6.597091374999987 23.360218875 -11.240553624999986 Q18.712318500000002 -15.884015874999989 16.062659250000003 -22.061294124999982 Q13.413 -28.23857237499999 13.413 -35.26205312499999 Q13.413 -42.285533874999985 16.059996375 -48.42365799999998 Q18.707091375 -54.56178212499999 23.350553625 -59.20978112499999 Q27.994015875000002 -63.8576815 34.171294124999996 -66.50734075 Q40.348572375 -69.157 47.372053125 -69.157 Q54.395533875 -69.157 60.533657999999996 -66.51000362499998 Q66.67178212500001 -63.86290862499999 71.319781125 -59.21944637499999 Q75.96768150000001 -54.57598412499999 78.61734075000001 -48.42178412499998 Q81.26700000000001 -42.267584124999985 81.26700000000001 -35.27033762499999 Q81.26700000000001 -28.273091124999986 78.620003625 -22.08565449999999 Q75.972908625 -15.89821787499999 71.329446375 -11.250218874999987 Q66.685984125 -6.602318499999988 60.531784124999994 -3.9526592499999893 Q54.377584125 -1.3029999999999866 47.380337625 -1.3029999999999866 Z M47.34 -4.458999999999985 Q60.16125 -4.458999999999985 69.136125 -13.433874999999986 Q78.111 -22.40874999999999 78.111 -35.22999999999999 Q78.111 -48.05124999999999 69.136125 -57.02612499999999 Q60.16125 -66.00099999999999 47.34 -66.00099999999999 Q34.518750000000004 -66.00099999999999 25.543875 -57.02612499999999 Q16.569 -48.05124999999999 16.569 -35.22999999999999 Q16.569 -22.40874999999999 25.543875 -13.433874999999986 Q34.518750000000004 -4.458999999999985 47.34 -4.458999999999985 Z"/></g><g id="Ultralight-S" transform="matrix(1 0 0 1 517.792 696)"><path d="M40.239000000000004 -21.22524999999999 H54.441 Q55.363143750000006 -21.22524999999999 55.986946875 -21.849053124999983 Q56.61075 -22.472856249999985 56.61075 -23.39499999999999 V-27.931749999999987 H54.63825 V-23.197749999999985 H40.04175 V-47.26224999999999 H54.63825 V-42.528249999999986 H56.61075 V-47.06845187499999 Q56.61075 -47.992074999999986 55.986946875 -48.613412499999995 Q55.363143750000006 -49.23474999999999 54.441 -49.23474999999999 H40.239000000000004 Q39.31685625 -49.23474999999999 38.693053125 -48.61094687499998 Q38.069250000000004 -47.987143749999994 38.069250000000004 -47.06499999999999 V-23.39499999999999 Q38.069250000000004 -22.472856249999985 38.693053125 -21.849053124999983 Q39.31685625 -21.22524999999999 40.239000000000004 -21.22524999999999 Z M47.384381250000004 -2.486499999999987 Q40.633500000000005 -2.486499999999987 34.66096725 -5.039999874999985 Q28.688335875 -7.593598374999985 24.199320375 -12.076696374999987 Q19.7104035 -16.55989299999999 17.15345175 -22.52039349999999 Q14.5965 -28.480992624999992 14.5965 -35.258009499999986 Q14.5965 -42.03512499999999 17.149999875 -47.95834524999999 Q19.703598375 -53.881664124999986 24.186696375 -58.37058099999999 Q28.669893000000005 -62.859596499999995 34.630393500000004 -65.41654824999999 Q40.590992625000005 -67.97349999999999 47.3680095 -67.97349999999999 Q54.145125 -67.97349999999999 60.06834525 -65.42000012499999 Q65.991664125 -62.866401624999995 70.480581 -58.38330362499998 Q74.96959650000001 -53.90010699999999 77.52654825 -47.96268474999999 Q80.0835 -42.02516387499999 80.0835 -35.27438124999999 Q80.0835 -28.52349999999999 77.530000125 -22.550967249999985 Q74.97640162500001 -16.578335874999986 70.493303625 -12.089320374999986 Q66.010107 -7.600403499999988 60.07268475 -5.043451749999985 Q54.135163875 -2.486499999999987 47.384381250000004 -2.486499999999987 Z M47.34 -4.458999999999985 Q60.16125 -4.458999999999985 69.136125 -13.433874999999986 Q78.111 -22.40874999999999 78.111 -35.22999999999999 Q78.111 -48.05124999999999 69.136125 -57.02612499999999 Q60.16125 -66.00099999999999 47.34 -66.00099999999999 Q34.518750000000004 -66.00099999999999 25.543875 -57.02612499999999 Q16.569 -48.05124999999999 16.569 -35.22999999999999 Q16.569 -22.40874999999999 25.543875 -13.433874999999986 Q34.518750000000004 -4.458999999999985 47.34 -4.458999999999985 Z"/></g></g></svg>