<svg xmlns="http://www.w3.org/2000/svg" version="1.1" width="3300" height="2000"><g id="Notes"><style>
    text {
      font-family: monospace;
      text-anchor: middle;
    }
    text.emphasis {
      font-weight:bold;
    }
    text.lanchor {
      text-anchor: start;
    }
  </style><rect height="2200" id="artboard" fill="white" width="3300" x="0" y="0"/><line id="" style="fill:none;stroke:black;stroke-width:0.5;" x1="263" x2="3036" y1="292" y2="292"/><text class="lanchor emphasis" transform="matrix(1 0 0 1 263 322)">Weight/Scale Variations</text><text transform="matrix(1 0 0 1 559.711 322)">Ultralight</text><text transform="matrix(1 0 0 1 856.422 322)">Thin</text><text transform="matrix(1 0 0 1 1153.13 322)">Light</text><text transform="matrix(1 0 0 1 1449.84 322)">Regular</text><text transform="matrix(1 0 0 1 1746.56 322)">Medium</text><text transform="matrix(1 0 0 1 2043.27 322)">Semibold</text><text transform="matrix(1 0 0 1 2339.98 322)">Bold</text><text transform="matrix(1 0 0 1 2636.69 322)">Heavy</text><text transform="matrix(1 0 0 1 2933.4 322)">Black</text><text id="template-version" style="text-anchor: end;" transform="matrix(1 0 0 1 3036 1933)">Template v.1.0</text><text class="lanchor" transform="matrix(1 0 0 1 263 726)">Small</text><text class="lanchor" transform="matrix(1 0 0 1 263 1156)">Medium</text><text class="lanchor" transform="matrix(1 0 0 1 263 1586)">Large</text></g><g id="Guides"><g id="H-reference" style="fill:#27AAE1;stroke:none;" transform="matrix(1 0 0 1 339 696)"><path d="M 54.9316 0 L 57.666 0 L 30.5664 -70.459 L 28.0762 -70.459 L 0.976562 0 L 3.66211 0 L 12.9395 -24.4629 L 45.7031 -24.4629 Z M 29.1992 -67.0898 L 29.4434 -67.0898 L 44.8242 -26.709 L 13.8184 -26.709 Z"/></g><line id="Baseline-S" style="fill:none;stroke:#27AAE1;opacity:1;stroke-width:0.577;" x1="263" x2="3036" y1="696" y2="696"/><line id="Capline-S" style="fill:none;stroke:#27AAE1;opacity:1;stroke-width:0.577;" x1="263" x2="3036" y1="625.541" y2="625.541"/><g id="H-reference" style="fill:#27AAE1;stroke:none;" transform="matrix(1 0 0 1 339 1126)"><path d="M 54.9316 0 L 57.666 0 L 30.5664 -70.459 L 28.0762 -70.459 L 0.976562 0 L 3.66211 0 L 12.9395 -24.4629 L 45.7031 -24.4629 Z M 29.1992 -67.0898 L 29.4434 -67.0898 L 44.8242 -26.709 L 13.8184 -26.709 Z"/></g><line id="Baseline-M" style="fill:none;stroke:#27AAE1;opacity:1;stroke-width:0.577;" x1="263" x2="3036" y1="1126" y2="1126"/><line id="Capline-M" style="fill:none;stroke:#27AAE1;opacity:1;stroke-width:0.577;" x1="263" x2="3036" y1="1055.54" y2="1055.54"/><g id="H-reference" style="fill:#27AAE1;stroke:none;" transform="matrix(1 0 0 1 339 1556)"><path d="M 54.9316 0 L 57.666 0 L 30.5664 -70.459 L 28.0762 -70.459 L 0.976562 0 L 3.66211 0 L 12.9395 -24.4629 L 45.7031 -24.4629 Z M 29.1992 -67.0898 L 29.4434 -67.0898 L 44.8242 -26.709 L 13.8184 -26.709 Z"/></g><line id="Baseline-L" style="fill:none;stroke:#27AAE1;opacity:1;stroke-width:0.577;" x1="263" x2="3036" y1="1556" y2="1556"/><line id="Capline-L" style="fill:none;stroke:#27AAE1;opacity:1;stroke-width:0.577;" x1="263" x2="3036" y1="1485.54" y2="1485.54"/><rect height="119.336" id="left-margin" style="fill:darkred;stroke:none;opacity:0.4;" width="12.4512" x="1394.06" y="1030.79"/><rect height="119.336" id="right-margin" style="fill:darkgreen;stroke:none;opacity:0.4;" width="12.4512" x="1502.5112" y="1030.79"/><rect x="1406.5112" y="1045" width="96" height="96" fill="none" stroke="blue" stroke-dasharray="5"/><rect x="1394.06" y="1030.79" width="120.9024" height="119.336" fill="none" stroke="blue"/></g><g id="Symbols"><g id="Bold-L" transform="matrix(1 0 0 1 2266 1556)"><path d="M38.7 -22.329999999999984 H51.43875 L92.07375 -62.48124999999999 Q93.04125 -63.44874999999999 93.04125 -64.89999999999999 Q93.04125 -66.35125 92.07375 -67.31874999999998 L83.205 -75.38125 Q82.39875 -76.18749999999999 81.189375 -76.18749999999999 Q79.98 -76.18749999999999 79.17375 -75.38125 L38.7 -34.26249999999999 V-22.329999999999984 Z M65.30625 -22.329999999999984 H116.10000000000001 V-32.00499999999998 H74.98125 L65.30625 -22.329999999999984 Z M8.86875 33.30125000000002 V-88.60374999999999 Q8.86875 -94.96715874999998 13.299093749999999 -99.44474874999997 Q17.7294375 -103.92249999999999 24.02625 -103.92249999999999 H130.77375 Q137.13715875 -103.92249999999999 141.61474875 -99.44474874999997 Q146.0925 -94.96715874999998 146.0925 -88.60374999999999 V-7.656249999999986 Q146.0925 -1.3594374999999843 141.61474875 3.0709062500000144 Q137.13715875 7.501250000000013 130.77375 7.501250000000013 H34.66875 L8.86875 33.30125000000002 Z M30.47625 -7.656249999999986 H130.77375 Q130.77375 -7.656249999999986 130.77375 -7.656249999999986 Q130.77375 -7.656249999999986 130.77375 -7.656249999999986 V-88.60374999999999 Q130.77375 -88.60374999999999 130.77375 -88.60374999999999 Q130.77375 -88.60374999999999 130.77375 -88.60374999999999 H24.02625 Q24.02625 -88.60374999999999 24.02625 -88.60374999999999 Q24.02625 -88.60374999999999 24.02625 -88.60374999999999 V-0.2387499999999818 L30.47625 -7.656249999999986 Z"/></g><g id="Semibold-L" transform="matrix(1 0 0 1 1970.27 1556)"><path d="M38.7 -22.329999999999984 H51.43875 L92.07375 -62.48124999999999 Q93.04125 -63.44874999999999 93.04125 -64.89999999999999 Q93.04125 -66.35125 92.07375 -67.31874999999998 L83.205 -75.38125 Q82.39875 -76.18749999999999 81.189375 -76.18749999999999 Q79.98 -76.18749999999999 79.17375 -75.38125 L38.7 -34.26249999999999 V-22.329999999999984 Z M65.30625 -22.329999999999984 H116.10000000000001 V-32.00499999999998 H74.98125 L65.30625 -22.329999999999984 Z M10.62137625 31.548623750000015 V-89.23472124999998 Q10.62137625 -94.51404624999998 14.38753125 -98.30696874999998 Q18.153525000000002 -102.09973 23.39527875 -102.09973 H131.40472125 Q136.68404625 -102.09973 140.47696875 -98.30696874999998 Q144.26973 -94.51404624999998 144.26973 -89.23472124999998 V-7.025278749999984 Q144.26973 -1.7835249999999832 140.47696875 1.9824687500000167 Q136.68404625 5.748623750000014 131.40472125 5.748623750000014 H36.42137625 L10.62137625 31.548623750000015 Z M32.22887625 -7.025278749999984 H131.40472125 Q131.40472125 -7.025278749999984 131.40472125 -7.025278749999984 Q131.40472125 -7.025278749999984 131.40472125 -7.025278749999984 V-89.23472124999998 Q131.40472125 -89.23472124999998 131.40472125 -89.23472124999998 Q131.40472125 -89.23472124999998 131.40472125 -89.23472124999998 H23.39527875 Q23.39527875 -89.23472124999998 23.39527875 -89.23472124999998 Q23.39527875 -89.23472124999998 23.39527875 -89.23472124999998 V2.7756575000000154 L32.22887625 -7.025278749999984 Z"/></g><g id="Medium-L" transform="matrix(1 0 0 1 1674.31 1556)"><path d="M38.7 -22.329999999999984 H51.43875 L92.07375 -62.48124999999999 Q93.04125 -63.44874999999999 93.04125 -64.89999999999999 Q93.04125 -66.35125 92.07375 -67.31874999999998 L83.205 -75.38125 Q82.39875 -76.18749999999999 81.189375 -76.18749999999999 Q79.98 -76.18749999999999 79.17375 -75.38125 L38.7 -34.26249999999999 V-22.329999999999984 Z M65.30625 -22.329999999999984 H116.10000000000001 V-32.00499999999998 H74.98125 L65.30625 -22.329999999999984 Z M11.9360475 30.233952500000015 V-89.70798999999997 Q11.9360475 -94.17413124999999 15.203778750000001 -97.45331124999998 Q18.47167125 -100.73265249999997 22.92201 -100.73265249999997 H131.87798999999998 Q136.34413125 -100.73265249999997 139.62331125 -97.45331124999998 Q142.9026525 -94.17413124999999 142.9026525 -89.70798999999997 V-6.5520099999999815 Q142.9026525 -2.1016712499999883 139.62331125 1.1662212500000138 Q136.34413125 4.433952500000018 131.87798999999998 4.433952500000018 H37.7360475 L11.9360475 30.233952500000015 Z M33.5435475 -6.5520099999999815 H131.87798999999998 Q131.87798999999998 -6.5520099999999815 131.87798999999998 -6.5520099999999815 Q131.87798999999998 -6.5520099999999815 131.87798999999998 -6.5520099999999815 V-89.70798999999997 Q131.87798999999998 -89.70798999999997 131.87798999999998 -89.70798999999997 Q131.87798999999998 -89.70798999999997 131.87798999999998 -89.70798999999997 H22.92201 Q22.92201 -89.70798999999997 22.92201 -89.70798999999997 Q22.92201 -89.70798999999997 22.92201 -89.70798999999997 V5.036866250000017 L33.5435475 -6.5520099999999815 Z"/></g><g id="Regular-L" transform="matrix(1 0 0 1 1378.56 1556)"><path d="M38.7 -22.329999999999984 H51.43875 L92.07375 -62.48124999999999 Q93.04125 -63.44874999999999 93.04125 -64.89999999999999 Q93.04125 -66.35125 92.07375 -67.31874999999998 L83.205 -75.38125 Q82.39875 -76.18749999999999 81.189375 -76.18749999999999 Q79.98 -76.18749999999999 79.17375 -75.38125 L38.7 -34.26249999999999 V-22.329999999999984 Z M65.30625 -22.329999999999984 H116.10000000000001 V-32.00499999999998 H74.98125 L65.30625 -22.329999999999984 Z M12.9 29.270000000000017 V-90.05499999999998 Q12.9 -93.92499999999998 15.8025 -96.82749999999999 Q18.705000000000002 -99.72999999999999 22.575 -99.72999999999999 H132.225 Q136.095 -99.72999999999999 138.9975 -96.82749999999999 Q141.9 -93.92499999999998 141.9 -90.05499999999998 V-6.204999999999984 Q141.9 -2.3349999999999866 138.9975 0.5675000000000168 Q136.095 3.470000000000013 132.225 3.470000000000013 H38.7 L12.9 29.270000000000017 Z M34.5075 -6.204999999999984 H132.225 Q132.225 -6.204999999999984 132.225 -6.204999999999984 Q132.225 -6.204999999999984 132.225 -6.204999999999984 V-90.05499999999998 Q132.225 -90.05499999999998 132.225 -90.05499999999998 Q132.225 -90.05499999999998 132.225 -90.05499999999998 H22.575 Q22.575 -90.05499999999998 22.575 -90.05499999999998 Q22.575 -90.05499999999998 22.575 -90.05499999999998 V6.6950000000000145 L34.5075 -6.204999999999984 Z"/></g><g id="Light-L" transform="matrix(1 0 0 1 1082.77 1556)"><path d="M41.553157500000005 -23.942661249999986 H51.624832500000004 L90.83325375000001 -62.72941374999999 Q91.7386725 -63.57275124999998 91.7386725 -64.79921874999998 Q91.7386725 -66.02568624999999 90.83325375000001 -66.94658499999998 L84.1973325 -73.02441999999999 Q83.3910825 -73.76858874999999 82.33683 -73.76858874999999 Q81.2825775 -73.76858874999999 80.5569525 -73.04441499999999 L41.553157500000005 -33.45624999999998 V-23.942661249999986 Z M68.59349250000001 -23.942661249999986 H114.48733875 V-31.26066999999999 H75.9116625 L68.59349250000001 -23.942661249999986 Z M16.12516125 23.067680000000017 V-87.2018425 Q16.12516125 -90.99589375 18.87963375 -93.75036624999998 Q21.63410625 -96.50483875 25.428157499999998 -96.50483875 H129.3718425 Q133.16589375 -96.50483875 135.92036625 -93.75036624999998 Q138.67483875000002 -90.99589375 138.67483875000002 -87.2018425 V-9.058157499999986 Q138.67483875000002 -5.26410624999999 135.92036625 -2.509633749999992 Q133.16589375 0.24483875000002087 129.3718425 0.24483875000002087 H38.94816375 L16.12516125 23.067680000000017 Z M35.74799625 -7.073331249999981 H129.3718425 Q130.1161725 -7.073331249999981 130.73650125 -7.693498749999982 Q131.35666875 -8.31382749999998 131.35666875 -9.058157499999986 V-87.2018425 Q131.35666875 -87.94617249999999 130.73650125 -88.56650124999999 Q130.1161725 -89.18666875 129.3718425 -89.18666875 H25.428157499999998 Q24.6838275 -89.18666875 24.06349875 -88.56650124999999 Q23.44333125 -87.94617249999999 23.44333125 -87.2018425 V5.9506700000000095 L35.74799625 -7.073331249999981 Z"/></g><g id="Thin-L" transform="matrix(1 0 0 1 787.282 1556)"><path d="M44.40567 -25.554999999999993 H51.810915 L89.59291875000001 -62.97741624999999 Q90.4364175 -63.69675249999999 90.4364175 -64.69843749999998 Q90.4364175 -65.70012249999999 89.59291875000001 -66.57458124999998 L85.189665 -70.66775125 Q84.383415 -71.35 83.48412375 -71.35 Q82.5848325 -71.35 81.93983250000001 -70.70774125 L44.40567 -32.64999999999999 V-25.554999999999993 Z M71.88025125 -25.554999999999993 H112.875 V-30.51650124999999 H76.8417525 L71.88025125 -25.554999999999993 Z M19.35 16.866166250000013 V-84.34932999999998 Q19.35 -88.06727124999998 21.95628375 -90.67371624999998 Q24.56272875 -93.28 28.280669999999997 -93.28 H126.51933 Q130.23727125 -93.28 132.84371625 -90.67371624999998 Q135.45000000000002 -88.06727124999998 135.45000000000002 -84.34932999999998 V-11.910669999999989 Q135.45000000000002 -8.192728749999986 132.84371625 -5.586283749999986 Q130.23727125 -2.9799999999999827 126.51933 -2.9799999999999827 H39.19616625 L19.35 16.866166250000013 Z M36.98833125 -7.9415012499999875 H126.51933 Q128.0076675 -7.9415012499999875 129.24816375 -9.18183624999999 Q130.48849875 -10.422332499999982 130.48849875 -11.910669999999989 V-84.34932999999998 Q130.48849875 -85.83766749999998 129.24816375 -87.07816374999999 Q128.0076675 -88.31849874999997 126.51933 -88.31849874999997 H28.280669999999997 Q26.7923325 -88.31849874999997 25.551836250000004 -87.07816374999999 Q24.311501250000003 -85.83766749999998 24.311501250000003 -84.34932999999998 V5.2065012500000165 L36.98833125 -7.9415012499999875 Z"/></g><g id="Ultralight-L" transform="matrix(1 0 0 1 491.205 1556)"><path d="M46.1175 -26.52249999999998 H51.9225 L88.84875 -63.126249999999985 Q89.655 -63.77124999999998 89.655 -64.63796874999998 Q89.655 -65.50468749999999 88.84875 -66.35125 L85.785 -69.25374999999998 Q84.97875 -69.89874999999999 84.1725 -69.89874999999999 Q83.36625000000001 -69.89874999999999 82.76962499999999 -69.30567249999999 L46.1175 -32.16624999999999 V-26.52249999999998 Z M73.8525 -26.52249999999998 H111.9075 V-30.069999999999993 H77.4 L73.8525 -26.52249999999998 Z M21.285 13.145000000000014 V-82.63749999999999 Q21.285 -86.30996875 23.80259625 -88.82756499999999 Q26.32003125 -91.345 29.9925 -91.345 H124.8075 Q128.47996875 -91.345 130.997565 -88.82756499999999 Q133.51500000000001 -86.30996875 133.51500000000001 -82.63749999999999 V-13.622499999999988 Q133.51500000000001 -9.950031249999988 130.997565 -7.432434999999991 Q128.47996875 -4.914999999999985 124.8075 -4.914999999999985 H39.345 L21.285 13.145000000000014 Z M37.7325 -8.462499999999984 H124.8075 Q126.7425 -8.462499999999984 128.355 -10.074999999999989 Q129.9675 -11.687499999999986 129.9675 -13.622499999999988 V-82.63749999999999 Q129.9675 -84.57249999999999 128.355 -86.18499999999997 Q126.7425 -87.79749999999999 124.8075 -87.79749999999999 H29.9925 Q28.0575 -87.79749999999999 26.445 -86.18499999999997 Q24.8325 -84.57249999999999 24.8325 -82.63749999999999 V4.760000000000012 L37.7325 -8.462499999999984 Z"/></g><g id="Bold-M" transform="matrix(1 0 0 1 2281.8 1126)"><path d="M30.0 -25.22999999999999 H42.25 L71.75 -54.47999999999999 Q72.5 -55.22999999999999 72.5 -56.35499999999999 Q72.5 -57.47999999999999 71.75 -58.22999999999999 L63.0 -66.97999999999999 Q62.25 -67.72999999999999 61.125 -67.72999999999999 Q60.0 -67.72999999999999 59.25 -66.97999999999999 L30.0 -37.47999999999999 V-25.22999999999999 Z M52.5 -25.22999999999999 H90.0 V-35.22999999999999 H62.5 L52.5 -25.22999999999999 Z M5.75 19.02000000000001 V-73.72999999999999 Q5.75 -80.35499999999999 10.3125 -84.91749999999999 Q14.875 -89.47999999999999 21.5 -89.47999999999999 H98.5 Q105.125 -89.47999999999999 109.6875 -84.91749999999999 Q114.25 -80.35499999999999 114.25 -73.72999999999999 V-16.72999999999999 Q114.25 -10.10499999999999 109.6875 -5.54249999999999 Q105.125 -0.9799999999999898 98.5 -0.9799999999999898 H25.75 L5.75 19.02000000000001 Z M21.5 -16.72999999999999 H98.5 Q98.5 -16.72999999999999 98.5 -16.72999999999999 Q98.5 -16.72999999999999 98.5 -16.72999999999999 V-73.72999999999999 Q98.5 -73.72999999999999 98.5 -73.72999999999999 Q98.5 -73.72999999999999 98.5 -73.72999999999999 H21.5 Q21.5 -73.72999999999999 21.5 -73.72999999999999 Q21.5 -73.72999999999999 21.5 -73.72999999999999 V-16.72999999999999 Z"/></g><g id="Semibold-M" transform="matrix(1 0 0 1 1985.97 1126)"><path d="M30.0 -25.22999999999999 H42.25 L71.75 -54.47999999999999 Q72.5 -55.22999999999999 72.5 -56.35499999999999 Q72.5 -57.47999999999999 71.75 -58.22999999999999 L63.0 -66.97999999999999 Q62.25 -67.72999999999999 61.125 -67.72999999999999 Q60.0 -67.72999999999999 59.25 -66.97999999999999 L30.0 -37.47999999999999 V-25.22999999999999 Z M52.5 -25.22999999999999 H90.0 V-35.22999999999999 H62.5 L52.5 -25.22999999999999 Z M7.59775 17.172250000000012 V-74.38212499999999 Q7.59775 -79.92025 11.45375 -83.77624999999999 Q15.30975 -87.63224999999998 20.847875 -87.63224999999998 H99.152125 Q104.69025 -87.63224999999998 108.54625 -83.77624999999999 Q112.40225 -79.92025 112.40225 -74.38212499999999 V-16.07787499999999 Q112.40225 -10.53974999999999 108.54625 -6.683749999999989 Q104.69025 -2.827749999999991 99.152125 -2.827749999999991 H27.59775 L7.59775 17.172250000000012 Z M23.34775 -16.07787499999999 H99.152125 Q99.152125 -16.07787499999999 99.152125 -16.07787499999999 Q99.152125 -16.07787499999999 99.152125 -16.07787499999999 V-74.38212499999999 Q99.152125 -74.38212499999999 99.152125 -74.38212499999999 Q99.152125 -74.38212499999999 99.152125 -74.38212499999999 H20.847875 Q20.847875 -74.38212499999999 20.847875 -74.38212499999999 Q20.847875 -74.38212499999999 20.847875 -74.38212499999999 V-13.632374999999989 L23.34775 -16.07787499999999 Z"/></g><g id="Medium-M" transform="matrix(1 0 0 1 1689.91 1126)"><path d="M30.0 -25.22999999999999 H42.25 L71.75 -54.47999999999999 Q72.5 -55.22999999999999 72.5 -56.35499999999999 Q72.5 -57.47999999999999 71.75 -58.22999999999999 L63.0 -66.97999999999999 Q62.25 -67.72999999999999 61.125 -67.72999999999999 Q60.0 -67.72999999999999 59.25 -66.97999999999999 L30.0 -37.47999999999999 V-25.22999999999999 Z M52.5 -25.22999999999999 H90.0 V-35.22999999999999 H62.5 L52.5 -25.22999999999999 Z M8.983625 15.78637500000001 V-74.87124999999999 Q8.983625 -79.59412499999999 12.30975 -82.92025 Q15.635875 -86.24637499999999 20.35875 -86.24637499999999 H99.64125 Q104.364125 -86.24637499999999 107.69025 -82.92025 Q111.016375 -79.59412499999999 111.016375 -74.87124999999999 V-15.58874999999999 Q111.016375 -10.865874999999988 107.69025 -7.539749999999991 Q104.364125 -4.21362499999999 99.64125 -4.21362499999999 H28.983625 L8.983625 15.78637500000001 Z M24.733625 -15.58874999999999 H99.64125 Q99.64125 -15.58874999999999 99.64125 -15.58874999999999 Q99.64125 -15.58874999999999 99.64125 -15.58874999999999 V-74.87124999999999 Q99.64125 -74.87124999999999 99.64125 -74.87124999999999 Q99.64125 -74.87124999999999 99.64125 -74.87124999999999 H20.35875 Q20.35875 -74.87124999999999 20.35875 -74.87124999999999 Q20.35875 -74.87124999999999 20.35875 -74.87124999999999 V-11.308874999999986 L24.733625 -15.58874999999999 Z"/></g><g id="Regular-M" transform="matrix(1 0 0 1 1394.06 1126)"><path d="M30.0 -25.22999999999999 H42.25 L71.75 -54.47999999999999 Q72.5 -55.22999999999999 72.5 -56.35499999999999 Q72.5 -57.47999999999999 71.75 -58.22999999999999 L63.0 -66.97999999999999 Q62.25 -67.72999999999999 61.125 -67.72999999999999 Q60.0 -67.72999999999999 59.25 -66.97999999999999 L30.0 -37.47999999999999 V-25.22999999999999 Z M52.5 -25.22999999999999 H90.0 V-35.22999999999999 H62.5 L52.5 -25.22999999999999 Z M10.0 14.77000000000001 V-75.22999999999999 Q10.0 -79.35499999999999 12.9375 -82.29249999999999 Q15.875 -85.22999999999999 20.0 -85.22999999999999 H100.0 Q104.125 -85.22999999999999 107.0625 -82.29249999999999 Q110.0 -79.35499999999999 110.0 -75.22999999999999 V-15.22999999999999 Q110.0 -11.10499999999999 107.0625 -8.16749999999999 Q104.125 -5.22999999999999 100.0 -5.22999999999999 H30.0 L10.0 14.77000000000001 Z M25.75 -15.22999999999999 H100.0 Q100.0 -15.22999999999999 100.0 -15.22999999999999 Q100.0 -15.22999999999999 100.0 -15.22999999999999 V-75.22999999999999 Q100.0 -75.22999999999999 100.0 -75.22999999999999 Q100.0 -75.22999999999999 100.0 -75.22999999999999 H20.0 Q20.0 -75.22999999999999 20.0 -75.22999999999999 Q20.0 -75.22999999999999 20.0 -75.22999999999999 V-9.60499999999999 L25.75 -15.22999999999999 Z"/></g><g id="Light-M" transform="matrix(1 0 0 1 1098.18 1126)"><path d="M32.21175 -26.480124999999987 H41.76925 L70.69225 -55.15312499999999 Q71.394125 -55.85499999999999 71.394125 -56.78774999999999 Q71.394125 -57.72037499999999 70.69225 -58.42237499999999 L64.153875 -64.960625 Q63.452 -65.6625 62.519375 -65.6625 Q61.586625 -65.6625 60.88475 -64.960625 L32.21175 -36.03762499999999 V-26.480124999999987 Z M54.519375 -26.480124999999987 H88.749875 V-33.97987499999999 H62.01925 L54.519375 -26.480124999999987 Z M12.500125 9.96200000000001 V-73.691375 Q12.500125 -77.47987499999999 15.125125 -80.10487499999999 Q17.750125 -82.72987499999999 21.538625 -82.72987499999999 H98.461375 Q102.249875 -82.72987499999999 104.874875 -80.10487499999999 Q107.499875 -77.47987499999999 107.499875 -73.691375 V-16.768624999999993 Q107.499875 -12.980124999999987 104.874875 -10.355124999999987 Q102.249875 -7.730124999999987 98.461375 -7.730124999999987 H30.192375 L12.500125 9.96200000000001 Z M27.000125 -15.22999999999999 H98.461375 Q99.038375 -15.22999999999999 99.51925 -15.71074999999999 Q100.0 -16.191624999999988 100.0 -16.768624999999993 V-73.691375 Q100.0 -74.26837499999999 99.51925 -74.74924999999999 Q99.038375 -75.22999999999999 98.461375 -75.22999999999999 H21.538625 Q20.961625 -75.22999999999999 20.48075 -74.74924999999999 Q20.0 -74.26837499999999 20.0 -73.691375 V-8.306874999999991 L27.000125 -15.22999999999999 Z"/></g><g id="Thin-M" transform="matrix(1 0 0 1 802.565 1126)"><path d="M34.423 -27.72999999999999 H41.2885 L69.634625 -55.82612499999999 Q70.2885 -56.47999999999999 70.2885 -57.22037499999999 Q70.2885 -57.96074999999999 69.634625 -58.61462499999999 L65.307625 -62.94162499999999 Q64.653875 -63.59537499999999 63.9135 -63.59537499999999 Q63.173 -63.59537499999999 62.51925 -62.94162499999999 L34.423 -34.59537499999999 V-27.72999999999999 Z M56.538375 -27.72999999999999 H87.5 V-32.72999999999999 H61.5385 L56.538375 -27.72999999999999 Z M15.0 5.15462500000001 V-72.15312499999999 Q15.0 -75.60499999999999 17.3125 -77.91749999999999 Q19.625 -80.22999999999999 23.076875 -80.22999999999999 H96.923125 Q100.375 -80.22999999999999 102.6875 -77.91749999999999 Q105.0 -75.60499999999999 105.0 -72.15312499999999 V-18.30687499999999 Q105.0 -14.85499999999999 102.6875 -12.54249999999999 Q100.375 -10.22999999999999 96.923125 -10.22999999999999 H30.384625 L15.0 5.15462500000001 Z M28.25 -15.22999999999999 H96.923125 Q98.076875 -15.22999999999999 99.0385 -16.19149999999999 Q100.0 -17.15312499999999 100.0 -18.30687499999999 V-72.15312499999999 Q100.0 -73.30687499999999 99.0385 -74.26849999999999 Q98.076875 -75.22999999999999 96.923125 -75.22999999999999 H23.076875 Q21.923125 -75.22999999999999 20.9615 -74.26849999999999 Q20.0 -73.30687499999999 20.0 -72.15312499999999 V-7.008874999999989 L28.25 -15.22999999999999 Z"/></g><g id="Ultralight-M" transform="matrix(1 0 0 1 506.415 1126)"><path d="M35.75 -28.47999999999999 H41.0 L69.0 -56.22999999999999 Q69.625 -56.85499999999999 69.625 -57.47999999999999 Q69.625 -58.10499999999999 69.0 -58.72999999999999 L66.0 -61.72999999999999 Q65.375 -62.35499999999999 64.75 -62.35499999999999 Q64.125 -62.35499999999999 63.5 -61.72999999999999 L35.75 -33.72999999999999 V-28.47999999999999 Z M57.75 -28.47999999999999 H86.75 V-31.97999999999999 H61.25 L57.75 -28.47999999999999 Z M16.5 2.2700000000000102 V-71.22999999999999 Q16.5 -74.47999999999999 18.625 -76.60499999999999 Q20.75 -78.72999999999999 24.0 -78.72999999999999 H96.0 Q99.25 -78.72999999999999 101.375 -76.60499999999999 Q103.5 -74.47999999999999 103.5 -71.22999999999999 V-19.22999999999999 Q103.5 -15.97999999999999 101.375 -13.85499999999999 Q99.25 -11.72999999999999 96.0 -11.72999999999999 H30.5 L16.5 2.2700000000000102 Z M29.0 -15.22999999999999 H96.0 Q97.5 -15.22999999999999 98.75 -16.47999999999999 Q100.0 -17.72999999999999 100.0 -19.22999999999999 V-71.22999999999999 Q100.0 -72.72999999999999 98.75 -73.97999999999999 Q97.5 -75.22999999999999 96.0 -75.22999999999999 H24.0 Q22.5 -75.22999999999999 21.25 -73.97999999999999 Q20.0 -72.72999999999999 20.0 -71.22999999999999 V-6.22999999999999 L29.0 -15.22999999999999 Z"/></g><g id="Bold-S" transform="matrix(1 0 0 1 2294.23 696)"><path d="M23.67 -25.761999999999986 H33.039375 L56.117625000000004 -48.84024999999999 Q56.906625000000005 -49.62924999999999 56.906625000000005 -50.51687499999999 Q56.906625000000005 -51.40449999999999 56.117625000000004 -52.193499999999986 L50.002875 -58.20962499999999 Q49.213875 -58.99862499999999 48.32625 -58.99862499999999 Q47.438625 -58.99862499999999 46.649625 -58.20962499999999 L23.67 -35.13137499999999 V-25.761999999999986 Z M43.099125 -25.761999999999986 H71.01 V-32.862999999999985 H50.200125 L43.099125 -25.761999999999986 Z M6.11475 5.995250000000014 V-64.8175 Q6.11475 -69.7191625 9.48279375 -73.08720625 Q12.8508375 -76.45524999999999 17.7525 -76.45524999999999 H76.92750000000001 Q81.82916250000001 -76.45524999999999 85.19720625000001 -73.08720625 Q88.56525 -69.7191625 88.56525 -64.8175 V-19.84449999999999 Q88.56525 -14.942837499999989 85.19720625000001 -11.574793749999987 Q81.82916250000001 -8.206749999999989 76.92750000000001 -8.206749999999989 H20.316750000000003 L6.11475 5.995250000000014 Z M17.358 -19.84449999999999 H76.92750000000001 Q76.92750000000001 -19.84449999999999 76.92750000000001 -19.84449999999999 Q76.92750000000001 -19.84449999999999 76.92750000000001 -19.84449999999999 V-64.8175 Q76.92750000000001 -64.8175 76.92750000000001 -64.8175 Q76.92750000000001 -64.8175 76.92750000000001 -64.8175 H17.7525 Q17.7525 -64.8175 17.7525 -64.8175 Q17.7525 -64.8175 17.7525 -64.8175 V-20.140374999999985 L17.358 -19.84449999999999 Z"/></g><g id="Semibold-S" transform="matrix(1 0 0 1 1998.1 696)"><path d="M23.67 -25.761999999999986 H33.039375 L56.117625000000004 -48.84024999999999 Q56.906625000000005 -49.62924999999999 56.906625000000005 -50.51687499999999 Q56.906625000000005 -51.40449999999999 56.117625000000004 -52.193499999999986 L50.002875 -58.20962499999999 Q49.213875 -58.99862499999999 48.32625 -58.99862499999999 Q47.438625 -58.99862499999999 46.649625 -58.20962499999999 L23.67 -35.13137499999999 V-25.761999999999986 Z M43.099125 -25.761999999999986 H71.01 V-32.862999999999985 H50.200125 L43.099125 -25.761999999999986 Z M7.57262475 4.5373752500000135 V-65.33202662499998 Q7.57262475 -69.37614475 10.38324 -72.18675999999999 Q13.19385525 -74.99737524999999 17.237973375 -74.99737524999999 H77.442026625 Q81.48614475000001 -74.99737524999999 84.29676 -72.18675999999999 Q87.10737525 -69.37614475 87.10737525 -65.33202662499998 V-19.32997337499999 Q87.10737525 -15.28585524999999 84.29676 -12.475239999999989 Q81.48614475000001 -9.664624749999987 77.442026625 -9.664624749999987 H21.77462475 L7.57262475 4.5373752500000135 Z M18.815874750000003 -19.32997337499999 H77.442026625 Q77.442026625 -19.32997337499999 77.442026625 -19.32997337499999 Q77.442026625 -19.32997337499999 77.442026625 -19.32997337499999 V-65.33202662499998 Q77.442026625 -65.33202662499998 77.442026625 -65.33202662499998 Q77.442026625 -65.33202662499998 77.442026625 -65.33202662499998 H17.237973375 Q17.237973375 -65.33202662499998 17.237973375 -65.33202662499998 Q17.237973375 -65.33202662499998 17.237973375 -65.33202662499998 V-17.696348874999988 L18.815874750000003 -19.32997337499999 Z"/></g><g id="Medium-S" transform="matrix(1 0 0 1 1701.85 696)"><path d="M23.67 -25.761999999999986 H33.039375 L56.117625000000004 -48.84024999999999 Q56.906625000000005 -49.62924999999999 56.906625000000005 -50.51687499999999 Q56.906625000000005 -51.40449999999999 56.117625000000004 -52.193499999999986 L50.002875 -58.20962499999999 Q49.213875 -58.99862499999999 48.32625 -58.99862499999999 Q47.438625 -58.99862499999999 46.649625 -58.20962499999999 L23.67 -35.13137499999999 V-25.761999999999986 Z M43.099125 -25.761999999999986 H71.01 V-32.862999999999985 H50.200125 L43.099125 -25.761999999999986 Z M8.666080125 3.443919875000013 V-65.71794624999998 Q8.666080125 -69.118832125 11.058624 -71.51137599999998 Q13.451167875000001 -73.90391987499999 16.85205375 -73.90391987499999 H77.82794625 Q81.22883212500001 -73.90391987499999 83.621376 -71.51137599999998 Q86.013919875 -69.118832125 86.013919875 -65.71794624999998 V-18.944053749999988 Q86.013919875 -15.543167874999988 83.621376 -13.150623999999986 Q81.22883212500001 -10.758080124999989 77.82794625 -10.758080124999989 H22.868080125000002 L8.666080125 3.443919875000013 Z M19.909330125 -18.944053749999988 H77.82794625 Q77.82794625 -18.944053749999988 77.82794625 -18.944053749999988 Q77.82794625 -18.944053749999988 77.82794625 -18.944053749999988 V-65.71794624999998 Q77.82794625 -65.71794624999998 77.82794625 -65.71794624999998 Q77.82794625 -65.71794624999998 77.82794625 -65.71794624999998 H16.85205375 Q16.85205375 -65.71794624999998 16.85205375 -65.71794624999998 Q16.85205375 -65.71794624999998 16.85205375 -65.71794624999998 V-15.863107374999984 L19.909330125 -18.944053749999988 Z"/></g><g id="Regular-S" transform="matrix(1 0 0 1 1405.73 696)"><path d="M23.67 -25.761999999999986 H33.039375 L56.117625000000004 -48.84024999999999 Q56.906625000000005 -49.62924999999999 56.906625000000005 -50.51687499999999 Q56.906625000000005 -51.40449999999999 56.117625000000004 -52.193499999999986 L50.002875 -58.20962499999999 Q49.213875 -58.99862499999999 48.32625 -58.99862499999999 Q47.438625 -58.99862499999999 46.649625 -58.20962499999999 L23.67 -35.13137499999999 V-25.761999999999986 Z M43.099125 -25.761999999999986 H71.01 V-32.862999999999985 H50.200125 L43.099125 -25.761999999999986 Z M9.468 2.6420000000000137 V-66.00099999999999 Q9.468 -68.9301625 11.553918750000001 -71.01608125 Q13.639837500000002 -73.10199999999999 16.569 -73.10199999999999 H78.111 Q81.04016250000001 -73.10199999999999 83.12608125000001 -71.01608125 Q85.212 -68.9301625 85.212 -66.00099999999999 V-18.660999999999987 Q85.212 -15.73183749999999 83.12608125000001 -13.645918749999986 Q81.04016250000001 -11.559999999999988 78.111 -11.559999999999988 H23.67 L9.468 2.6420000000000137 Z M20.71125 -18.660999999999987 H78.111 Q78.111 -18.660999999999987 78.111 -18.660999999999987 Q78.111 -18.660999999999987 78.111 -18.660999999999987 V-66.00099999999999 Q78.111 -66.00099999999999 78.111 -66.00099999999999 Q78.111 -66.00099999999999 78.111 -66.00099999999999 H16.569 Q16.569 -66.00099999999999 16.569 -66.00099999999999 Q16.569 -66.00099999999999 16.569 -66.00099999999999 V-14.518749999999986 L20.71125 -18.660999999999987 Z"/></g><g id="Light-S" transform="matrix(1 0 0 1 1109.75 696)"><path d="M25.41507075 -26.748348624999984 H32.66006325 L55.283060250000005 -49.37134562499999 Q56.03408962500001 -50.12237499999999 56.03408962500001 -50.85831474999999 Q56.03408962500001 -51.59415587499999 55.283060250000005 -52.34528387499999 L50.913282375 -56.616338125 Q50.162253 -57.367367499999986 49.426411875 -57.367367499999986 Q48.690472125 -57.367367499999986 47.93944275 -56.616338125 L25.41507075 -33.993341124999986 V-26.748348624999984 Z M44.692411875 -26.748348624999984 H70.023651375 V-31.876651374999987 H49.82081325 L44.692411875 -26.748348624999984 Z M11.440598625000002 -1.151511999999986 V-64.78702487499999 Q11.440598625000002 -67.45068887499998 13.279954875000001 -69.29004512499999 Q15.119311125 -71.12940137499999 17.782975125 -71.12940137499999 H76.897024875 Q79.560688875 -71.12940137499999 81.400045125 -69.29004512499999 Q83.239401375 -67.45068887499998 83.239401375 -64.78702487499999 V-19.87497512499999 Q83.239401375 -17.211311124999987 81.400045125 -15.37195487499999 Q79.560688875 -13.532598624999984 76.897024875 -13.532598624999984 H23.821783875 L11.440598625000002 -1.151511999999986 Z M21.697598625 -18.660999999999987 H76.897024875 Q77.352277875 -18.660999999999987 77.73168825 -19.040311749999987 Q78.111 -19.419722124999986 78.111 -19.87497512499999 V-64.78702487499999 Q78.111 -65.24227787499998 77.73168825 -65.62168824999999 Q77.352277875 -66.00099999999999 76.897024875 -66.00099999999999 H17.782975125 Q17.327722125 -66.00099999999999 16.948311750000002 -65.62168824999999 Q16.569 -65.24227787499998 16.569 -64.78702487499999 V-13.494529374999988 L21.697598625 -18.660999999999987 Z"/></g><g id="Thin-S" transform="matrix(1 0 0 1 814.015 696)"><path d="M27.159747000000003 -27.73449999999999 H32.2807515 L54.448594125 -49.90234262499999 Q55.1617515 -50.61549999999999 55.1617515 -51.19965587499999 Q55.1617515 -51.78381174999999 54.448594125 -52.49696912499999 L51.823591125 -55.02334712499999 Q51.110532375 -55.73640587499999 50.526376500000005 -55.73640587499999 Q49.942122000000005 -55.73640587499999 49.22906325 -55.02334712499999 L27.159747000000003 -32.85540587499999 V-27.73449999999999 Z M46.285402875 -27.73449999999999 H69.03750000000001 V-30.89049999999999 H49.4415015 L46.285402875 -27.73449999999999 Z M13.413 -4.9445308749999874 V-63.57334562499999 Q13.413 -65.9714125 15.00579375 -67.56420625 Q16.5985875 -69.157 18.996654375000002 -69.157 H75.683345625 Q78.08141250000001 -69.157 79.67420625000001 -67.56420625 Q81.26700000000001 -65.9714125 81.26700000000001 -63.57334562499999 V-21.08865437499999 Q81.26700000000001 -18.69058749999999 79.67420625000001 -17.097793749999987 Q78.08141250000001 -15.504999999999988 75.683345625 -15.504999999999988 H23.973469125 L13.413 -4.9445308749999874 Z M22.68375 -18.660999999999987 H75.683345625 Q76.593654375 -18.660999999999987 77.3523765 -19.41962349999999 Q78.111 -20.178345624999984 78.111 -21.08865437499999 V-63.57334562499999 Q78.111 -64.48365437499999 77.3523765 -65.24237649999999 Q76.593654375 -66.00099999999999 75.683345625 -66.00099999999999 H18.996654375000002 Q18.086345625 -66.00099999999999 17.3276235 -65.24237649999999 Q16.569 -64.48365437499999 16.569 -63.57334562499999 V-12.470407374999986 L22.68375 -18.660999999999987 Z"/></g><g id="Ultralight-S" transform="matrix(1 0 0 1 517.792 696)"><path d="M28.20675 -28.326249999999987 H32.053125 L53.947875 -50.22099999999999 Q54.63825 -50.91137499999999 54.63825 -51.40449999999999 Q54.63825 -51.89762499999999 53.947875 -52.587999999999994 L52.369875 -54.067374999999984 Q51.679500000000004 -54.75774999999999 51.186375000000005 -54.75774999999999 Q50.69325 -54.75774999999999 50.002875 -54.067374999999984 L28.20675 -32.17262499999999 V-28.326249999999987 Z M47.241375000000005 -28.326249999999987 H68.44575 V-30.29874999999999 H49.213875 L47.241375000000005 -28.326249999999987 Z M14.5965 -7.220499999999987 V-62.844999999999985 Q14.5965 -65.0837875 16.04135625 -66.52864374999999 Q17.4862125 -67.97349999999999 19.725 -67.97349999999999 H74.955 Q77.19378750000001 -67.97349999999999 78.63864375 -66.52864374999999 Q80.0835 -65.0837875 80.0835 -62.844999999999985 V-21.816999999999986 Q80.0835 -19.57821249999999 78.63864375 -18.133356249999984 Q77.19378750000001 -16.688499999999987 74.955 -16.688499999999987 H24.064500000000002 L14.5965 -7.220499999999987 Z M23.2755 -18.660999999999987 H74.955 Q76.13850000000001 -18.660999999999987 77.12475 -19.64724999999999 Q78.111 -20.63349999999999 78.111 -21.816999999999986 V-62.844999999999985 Q78.111 -64.0285 77.12475 -65.01474999999999 Q76.13850000000001 -66.00099999999999 74.955 -66.00099999999999 H19.725 Q18.5415 -66.00099999999999 17.55525 -65.01474999999999 Q16.569 -64.0285 16.569 -62.844999999999985 V-11.855874999999987 L23.2755 -18.660999999999987 Z"/></g></g></svg>