<svg xmlns="http://www.w3.org/2000/svg" version="1.1" width="3300" height="2000"><g id="Notes"><style>
    text {
      font-family: monospace;
      text-anchor: middle;
    }
    text.emphasis {
      font-weight:bold;
    }
    text.lanchor {
      text-anchor: start;
    }
  </style><rect height="2200" id="artboard" fill="white" width="3300" x="0" y="0"/><line id="" style="fill:none;stroke:black;stroke-width:0.5;" x1="263" x2="3036" y1="292" y2="292"/><text class="lanchor emphasis" transform="matrix(1 0 0 1 263 322)">Weight/Scale Variations</text><text transform="matrix(1 0 0 1 559.711 322)">Ultralight</text><text transform="matrix(1 0 0 1 856.422 322)">Thin</text><text transform="matrix(1 0 0 1 1153.13 322)">Light</text><text transform="matrix(1 0 0 1 1449.84 322)">Regular</text><text transform="matrix(1 0 0 1 1746.56 322)">Medium</text><text transform="matrix(1 0 0 1 2043.27 322)">Semibold</text><text transform="matrix(1 0 0 1 2339.98 322)">Bold</text><text transform="matrix(1 0 0 1 2636.69 322)">Heavy</text><text transform="matrix(1 0 0 1 2933.4 322)">Black</text><text id="template-version" style="text-anchor: end;" transform="matrix(1 0 0 1 3036 1933)">Template v.1.0</text><text class="lanchor" transform="matrix(1 0 0 1 263 726)">Small</text><text class="lanchor" transform="matrix(1 0 0 1 263 1156)">Medium</text><text class="lanchor" transform="matrix(1 0 0 1 263 1586)">Large</text></g><g id="Guides"><g id="H-reference" style="fill:#27AAE1;stroke:none;" transform="matrix(1 0 0 1 339 696)"><path d="M 54.9316 0 L 57.666 0 L 30.5664 -70.459 L 28.0762 -70.459 L 0.976562 0 L 3.66211 0 L 12.9395 -24.4629 L 45.7031 -24.4629 Z M 29.1992 -67.0898 L 29.4434 -67.0898 L 44.8242 -26.709 L 13.8184 -26.709 Z"/></g><line id="Baseline-S" style="fill:none;stroke:#27AAE1;opacity:1;stroke-width:0.577;" x1="263" x2="3036" y1="696" y2="696"/><line id="Capline-S" style="fill:none;stroke:#27AAE1;opacity:1;stroke-width:0.577;" x1="263" x2="3036" y1="625.541" y2="625.541"/><g id="H-reference" style="fill:#27AAE1;stroke:none;" transform="matrix(1 0 0 1 339 1126)"><path d="M 54.9316 0 L 57.666 0 L 30.5664 -70.459 L 28.0762 -70.459 L 0.976562 0 L 3.66211 0 L 12.9395 -24.4629 L 45.7031 -24.4629 Z M 29.1992 -67.0898 L 29.4434 -67.0898 L 44.8242 -26.709 L 13.8184 -26.709 Z"/></g><line id="Baseline-M" style="fill:none;stroke:#27AAE1;opacity:1;stroke-width:0.577;" x1="263" x2="3036" y1="1126" y2="1126"/><line id="Capline-M" style="fill:none;stroke:#27AAE1;opacity:1;stroke-width:0.577;" x1="263" x2="3036" y1="1055.54" y2="1055.54"/><g id="H-reference" style="fill:#27AAE1;stroke:none;" transform="matrix(1 0 0 1 339 1556)"><path d="M 54.9316 0 L 57.666 0 L 30.5664 -70.459 L 28.0762 -70.459 L 0.976562 0 L 3.66211 0 L 12.9395 -24.4629 L 45.7031 -24.4629 Z M 29.1992 -67.0898 L 29.4434 -67.0898 L 44.8242 -26.709 L 13.8184 -26.709 Z"/></g><line id="Baseline-L" style="fill:none;stroke:#27AAE1;opacity:1;stroke-width:0.577;" x1="263" x2="3036" y1="1556" y2="1556"/><line id="Capline-L" style="fill:none;stroke:#27AAE1;opacity:1;stroke-width:0.577;" x1="263" x2="3036" y1="1485.54" y2="1485.54"/><rect height="119.336" id="left-margin" style="fill:darkred;stroke:none;opacity:0.4;" width="12.4512" x="1394.06" y="1030.79"/><rect height="119.336" id="right-margin" style="fill:darkgreen;stroke:none;opacity:0.4;" width="12.4512" x="1502.5112" y="1030.79"/><rect x="1406.5112" y="1045" width="96" height="96" fill="none" stroke="blue" stroke-dasharray="5"/><rect x="1394.06" y="1030.79" width="120.9024" height="119.336" fill="none" stroke="blue"/></g><g id="Symbols"><g id="Bold-L" transform="matrix(1 0 0 1 2266 1556)"><path d="M77.41467375 26.851250000000014 Q65.62875 26.851250000000014 55.389375 21.046250000000015 Q45.15 15.241250000000015 40.47375 4.437500000000014 H21.76875 V-7.172499999999985 H36.4425 Q35.4346875 -10.881249999999987 35.45484375 -14.670624999999987 Q35.475 -18.459999999999987 35.475 -22.329999999999984 H21.6075 V-33.93999999999998 H35.475 Q35.475 -38.13249999999999 35.53546875 -42.24437499999999 Q35.5959375 -46.35624999999999 36.765 -50.38749999999999 H21.76875 V-61.99749999999999 H41.6025 Q43.5375 -66.99624999999999 47.326875 -70.62437499999999 Q51.11625 -74.25249999999998 55.792500000000004 -76.67124999999999 L43.215 -88.92624999999998 L51.2775 -96.82749999999999 L66.435 -81.66999999999999 Q71.60257875 -83.92749999999998 77.08120875 -84.08874999999999 Q82.56 -84.24999999999999 87.88125000000001 -81.99249999999999 L103.2 -97.4725 L111.10125000000001 -89.57124999999999 L99.16875 -77.63874999999999 Q104.32875 -74.8975 108.14021625 -70.63211499999998 Q111.95184375 -66.36656874999998 114.32625 -61.02999999999999 H133.35375 V-50.38749999999999 H118.035 Q119.3653125 -46.409946249999976 119.34515625 -42.27130374999999 Q119.325 -38.13249999999999 119.325 -33.93999999999998 H133.35375 V-22.329999999999984 H119.325 Q119.325 -18.459999999999987 119.325 -14.697553749999983 Q119.325 -10.934946249999989 118.3575 -7.172499999999985 H133.35375 V4.418472500000014 H114.64875 Q109.81125 15.241250000000015 99.58654875 21.046250000000015 Q89.36200875 26.851250000000014 77.41467375 26.851250000000014 Z M77.4 11.693750000000016 Q89.01 11.693750000000016 96.508125 3.5980325000000164 Q104.00625000000001 -4.497846249999988 104.00625000000001 -16.041249999999984 V-40.22874999999999 Q104.00625000000001 -51.90518499999999 96.508125 -60.09571749999999 Q89.01 -68.28624999999998 77.4 -68.28624999999998 Q65.79 -68.28624999999998 58.291875000000005 -60.09571749999999 Q50.79375 -51.90518499999999 50.79375 -40.22874999999999 V-16.041249999999984 Q50.79375 -4.497846249999988 58.291875000000005 3.5980325000000164 Q65.79 11.693750000000016 77.4 11.693750000000016 Z M64.5 -8.462499999999984 H90.3 V-20.072499999999984 H64.5 V-8.462499999999984 Z M64.5 -36.358749999999986 H90.3 V-47.968749999999986 H64.5 V-36.358749999999986 Z"/></g><g id="Semibold-L" transform="matrix(1 0 0 1 1970.27 1556)"><path d="M77.40838500000001 25.098623750000016 Q66.1895775 25.098623750000016 56.47603875 19.644181250000017 Q46.762338750000005 14.189738750000018 42.22637625000001 4.016798750000014 H23.52137625 V-6.751798749999992 H38.26527 Q37.20489 -10.670979999999993 37.2161775 -14.670624999999987 Q37.22762625 -18.67026999999998 37.22762625 -22.750701249999977 H23.36012625 V-33.51929874999999 H37.22762625 Q37.22762625 -37.922229999999985 37.2968025 -42.24437499999999 Q37.36614 -46.56651999999998 38.58777 -50.808201249999996 H23.52137625 V-61.57679874999998 H43.144856250000004 Q45.21998250000001 -66.36527874999999 48.974366249999996 -69.88826874999998 Q52.72858875000001 -73.41125874999999 57.33485625 -75.75986499999998 L44.82733875 -88.01486499999999 L52.188885 -95.28514374999997 L67.346385 -80.12764374999998 Q72.23016375 -82.10472999999999 77.32501875000001 -82.19599749999998 Q82.4197125 -82.28710374999999 87.39056625 -80.31001749999999 L102.63917250000002 -95.64973 L109.90945125 -88.37945124999999 L97.836825 -76.30682499999999 Q102.71641125 -73.77584499999999 106.37807624999999 -69.85763124999998 Q110.03974125 -65.93925625 112.50348000000001 -61.02999999999999 H131.53098 V-50.808201249999996 H116.21223 Q117.59511 -46.59699624999999 117.54867000000002 -42.25953249999999 Q117.50223000000001 -37.922229999999985 117.50223000000001 -33.51929874999999 H131.53098 V-22.750701249999977 H117.50223000000001 Q117.50223000000001 -18.67026999999998 117.5373825 -14.685782499999988 Q117.57237375 -10.701294999999988 116.53473000000001 -6.751798749999992 H131.53098 V4.006156250000011 H112.82598 Q108.26889374999999 14.259721250000016 98.5285875 19.679172500000014 Q88.78828125 25.098623750000016 77.40838500000001 25.098623750000016 Z M77.4 12.324721250000017 Q89.01 12.324721250000017 96.82353 4.208363750000018 Q104.63722125000001 -3.9079937499999815 104.63722125000001 -15.480422499999982 V-40.85972124999999 Q104.63722125000001 -52.50729249999998 96.82353 -60.677184999999994 Q89.01 -68.84707749999998 77.4 -68.84707749999998 Q65.79 -68.84707749999998 57.97647 -60.677184999999994 Q50.16277875 -52.50729249999998 50.16277875 -40.85972124999999 V-15.480422499999982 Q50.16277875 -3.9079937499999815 57.97647 4.208363750000018 Q65.79 12.324721250000017 77.4 12.324721250000017 Z M64.5 -8.883201249999985 H90.3 V-19.65179874999999 H64.5 V-8.883201249999985 Z M64.5 -36.77945124999998 H90.3 V-47.54804874999998 H64.5 V-36.77945124999998 Z"/></g><g id="Medium-L" transform="matrix(1 0 0 1 1674.31 1556)"><path d="M77.4035475 23.783952500000016 Q66.61027875 23.783952500000016 57.29099625 18.592508750000015 Q47.971875000000004 13.400903750000012 43.5410475 3.7013937500000154 H24.8360475 V-6.436393749999986 H39.6323475 Q38.5326225 -10.513116249999982 38.53746 -14.670624999999987 Q38.5422975 -18.828133749999985 38.5422975 -23.06610624999999 H24.6747975 V-33.20389374999999 H38.5422975 Q38.5422975 -37.76436624999998 38.618085 -42.24437499999999 Q38.6938725 -46.72438374999999 39.9548475 -51.123606249999995 H24.8360475 V-61.26139374999998 H44.301663749999996 Q46.48208625 -65.89201 50.210025 -69.33614874999998 Q53.938125 -72.78028749999999 58.49166375 -75.07632625 L46.036875 -87.33132624999999 L52.87242375 -94.12833624999999 L68.02992375000001 -78.97083624999998 Q72.70101375 -80.73765249999998 77.50787625 -80.77619124999998 Q82.3145775 -80.81473 87.0224325 -79.04791374999999 L102.21847125000001 -94.28265249999998 L109.01548125000001 -87.48548124999999 L96.83772 -75.30771999999999 Q101.50687500000001 -72.93444249999999 105.05614874999999 -69.2766475 Q108.60542250000002 -65.61885249999999 111.1364025 -61.02999999999999 H130.1639025 V-51.123606249999995 H114.8451525 Q116.26737750000001 -46.737122499999984 116.201265 -42.25082499999998 Q116.1351525 -37.76436624999998 116.1351525 -33.20389374999999 H130.1639025 V-23.06610624999999 H116.1351525 Q116.1351525 -18.828133749999985 116.1964275 -14.677074999999988 Q116.2577025 -10.52601624999999 115.1676525 -6.436393749999986 H130.1639025 V3.6968787500000175 H111.4589025 Q107.11208625 13.523615000000017 97.73507625 18.653783750000017 Q88.35806625000001 23.783952500000016 77.4035475 23.783952500000016 Z M77.4 12.797990000000016 Q89.01 12.797990000000016 97.060245 4.666152500000017 Q105.11049 -3.4656849999999864 105.11049 -15.059721249999988 V-41.33298999999998 Q105.11049 -52.95879249999999 97.060245 -61.11336625 Q89.01 -69.26777874999999 77.4 -69.26777874999999 Q65.79 -69.26777874999999 57.739755 -61.11336625 Q49.68951 -52.95879249999999 49.68951 -41.33298999999998 V-15.059721249999988 Q49.68951 -3.4656849999999864 57.739755 4.666152500000017 Q65.79 12.797990000000016 77.4 12.797990000000016 Z M64.5 -9.198606249999983 H90.3 V-19.336393749999985 H64.5 V-9.198606249999983 Z M64.5 -37.09485624999999 H90.3 V-47.23264374999998 H64.5 V-37.09485624999999 Z"/></g><g id="Regular-L" transform="matrix(1 0 0 1 1378.56 1556)"><path d="M77.4 22.820000000000014 Q66.91875 22.820000000000014 57.88875 17.821250000000017 Q48.85875 12.822500000000016 44.505 3.470000000000013 H25.8 V-6.204999999999984 H40.635 Q39.50625 -10.397499999999987 39.50625 -14.670624999999987 Q39.50625 -18.943749999999987 39.50625 -23.297499999999985 H25.63875 V-32.97249999999998 H39.50625 Q39.50625 -37.64874999999999 39.586875 -42.24437499999999 Q39.667500000000004 -46.83999999999999 40.9575 -51.35499999999999 H25.8 V-61.02999999999999 H45.15 Q47.4075 -65.54499999999999 51.11625 -68.93124999999999 Q54.825 -72.31749999999998 59.34 -74.57499999999999 L46.92375 -86.82999999999998 L53.37375 -93.28 L68.53125 -78.12249999999999 Q73.04625 -79.73499999999999 77.641875 -79.73499999999999 Q82.2375 -79.73499999999999 86.7525 -78.12249999999999 L101.91 -93.28 L108.36 -86.82999999999998 L96.105 -74.57499999999999 Q100.62 -72.31749999999998 104.086875 -68.850625 Q107.55375000000001 -65.38374999999999 110.13375 -61.02999999999999 H129.16125 V-51.35499999999999 H113.8425 Q115.29375 -46.83999999999999 115.213125 -42.24437499999999 Q115.13250000000001 -37.64874999999999 115.13250000000001 -32.97249999999998 H129.16125 V-23.297499999999985 H115.13250000000001 Q115.13250000000001 -18.943749999999987 115.213125 -14.670624999999987 Q115.29375 -10.397499999999987 114.165 -6.204999999999984 H129.16125 V3.470000000000013 H110.45625 Q106.26375 12.983750000000015 97.153125 17.901875000000015 Q88.0425 22.820000000000014 77.4 22.820000000000014 Z M77.4 13.145000000000014 Q89.01 13.145000000000014 97.23375 5.0018750000000125 Q105.4575 -3.141249999999985 105.4575 -14.751249999999985 V-41.67999999999999 Q105.4575 -53.28999999999999 97.23375 -61.43312499999999 Q89.01 -69.57624999999999 77.4 -69.57624999999999 Q65.79 -69.57624999999999 57.566250000000004 -61.43312499999999 Q49.3425 -53.28999999999999 49.3425 -41.67999999999999 V-14.751249999999985 Q49.3425 -3.141249999999985 57.566250000000004 5.0018750000000125 Q65.79 13.145000000000014 77.4 13.145000000000014 Z M64.5 -9.429999999999986 H90.3 V-19.104999999999983 H64.5 V-9.429999999999986 Z M64.5 -37.32624999999999 H90.3 V-47.001249999999985 H64.5 V-37.32624999999999 Z"/></g><g id="Light-L" transform="matrix(1 0 0 1 1082.77 1556)"><path d="M77.4 19.594838750000015 Q67.78708125 19.594838750000015 59.56333125 14.968092500000019 Q51.33974250000001 10.341507500000017 47.17207500000001 1.857338750000011 H28.6531575 V-5.460669999999986 H43.98432375 Q42.60741000000001 -10.14933624999999 42.57645 -14.970388749999984 Q42.54549 -19.791441249999984 42.54549 -24.661997499999984 H28.5538275 V-31.980167499999993 H42.54549 Q42.54549 -37.090502499999985 42.56403375000001 -42.182293749999985 Q42.5825775 -47.27424624999999 44.24474250000001 -52.09932999999998 H28.6531575 V-59.417338749999985 H47.630992500000005 Q50.01249375 -63.99441999999999 53.814285000000005 -67.34970999999999 Q57.616076250000006 -70.70483875 62.2550775 -72.8383375 L49.77690750000001 -85.15541875 L54.61424625 -89.93067625 L69.27558 -75.2693425 Q73.43857125 -76.63383999999999 77.6209125 -76.63383999999999 Q81.80325375000001 -76.63383999999999 85.94625 -75.2693425 L100.66950375 -89.93067625 L105.5068425 -85.15541875 L93.18992250000001 -72.8383375 Q97.82892375 -70.70483875 101.40045 -67.2719875 Q104.971815 -63.839136249999996 107.52875625 -59.417338749999985 H126.24617250000001 V-52.09932999999998 H110.55525750000001 Q112.37867250000001 -47.27424624999999 112.26692625000001 -42.182293749999985 Q112.15534125 -37.090502499999985 112.15534125 -31.980167499999993 H126.24617250000001 V-24.661997499999984 H112.15534125 Q112.15534125 -19.791441249999984 112.17388500000001 -14.970388749999984 Q112.19259000000001 -10.14933624999999 110.81567625000001 -5.460669999999986 H126.24617250000001 V1.857338750000011 H107.727255 Q103.65875625000001 10.502757500000016 95.393565 15.048717500000016 Q87.12837375000001 19.594838750000015 77.4 19.594838750000015 Z M77.4054825 12.276668750000017 Q88.76183625 12.276668750000017 96.79950375 4.297535000000018 Q104.8373325 -3.681598749999985 104.8373325 -15.061333749999989 V-41.67999999999999 Q104.8373325 -53.05973499999999 96.79402125 -61.03886874999998 Q88.75087125 -69.0180025 77.3945175 -69.0180025 Q66.03816375 -69.0180025 58.00049625 -61.03886874999998 Q49.9626675 -53.05973499999999 49.9626675 -41.67999999999999 V-15.061333749999989 Q49.9626675 -3.681598749999985 58.00597875 4.297535000000018 Q66.04912875000001 12.276668750000017 77.4054825 12.276668750000017 Z M65.4923325 -11.04266124999998 H89.30766750000001 V-18.360669999999985 H65.4923325 V-11.04266124999998 Z M65.4923325 -38.38066374999998 H89.30766750000001 V-45.69867249999999 H65.4923325 V-38.38066374999998 Z"/></g><g id="Thin-L" transform="matrix(1 0 0 1 787.282 1556)"><path d="M77.4 16.370000000000015 Q68.65525125 16.370000000000015 61.23775125 12.115580000000016 Q53.820251250000005 7.8609987500000145 49.83866625 0.24500000000001165 H31.50567 V-4.716501249999986 H47.333002500000006 Q45.70808625 -9.901333749999985 45.64616625 -15.270152499999988 Q45.584085 -20.638971249999983 45.584085 -26.026333749999992 H31.4685825 V-30.98783499999999 H45.584085 Q45.584085 -36.53241624999998 45.54070875 -42.120373749999985 Q45.4973325 -47.708331249999986 47.531501250000005 -52.84349874999998 H31.50567 V-57.80499999999999 H50.11150125 Q52.61700375 -62.444001249999985 56.51183625 -65.76833124999999 Q60.40666875 -69.09249999999999 65.1698325 -71.10199749999998 L52.62942 -83.48099874999998 L55.85458125 -86.5819975 L70.01974875 -72.41682999999999 Q73.8308925 -73.53316374999999 77.60011125 -73.53316374999999 Q81.36916875 -73.53316374999999 85.14 -72.41682999999999 L99.42916875 -86.5819975 L102.65433 -83.48099874999998 L90.27516750000001 -71.10199749999998 Q95.03833125 -69.09249999999999 98.7143475 -65.69351125 Q102.39036375 -62.294683749999976 104.92424625 -57.80499999999999 H123.3314175 V-52.84349874999998 H107.26849875 Q109.46391750000001 -47.708331249999986 109.3213725 -42.120373749999985 Q109.17866625 -36.53241624999998 109.17866625 -30.98783499999999 H123.3314175 V-26.026333749999992 H109.17866625 Q109.17866625 -20.638971249999983 109.13529 -15.270152499999988 Q109.09191375 -9.901333749999985 107.4669975 -4.716501249999986 H123.3314175 V0.24500000000001165 H104.9985825 Q101.05424625 8.022248750000017 93.6343275 12.196205000000017 Q86.21440875 16.370000000000015 77.4 16.370000000000015 Z M77.410965 11.408498750000014 Q88.51383375 11.408498750000014 96.36541875 3.5931950000000157 Q104.21716500000001 -4.221947499999985 104.21716500000001 -15.371417499999986 V-41.67999999999999 Q104.21716500000001 -52.829469999999986 96.35445375 -60.644773749999985 Q88.49190375 -68.45991624999999 77.389035 -68.45991624999999 Q66.28616625000001 -68.45991624999999 58.43458125 -60.644773749999985 Q50.582835 -52.829469999999986 50.582835 -41.67999999999999 V-15.371417499999986 Q50.582835 -4.221947499999985 58.44554625 3.5931950000000157 Q66.30809625 11.408498750000014 77.410965 11.408498750000014 Z M66.484665 -12.654999999999987 H88.315335 V-17.616501249999985 H66.484665 V-12.654999999999987 Z M66.484665 -39.434916249999986 H88.315335 V-44.396417499999984 H66.484665 V-39.434916249999986 Z"/></g><g id="Ultralight-L" transform="matrix(1 0 0 1 491.205 1556)"><path d="M77.4 14.435000000000016 Q69.17625 14.435000000000016 62.2425 10.403750000000016 Q55.30875 6.3725000000000165 51.43875 -0.7224999999999824 H33.2175 V-4.269999999999982 H49.3425 Q47.56875 -9.752499999999984 47.488125000000004 -15.44994624999999 Q47.4075 -21.14755374999998 47.4075 -26.844999999999985 H33.2175 V-30.392499999999984 H47.4075 Q47.4075 -36.19749999999999 47.326875 -42.08312499999998 Q47.24625 -47.968749999999986 49.503750000000004 -53.28999999999999 H33.2175 V-56.83749999999999 H51.6 Q54.18 -61.51374999999999 58.130625 -64.819375 Q62.081250000000004 -68.12499999999999 66.91875 -70.05999999999999 L54.34125 -82.47625 L56.59875 -84.57249999999999 L70.46625 -70.70499999999998 Q74.06631750000001 -71.67249999999999 77.58753375 -71.67249999999999 Q81.10875 -71.67249999999999 84.65625 -70.70499999999998 L98.685 -84.57249999999999 L100.94250000000001 -82.47625 L88.52625 -70.05999999999999 Q93.36375 -68.12499999999999 97.10249250000001 -64.74649 Q100.84139625000002 -61.36781875 103.36125 -56.83749999999999 H121.58250000000001 V-53.28999999999999 H105.29625 Q107.715 -47.968749999999986 107.55375000000001 -42.08312499999998 Q107.3925 -36.19749999999999 107.3925 -30.392499999999984 H121.58250000000001 V-26.844999999999985 H107.3925 Q107.3925 -21.14755374999998 107.311875 -15.44994624999999 Q107.23125 -9.752499999999984 105.4575 -4.269999999999982 H121.58250000000001 V-0.7224999999999824 H103.36125 Q99.49125000000001 6.533750000000012 92.57862374999999 10.484375000000014 Q85.66583625 14.435000000000016 77.4 14.435000000000016 Z M77.41435125 10.887500000000014 Q88.36500000000001 10.887500000000014 96.105 3.170720000000017 Q103.845 -4.546059999999983 103.845 -15.557499999999983 V-41.67999999999999 Q103.845 -52.691278749999995 96.09064875 -60.408219999999986 Q88.33645875 -68.12499999999999 77.38564875 -68.12499999999999 Q66.435 -68.12499999999999 58.695 -60.408219999999986 Q50.955 -52.691278749999995 50.955 -41.67999999999999 V-15.557499999999983 Q50.955 -4.546059999999983 58.709351250000005 3.170720000000017 Q66.46354125 10.887500000000014 77.41435125 10.887500000000014 Z M67.08 -13.622499999999988 H87.72 V-17.169999999999987 H67.08 V-13.622499999999988 Z M67.08 -40.06749999999998 H87.72 V-43.61499999999998 H67.08 V-40.06749999999998 Z"/></g><g id="Bold-M" transform="matrix(1 0 0 1 2281.8 1126)"><path d="M60.00725 14.02000000000001 Q50.5 14.02000000000001 42.375 9.08250000000001 Q34.25 4.14500000000001 29.75 -4.22999999999999 H15.75 V-16.22999999999999 H26.125 Q25.84375 -18.188374999999986 25.796875 -20.146624999999993 Q25.75 -22.10499999999999 25.75 -24.22999999999999 H15.75 V-36.22999999999999 H25.75 Q25.75 -38.35499999999999 25.796875 -40.31337499999999 Q25.84375 -42.271624999999986 26.125 -44.22999999999999 H15.75 V-56.22999999999999 H30.375 Q31.625 -59.60499999999999 34.0 -62.29249999999999 Q36.375 -64.97999999999999 39.375 -67.10499999999999 L31.125 -75.35499999999999 L39.75 -83.85499999999999 L50.5 -73.10499999999999 Q54.75 -74.97999999999999 59.3125 -75.10499999999999 Q63.875 -75.22999999999999 68.125 -73.47999999999999 L79.375 -84.60499999999999 L87.875 -76.10499999999999 L79.875 -68.10499999999999 Q83.5 -65.72999999999999 86.125 -62.47999999999999 Q88.75 -59.22999999999999 90.375 -55.22999999999999 H104.25 V-44.22999999999999 H93.875 Q94.15625 -42.271624999999986 94.203125 -40.31337499999999 Q94.25 -38.35499999999999 94.25 -36.22999999999999 H104.25 V-24.22999999999999 H94.25 Q94.25 -22.10499999999999 94.125 -20.16749999999999 Q94.0 -18.22999999999999 93.75 -16.22999999999999 H104.25 V-4.22999999999999 H90.25 Q85.75 4.14500000000001 77.63225 9.08250000000001 Q69.5145 14.02000000000001 60.00725 14.02000000000001 Z M60.0 -1.7299999999999898 Q68.25 -1.7299999999999898 73.375 -7.568249999999992 Q78.5 -13.406624999999991 78.5 -21.60499999999999 V-38.72999999999999 Q78.5 -47.031499999999994 73.375 -52.94324999999999 Q68.25 -58.85499999999999 60.0 -58.85499999999999 Q51.75 -58.85499999999999 46.625 -52.94324999999999 Q41.5 -47.031499999999994 41.5 -38.72999999999999 V-21.60499999999999 Q41.5 -13.406624999999991 46.625 -7.568249999999992 Q51.75 -1.7299999999999898 60.0 -1.7299999999999898 Z M50.0 -14.22999999999999 H70.0 V-26.22999999999999 H50.0 V-14.22999999999999 Z M50.0 -34.22999999999999 H70.0 V-46.22999999999999 H50.0 V-34.22999999999999 Z"/></g><g id="Semibold-M" transform="matrix(1 0 0 1 1985.97 1126)"><path d="M60.004125 12.17225000000001 Q51.09775 12.17225000000001 43.489 7.642375000000012 Q35.880375 3.1125000000000114 31.59775 -4.664749999999991 H17.59775 V-15.795249999999989 H28.027 Q27.705 -17.989124999999987 27.651375 -20.18287499999999 Q27.59775 -22.376749999999987 27.59775 -24.66474999999999 H17.59775 V-35.79524999999999 H27.59775 Q27.59775 -38.08324999999999 27.651375 -40.277124999999984 Q27.705 -42.47087499999999 28.027 -44.664749999999984 H17.59775 V-55.795249999999996 H31.951 Q33.418375 -58.95287499999999 35.711875 -61.558874999999986 Q38.005375 -64.164875 40.951 -66.181125 L32.809625 -74.431125 L40.72825 -82.279 L51.47825 -71.529 Q55.402125 -73.07799999999999 59.557 -73.148625 Q63.712 -73.21924999999999 67.635875 -71.74099999999999 L78.77725 -82.70299999999999 L86.625125 -74.85512499999999 L78.516375 -66.74637499999999 Q81.815375 -64.58874999999999 84.3045 -61.69199999999999 Q86.793625 -58.795249999999996 88.473 -55.22999999999999 H102.40225 V-44.664749999999984 H91.973 Q92.295 -42.47087499999999 92.348625 -40.277124999999984 Q92.40225 -38.08324999999999 92.40225 -35.79524999999999 H102.40225 V-24.66474999999999 H92.40225 Q92.40225 -22.376749999999987 92.3045 -20.194624999999988 Q92.206625 -18.012624999999993 91.90225 -15.795249999999989 H102.40225 V-4.664749999999991 H88.40225 Q84.119625 3.1125000000000114 76.515 7.642375000000012 Q68.910375 12.17225000000001 60.004125 12.17225000000001 Z M60.0 -1.0778749999999881 Q68.25 -1.0778749999999881 73.701125 -6.9321249999999885 Q79.152125 -12.786374999999992 79.152125 -21.007249999999992 V-39.38212499999999 Q79.152125 -47.661249999999995 73.701125 -53.55699999999999 Q68.25 -59.452749999999995 60.0 -59.452749999999995 Q51.75 -59.452749999999995 46.298875 -53.55699999999999 Q40.847875 -47.661249999999995 40.847875 -39.38212499999999 V-21.007249999999992 Q40.847875 -12.786374999999992 46.298875 -6.9321249999999885 Q51.75 -1.0778749999999881 60.0 -1.0778749999999881 Z M50.0 -14.66474999999999 H70.0 V-25.79524999999999 H50.0 V-14.66474999999999 Z M50.0 -34.66474999999999 H70.0 V-45.795249999999996 H50.0 V-34.66474999999999 Z"/></g><g id="Medium-M" transform="matrix(1 0 0 1 1689.91 1126)"><path d="M60.00175 10.78637500000001 Q51.54625 10.78637500000001 44.32475 6.562125000000009 Q37.10325 2.3380000000000116 32.983625 -4.990874999999988 H18.983625 V-15.469124999999991 H29.45375 Q29.10125 -17.83962499999999 29.042375 -20.21012499999999 Q28.983625 -22.580499999999986 28.983625 -24.99087499999999 H18.983625 V-35.46912499999999 H28.983625 Q28.983625 -37.87949999999999 29.042375 -40.24987499999999 Q29.10125 -42.620374999999996 29.45375 -44.99087499999999 H18.983625 V-55.46912499999999 H33.133125 Q34.763625 -58.46374999999999 36.995875 -61.008499999999984 Q39.22825 -63.55337499999999 42.133125 -65.488125 L34.073375 -73.738125 L41.462 -81.09687499999998 L52.212 -70.34687499999998 Q55.89125 -71.65124999999999 59.7405 -71.681125 Q63.589625 -71.71099999999998 67.269 -70.4365 L78.32875 -81.27624999999999 L85.6875 -73.91749999999999 L77.49725 -65.72724999999998 Q80.551625 -63.732749999999996 82.938875 -61.10087499999999 Q85.326125 -58.46912499999999 87.04625 -55.22999999999999 H101.016375 V-44.99087499999999 H90.54625 Q90.89875 -42.620374999999996 90.957625 -40.24987499999999 Q91.016375 -37.87949999999999 91.016375 -35.46912499999999 H101.016375 V-24.99087499999999 H91.016375 Q91.016375 -22.580499999999986 90.938875 -20.21499999999999 Q90.861375 -17.84962499999999 90.516375 -15.469124999999991 H101.016375 V-4.990874999999988 H87.016375 Q82.89675 2.3380000000000116 75.677 6.562125000000009 Q68.45725 10.78637500000001 60.00175 10.78637500000001 Z M60.0 -0.5887499999999903 Q68.25 -0.5887499999999903 73.945625 -6.454874999999991 Q79.64125 -12.321124999999988 79.64125 -20.55874999999999 V-39.87124999999999 Q79.64125 -48.133624999999995 73.945625 -54.01737499999999 Q68.25 -59.90124999999999 60.0 -59.90124999999999 Q51.75 -59.90124999999999 46.054375 -54.01737499999999 Q40.35875 -48.133624999999995 40.35875 -39.87124999999999 V-20.55874999999999 Q40.35875 -12.321124999999988 46.054375 -6.454874999999991 Q51.75 -0.5887499999999903 60.0 -0.5887499999999903 Z M50.0 -14.990874999999988 H70.0 V-25.46912499999999 H50.0 V-14.990874999999988 Z M50.0 -34.99087499999999 H70.0 V-45.46912499999999 H50.0 V-34.99087499999999 Z"/></g><g id="Regular-M" transform="matrix(1 0 0 1 1394.06 1126)"><path d="M60.0 9.77000000000001 Q51.875 9.77000000000001 44.9375 5.77000000000001 Q38.0 1.7700000000000102 34.0 -5.22999999999999 H20.0 V-15.22999999999999 H30.5 Q30.125 -17.72999999999999 30.0625 -20.22999999999999 Q30.0 -22.72999999999999 30.0 -25.22999999999999 H20.0 V-35.22999999999999 H30.0 Q30.0 -37.72999999999999 30.0625 -40.22999999999999 Q30.125 -42.72999999999999 30.5 -45.22999999999999 H20.0 V-55.22999999999999 H34.0 Q35.75 -58.10499999999999 37.9375 -60.60499999999999 Q40.125 -63.10499999999999 43.0 -64.97999999999999 L35.0 -73.22999999999999 L42.0 -80.22999999999999 L52.75 -69.47999999999999 Q56.25 -70.60499999999999 59.875 -70.60499999999999 Q63.5 -70.60499999999999 67.0 -69.47999999999999 L78.0 -80.22999999999999 L85.0 -73.22999999999999 L76.75 -64.97999999999999 Q79.625 -63.10499999999999 81.9375 -60.66749999999999 Q84.25 -58.22999999999999 86.0 -55.22999999999999 H100.0 V-45.22999999999999 H89.5 Q89.875 -42.72999999999999 89.9375 -40.22999999999999 Q90.0 -37.72999999999999 90.0 -35.22999999999999 H100.0 V-25.22999999999999 H90.0 Q90.0 -22.72999999999999 89.9375 -20.22999999999999 Q89.875 -17.72999999999999 89.5 -15.22999999999999 H100.0 V-5.22999999999999 H86.0 Q82.0 1.7700000000000102 75.0625 5.77000000000001 Q68.125 9.77000000000001 60.0 9.77000000000001 Z M60.0 -0.22999999999998977 Q68.25 -0.22999999999998977 74.125 -6.10499999999999 Q80.0 -11.97999999999999 80.0 -20.22999999999999 V-40.22999999999999 Q80.0 -48.47999999999999 74.125 -54.35499999999999 Q68.25 -60.22999999999999 60.0 -60.22999999999999 Q51.75 -60.22999999999999 45.875 -54.35499999999999 Q40.0 -48.47999999999999 40.0 -40.22999999999999 V-20.22999999999999 Q40.0 -11.97999999999999 45.875 -6.10499999999999 Q51.75 -0.22999999999998977 60.0 -0.22999999999998977 Z M50.0 -15.22999999999999 H70.0 V-25.22999999999999 H50.0 V-15.22999999999999 Z M50.0 -35.22999999999999 H70.0 V-45.22999999999999 H50.0 V-35.22999999999999 Z"/></g><g id="Light-M" transform="matrix(1 0 0 1 1098.18 1126)"><path d="M60.0 7.26987500000001 Q52.548125 7.26987500000001 46.235625 3.6063750000000105 Q39.92325 -0.0569999999999915 36.21175 -6.48012499999999 H22.21175 V-13.979874999999993 H33.384875 Q32.625125 -17.05687499999999 32.562625 -20.20599999999999 Q32.500125 -23.35499999999999 32.500125 -26.480124999999987 H22.21175 V-33.97987499999999 H32.500125 Q32.500125 -37.15299999999999 32.514625 -40.30212499999999 Q32.529 -43.45124999999999 33.384875 -46.48012499999999 H22.21175 V-53.97987499999999 H36.21175 Q38.00975 -57.04724999999999 40.46175 -59.57124999999999 Q42.913625 -62.09524999999999 46.077125 -63.82612499999999 L37.596375 -72.46074999999999 L42.76925 -77.633625 L53.423125 -66.97987499999999 Q56.634625 -67.960625 59.923125 -67.960625 Q63.2115 -67.960625 66.423 -66.97987499999999 L77.326875 -77.633625 L82.499875 -72.46074999999999 L73.865125 -63.82612499999999 Q77.028625 -62.09524999999999 79.5095 -59.60974999999999 Q81.99025 -57.12412499999999 83.78825 -53.97987499999999 H97.78825 V-46.48012499999999 H86.615125 Q87.471 -43.45124999999999 87.485375 -40.30212499999999 Q87.499875 -37.15299999999999 87.499875 -33.97987499999999 H97.78825 V-26.480124999999987 H87.499875 Q87.499875 -23.35499999999999 87.437375 -20.20599999999999 Q87.374875 -17.05687499999999 86.615125 -13.979874999999993 H97.78825 V-6.48012499999999 H83.78825 Q80.07675 -0.0569999999999915 73.764375 3.6063750000000105 Q67.451875 7.26987500000001 60.0 7.26987500000001 Z M60.0 -0.22999999999998977 Q68.25 -0.22999999999998977 74.125 -6.10499999999999 Q80.0 -11.97999999999999 80.0 -20.22999999999999 V-40.22999999999999 Q80.0 -48.47999999999999 74.125 -54.35499999999999 Q68.25 -60.22999999999999 60.0 -60.22999999999999 Q51.75 -60.22999999999999 45.875 -54.35499999999999 Q40.0 -48.47999999999999 40.0 -40.22999999999999 V-20.22999999999999 Q40.0 -11.97999999999999 45.875 -6.10499999999999 Q51.75 -0.22999999999998977 60.0 -0.22999999999998977 Z M50.76925 -16.480124999999987 H69.23075 V-23.979874999999993 H50.76925 V-16.480124999999987 Z M50.76925 -36.48012499999999 H69.23075 V-43.97987499999999 H50.76925 V-36.48012499999999 Z"/></g><g id="Thin-M" transform="matrix(1 0 0 1 802.565 1126)"><path d="M60.0 4.77000000000001 Q53.221125 4.77000000000001 47.533625 1.443125000000009 Q41.846125 -1.883874999999989 38.423 -7.72999999999999 H24.423 V-12.72999999999999 H36.26925 Q35.125 -16.38387499999999 35.0625 -20.18187499999999 Q35.0 -23.97999999999999 35.0 -27.72999999999999 H24.423 V-32.72999999999999 H35.0 Q35.0 -36.57612499999999 34.966375 -40.37424999999999 Q34.932625 -44.17224999999999 36.26925 -47.72999999999999 H24.423 V-52.72999999999999 H38.423 Q40.26925 -55.98962499999999 42.9855 -58.53774999999999 Q45.701875 -61.08574999999999 49.15375 -62.67237499999999 L40.19225 -71.69149999999999 L43.5385 -75.03774999999999 L54.096125 -64.47999999999999 Q57.01925 -65.31662499999999 59.971125 -65.31662499999999 Q62.923125 -65.31662499999999 65.846125 -64.47999999999999 L76.653875 -75.03774999999999 L80.0 -71.69149999999999 L70.98075 -62.67237499999999 Q74.43275 -61.08574999999999 77.08175 -58.55212499999999 Q79.73075 -56.01849999999999 81.577 -52.72999999999999 H95.577 V-47.72999999999999 H83.73075 Q85.067375 -44.17224999999999 85.033625 -40.37424999999999 Q85.0 -36.57612499999999 85.0 -32.72999999999999 H95.577 V-27.72999999999999 H85.0 Q85.0 -23.97999999999999 84.9375 -20.18187499999999 Q84.875 -16.38387499999999 83.73075 -12.72999999999999 H95.577 V-7.72999999999999 H81.577 Q78.153875 -1.883874999999989 72.466375 1.443125000000009 Q66.778875 4.77000000000001 60.0 4.77000000000001 Z M60.0 -0.22999999999998977 Q68.25 -0.22999999999998977 74.125 -6.10499999999999 Q80.0 -11.97999999999999 80.0 -20.22999999999999 V-40.22999999999999 Q80.0 -48.47999999999999 74.125 -54.35499999999999 Q68.25 -60.22999999999999 60.0 -60.22999999999999 Q51.75 -60.22999999999999 45.875 -54.35499999999999 Q40.0 -48.47999999999999 40.0 -40.22999999999999 V-20.22999999999999 Q40.0 -11.97999999999999 45.875 -6.10499999999999 Q51.75 -0.22999999999998977 60.0 -0.22999999999998977 Z M51.5385 -17.72999999999999 H68.4615 V-22.72999999999999 H51.5385 V-17.72999999999999 Z M51.5385 -37.72999999999999 H68.4615 V-42.72999999999999 H51.5385 V-37.72999999999999 Z"/></g><g id="Ultralight-M" transform="matrix(1 0 0 1 506.415 1126)"><path d="M60.0 3.2700000000000102 Q53.625 3.2700000000000102 48.3125 0.14500000000001023 Q43.0 -2.9799999999999898 39.75 -8.47999999999999 H25.75 V-11.97999999999999 H38.0 Q36.625 -15.97999999999999 36.5625 -20.16749999999999 Q36.5 -24.35499999999999 36.5 -28.47999999999999 H25.75 V-31.97999999999999 H36.5 Q36.5 -36.22999999999999 36.4375 -40.41749999999999 Q36.375 -44.60499999999999 38.0 -48.47999999999999 H25.75 V-51.97999999999999 H39.75 Q41.625 -55.35499999999999 44.5 -57.91749999999999 Q47.375 -60.47999999999999 51.0 -61.97999999999999 L41.75 -71.22999999999999 L44.0 -73.47999999999999 L54.5 -62.97999999999999 Q57.25 -63.72999999999999 60.0 -63.72999999999999 Q62.75 -63.72999999999999 65.5 -62.97999999999999 L76.25 -73.47999999999999 L78.5 -71.22999999999999 L69.25 -61.97999999999999 Q72.875 -60.47999999999999 75.625 -57.91749999999999 Q78.375 -55.35499999999999 80.25 -51.97999999999999 H94.25 V-48.47999999999999 H82.0 Q83.625 -44.60499999999999 83.5625 -40.41749999999999 Q83.5 -36.22999999999999 83.5 -31.97999999999999 H94.25 V-28.47999999999999 H83.5 Q83.5 -24.35499999999999 83.4375 -20.16749999999999 Q83.375 -15.97999999999999 82.0 -11.97999999999999 H94.25 V-8.47999999999999 H80.25 Q77.0 -2.9799999999999898 71.6875 0.14500000000001023 Q66.375 3.2700000000000102 60.0 3.2700000000000102 Z M60.0 -0.22999999999998977 Q68.25 -0.22999999999998977 74.125 -6.10499999999999 Q80.0 -11.97999999999999 80.0 -20.22999999999999 V-40.22999999999999 Q80.0 -48.47999999999999 74.125 -54.35499999999999 Q68.25 -60.22999999999999 60.0 -60.22999999999999 Q51.75 -60.22999999999999 45.875 -54.35499999999999 Q40.0 -48.47999999999999 40.0 -40.22999999999999 V-20.22999999999999 Q40.0 -11.97999999999999 45.875 -6.10499999999999 Q51.75 -0.22999999999998977 60.0 -0.22999999999998977 Z M52.0 -18.47999999999999 H68.0 V-21.97999999999999 H52.0 V-18.47999999999999 Z M52.0 -38.47999999999999 H68.0 V-41.97999999999999 H52.0 V-38.47999999999999 Z"/></g><g id="Bold-S" transform="matrix(1 0 0 1 2294.23 696)"><path d="M47.34572025 1.2612500000000129 Q40.337625 1.2612500000000129 34.5680625 -2.6837499999999874 Q28.7985 -6.628749999999986 26.4315 -13.137999999999987 H15.58275 V-21.816999999999986 H24.952125000000002 Q25.02609375 -22.869032874999988 25.038421875 -23.92096712499999 Q25.05075 -24.972999999999985 25.05075 -26.156499999999987 H15.58275 V-34.83549999999999 H25.05075 Q25.05075 -36.01899999999999 25.038421875 -37.071032874999986 Q25.02609375 -38.12296712499999 24.952125000000002 -39.17499999999999 H15.58275 V-47.85399999999999 H26.924625000000002 Q27.319125 -50.81274999999999 29.222784750000002 -53.040787374999994 Q31.126345875000002 -55.26882474999999 33.5325 -57.02612499999999 L25.346625 -65.01474999999999 L31.658625 -71.22812499999999 L41.61975 -61.365624999999994 Q44.170192500000006 -62.45049999999999 46.93859625 -62.54912499999999 Q49.707 -62.64774999999999 52.27125 -61.66149999999999 L62.331 -71.819875 L68.544375 -65.60649999999998 L60.753 -57.815124999999995 Q63.613125000000004 -55.842624999999984 65.53631250000001 -53.130437499999985 Q67.4595 -50.418249999999986 68.347125 -47.06499999999999 H79.09725 V-39.17499999999999 H69.727875 Q69.65390625 -38.12296712499999 69.64157812500001 -37.071032874999986 Q69.62925 -36.01899999999999 69.62925 -34.83549999999999 H79.09725 V-26.156499999999987 H69.62925 Q69.62925 -24.972999999999985 69.5799375 -23.937437499999987 Q69.530625 -22.90187499999999 69.62925 -21.816999999999986 H79.09725 V-13.137999999999987 H68.2485 Q65.8815 -6.628749999999986 60.11765775 -2.6837499999999874 Q54.3538155 1.2612500000000129 47.34572025 1.2612500000000129 Z M47.34 -10.376499999999986 Q52.140571875 -10.376499999999986 54.96746025 -13.79937924999999 Q57.794250000000005 -17.222357124999988 57.9915 -22.11287499999999 V-38.78049999999999 Q58.188750000000006 -43.75238349999999 55.2793125 -47.23325424999999 Q52.369875 -50.71412499999999 47.3893125 -50.71412499999999 Q42.408750000000005 -50.71412499999999 39.5979375 -47.23325424999999 Q36.787125 -43.75238349999999 36.688500000000005 -38.78049999999999 V-22.11287499999999 Q36.589875 -17.222357124999988 39.45 -13.79937924999999 Q42.310125 -10.376499999999986 47.34 -10.376499999999986 Z M40.239000000000004 -20.23899999999999 H54.441 V-28.917999999999985 H40.239000000000004 V-20.23899999999999 Z M40.239000000000004 -32.07399999999999 H54.441 V-40.752999999999986 H40.239000000000004 V-32.07399999999999 Z"/></g><g id="Semibold-S" transform="matrix(1 0 0 1 1998.1 696)"><path d="M47.343254625 -0.19662474999998736 Q40.80924975 -0.19662474999998736 35.4470085 -3.8200086249999856 Q30.084865875000002 -7.443392499999987 27.889374749999998 -13.481017749999989 H17.040624750000003 V-21.473982249999985 H26.452803000000003 Q26.49462 -22.711824624999984 26.501622375000004 -23.949568374999984 Q26.50862475 -25.187410749999984 26.50862475 -26.49951774999999 H17.040624750000003 V-34.49248224999999 H26.50862475 Q26.50862475 -35.80458924999999 26.501622375000004 -37.04243162499999 Q26.49462 -38.28017537499999 26.452803000000003 -39.518017749999984 H17.040624750000003 V-47.51098224999999 H28.168089000000002 Q28.734097875 -50.29822337499999 30.573355499999998 -52.46195724999998 Q32.41271175 -54.62569112499999 34.775964 -56.29718762499999 L26.675794125 -64.28581262499999 L32.43046425000001 -69.98466099999999 L42.39158925 -60.12216099999999 Q44.68481775 -60.94982199999998 47.131605375 -61.005545125 Q49.578393000000005 -61.06126824999998 51.885330375 -60.289428999999984 L61.85937525 -70.31919699999999 L67.558223625 -64.62034862499999 L59.681044875 -56.74316987499999 Q62.283955875000004 -54.94217875 64.09993800000001 -52.50870549999999 Q65.91592012500001 -50.07523224999999 66.846447 -47.06499999999999 H77.63937525 V-39.518017749999984 H68.227197 Q68.18538000000001 -38.28017537499999 68.178377625 -37.04243162499999 Q68.17137525 -35.80458924999999 68.17137525 -34.49248224999999 H77.63937525 V-26.49951774999999 H68.17137525 Q68.17137525 -25.187410749999984 68.143563 -23.958839124999983 Q68.11565212500001 -22.73036612499999 68.17137525 -21.473982249999985 H77.63937525 V-13.481017749999989 H66.79062525 Q64.595134125 -7.443392499999987 59.2361475 -3.8200086249999856 Q53.877160875 -0.19662474999998736 47.343254625 -0.19662474999998736 Z M47.34 -9.861973374999987 Q52.140571875 -9.861973374999987 55.22467425000001 -13.297476624999991 Q58.308776625 -16.73297987499999 58.506026625000004 -21.64125024999999 V-39.295026624999984 Q58.703276625 -44.249256249999995 55.53662512500001 -47.71750299999999 Q52.369875 -51.18574974999999 47.3893125 -51.18574974999999 Q42.408750000000005 -51.18574974999999 39.340624875 -47.71750299999999 Q36.272598375 -44.249256249999995 36.173973375 -39.295026624999984 V-21.64125024999999 Q36.075348375000004 -16.73297987499999 39.192687375000006 -13.297476624999991 Q42.310125 -9.861973374999987 47.34 -9.861973374999987 Z M40.239000000000004 -20.58201774999999 H54.441 V-28.57498224999999 H40.239000000000004 V-20.58201774999999 Z M40.239000000000004 -32.41701774999999 H54.441 V-40.40998224999999 H40.239000000000004 V-32.41701774999999 Z"/></g><g id="Medium-S" transform="matrix(1 0 0 1 1701.85 696)"><path d="M47.341380750000006 -1.290080124999987 Q41.16311625 -1.290080124999987 36.106415250000005 -4.672325874999988 Q31.049714250000005 -8.054472999999987 28.982830125000003 -13.738330374999986 H18.134080125 V-21.216669624999987 H27.57850875 Q27.59626125 -22.59386912499999 27.599121375000003 -23.971068624999987 Q27.602080125000004 -25.348169499999983 27.602080125000004 -26.756830374999986 H18.134080125 V-34.23516962499999 H27.602080125000004 Q27.602080125000004 -35.64383049999999 27.599121375000003 -37.02093137499999 Q27.59626125 -38.39813087499999 27.57850875 -39.77533037499999 H18.134080125 V-47.25366962499999 H29.100785625 Q29.795500125 -49.91230374999999 31.586530125000003 -52.02771137499998 Q33.377560125 -54.14321762499999 35.708660625 -55.750410625 L27.672892875 -63.739035625 L33.009393 -69.05196437499998 L42.970518000000006 -59.189464374999986 Q45.070737375 -59.82411624999999 47.27628825 -59.84768762499999 Q49.481839125 -59.87125899999998 51.59586600000001 -59.260178499999995 L61.505508750000004 -69.19349125 L66.8184375 -63.880562499999996 L58.876955249999995 -55.93908024999999 Q61.286857125000004 -54.26679474999999 63.022459875 -52.04230787499999 Q64.75806262500001 -49.81791962499999 65.72074125 -47.06499999999999 H76.545919875 V-39.77533037499999 H67.10149125000001 Q67.08373875000001 -38.39813087499999 67.080878625 -37.02093137499999 Q67.077919875 -35.64383049999999 67.077919875 -34.23516962499999 H76.545919875 V-26.756830374999986 H67.077919875 Q67.077919875 -25.348169499999983 67.066084875 -23.97491499999999 Q67.054249875 -22.601759124999987 67.077919875 -21.216669624999987 H76.545919875 V-13.738330374999986 H65.697169875 Q63.63028575 -8.054472999999987 58.574965500000005 -4.672325874999988 Q53.51964525 -1.290080124999987 47.341380750000006 -1.290080124999987 Z M47.34 -9.476053749999988 Q52.140571875 -9.476053749999988 55.417683375 -12.92092637499999 Q58.69469625 -16.365897624999985 58.891946250000004 -21.28738374999999 V-39.68094624999999 Q59.08919625 -44.621960124999994 55.72953562500001 -48.08073887499999 Q52.369875 -51.53961624999999 47.3893125 -51.53961624999999 Q42.408750000000005 -51.53961624999999 39.147714375 -48.08073887499999 Q35.88667875 -44.621960124999994 35.78805375 -39.68094624999999 V-21.28738374999999 Q35.689428750000005 -16.365897624999985 38.999776875 -12.92092637499999 Q42.310125 -9.476053749999988 47.34 -9.476053749999988 Z M40.239000000000004 -20.83933037499999 H54.441 V-28.317669624999986 H40.239000000000004 V-20.83933037499999 Z M40.239000000000004 -32.67433037499999 H54.441 V-40.15266962499999 H40.239000000000004 V-32.67433037499999 Z"/></g><g id="Regular-S" transform="matrix(1 0 0 1 1405.73 696)"><path d="M47.34 -2.0919999999999863 Q41.4225 -2.0919999999999863 36.589875 -5.297312499999986 Q31.757250000000003 -8.502624999999988 29.784750000000003 -13.926999999999989 H18.936 V-21.027999999999984 H28.404 Q28.404 -22.50737499999999 28.404 -23.986749999999986 Q28.404 -25.46612499999999 28.404 -26.94549999999999 H18.936 V-34.04649999999999 H28.404 Q28.404 -35.525874999999985 28.404 -37.00524999999999 Q28.404 -38.48462499999999 28.404 -39.96399999999999 H18.936 V-47.06499999999999 H29.784750000000003 Q30.57375 -49.62924999999999 32.32947225 -51.70934987499999 Q34.085095875 -53.78944974999999 36.392625 -55.34949999999999 L28.404 -63.33812499999999 L33.433875 -68.368 L43.395 -58.505499999999984 Q45.3536925 -58.99862499999999 47.38240875 -58.99862499999999 Q49.411125000000006 -58.99862499999999 51.383625 -58.505499999999984 L61.246125 -68.368 L66.276 -63.33812499999999 L58.287375000000004 -55.34949999999999 Q60.55575 -53.77149999999999 62.232375000000005 -51.70037499999999 Q63.909000000000006 -49.62924999999999 64.89525 -47.06499999999999 H75.744 V-39.96399999999999 H66.276 Q66.276 -38.48462499999999 66.276 -37.00524999999999 Q66.276 -35.525874999999985 66.276 -34.04649999999999 H75.744 V-26.94549999999999 H66.276 Q66.276 -25.46612499999999 66.276 -23.986749999999986 Q66.276 -22.50737499999999 66.276 -21.027999999999984 H75.744 V-13.926999999999989 H64.89525 Q62.92275 -8.502624999999988 58.090125 -5.297312499999986 Q53.2575 -2.0919999999999863 47.34 -2.0919999999999863 Z M47.34 -9.192999999999987 Q52.140571875 -9.192999999999987 55.55921025 -12.644874999999988 Q58.97775 -16.096749999999986 59.175000000000004 -21.027999999999984 V-39.96399999999999 Q59.37225 -44.89524999999999 55.8710625 -48.34712499999999 Q52.369875 -51.79899999999999 47.3893125 -51.79899999999999 Q42.408750000000005 -51.79899999999999 39.0061875 -48.34712499999999 Q35.603625 -44.89524999999999 35.505 -39.96399999999999 V-21.027999999999984 Q35.406375000000004 -16.096749999999986 38.85825 -12.644874999999988 Q42.310125 -9.192999999999987 47.34 -9.192999999999987 Z M40.239000000000004 -21.027999999999984 H54.441 V-28.12899999999999 H40.239000000000004 V-21.027999999999984 Z M40.239000000000004 -32.862999999999985 H54.441 V-39.96399999999999 H40.239000000000004 V-32.862999999999985 Z"/></g><g id="Light-S" transform="matrix(1 0 0 1 1109.75 696)"><path d="M47.34 -4.064598624999988 Q41.953595625 -4.064598624999988 37.614095625 -7.004412624999986 Q33.27469425 -9.944127999999989 31.529820750000003 -14.913348624999987 H20.68107075 V-20.041651374999994 H30.680166375000002 Q30.376598625 -21.97627937499999 30.376598625 -23.96781399999999 Q30.376598625 -25.95924999999999 30.376598625 -27.931848624999986 H20.68107075 V-33.06015137499999 H30.376598625 Q30.376598625 -35.07062199999999 30.338726625000003 -37.062156624999986 Q30.300756000000003 -39.053691249999986 30.680166375000002 -40.95034862499999 H20.68107075 V-46.07865137499999 H31.529820750000003 Q32.35669275 -48.79468524999999 34.3211055 -50.89372112499999 Q36.285419625 -52.992757 38.820476625000005 -54.43909262499999 L30.452539875000003 -62.73118674999999 L34.04081325 -66.31946012499999 L43.926095625 -56.532901374999994 Q45.65726025 -56.912213124999994 47.420379375 -56.912213124999994 Q49.183498500000006 -56.912213124999994 50.928372 -56.532901374999994 L60.715029375 -66.31946012499999 L64.303401375 -62.73118674999999 L56.01120862500001 -54.43909262499999 Q58.50721012500001 -52.97480725 60.316683000000005 -50.86581024999999 Q62.12605725 -48.756714624999994 63.15017925000001 -46.07865137499999 H73.99892925 V-40.95034862499999 H63.99983362500001 Q64.379244 -39.053691249999986 64.341273375 -37.062156624999986 Q64.303401375 -35.07062199999999 64.303401375 -33.06015137499999 H73.99892925 V-27.931848624999986 H64.303401375 Q64.303401375 -25.95924999999999 64.303401375 -23.96781399999999 Q64.303401375 -21.97627937499999 63.99983362500001 -20.041651374999994 H73.99892925 V-14.913348624999987 H63.15017925000001 Q61.405305750000004 -9.944127999999989 57.065904375 -7.004412624999986 Q52.726404375 -4.064598624999988 47.34 -4.064598624999988 Z M47.34 -9.192999999999987 Q52.140571875 -9.192999999999987 55.55921025 -12.644874999999988 Q58.97775 -16.096749999999986 59.175000000000004 -21.027999999999984 V-39.96399999999999 Q59.37225 -44.89524999999999 55.8710625 -48.34712499999999 Q52.369875 -51.79899999999999 47.3893125 -51.79899999999999 Q42.408750000000005 -51.79899999999999 39.0061875 -48.34712499999999 Q35.603625 -44.89524999999999 35.505 -39.96399999999999 V-21.027999999999984 Q35.406375000000004 -16.096749999999986 38.85825 -12.644874999999988 Q42.310125 -9.192999999999987 47.34 -9.192999999999987 Z M40.84593825 -22.014348624999982 H53.834061750000004 V-27.142651374999993 H40.84593825 V-22.014348624999982 Z M40.84593825 -33.84934862499998 H53.834061750000004 V-38.97765137499999 H40.84593825 V-33.84934862499998 Z"/></g><g id="Thin-S" transform="matrix(1 0 0 1 814.015 696)"><path d="M47.34 -6.036999999999988 Q42.484592625000005 -6.036999999999988 38.638217625 -8.711216874999987 Q34.791842625 -11.385532374999986 33.274497000000004 -15.899499999999989 H22.425747 V-19.055499999999988 H32.95593825 Q32.349000000000004 -21.44528237499999 32.349000000000004 -23.948779374999987 Q32.349000000000004 -26.45237499999999 32.349000000000004 -28.917999999999985 H22.425747 V-32.07399999999999 H32.349000000000004 Q32.349000000000004 -34.61546762499999 32.273157375000004 -37.11906324999999 Q32.197216125000004 -39.62256024999999 32.95593825 -41.93649999999999 H22.425747 V-45.09249999999999 H33.274497000000004 Q34.13943825 -47.96021912499999 36.31234425 -50.07828962499999 Q38.485348875 -52.19626149999999 41.24793375 -53.52878387499999 L32.500685250000004 -62.12424849999999 L34.6477515 -64.27131474999999 L44.457092625 -54.56049999999999 Q45.96063075 -54.82609712499999 47.458251375 -54.82609712499999 Q48.955970625 -54.82609712499999 50.473217625000004 -54.56049999999999 L60.184032375 -64.27131474999999 L62.331 -62.12424849999999 L53.735436750000005 -53.52878387499999 Q56.45906475 -52.17831174999999 58.401188250000004 -50.03134412499999 Q60.343311750000005 -47.88437649999999 61.405503 -45.09249999999999 H72.254253 V-41.93649999999999 H61.724061750000004 Q62.482783875 -39.62256024999999 62.406842625 -37.11906324999999 Q62.331 -34.61546762499999 62.331 -32.07399999999999 H72.254253 V-28.917999999999985 H62.331 Q62.331 -26.45237499999999 62.331 -23.948779374999987 Q62.331 -21.44528237499999 61.724061750000004 -19.055499999999988 H72.254253 V-15.899499999999989 H61.405503 Q59.888157375 -11.385532374999986 56.041782375000004 -8.711216874999987 Q52.195407375 -6.036999999999988 47.34 -6.036999999999988 Z M47.34 -9.192999999999987 Q52.140571875 -9.192999999999987 55.55921025 -12.644874999999988 Q58.97775 -16.096749999999986 59.175000000000004 -21.027999999999984 V-39.96399999999999 Q59.37225 -44.89524999999999 55.8710625 -48.34712499999999 Q52.369875 -51.79899999999999 47.3893125 -51.79899999999999 Q42.408750000000005 -51.79899999999999 39.0061875 -48.34712499999999 Q35.603625 -44.89524999999999 35.505 -39.96399999999999 V-21.027999999999984 Q35.406375000000004 -16.096749999999986 38.85825 -12.644874999999988 Q42.310125 -9.192999999999987 47.34 -9.192999999999987 Z M41.4528765 -23.000499999999988 H53.227123500000005 V-26.156499999999987 H41.4528765 V-23.000499999999988 Z M41.4528765 -34.83549999999999 H53.227123500000005 V-37.99149999999999 H41.4528765 V-34.83549999999999 Z"/></g><g id="Ultralight-S" transform="matrix(1 0 0 1 517.792 696)"><path d="M47.34 -7.220499999999987 Q42.80325 -7.220499999999987 39.25275 -9.735437499999989 Q35.70225 -12.250374999999988 34.3215 -16.491249999999987 H23.47275 V-18.463749999999987 H34.3215 Q33.5325 -21.12662499999999 33.5325 -23.937437499999987 Q33.5325 -26.748249999999985 33.5325 -29.50974999999999 H23.47275 V-31.482249999999986 H33.5325 Q33.5325 -34.34237499999999 33.433875 -37.15318749999999 Q33.33525 -39.96399999999999 34.3215 -42.528249999999986 H23.47275 V-44.50074999999999 H34.3215 Q35.209125 -47.45949999999999 37.507284750000004 -49.58891237499999 Q39.805345875 -51.718324749999994 42.704625 -52.98249999999999 L33.72975 -61.76012499999999 L35.011875 -63.042249999999996 L44.77575 -53.376999999999995 Q46.1426925 -53.57424999999999 47.48103375 -53.57424999999999 Q48.819375 -53.57424999999999 50.200125 -53.376999999999995 L59.865375 -63.042249999999996 L61.1475 -61.76012499999999 L52.369875 -52.98249999999999 Q55.230000000000004 -51.70037499999999 57.2518125 -49.530624999999986 Q59.273625 -47.360874999999986 60.3585 -44.50074999999999 H71.20725 V-42.528249999999986 H60.3585 Q61.344750000000005 -39.96399999999999 61.246125 -37.15318749999999 Q61.1475 -34.34237499999999 61.1475 -31.482249999999986 H71.20725 V-29.50974999999999 H61.1475 Q61.1475 -26.748249999999985 61.1475 -23.937437499999987 Q61.1475 -21.12662499999999 60.3585 -18.463749999999987 H71.20725 V-16.491249999999987 H60.3585 Q58.97775 -12.250374999999988 55.42725 -9.735437499999989 Q51.87675 -7.220499999999987 47.34 -7.220499999999987 Z M47.34 -9.192999999999987 Q52.140571875 -9.192999999999987 55.55921025 -12.644874999999988 Q58.97775 -16.096749999999986 59.175000000000004 -21.027999999999984 V-39.96399999999999 Q59.37225 -44.89524999999999 55.8710625 -48.34712499999999 Q52.369875 -51.79899999999999 47.3893125 -51.79899999999999 Q42.408750000000005 -51.79899999999999 39.0061875 -48.34712499999999 Q35.603625 -44.89524999999999 35.505 -39.96399999999999 V-21.027999999999984 Q35.406375000000004 -16.096749999999986 38.85825 -12.644874999999988 Q42.310125 -9.192999999999987 47.34 -9.192999999999987 Z M41.817 -23.592249999999986 H52.863 V-25.56474999999999 H41.817 V-23.592249999999986 Z M41.817 -35.42724999999999 H52.863 V-37.39974999999999 H41.817 V-35.42724999999999 Z"/></g></g></svg>