<svg xmlns="http://www.w3.org/2000/svg" version="1.1" width="3300" height="2000"><g id="Notes"><style>
    text {
      font-family: monospace;
      text-anchor: middle;
    }
    text.emphasis {
      font-weight:bold;
    }
    text.lanchor {
      text-anchor: start;
    }
  </style><rect height="2200" id="artboard" fill="white" width="3300" x="0" y="0"/><line id="" style="fill:none;stroke:black;stroke-width:0.5;" x1="263" x2="3036" y1="292" y2="292"/><text class="lanchor emphasis" transform="matrix(1 0 0 1 263 322)">Weight/Scale Variations</text><text transform="matrix(1 0 0 1 559.711 322)">Ultralight</text><text transform="matrix(1 0 0 1 856.422 322)">Thin</text><text transform="matrix(1 0 0 1 1153.13 322)">Light</text><text transform="matrix(1 0 0 1 1449.84 322)">Regular</text><text transform="matrix(1 0 0 1 1746.56 322)">Medium</text><text transform="matrix(1 0 0 1 2043.27 322)">Semibold</text><text transform="matrix(1 0 0 1 2339.98 322)">Bold</text><text transform="matrix(1 0 0 1 2636.69 322)">Heavy</text><text transform="matrix(1 0 0 1 2933.4 322)">Black</text><text id="template-version" style="text-anchor: end;" transform="matrix(1 0 0 1 3036 1933)">Template v.1.0</text><text class="lanchor" transform="matrix(1 0 0 1 263 726)">Small</text><text class="lanchor" transform="matrix(1 0 0 1 263 1156)">Medium</text><text class="lanchor" transform="matrix(1 0 0 1 263 1586)">Large</text></g><g id="Guides"><g id="H-reference" style="fill:#27AAE1;stroke:none;" transform="matrix(1 0 0 1 339 696)"><path d="M 54.9316 0 L 57.666 0 L 30.5664 -70.459 L 28.0762 -70.459 L 0.976562 0 L 3.66211 0 L 12.9395 -24.4629 L 45.7031 -24.4629 Z M 29.1992 -67.0898 L 29.4434 -67.0898 L 44.8242 -26.709 L 13.8184 -26.709 Z"/></g><line id="Baseline-S" style="fill:none;stroke:#27AAE1;opacity:1;stroke-width:0.577;" x1="263" x2="3036" y1="696" y2="696"/><line id="Capline-S" style="fill:none;stroke:#27AAE1;opacity:1;stroke-width:0.577;" x1="263" x2="3036" y1="625.541" y2="625.541"/><g id="H-reference" style="fill:#27AAE1;stroke:none;" transform="matrix(1 0 0 1 339 1126)"><path d="M 54.9316 0 L 57.666 0 L 30.5664 -70.459 L 28.0762 -70.459 L 0.976562 0 L 3.66211 0 L 12.9395 -24.4629 L 45.7031 -24.4629 Z M 29.1992 -67.0898 L 29.4434 -67.0898 L 44.8242 -26.709 L 13.8184 -26.709 Z"/></g><line id="Baseline-M" style="fill:none;stroke:#27AAE1;opacity:1;stroke-width:0.577;" x1="263" x2="3036" y1="1126" y2="1126"/><line id="Capline-M" style="fill:none;stroke:#27AAE1;opacity:1;stroke-width:0.577;" x1="263" x2="3036" y1="1055.54" y2="1055.54"/><g id="H-reference" style="fill:#27AAE1;stroke:none;" transform="matrix(1 0 0 1 339 1556)"><path d="M 54.9316 0 L 57.666 0 L 30.5664 -70.459 L 28.0762 -70.459 L 0.976562 0 L 3.66211 0 L 12.9395 -24.4629 L 45.7031 -24.4629 Z M 29.1992 -67.0898 L 29.4434 -67.0898 L 44.8242 -26.709 L 13.8184 -26.709 Z"/></g><line id="Baseline-L" style="fill:none;stroke:#27AAE1;opacity:1;stroke-width:0.577;" x1="263" x2="3036" y1="1556" y2="1556"/><line id="Capline-L" style="fill:none;stroke:#27AAE1;opacity:1;stroke-width:0.577;" x1="263" x2="3036" y1="1485.54" y2="1485.54"/><rect height="119.336" id="left-margin" style="fill:darkred;stroke:none;opacity:0.4;" width="12.4512" x="1394.06" y="1030.79"/><rect height="119.336" id="right-margin" style="fill:darkgreen;stroke:none;opacity:0.4;" width="12.4512" x="1502.5112" y="1030.79"/><rect x="1406.5112" y="1045" width="96" height="96" fill="none" stroke="blue" stroke-dasharray="5"/><rect x="1394.06" y="1030.79" width="120.9024" height="119.336" fill="none" stroke="blue"/></g><g id="Symbols"><g id="Bold-L" transform="matrix(1 0 0 1 2266 1556)"><path d="M77.23875 24.432500000000015  28.86375 -1.851249999999986 V-40.55124999999998 L2.9025 -54.579999999999984 L77.23875 -95.05374999999998 L151.8975 -54.579999999999984 V-1.6899999999999835 H138.51375000000002 V-46.83999999999999 L125.775 -40.55124999999998 V-1.851249999999986 L77.23875 24.432500000000015 Z M77.23875 -29.263749999999987  123.5175 -54.579999999999984  77.23875 -79.4125  31.282500000000002 -54.579999999999984  77.23875 -29.263749999999987 Z M77.23875 9.275000000000013  112.23 -10.074999999999989 V-32.64999999999999 L77.23875 -14.106249999999989 L42.2475 -32.97249999999998 V-10.074999999999989 L77.23875 9.275000000000013 Z"/></g><g id="Semibold-L" transform="matrix(1 0 0 1 1970.27 1556)"><path d="M77.23875 23.731385000000017  29.564865000000005 -2.2719512499999794 V-40.97195124999999 L4.44485625 -54.579999999999984 L77.23875 -94.28265249999998 L150.35514375 -54.579999999999984 V-2.4610974999999797 H138.58389375 V-47.751385 L125.0039025 -40.97195124999999 V-2.2719512499999794 L77.23875 23.731385000000017 Z M77.23875 -28.212238749999983  125.48039625 -54.579999999999984  77.23875 -80.46401124999998  29.31960375 -54.579999999999984  77.23875 -28.212238749999983 Z M77.23875 10.396655000000013  113.14138500000001 -9.444028749999987 V-33.98192499999999 L77.23875 -14.877347499999985 L41.33611500000001 -34.30442499999998 V-9.444028749999987 L77.23875 10.396655000000013 Z"/></g><g id="Medium-L" transform="matrix(1 0 0 1 1674.31 1556)"><path d="M77.23875 23.205548750000016  30.090701250000002 -2.587356249999985 V-41.28735625 L5.601663749999999 -54.579999999999984 L77.23875 -93.70408749999999 L149.19833625 -54.579999999999984 V-3.0396624999999844 H138.63646125 V-48.43492374999998 L124.4253375 -41.28735625 V-2.587356249999985 L77.23875 23.205548750000016 Z M77.23875 -27.423403749999977  126.95277 -54.579999999999984  77.23875 -81.25284624999999  27.84723 -54.579999999999984  77.23875 -27.423403749999977 Z M77.23875 11.238057500000018  113.82492375 -8.970759999999984 V-34.98102999999999 L77.23875 -15.45591249999999 L40.65257625 -35.303529999999995 V-8.970759999999984 L77.23875 11.238057500000018 Z"/></g><g id="Regular-L" transform="matrix(1 0 0 1 1378.56 1556)"><path d="M77.23875 22.820000000000014  30.47625 -2.818749999999987 V-41.51874999999998 L6.45 -54.579999999999984 L77.23875 -93.28 L148.35 -54.579999999999984 V-3.4637499999999832 H138.675 V-48.93624999999999 L124.00125 -41.51874999999998 V-2.818749999999987 L77.23875 22.820000000000014 Z M77.23875 -26.844999999999985  128.0325 -54.579999999999984  77.23875 -81.83124999999998  26.767500000000002 -54.579999999999984  77.23875 -26.844999999999985 Z M77.23875 11.855000000000015  114.32625 -8.623749999999987 V-35.71374999999999 L77.23875 -15.879999999999988 L40.151250000000005 -36.03624999999998 V-8.623749999999987 L77.23875 11.855000000000015 Z"/></g><g id="Light-L" transform="matrix(1 0 0 1 1082.77 1556)"><path d="M77.30083125 15.377183750000015  34.19773875 -8.214819999999982 V-43.193331249999986 L13.14848625 -54.579999999999984 L77.30083125 -89.55851125000001 L141.6513525 -54.579999999999984 V-8.549736249999988 H134.33334375 V-50.300747499999986 L120.40392375 -43.193331249999986 V-8.214819999999982 L77.30083125 15.377183750000015 Z M77.30083125 -27.89941374999998  126.23375625000001 -54.579999999999984  77.30083125 -80.9008375  28.56624375 -54.579999999999984  77.30083125 -27.89941374999998 Z M77.30083125 7.079097500000017  113.08575375000001 -12.593241249999991 V-38.75298999999998 L77.30083125 -19.601488749999987 L41.515747499999996 -39.013408749999996 V-12.593241249999991 L77.30083125 7.079097500000017 Z"/></g><g id="Thin-L" transform="matrix(1 0 0 1 787.282 1556)"><path d="M77.36275125 7.935496250000014  37.9185825 -13.610083749999987 V-44.86775124999998 L19.846004999999998 -54.579999999999984 L77.36275125 -85.83766749999998 L134.953995 -54.579999999999984 V-13.634916249999982 H129.9923325 V-51.665083749999994 L116.80708125 -44.86775124999998 V-13.610083749999987 L77.36275125 7.935496250000014 Z M77.36275125 -28.953666249999984  124.43533500000001 -54.579999999999984  77.36275125 -79.97074749999999  30.364665 -54.579999999999984  77.36275125 -28.953666249999984 Z M77.36275125 2.304162500000018  111.84541875000001 -16.56208749999999 V-41.79158499999998 L77.36275125 -23.322332499999987 L42.880083750000004 -41.99008374999998 V-16.56208749999999 L77.36275125 2.304162500000018 Z"/></g><g id="Ultralight-L" transform="matrix(1 0 0 1 491.205 1556)"><path d="M77.4 3.470000000000013  40.151250000000005 -16.847499999999982 V-45.87249999999999 L23.865000000000002 -54.579999999999984 L77.4 -83.60499999999999 L130.935 -54.579999999999984 V-16.686249999999987 H127.3875 V-52.483749999999986 L114.64875 -45.87249999999999 V-16.847499999999982 L77.4 3.470000000000013 Z M77.4 -29.586249999999993  123.35625 -54.579999999999984  77.4 -79.4125  31.44375 -54.579999999999984  77.4 -29.586249999999993 Z M77.4 -0.5612499999999869  111.10125000000001 -18.943749999999987 V-43.61499999999998 L77.4 -25.554999999999993 L43.698750000000004 -43.77624999999999 V-18.943749999999987 L77.4 -0.5612499999999869 Z"/></g><g id="Bold-M" transform="matrix(1 0 0 1 2281.8 1126)"><path d="M60.0 11.52000000000001  23.25 -8.22999999999999 V-38.22999999999999 L1.375 -50.22999999999999 L60.0 -82.10499999999999 L118.625 -50.22999999999999 V-8.35499999999999 H104.75 V-42.60499999999999 L96.75 -38.22999999999999 V-8.22999999999999 L60.0 11.52000000000001 Z M60.0 -34.22999999999999  89.625 -50.22999999999999  60.0 -66.22999999999999  30.375 -50.22999999999999  60.0 -34.22999999999999 Z M60.0 -4.22999999999999  82.875 -16.60499999999999 V-30.72999999999999 L60.0 -18.35499999999999 L37.125 -30.72999999999999 V-16.60499999999999 L60.0 -4.22999999999999 Z"/></g><g id="Semibold-M" transform="matrix(1 0 0 1 1985.97 1126)"><path d="M60.0 10.75912500000001  24.010875 -8.66474999999999 V-38.66474999999999 L2.951 -50.22999999999999 L60.0 -81.289875 L117.049 -50.22999999999999 V-9.170124999999992 H104.85875 V-43.528874999999985 L95.989125 -38.66474999999999 V-8.66474999999999 L60.0 10.75912500000001 Z M60.0 -33.14312499999999  91.63575 -50.22999999999999  60.0 -67.316875  28.36425 -50.22999999999999  60.0 -33.14312499999999 Z M60.0 -3.0887499999999903  83.798875 -15.952874999999992 V-32.14299999999999 L60.0 -19.17012499999999 L36.201125 -32.14299999999999 V-15.952874999999992 L60.0 -3.0887499999999903 Z"/></g><g id="Medium-M" transform="matrix(1 0 0 1 1689.91 1126)"><path d="M60.0 10.18850000000001  24.5815 -8.990874999999988 V-38.99087499999999 L4.133125 -50.22999999999999 L60.0 -80.67837499999999 L115.866875 -50.22999999999999 V-9.781624999999991 H104.94025 V-44.22187499999998 L95.4185 -38.99087499999999 V-8.990874999999988 L60.0 10.18850000000001 Z M60.0 -32.32787499999999  93.144 -50.22999999999999  60.0 -68.13212499999999  26.856 -50.22999999999999  60.0 -32.32787499999999 Z M60.0 -2.2327499999999887  84.491875 -15.46374999999999 V-33.20274999999999 L60.0 -19.78162499999999 L35.508125 -33.20274999999999 V-15.46374999999999 L60.0 -2.2327499999999887 Z"/></g><g id="Regular-M" transform="matrix(1 0 0 1 1394.06 1126)"><path d="M60.0 9.77000000000001  25.0 -9.22999999999999 V-39.22999999999999 L5.0 -50.22999999999999 L60.0 -80.22999999999999 L115.0 -50.22999999999999 V-10.22999999999999 H105.0 V-44.72999999999999 L95.0 -39.22999999999999 V-9.22999999999999 L60.0 9.77000000000001 Z M60.0 -31.72999999999999  94.25 -50.22999999999999  60.0 -68.72999999999999  25.75 -50.22999999999999  60.0 -31.72999999999999 Z M60.0 -1.6049999999999898  85.0 -15.10499999999999 V-33.97999999999999 L60.0 -20.22999999999999 L35.0 -33.97999999999999 V-15.10499999999999 L60.0 -1.6049999999999898 Z"/></g><g id="Light-M" transform="matrix(1 0 0 1 1098.18 1126)"><path d="M60.0 4.000375000000009  27.500125 -13.65337499999999 V-40.768624999999986 L10.192625 -50.22999999999999 L60.0 -77.345125 L109.80725 -50.22999999999999 V-14.26874999999999 H102.3075 V-46.07624999999999 L92.499875 -40.768624999999986 V-13.65337499999999 L60.0 4.000375000000009 Z M60.0 -31.72999999999999  94.201875 -50.22999999999999  60.0 -68.72999999999999  25.798125 -50.22999999999999  60.0 -31.72999999999999 Z M60.0 -4.537874999999989  85.0 -18.037874999999993 V-36.76862499999999 L60.0 -23.11487499999999 L35.0 -36.76862499999999 V-18.037874999999993 L60.0 -4.537874999999989 Z"/></g><g id="Thin-M" transform="matrix(1 0 0 1 802.565 1126)"><path d="M60.0 -1.7683749999999883  30.0 -18.07612499999999 V-42.30687499999999 L15.3845 -50.22999999999999 L60.0 -74.46074999999999 L104.6155 -50.22999999999999 V-18.30687499999999 H99.615375 V-47.42224999999999 L90.0 -42.30687499999999 V-18.07612499999999 L60.0 -1.7683749999999883 Z M60.0 -31.72999999999999  94.153875 -50.22999999999999  60.0 -68.72999999999999  25.846125 -50.22999999999999  60.0 -31.72999999999999 Z M60.0 -7.47037499999999  85.0 -20.97037499999999 V-39.55687499999999 L60.0 -25.99924999999999 L35.0 -39.55687499999999 V-20.97037499999999 L60.0 -7.47037499999999 Z"/></g><g id="Ultralight-M" transform="matrix(1 0 0 1 506.415 1126)"><path d="M60.0 -5.22999999999999  31.5 -20.72999999999999 V-43.22999999999999 L18.5 -50.22999999999999 L60.0 -72.72999999999999 L101.5 -50.22999999999999 V-20.72999999999999 H98.0 V-48.22999999999999 L88.5 -43.22999999999999 V-20.72999999999999 L60.0 -5.22999999999999 Z M60.0 -31.72999999999999  94.125 -50.22999999999999  60.0 -68.72999999999999  25.875 -50.22999999999999  60.0 -31.72999999999999 Z M60.0 -9.22999999999999  85.0 -22.72999999999999 V-41.22999999999999 L60.0 -27.72999999999999 L35.0 -41.22999999999999 V-22.72999999999999 L60.0 -9.22999999999999 Z"/></g><g id="Bold-S" transform="matrix(1 0 0 1 2294.23 696)"><path d="M47.34 -0.7112499999999873  19.922250000000002 -14.321499999999986 V-37.99149999999999 L1.8738750000000002 -47.06499999999999 L47.34 -69.84737499999999 L92.80612500000001 -47.06499999999999 V-14.814624999999989 H82.64775 V-41.83787499999999 L74.75775 -37.99149999999999 V-14.321499999999986 L47.34 -0.7112499999999873 Z M47.34 -35.72312499999999  70.41825 -47.06499999999999  47.34 -58.406874999999985  24.261750000000003 -47.06499999999999  47.34 -35.72312499999999 Z M47.34 -12.15174999999999  64.59937500000001 -20.73212499999999 V-32.66574999999999 L47.34 -24.28262499999999 L30.080625 -32.66574999999999 V-20.73212499999999 L47.34 -12.15174999999999 Z"/></g><g id="Semibold-S" transform="matrix(1 0 0 1 1998.1 696)"><path d="M47.34 -1.311580374999986  20.522580375 -14.664517749999987 V-38.33451774999999 L3.1173390000000003 -47.06499999999999 L47.34 -69.204241375 L91.562661 -47.06499999999999 V-15.45775862499999 H82.73355375 V-42.566812374999984 L74.157419625 -38.33451774999999 V-14.664517749999987 L47.34 -1.311580374999986 Z M47.34 -34.865580624999986  72.00473175 -47.06499999999999  47.34 -59.26441937499999  22.67526825 -47.06499999999999  47.34 -34.865580624999986 Z M47.34 -11.251303749999988  65.328312375 -20.217598374999987 V-33.78060699999999 L47.34 -24.925758624999986 L29.351687625 -33.78060699999999 V-20.217598374999987 L47.34 -11.251303749999988 Z"/></g><g id="Medium-S" transform="matrix(1 0 0 1 1701.85 696)"><path d="M47.34 -1.761803499999985  20.9728035 -14.921830374999985 V-38.59183037499999 L4.050035625 -47.06499999999999 L47.34 -68.72176787499998 L90.629964375 -47.06499999999999 V-15.940232124999987 H82.79785725 V-43.11358937499998 L73.7071965 -38.59183037499999 V-14.921830374999985 L47.34 -1.761803499999985 Z M47.34 -34.22234837499999  73.19474100000001 -47.06499999999999  47.34 -59.907651624999986  21.485259000000003 -47.06499999999999  47.34 -34.22234837499999 Z M47.34 -10.575919749999986  65.875089375 -19.831678749999988 V-34.61674974999999 L47.34 -25.40823212499999 L28.804910625 -34.61674974999999 V-19.831678749999988 L47.34 -10.575919749999986 Z"/></g><g id="Regular-S" transform="matrix(1 0 0 1 1405.73 696)"><path d="M47.34 -2.0919999999999863  21.303 -15.110499999999988 V-38.78049999999999 L4.734 -47.06499999999999 L47.34 -68.368 L89.946 -47.06499999999999 V-16.293999999999986 H82.845 V-43.51449999999999 L73.37700000000001 -38.78049999999999 V-15.110499999999988 L47.34 -2.0919999999999863 Z M47.34 -33.750624999999985  74.067375 -47.06499999999999  47.34 -60.379374999999996  20.612625 -47.06499999999999  47.34 -33.750624999999985 Z M47.34 -10.080624999999987  66.276 -19.548624999999987 V-35.22999999999999 L47.34 -25.761999999999986 L28.404 -35.22999999999999 V-19.548624999999987 L47.34 -10.080624999999987 Z"/></g><g id="Light-S" transform="matrix(1 0 0 1 1109.75 696)"><path d="M47.34 -6.64423412499999  23.275598625 -18.600542874999988 V-39.99447512499999 L8.830981125 -47.06499999999999 L47.34 -66.09183362499999 L85.84892025 -47.06499999999999 V-19.480573749999987 H80.7206175 V-44.57669124999999 L71.404401375 -39.99447512499999 V-18.600542874999988 L47.34 -6.64423412499999 Z M47.34 -33.750624999999985  74.029404375 -47.06499999999999  47.34 -60.379374999999996  20.650595625 -47.06499999999999  47.34 -33.750624999999985 Z M47.34 -12.394663374999986  66.276 -21.86266337499999 V-37.43022512499999 L47.34 -28.03816637499999 L28.404 -37.43022512499999 V-21.86266337499999 L47.34 -12.394663374999986 Z"/></g><g id="Thin-S" transform="matrix(1 0 0 1 814.015 696)"><path d="M47.34 -11.195777874999987  25.248 -22.09009262499999 V-41.20815437499999 L12.9273705 -47.06499999999999 L47.34 -63.81606174999999 L81.7526295 -47.06499999999999 V-22.666654374999986 H78.596530875 V-45.63868524999999 L69.432 -41.20815437499999 V-22.09009262499999 L47.34 -11.195777874999987 Z M47.34 -33.750624999999985  73.991532375 -47.06499999999999  47.34 -60.379374999999996  20.688467625 -47.06499999999999  47.34 -33.750624999999985 Z M47.34 -14.708405874999986  66.276 -24.176405874999986 V-39.63015437499999 L47.34 -30.313938249999985 L28.404 -39.63015437499999 V-24.176405874999986 L47.34 -14.708405874999986 Z"/></g><g id="Ultralight-S" transform="matrix(1 0 0 1 517.792 696)"><path d="M47.34 -13.926999999999989  26.4315 -24.18399999999999 V-41.93649999999999 L15.3855 -47.06499999999999 L47.34 -62.45049999999999 L79.2945 -47.06499999999999 V-24.57849999999999 H77.322 V-46.27599999999999 L68.2485 -41.93649999999999 V-24.18399999999999 L47.34 -13.926999999999989 Z M47.34 -33.750624999999985  73.96875 -47.06499999999999  47.34 -60.379374999999996  20.71125 -47.06499999999999  47.34 -33.750624999999985 Z M47.34 -16.096749999999986  66.276 -25.56474999999999 V-40.95024999999999 L47.34 -31.67949999999999 L28.404 -40.95024999999999 V-25.56474999999999 L47.34 -16.096749999999986 Z"/></g></g></svg>