<svg xmlns="http://www.w3.org/2000/svg" version="1.1" width="3300" height="2000"><g id="Notes"><style>
    text {
      font-family: monospace;
      text-anchor: middle;
    }
    text.emphasis {
      font-weight:bold;
    }
    text.lanchor {
      text-anchor: start;
    }
  </style><rect height="2200" id="artboard" fill="white" width="3300" x="0" y="0"/><line id="" style="fill:none;stroke:black;stroke-width:0.5;" x1="263" x2="3036" y1="292" y2="292"/><text class="lanchor emphasis" transform="matrix(1 0 0 1 263 322)">Weight/Scale Variations</text><text transform="matrix(1 0 0 1 559.711 322)">Ultralight</text><text transform="matrix(1 0 0 1 856.422 322)">Thin</text><text transform="matrix(1 0 0 1 1153.13 322)">Light</text><text transform="matrix(1 0 0 1 1449.84 322)">Regular</text><text transform="matrix(1 0 0 1 1746.56 322)">Medium</text><text transform="matrix(1 0 0 1 2043.27 322)">Semibold</text><text transform="matrix(1 0 0 1 2339.98 322)">Bold</text><text transform="matrix(1 0 0 1 2636.69 322)">Heavy</text><text transform="matrix(1 0 0 1 2933.4 322)">Black</text><text id="template-version" style="text-anchor: end;" transform="matrix(1 0 0 1 3036 1933)">Template v.1.0</text><text class="lanchor" transform="matrix(1 0 0 1 263 726)">Small</text><text class="lanchor" transform="matrix(1 0 0 1 263 1156)">Medium</text><text class="lanchor" transform="matrix(1 0 0 1 263 1586)">Large</text></g><g id="Guides"><g id="H-reference" style="fill:#27AAE1;stroke:none;" transform="matrix(1 0 0 1 339 696)"><path d="M 54.9316 0 L 57.666 0 L 30.5664 -70.459 L 28.0762 -70.459 L 0.976562 0 L 3.66211 0 L 12.9395 -24.4629 L 45.7031 -24.4629 Z M 29.1992 -67.0898 L 29.4434 -67.0898 L 44.8242 -26.709 L 13.8184 -26.709 Z"/></g><line id="Baseline-S" style="fill:none;stroke:#27AAE1;opacity:1;stroke-width:0.577;" x1="263" x2="3036" y1="696" y2="696"/><line id="Capline-S" style="fill:none;stroke:#27AAE1;opacity:1;stroke-width:0.577;" x1="263" x2="3036" y1="625.541" y2="625.541"/><g id="H-reference" style="fill:#27AAE1;stroke:none;" transform="matrix(1 0 0 1 339 1126)"><path d="M 54.9316 0 L 57.666 0 L 30.5664 -70.459 L 28.0762 -70.459 L 0.976562 0 L 3.66211 0 L 12.9395 -24.4629 L 45.7031 -24.4629 Z M 29.1992 -67.0898 L 29.4434 -67.0898 L 44.8242 -26.709 L 13.8184 -26.709 Z"/></g><line id="Baseline-M" style="fill:none;stroke:#27AAE1;opacity:1;stroke-width:0.577;" x1="263" x2="3036" y1="1126" y2="1126"/><line id="Capline-M" style="fill:none;stroke:#27AAE1;opacity:1;stroke-width:0.577;" x1="263" x2="3036" y1="1055.54" y2="1055.54"/><g id="H-reference" style="fill:#27AAE1;stroke:none;" transform="matrix(1 0 0 1 339 1556)"><path d="M 54.9316 0 L 57.666 0 L 30.5664 -70.459 L 28.0762 -70.459 L 0.976562 0 L 3.66211 0 L 12.9395 -24.4629 L 45.7031 -24.4629 Z M 29.1992 -67.0898 L 29.4434 -67.0898 L 44.8242 -26.709 L 13.8184 -26.709 Z"/></g><line id="Baseline-L" style="fill:none;stroke:#27AAE1;opacity:1;stroke-width:0.577;" x1="263" x2="3036" y1="1556" y2="1556"/><line id="Capline-L" style="fill:none;stroke:#27AAE1;opacity:1;stroke-width:0.577;" x1="263" x2="3036" y1="1485.54" y2="1485.54"/><rect height="119.336" id="left-margin" style="fill:darkred;stroke:none;opacity:0.4;" width="12.4512" x="1394.06" y="1030.79"/><rect height="119.336" id="right-margin" style="fill:darkgreen;stroke:none;opacity:0.4;" width="12.4512" x="1502.5112" y="1030.79"/><rect x="1406.5112" y="1045" width="96" height="96" fill="none" stroke="blue" stroke-dasharray="5"/><rect x="1394.06" y="1030.79" width="120.9024" height="119.336" fill="none" stroke="blue"/></g><g id="Symbols"><g id="Bold-L" transform="matrix(1 0 0 1 2266 1556)"><path d="M77.88375 26.851250000000014 V11.693750000000016 H126.0975 Q126.0975 11.693750000000016 126.0975 11.693750000000016 Q126.0975 11.693750000000016 126.0975 11.693750000000016 V-82.15374999999999 Q126.0975 -82.15374999999999 126.0975 -82.15374999999999 Q126.0975 -82.15374999999999 126.0975 -82.15374999999999 H77.88375 V-97.4725 H126.0975 Q132.225 -97.4725 136.74 -92.99474874999999 Q141.255 -88.51715875 141.255 -82.15374999999999 V11.693750000000016 Q141.255 17.990562500000017 136.74 22.420906250000016 Q132.225 26.851250000000014 126.0975 26.851250000000014 H77.88375 Z M62.72625 -1.206249999999983  51.761250000000004 -11.848749999999988  67.4025 -27.65124999999999 H13.545 V-42.80874999999999 H67.08 L51.43875 -58.611249999999984 L62.40375 -69.25374999999998 L96.58875 -35.06874999999998 L62.72625 -1.206249999999983 Z"/></g><g id="Semibold-L" transform="matrix(1 0 0 1 1970.27 1556)"><path d="M78.30445125 25.098623750000016 V12.324721250000017 H125.9572125 Q125.9572125 12.324721250000017 125.9572125 12.324721250000017 Q125.9572125 12.324721250000017 125.9572125 12.324721250000017 V-82.78472124999999 Q125.9572125 -82.78472124999999 125.9572125 -82.78472124999999 Q125.9572125 -82.78472124999999 125.9572125 -82.78472124999999 H78.30445125 V-95.64973 H125.9572125 Q131.103345 -95.64973 134.91723000000002 -91.85696875 Q138.73127625 -88.06404624999999 138.73127625 -82.78472124999999 V12.324721250000017 Q138.73127625 17.566475000000015 134.91723000000002 21.332468750000015 Q131.103345 25.098623750000016 125.9572125 25.098623750000016 H78.30445125 Z M64.26860625 -3.729973749999985  55.05607125 -12.760134999999984  71.04787875000001 -28.843048749999994 H16.06872375 V-41.616951249999985 H70.72537875 L54.73357125 -57.699864999999974 L63.94610625 -66.73002625 L95.60722125000001 -35.06874999999998 L64.26860625 -3.729973749999985 Z"/></g><g id="Medium-L" transform="matrix(1 0 0 1 1674.31 1556)"><path d="M78.61985625 23.783952500000016 V12.797990000000016 H125.8520775 Q125.8520775 12.797990000000016 125.8520775 12.797990000000016 Q125.8520775 12.797990000000016 125.8520775 12.797990000000016 V-83.25798999999998 Q125.8520775 -83.25798999999998 125.8520775 -83.25798999999998 Q125.8520775 -83.25798999999998 125.8520775 -83.25798999999998 H78.61985625 V-94.28265249999998 H125.8520775 Q130.2619425 -94.28265249999998 133.5501525 -91.00331125 Q136.83820125 -87.72413124999997 136.83820125 -83.25798999999998 V12.797990000000016 Q136.83820125 17.248328750000017 133.5501525 20.516221250000015 Q130.2619425 23.783952500000016 125.8520775 23.783952500000016 H78.61985625 Z M65.42541375 -5.623048749999988  57.52771125 -13.443673749999988  73.78235625 -29.73701874999999 H17.96179875 V-40.72298124999999 H73.45985625 L57.205211250000005 -57.01632624999999 L65.10291375 -64.83695125 L94.87111499999999 -35.06874999999998 L65.42541375 -5.623048749999988 Z"/></g><g id="Regular-L" transform="matrix(1 0 0 1 1378.56 1556)"><path d="M78.85125000000001 22.820000000000014 V13.145000000000014 H125.775 Q125.775 13.145000000000014 125.775 13.145000000000014 Q125.775 13.145000000000014 125.775 13.145000000000014 V-83.60499999999999 Q125.775 -83.60499999999999 125.775 -83.60499999999999 Q125.775 -83.60499999999999 125.775 -83.60499999999999 H78.85125000000001 V-93.28 H125.775 Q129.645 -93.28 132.5475 -90.3775 Q135.45000000000002 -87.475 135.45000000000002 -83.60499999999999 V13.145000000000014 Q135.45000000000002 17.015000000000015 132.5475 19.917500000000015 Q129.645 22.820000000000014 125.775 22.820000000000014 H78.85125000000001 Z M66.27375 -7.011249999999983  59.34 -13.944999999999986  75.78750000000001 -30.392499999999984 H19.35 V-40.06749999999998 H75.465 L59.0175 -56.514999999999986 L65.95125 -63.44874999999999 L94.33125 -35.06874999999998 L66.27375 -7.011249999999983 Z"/></g><g id="Light-L" transform="matrix(1 0 0 1 1082.77 1556)"><path d="M77.734755 22.820000000000014 V15.501830000000016 H122.301675 Q123.04600500000001 15.501830000000016 123.6661725 14.881662500000015 Q124.28650125 14.261495000000018 124.28650125 13.517165000000013 V-80.7518425 Q124.28650125 -81.49617249999999 123.6661725 -82.11650124999998 Q123.04600500000001 -82.73666874999999 122.301675 -82.73666874999999 H77.734755 V-90.05483874999999 H122.301675 Q126.09572625000001 -90.05483874999999 128.8500375 -87.30036625 Q131.60451 -84.54589374999999 131.60451 -80.7518425 V13.517165000000013 Q131.60451 17.31121625000001 128.8500375 20.065527500000016 Q126.09572625000001 22.820000000000014 122.301675 22.820000000000014 H77.734755 Z M69.74707500000001 -9.05799624999998  64.48790625000001 -14.255083749999983  80.1912375 -29.958253749999983 H23.195490000000003 V-37.27642374999998 H79.93065750000001 L64.2274875 -52.97959374999999 L69.54857625000001 -58.23876249999999 L94.26916875 -33.518169999999984 L69.74707500000001 -9.05799624999998 Z"/></g><g id="Thin-L" transform="matrix(1 0 0 1 787.282 1556)"><path d="M76.6185825 22.820000000000014 V17.858498750000013 H118.82883375 Q120.3173325 17.858498750000013 121.55766750000001 16.618002500000017 Q122.79816375 15.377667500000015 122.79816375 13.889168750000017 V-77.89932999999999 Q122.79816375 -79.38766749999999 121.55766750000001 -80.62816374999998 Q120.3173325 -81.86849874999999 118.82883375 -81.86849874999999 H76.6185825 V-86.82999999999998 H118.82883375 Q122.54693625 -86.82999999999998 125.15338125 -84.22371624999998 Q127.759665 -81.61727124999999 127.759665 -77.89932999999999 V13.889168750000017 Q127.759665 17.607271250000014 125.15338125 20.213716250000015 Q122.54693625 22.820000000000014 118.82883375 22.820000000000014 H76.6185825 Z M73.21991625 -11.10441999999999  69.63516750000001 -14.565167499999987  84.59416875000001 -29.524168749999987 H27.040335000000002 V-34.48583124999999 H84.39567000000001 L69.43666875000001 -49.44483249999999 L73.14541875 -53.02958124999998 L94.20724875 -31.967751249999992 L73.21991625 -11.10441999999999 Z"/></g><g id="Ultralight-L" transform="matrix(1 0 0 1 491.205 1556)"><path d="M75.94875 22.820000000000014 V19.272500000000015 H116.745 Q118.68 19.272500000000015 120.2925 17.660000000000014 Q121.905 16.047500000000014 121.905 14.112500000000015 V-76.18749999999999 Q121.905 -78.12249999999999 120.2925 -79.73499999999999 Q118.68 -81.34749999999998 116.745 -81.34749999999998 H75.94875 V-84.89499999999998 H116.745 Q120.41746875 -84.89499999999998 122.93506500000001 -82.37756499999999 Q125.4525 -79.85996874999998 125.4525 -76.18749999999999 V14.112500000000015 Q125.4525 17.784968750000015 122.93506500000001 20.302403750000014 Q120.41746875 22.820000000000014 116.745 22.820000000000014 H75.94875 Z M75.30375000000001 -12.332499999999989  72.72375 -14.751249999999985  87.23625 -29.263749999999987 H29.3475 V-32.81124999999999 H87.075 L72.5625 -47.32374999999999 L75.30375000000001 -49.90374999999999 L94.17 -31.03749999999998 L75.30375000000001 -12.332499999999989 Z"/></g><g id="Bold-M" transform="matrix(1 0 0 1 2281.8 1126)"><path d="M59.0 14.02000000000001 V-1.7299999999999898 H95.25 Q95.25 -1.7299999999999898 95.25 -1.7299999999999898 Q95.25 -1.7299999999999898 95.25 -1.7299999999999898 V-68.72999999999999 Q95.25 -68.72999999999999 95.25 -68.72999999999999 Q95.25 -68.72999999999999 95.25 -68.72999999999999 H59.0 V-84.47999999999999 H95.25 Q101.875 -84.47999999999999 106.4375 -79.91749999999999 Q111.0 -75.35499999999999 111.0 -68.72999999999999 V-1.7299999999999898 Q111.0 4.89500000000001 106.4375 9.45750000000001 Q101.875 14.02000000000001 95.25 14.02000000000001 H59.0 Z M46.25 -4.22999999999999  35.25 -15.35499999999999  47.25 -27.35499999999999 H9.0 V-43.10499999999999 H47.25 L35.25 -55.10499999999999 L46.25 -66.22999999999999 L77.25 -35.22999999999999 L46.25 -4.22999999999999 Z"/></g><g id="Semibold-M" transform="matrix(1 0 0 1 1985.97 1126)"><path d="M59.43475 12.17225000000001 V-1.0778749999999881 H95.14125 Q95.14125 -1.0778749999999881 95.14125 -1.0778749999999881 Q95.14125 -1.0778749999999881 95.14125 -1.0778749999999881 V-69.38212499999999 Q95.14125 -69.38212499999999 95.14125 -69.38212499999999 Q95.14125 -69.38212499999999 95.14125 -69.38212499999999 H59.43475 V-82.63224999999998 H95.14125 Q100.679375 -82.63224999999998 104.5355 -78.77624999999999 Q108.3915 -74.92025 108.3915 -69.38212499999999 V-1.0778749999999881 Q108.3915 4.460250000000009 104.5355 8.31625000000001 Q100.679375 12.17225000000001 95.14125 12.17225000000001 H59.43475 Z M47.880375 -6.838499999999989  38.673625 -16.278874999999992  50.99975 -28.604874999999993 H11.6085 V-41.85512499999999 H50.99975 L38.673625 -54.181124999999994 L47.880375 -63.62149999999998 L76.27175 -35.22999999999999 L47.880375 -6.838499999999989 Z"/></g><g id="Medium-M" transform="matrix(1 0 0 1 1689.91 1126)"><path d="M59.760875 10.78637500000001 V-0.5887499999999903 H95.05975 Q95.05975 -0.5887499999999903 95.05975 -0.5887499999999903 Q95.05975 -0.5887499999999903 95.05975 -0.5887499999999903 V-69.87124999999999 Q95.05975 -69.87124999999999 95.05975 -69.87124999999999 Q95.05975 -69.87124999999999 95.05975 -69.87124999999999 H59.760875 V-81.24637499999999 H95.05975 Q99.782625 -81.24637499999999 103.10875 -77.92025 Q106.434875 -74.59412499999999 106.434875 -69.87124999999999 V-0.5887499999999903 Q106.434875 4.134125000000012 103.10875 7.460250000000009 Q99.782625 10.78637500000001 95.05975 10.78637500000001 H59.760875 Z M49.10325 -8.795124999999992  41.24175 -16.97187499999999  53.8125 -29.54249999999999 H13.565125 V-40.91749999999999 H53.8125 L41.24175 -53.488125 L49.10325 -61.664874999999995 L75.538 -35.22999999999999 L49.10325 -8.795124999999992 Z"/></g><g id="Regular-M" transform="matrix(1 0 0 1 1394.06 1126)"><path d="M60.0 9.77000000000001 V-0.22999999999998977 H95.0 Q95.0 -0.22999999999998977 95.0 -0.22999999999998977 Q95.0 -0.22999999999998977 95.0 -0.22999999999998977 V-70.22999999999999 Q95.0 -70.22999999999999 95.0 -70.22999999999999 Q95.0 -70.22999999999999 95.0 -70.22999999999999 H60.0 V-80.22999999999999 H95.0 Q99.125 -80.22999999999999 102.0625 -77.29249999999999 Q105.0 -74.35499999999999 105.0 -70.22999999999999 V-0.22999999999998977 Q105.0 3.8950000000000102 102.0625 6.83250000000001 Q99.125 9.77000000000001 95.0 9.77000000000001 H60.0 Z M50.0 -10.22999999999999  43.125 -17.47999999999999  55.875 -30.22999999999999 H15.0 V-40.22999999999999 H55.875 L43.125 -52.97999999999999 L50.0 -60.22999999999999 L75.0 -35.22999999999999 L50.0 -10.22999999999999 Z"/></g><g id="Light-M" transform="matrix(1 0 0 1 1098.18 1126)"><path d="M59.423 9.77000000000001 V2.270125000000011 H92.980625 Q93.557625 2.270125000000011 94.038375 1.7893750000000104 Q94.51925 1.30862500000001 94.51925 0.7316250000000117 V-68.691375 Q94.51925 -69.26837499999999 94.038375 -69.74924999999999 Q93.557625 -70.22999999999999 92.980625 -70.22999999999999 H59.423 V-77.72987499999999 H92.980625 Q96.769 -77.72987499999999 99.394 -75.10487499999999 Q102.019 -72.47987499999999 102.019 -68.691375 V0.7316250000000117 Q102.019 4.52000000000001 99.394 7.14500000000001 Q96.769 9.77000000000001 92.980625 9.77000000000001 H59.423 Z M53.077125 -12.633999999999993  47.885 -18.056999999999988  60.058 -30.22999999999999 H17.981 V-37.72987499999999 H60.058 L47.885 -49.902874999999995 L53.077125 -55.325749999999985 L74.423 -33.97987499999999 L53.077125 -12.633999999999993 Z"/></g><g id="Thin-M" transform="matrix(1 0 0 1 802.565 1126)"><path d="M58.846125 9.77000000000001 V4.77000000000001 H90.961625 Q92.115375 4.77000000000001 93.076875 3.8083750000000087 Q94.0385 2.8468750000000114 94.0385 1.693125000000009 V-67.15312499999999 Q94.0385 -68.30687499999999 93.076875 -69.26849999999999 Q92.115375 -70.22999999999999 90.961625 -70.22999999999999 H58.846125 V-75.22999999999999 H90.961625 Q94.4135 -75.22999999999999 96.726 -72.91749999999999 Q99.0385 -70.60499999999999 99.0385 -67.15312499999999 V1.693125000000009 Q99.0385 5.14500000000001 96.726 7.45750000000001 Q94.4135 9.77000000000001 90.961625 9.77000000000001 H58.846125 Z M56.15375 -15.037624999999991  52.644125 -18.63387499999999  64.240375 -30.22999999999999 H20.9615 V-35.22999999999999 H64.240375 L52.644125 -46.82624999999999 L56.15375 -50.42237499999999 L73.846125 -32.72999999999999 L56.15375 -15.037624999999991 Z"/></g><g id="Ultralight-M" transform="matrix(1 0 0 1 506.415 1126)"><path d="M58.5 9.77000000000001 V6.27000000000001 H89.75 Q91.25 6.27000000000001 92.5 5.02000000000001 Q93.75 3.7700000000000102 93.75 2.2700000000000102 V-66.22999999999999 Q93.75 -67.72999999999999 92.5 -68.97999999999999 Q91.25 -70.22999999999999 89.75 -70.22999999999999 H58.5 V-73.72999999999999 H89.75 Q93.0 -73.72999999999999 95.125 -71.60499999999999 Q97.25 -69.47999999999999 97.25 -66.22999999999999 V2.2700000000000102 Q97.25 5.52000000000001 95.125 7.64500000000001 Q93.0 9.77000000000001 89.75 9.77000000000001 H58.5 Z M58.0 -16.47999999999999  55.5 -18.97999999999999  66.75 -30.22999999999999 H22.75 V-33.72999999999999 H66.75 L55.5 -44.97999999999999 L58.0 -47.47999999999999 L73.5 -31.97999999999999 L58.0 -16.47999999999999 Z"/></g><g id="Bold-S" transform="matrix(1 0 0 1 2294.23 696)"><path d="M46.551 1.2612500000000129 V-10.376499999999986 H73.57425 Q73.57425 -10.376499999999986 73.57425 -10.376499999999986 Q73.57425 -10.376499999999986 73.57425 -10.376499999999986 V-60.08349999999999 Q73.57425 -60.08349999999999 73.57425 -60.08349999999999 Q73.57425 -60.08349999999999 73.57425 -60.08349999999999 H46.551 V-71.72124999999998 H73.57425 Q78.4759125 -71.72124999999998 81.84395625 -68.35320624999999 Q85.212 -64.9851625 85.212 -60.08349999999999 V-10.376499999999986 Q85.212 -5.474837499999989 81.84395625 -2.106793749999987 Q78.4759125 1.2612500000000129 73.57425 1.2612500000000129 H46.551 Z M37.28025 -13.926999999999989  28.99575 -22.01424999999999  36.392625 -29.41112499999999 H9.468 V-41.04887499999999 H36.392625 L28.99575 -48.44574999999999 L37.28025 -56.53299999999999 L58.58325 -35.22999999999999 L37.28025 -13.926999999999989 Z"/></g><g id="Semibold-S" transform="matrix(1 0 0 1 1998.1 696)"><path d="M46.89401775 -0.19662474999998736 V-9.861973374999987 H73.48844625000001 Q73.48844625000001 -9.861973374999987 73.48844625000001 -9.861973374999987 Q73.48844625000001 -9.861973374999987 73.48844625000001 -9.861973374999987 V-60.59802662499999 Q73.48844625000001 -60.59802662499999 73.48844625000001 -60.59802662499999 Q73.48844625000001 -60.59802662499999 73.48844625000001 -60.59802662499999 H46.89401775 V-70.26337524999998 H73.48844625000001 Q77.532564375 -70.26337524999998 80.34327825000001 -67.45276 Q83.1538935 -64.64214474999999 83.1538935 -60.59802662499999 V-9.861973374999987 Q83.1538935 -5.817855249999987 80.34327825000001 -3.007239999999987 Q77.532564375 -0.19662474999998736 73.48844625000001 -0.19662474999998736 H46.89401775 Z M38.566615875000004 -15.985106499999986  31.696990125000003 -22.74318737499999  39.35117775 -30.39727637499999 H11.5261065 V-40.06272362499999 H39.35117775 L31.696990125000003 -47.716812624999996 L38.566615875000004 -54.47489349999998 L57.81141075 -35.22999999999999 L38.566615875000004 -15.985106499999986 Z"/></g><g id="Medium-S" transform="matrix(1 0 0 1 1701.85 696)"><path d="M47.151330375 -1.290080124999987 V-9.476053749999988 H73.42414275 Q73.42414275 -9.476053749999988 73.42414275 -9.476053749999988 Q73.42414275 -9.476053749999988 73.42414275 -9.476053749999988 V-60.98394624999999 Q73.42414275 -60.98394624999999 73.42414275 -60.98394624999999 Q73.42414275 -60.98394624999999 73.42414275 -60.98394624999999 H47.151330375 V-69.16991987499999 H73.42414275 Q76.825028625 -69.16991987499999 79.2175725 -66.77737599999999 Q81.610116375 -64.38483212499999 81.610116375 -60.98394624999999 V-9.476053749999988 Q81.610116375 -6.075167874999988 79.2175725 -3.6826239999999864 Q76.825028625 -1.290080124999987 73.42414275 -1.290080124999987 H47.151330375 Z M39.531464250000006 -17.528883624999988  33.72324075 -23.28996437499999  41.570437500000004 -31.137062499999985 H13.069883625 V-39.32293749999999 H41.570437500000004 L33.72324075 -47.170035625 L39.531464250000006 -52.93111637499999 L57.232482 -35.22999999999999 L39.531464250000006 -17.528883624999988 Z"/></g><g id="Regular-S" transform="matrix(1 0 0 1 1405.73 696)"><path d="M47.34 -2.0919999999999863 V-9.192999999999987 H73.37700000000001 Q73.37700000000001 -9.192999999999987 73.37700000000001 -9.192999999999987 Q73.37700000000001 -9.192999999999987 73.37700000000001 -9.192999999999987 V-61.266999999999996 Q73.37700000000001 -61.266999999999996 73.37700000000001 -61.266999999999996 Q73.37700000000001 -61.266999999999996 73.37700000000001 -61.266999999999996 H47.34 V-68.368 H73.37700000000001 Q76.30616250000001 -68.368 78.39208125 -66.28208124999999 Q80.47800000000001 -64.1961625 80.47800000000001 -61.266999999999996 V-9.192999999999987 Q80.47800000000001 -6.263837499999987 78.39208125 -4.177918749999989 Q76.30616250000001 -2.0919999999999863 73.37700000000001 -2.0919999999999863 H47.34 Z M40.239000000000004 -18.660999999999987  35.209125 -23.69087499999999  43.19775 -31.67949999999999 H14.202 V-38.78049999999999 H43.19775 L35.209125 -46.76912499999999 L40.239000000000004 -51.79899999999999 L56.808 -35.22999999999999 L40.239000000000004 -18.660999999999987 Z"/></g><g id="Light-S" transform="matrix(1 0 0 1 1109.75 696)"><path d="M46.884747000000004 -2.0919999999999863 V-7.220401374999987 H71.783713125 Q72.238966125 -7.220401374999987 72.618277875 -7.599713124999987 Q72.99768825 -7.979024874999986 72.99768825 -8.434277874999985 V-60.05302487499999 Q72.99768825 -60.50827787499999 72.618277875 -60.88768824999998 Q72.238966125 -61.266999999999996 71.783713125 -61.266999999999996 H46.884747000000004 V-66.39540137499999 H71.783713125 Q74.4472785 -66.39540137499999 76.28663475 -64.556045125 Q78.12599100000001 -62.71668887499999 78.12599100000001 -60.05302487499999 V-8.434277874999985 Q78.12599100000001 -5.770712499999988 76.28663475 -3.931356249999986 Q74.4472785 -2.0919999999999863 71.783713125 -2.0919999999999863 H46.884747000000004 Z M42.66685162500001 -20.55775599999999  38.964765 -24.146127999999983  46.498137 -31.67949999999999 H16.554009 V-36.80790137499999 H46.498137 L38.964765 -44.34127337499999 L42.66685162500001 -47.929546749999986 L56.352747 -34.24365137499999 L42.66685162500001 -20.55775599999999 Z"/></g><g id="Thin-S" transform="matrix(1 0 0 1 814.015 696)"><path d="M46.429592625000005 -2.0919999999999863 V-5.247999999999987 H70.19072212500001 Q71.101030875 -5.247999999999987 71.859654375 -6.006722124999989 Q72.6183765 -6.765345624999988 72.6183765 -7.675654374999986 V-58.83934562499999 Q72.6183765 -59.74965437499999 71.859654375 -60.50837649999998 Q71.101030875 -61.266999999999996 70.19072212500001 -61.266999999999996 H46.429592625000005 V-64.42299999999999 H70.19072212500001 Q72.588789 -64.42299999999999 74.18158275 -62.83020624999999 Q75.7743765 -61.23741249999999 75.7743765 -58.83934562499999 V-7.675654374999986 Q75.7743765 -5.2775874999999886 74.18158275 -3.6847937499999883 Q72.588789 -2.0919999999999863 70.19072212500001 -2.0919999999999863 H46.429592625000005 Z M45.09430875 -22.454216124999988  42.719714625 -24.60128237499999  49.798030875 -31.67949999999999 H18.9056235 V-34.83549999999999 H49.798030875 L42.719714625 -41.91381624999999 L45.09430875 -44.060783874999984 L55.897592625 -33.257499999999986 L45.09430875 -22.454216124999988 Z"/></g><g id="Ultralight-S" transform="matrix(1 0 0 1 517.792 696)"><path d="M46.1565 -2.0919999999999863 V-4.064499999999988 H69.23475 Q70.41825 -4.064499999999988 71.4045 -5.0507499999999865 Q72.39075 -6.036999999999988 72.39075 -7.220499999999987 V-58.11099999999999 Q72.39075 -59.294499999999985 71.4045 -60.28074999999998 Q70.41825 -61.266999999999996 69.23475 -61.266999999999996 H46.1565 V-63.23949999999999 H69.23475 Q71.4735375 -63.23949999999999 72.91839375 -61.79464374999999 Q74.36325000000001 -60.34978749999999 74.36325000000001 -58.11099999999999 V-7.220499999999987 Q74.36325000000001 -4.98171249999999 72.91839375 -3.536856249999987 Q71.4735375 -2.0919999999999863 69.23475 -2.0919999999999863 H46.1565 Z M46.551 -23.592249999999986  44.973 -24.874374999999986  51.778125 -31.67949999999999 H20.316750000000003 V-33.65199999999999 H51.778125 L44.973 -40.45712499999999 L46.551 -41.73924999999999 L55.624500000000005 -32.66574999999999 L46.551 -23.592249999999986 Z"/></g></g></svg>