<svg xmlns="http://www.w3.org/2000/svg" version="1.1" width="3300" height="2000"><g id="Notes"><style>
    text {
      font-family: monospace;
      text-anchor: middle;
    }
    text.emphasis {
      font-weight:bold;
    }
    text.lanchor {
      text-anchor: start;
    }
  </style><rect height="2200" id="artboard" fill="white" width="3300" x="0" y="0"/><line id="" style="fill:none;stroke:black;stroke-width:0.5;" x1="263" x2="3036" y1="292" y2="292"/><text class="lanchor emphasis" transform="matrix(1 0 0 1 263 322)">Weight/Scale Variations</text><text transform="matrix(1 0 0 1 559.711 322)">Ultralight</text><text transform="matrix(1 0 0 1 856.422 322)">Thin</text><text transform="matrix(1 0 0 1 1153.13 322)">Light</text><text transform="matrix(1 0 0 1 1449.84 322)">Regular</text><text transform="matrix(1 0 0 1 1746.56 322)">Medium</text><text transform="matrix(1 0 0 1 2043.27 322)">Semibold</text><text transform="matrix(1 0 0 1 2339.98 322)">Bold</text><text transform="matrix(1 0 0 1 2636.69 322)">Heavy</text><text transform="matrix(1 0 0 1 2933.4 322)">Black</text><text id="template-version" style="text-anchor: end;" transform="matrix(1 0 0 1 3036 1933)">Template v.1.0</text><text class="lanchor" transform="matrix(1 0 0 1 263 726)">Small</text><text class="lanchor" transform="matrix(1 0 0 1 263 1156)">Medium</text><text class="lanchor" transform="matrix(1 0 0 1 263 1586)">Large</text></g><g id="Guides"><g id="H-reference" style="fill:#27AAE1;stroke:none;" transform="matrix(1 0 0 1 339 696)"><path d="M 54.9316 0 L 57.666 0 L 30.5664 -70.459 L 28.0762 -70.459 L 0.976562 0 L 3.66211 0 L 12.9395 -24.4629 L 45.7031 -24.4629 Z M 29.1992 -67.0898 L 29.4434 -67.0898 L 44.8242 -26.709 L 13.8184 -26.709 Z"/></g><line id="Baseline-S" style="fill:none;stroke:#27AAE1;opacity:1;stroke-width:0.577;" x1="263" x2="3036" y1="696" y2="696"/><line id="Capline-S" style="fill:none;stroke:#27AAE1;opacity:1;stroke-width:0.577;" x1="263" x2="3036" y1="625.541" y2="625.541"/><g id="H-reference" style="fill:#27AAE1;stroke:none;" transform="matrix(1 0 0 1 339 1126)"><path d="M 54.9316 0 L 57.666 0 L 30.5664 -70.459 L 28.0762 -70.459 L 0.976562 0 L 3.66211 0 L 12.9395 -24.4629 L 45.7031 -24.4629 Z M 29.1992 -67.0898 L 29.4434 -67.0898 L 44.8242 -26.709 L 13.8184 -26.709 Z"/></g><line id="Baseline-M" style="fill:none;stroke:#27AAE1;opacity:1;stroke-width:0.577;" x1="263" x2="3036" y1="1126" y2="1126"/><line id="Capline-M" style="fill:none;stroke:#27AAE1;opacity:1;stroke-width:0.577;" x1="263" x2="3036" y1="1055.54" y2="1055.54"/><g id="H-reference" style="fill:#27AAE1;stroke:none;" transform="matrix(1 0 0 1 339 1556)"><path d="M 54.9316 0 L 57.666 0 L 30.5664 -70.459 L 28.0762 -70.459 L 0.976562 0 L 3.66211 0 L 12.9395 -24.4629 L 45.7031 -24.4629 Z M 29.1992 -67.0898 L 29.4434 -67.0898 L 44.8242 -26.709 L 13.8184 -26.709 Z"/></g><line id="Baseline-L" style="fill:none;stroke:#27AAE1;opacity:1;stroke-width:0.577;" x1="263" x2="3036" y1="1556" y2="1556"/><line id="Capline-L" style="fill:none;stroke:#27AAE1;opacity:1;stroke-width:0.577;" x1="263" x2="3036" y1="1485.54" y2="1485.54"/><rect height="119.336" id="left-margin" style="fill:darkred;stroke:none;opacity:0.4;" width="12.4512" x="1394.06" y="1030.79"/><rect height="119.336" id="right-margin" style="fill:darkgreen;stroke:none;opacity:0.4;" width="12.4512" x="1502.5112" y="1030.79"/><rect x="1406.5112" y="1045" width="96" height="96" fill="none" stroke="blue" stroke-dasharray="5"/><rect x="1394.06" y="1030.79" width="120.9024" height="119.336" fill="none" stroke="blue"/></g><g id="Symbols"><g id="Bold-L" transform="matrix(1 0 0 1 2266 1556)"><path d="M77.4 39.428750000000015  56.4375 18.466250000000016 H30.47625 Q24.1794375 18.466250000000016 19.74909375 13.907873750000014 Q15.31875 9.349497500000012 15.31875 3.147500000000015 V-90.69999999999999 Q15.31875 -96.99681249999998 19.74909375 -101.42715625 Q24.1794375 -105.85749999999999 30.47625 -105.85749999999999 H124.32375 Q130.52590874999999 -105.85749999999999 135.08412375 -101.42715625 Q139.6425 -96.99681249999998 139.6425 -90.69999999999999 V3.147500000000015 Q139.6425 9.349497500000012 135.08412375 13.907873750000014 Q130.52590874999999 18.466250000000016 124.32375 18.466250000000016 H98.52375 L77.4 39.428750000000015 Z M30.47625 3.147500000000015 H62.73544125 L77.4 17.982500000000016 L92.235 3.147500000000015 H124.32375 Q124.32375 3.147500000000015 124.32375 3.147500000000015 Q124.32375 3.147500000000015 124.32375 3.147500000000015 V-90.69999999999999 Q124.32375 -90.69999999999999 124.32375 -90.69999999999999 Q124.32375 -90.69999999999999 124.32375 -90.69999999999999 H30.47625 Q30.47625 -90.69999999999999 30.47625 -90.69999999999999 Q30.47625 -90.69999999999999 30.47625 -90.69999999999999 V3.147500000000015 Q30.47625 3.147500000000015 30.47625 3.147500000000015 Q30.47625 3.147500000000015 30.47625 3.147500000000015 Z M76.59826500000001 -7.011249999999983 Q79.49625 -7.011249999999983 81.75375 -9.222148749999988 Q84.01125 -11.433208749999984 84.01125 -14.46277374999999 Q84.01125 -17.492499999999986 81.749235 -19.669374999999988 Q79.48722000000001 -21.846249999999984 76.50861 -21.846249999999984 Q73.53 -21.846249999999984 71.353125 -19.635351249999985 Q69.17625 -17.42429124999999 69.17625 -14.394726249999984 Q69.17625 -11.364999999999988 71.3786025 -9.188124999999985 Q73.580955 -7.011249999999983 76.59826500000001 -7.011249999999983 Z M81.5925 -30.876249999999985 Q81.5925 -35.06874999999998 83.124375 -38.53562499999998 Q84.65625 -42.00249999999998 88.96501125 -46.15001124999999 Q93.2025 -50.38749999999999 95.29875 -54.54404124999999 Q97.395 -58.70058249999998 97.395 -63.87299874999998 Q97.395 -73.12374999999999 91.670625 -78.04187499999999 Q85.94625 -82.96 77.15441625 -82.96 Q68.11925625 -82.96 61.955797499999996 -78.12249999999999 Q55.792500000000004 -73.28499999999998 52.89 -66.18999999999998 L64.01625 -61.83624999999999 Q66.27375 -65.54499999999999 69.17608875 -68.28624999999998 Q72.0784275 -71.02749999999999 76.8082125 -71.02749999999999 Q80.9475 -71.02749999999999 83.124375 -68.79757375 Q85.30125 -66.56780874999998 85.30125 -63.105932499999994 Q85.30125 -60.22374999999998 83.608125 -57.563124999999985 Q81.915 -54.90249999999999 79.33500000000001 -52.32249999999999 Q72.72375 -45.87249999999999 71.353125 -42.08312499999998 Q69.9825 -38.29374999999999 69.9825 -30.876249999999985 H81.5925 Z"/></g><g id="Semibold-L" transform="matrix(1 0 0 1 1970.27 1556)"><path d="M77.4 37.816411250000016  57.138615 17.554865000000017 H29.84527875 Q24.603525 17.554865000000017 20.83753125 13.681317500000013 Q17.07137625 9.807931250000017 17.07137625 4.6898562500000125 V-90.41958624999998 Q17.07137625 -95.66134 20.83753125 -99.427495 Q24.603525 -103.19348875 29.84527875 -103.19348875 H124.95472125 Q130.07279625 -103.19348875 133.94634374999998 -99.427495 Q137.81973000000002 -95.66134 137.81973000000002 -90.41958624999998 V4.6898562500000125 Q137.81973000000002 9.807931250000017 133.94634374999998 13.681317500000013 Q130.07279625 17.554865000000017 124.95472125 17.554865000000017 H97.7526525 L77.4 37.816411250000016 Z M29.84527875 4.6898562500000125 H62.38101375 L77.4 19.805270000000014 L92.51541375000001 4.6898562500000125 H124.95472125 Q124.95472125 4.6898562500000125 124.95472125 4.6898562500000125 Q124.95472125 4.6898562500000125 124.95472125 4.6898562500000125 V-90.41958624999998 Q124.95472125 -90.41958624999998 124.95472125 -90.41958624999998 Q124.95472125 -90.41958624999998 124.95472125 -90.41958624999998 H29.84527875 Q29.84527875 -90.41958624999998 29.84527875 -90.41958624999998 Q29.84527875 -90.41958624999998 29.84527875 -90.41958624999998 V4.6898562500000125 Q29.84527875 4.6898562500000125 29.84527875 4.6898562500000125 Q29.84527875 4.6898562500000125 29.84527875 4.6898562500000125 Z M76.73855250000001 -6.5205662499999875 Q79.49625 -6.5205662499999875 81.54348 -8.543447499999985 Q83.59054875 -10.566167499999985 83.59054875 -13.39836249999999 Q83.59054875 -16.230557499999982 81.538965 -18.232314999999993 Q79.48722000000001 -20.233911249999984 76.68388875000001 -20.233911249999984 Q73.8805575 -20.233911249999984 71.87896125 -18.211029999999987 Q69.877365 -16.18814874999999 69.877365 -13.355953749999983 Q69.877365 -10.523758749999985 71.89524750000001 -8.522162499999986 Q73.91329125 -6.5205662499999875 76.73855250000001 -6.5205662499999875 Z M81.24194250000001 -30.385566249999982 Q81.24194250000001 -34.92846249999998 82.80897 -38.25521124999999 Q84.37583624999999 -41.581798749999976 88.54447125000002 -45.65932749999999 Q93.27264375 -50.38749999999999 95.36889375 -54.524529999999984 Q97.46514375 -58.661721249999985 97.46514375 -63.548402499999995 Q97.46514375 -72.49277874999999 91.84590375 -77.44605624999998 Q86.22666375000001 -82.39917249999999 77.22439875 -82.39917249999999 Q68.48142375 -82.39917249999999 62.452447500000005 -77.94722124999998 Q56.423471250000006 -73.49526999999998 53.591115 -66.47041374999999 L63.595548750000006 -62.467221249999994 Q65.85304875 -66.52652874999998 69.04999125 -69.09249999999999 Q72.24677249999999 -71.65847124999999 76.99542375 -71.65847124999999 Q81.57847125 -71.65847124999999 84.10590375 -69.27632499999999 Q86.633175 -66.89434 86.633175 -62.96774124999999 Q86.633175 -59.94333624999999 84.90505875000001 -57.14242374999998 Q83.17694250000001 -54.3416725 79.89582750000001 -51.13070124999999 Q73.56499125 -45.03125874999999 72.1242225 -41.13674874999998 Q70.683615 -37.242238749999984 70.683615 -30.385566249999982 H81.24194250000001 Z"/></g><g id="Medium-L" transform="matrix(1 0 0 1 1674.31 1556)"><path d="M77.4 36.60687500000002  57.66445125 16.871326250000017 H29.37201 Q24.92167125 16.871326250000017 21.65377875 13.511521250000015 Q18.3860475 10.151716250000014 18.3860475 5.846663750000019 V-90.20931625 Q18.3860475 -94.65965499999999 21.65377875 -97.92738624999998 Q24.92167125 -101.19527875 29.37201 -101.19527875 H125.42799 Q129.73288125 -101.19527875 133.09268624999999 -97.92738624999998 Q136.4526525 -94.65965499999999 136.4526525 -90.20931625 V5.846663750000019 Q136.4526525 10.151716250000014 133.09268624999999 13.511521250000015 Q129.73288125 16.871326250000017 125.42799 16.871326250000017 H97.1740875 L77.4 36.60687500000002 Z M29.37201 5.846663750000019 H62.114951250000004 L77.4 21.17234750000002 L92.72568375 5.846663750000019 H125.42799 Q125.42799 5.846663750000019 125.42799 5.846663750000019 Q125.42799 5.846663750000019 125.42799 5.846663750000019 V-90.20931625 Q125.42799 -90.20931625 125.42799 -90.20931625 Q125.42799 -90.20931625 125.42799 -90.20931625 H29.37201 Q29.37201 -90.20931625 29.37201 -90.20931625 Q29.37201 -90.20931625 29.37201 -90.20931625 V5.846663750000019 Q29.37201 5.846663750000019 29.37201 5.846663750000019 Q29.37201 5.846663750000019 29.37201 5.846663750000019 Z M76.8436875 -6.152432499999982 Q79.49625 -6.152432499999982 81.38561625 -8.034219999999983 Q83.27514375 -9.916007499999985 83.27514375 -12.600013749999981 Q83.27514375 -15.284019999999984 81.38110125 -17.15419749999998 Q79.48722000000001 -19.024374999999985 76.8153075 -19.024374999999985 Q74.143395 -19.024374999999985 72.2732175 -17.142587499999983 Q70.40320125 -15.260961249999987 70.40320125 -12.576793749999986 Q70.40320125 -9.892787499999983 72.2828925 -8.022609999999986 Q74.16258375 -6.152432499999982 76.8436875 -6.152432499999982 Z M80.979105 -30.017432499999984 Q80.979105 -34.82332749999999 82.57225500000001 -38.04494124999998 Q84.16556625 -41.26639374999998 88.228905 -45.29119374999998 Q93.32521125 -50.38749999999999 95.42146125 -54.51001749999999 Q97.51771124999999 -58.632534999999976 97.51771124999999 -63.30475374999999 Q97.51771124999999 -72.01951 91.97732250000001 -76.99907124999999 Q86.43693375000001 -81.97847124999998 77.2771275 -81.97847124999998 Q68.75313 -81.97847124999998 62.824935 -77.81580249999998 Q56.89674 -73.65313375 54.11695125 -66.68068374999999 L63.28014375 -62.94048999999998 Q65.53764375 -67.26263499999999 68.9553375 -69.69718749999998 Q72.3731925 -72.13173999999998 77.13571125 -72.13173999999998 Q82.05174000000001 -72.13173999999998 84.84201000000002 -69.63542874999997 Q87.63228000000001 -67.13911749999998 87.63228000000001 -62.86405749999999 Q87.63228000000001 -59.73306624999998 85.87788 -56.82701874999998 Q84.12348 -53.920971249999994 80.31652875 -50.23673124999999 Q74.19596250000001 -44.40028749999999 72.7027875 -40.426764999999975 Q71.20945125 -36.45340374999998 71.20945125 -30.017432499999984 H80.979105 Z"/></g><g id="Regular-L" transform="matrix(1 0 0 1 1378.56 1556)"><path d="M77.4 35.72000000000001  58.050000000000004 16.370000000000015 H29.025000000000002 Q25.155 16.370000000000015 22.2525 13.386875000000014 Q19.35 10.403750000000016 19.35 6.6950000000000145 V-90.05499999999998 Q19.35 -93.92499999999998 22.2525 -96.82749999999999 Q25.155 -99.72999999999999 29.025000000000002 -99.72999999999999 H125.775 Q129.48375000000001 -99.72999999999999 132.46687500000002 -96.82749999999999 Q135.45000000000002 -93.92499999999998 135.45000000000002 -90.05499999999998 V6.6950000000000145 Q135.45000000000002 10.403750000000016 132.46687500000002 13.386875000000014 Q129.48375000000001 16.370000000000015 125.775 16.370000000000015 H96.75 L77.4 35.72000000000001 Z M29.025000000000002 6.6950000000000145 H61.92 L77.4 22.175000000000015 L92.88 6.6950000000000145 H125.775 Q125.775 6.6950000000000145 125.775 6.6950000000000145 Q125.775 6.6950000000000145 125.775 6.6950000000000145 V-90.05499999999998 Q125.775 -90.05499999999998 125.775 -90.05499999999998 Q125.775 -90.05499999999998 125.775 -90.05499999999998 H29.025000000000002 Q29.025000000000002 -90.05499999999998 29.025000000000002 -90.05499999999998 Q29.025000000000002 -90.05499999999998 29.025000000000002 -90.05499999999998 V6.6950000000000145 Q29.025000000000002 6.6950000000000145 29.025000000000002 6.6950000000000145 Q29.025000000000002 6.6950000000000145 29.025000000000002 6.6950000000000145 Z M76.920765 -5.882499999999986 Q79.49625 -5.882499999999986 81.27 -7.660764999999991 Q83.04375 -9.439029999999981 83.04375 -12.014514999999989 Q83.04375 -14.58999999999999 81.265485 -16.36374999999999 Q79.48722000000001 -18.13749999999999 76.911735 -18.13749999999999 Q74.33625 -18.13749999999999 72.5625 -16.359234999999984 Q70.78875000000001 -14.580969999999986 70.78875000000001 -12.005484999999979 Q70.78875000000001 -9.429999999999986 72.56701500000001 -7.656249999999986 Q74.34528 -5.882499999999986 76.920765 -5.882499999999986 Z M80.78625 -29.747499999999988 Q80.78625 -34.74624999999999 82.39875 -37.890624999999986 Q84.01125 -41.03499999999998 87.99751125 -45.02126124999998 Q93.36375 -50.38749999999999 95.46000000000001 -54.499374999999986 Q97.55625 -58.611249999999984 97.55625 -63.126249999999985 Q97.55625 -71.67249999999999 92.07375 -76.67124999999999 Q86.59125 -81.66999999999999 77.31566624999999 -81.66999999999999 Q68.95227375 -81.66999999999999 63.0980925 -77.71937499999999 Q57.24375 -73.76874999999998 54.502500000000005 -66.835 L63.04875 -63.28749999999998 Q65.30625 -67.80249999999998 68.886 -70.14062499999999 Q72.46575 -72.47874999999999 77.23875 -72.47874999999999 Q82.39875 -72.47874999999999 85.38187500000001 -69.89874999999999 Q88.36500000000001 -67.31874999999998 88.36500000000001 -62.78794749999999 Q88.36500000000001 -59.578749999999985 86.59125 -56.595624999999984 Q84.8175 -53.61249999999998 80.625 -49.58124999999998 Q74.65875 -43.937499999999986 73.126875 -39.906249999999986 Q71.595 -35.874999999999986 71.595 -29.747499999999988 H80.78625 Z"/></g><g id="Light-L" transform="matrix(1 0 0 1 1082.77 1556)"><path d="M77.4 31.130180000000017  59.4144975 13.144838750000016 H31.8781575 Q28.084106249999998 13.144838750000016 25.32963375 10.347635000000015 Q22.57516125 7.550592500000015 22.57516125 3.84184250000002 V-87.2018425 Q22.57516125 -90.99589375 25.32963375 -93.75036624999998 Q28.084106249999998 -96.50483875 31.8781575 -96.50483875 H122.92184250000001 Q126.6305925 -96.50483875 129.427635 -93.75036624999998 Q132.22483875 -90.99589375 132.22483875 -87.2018425 V3.84184250000002 Q132.22483875 7.550592500000015 129.427635 10.347635000000015 Q126.6305925 13.144838750000016 122.92184250000001 13.144838750000016 H95.3855025 L77.4 31.130180000000017 Z M31.8781575 5.826668750000017 H62.41616625 L77.4 20.810502500000016 L92.38383375000001 5.826668750000017 H122.92184250000001 Q123.79017375000001 5.826668750000017 124.34842125 5.26842125000001 Q124.90666875000001 4.710173750000017 124.90666875000001 3.84184250000002 V-87.2018425 Q124.90666875000001 -88.07017374999998 124.34842125 -88.62842125 Q123.79017375000001 -89.18666875 122.92184250000001 -89.18666875 H31.8781575 Q31.00982625 -89.18666875 30.451578750000003 -88.62842125 Q29.89333125 -88.07017374999998 29.89333125 -87.2018425 V3.84184250000002 Q29.89333125 4.710173750000017 30.451578750000003 5.26842125000001 Q31.00982625 5.826668750000017 31.8781575 5.826668750000017 Z M77.23084875 -7.743163749999987 Q79.37224875 -7.743163749999987 80.86687500000001 -9.231178749999984 Q82.36150125 -10.719193749999988 82.36150125 -12.882846249999986 Q82.36150125 -15.024246249999983 80.87348625 -16.549832499999987 Q79.38547125 -18.07541874999999 77.22181875 -18.07541874999999 Q75.08058 -18.07541874999999 73.5548325 -16.54531749999998 Q72.02924625 -15.01505499999999 72.02924625 -12.87381624999999 Q72.02924625 -10.732577499999984 73.5593475 -9.237789999999983 Q75.08961000000001 -7.743163749999987 77.23084875 -7.743163749999987 Z M80.10400125 -30.119664999999983 Q80.1660825 -34.62224874999998 81.74746125 -37.549419999999984 Q83.32900125 -40.47675249999999 87.12918 -44.33901249999998 Q92.12325375 -49.333086249999994 94.15742250000001 -53.165837499999995 Q96.1917525 -56.998588749999996 96.1917525 -61.327506249999985 Q96.1917525 -69.37759 90.935325 -74.12833749999999 Q85.67905875 -78.87892375 77.4396675 -78.87892375 Q69.91364625 -78.87892375 64.57111125 -75.17646249999999 Q59.22857625 -71.47384 56.67340875000001 -65.59450374999999 L63.420915 -62.72925249999999 Q65.61633375 -66.93416874999998 68.95420875 -69.30325375 Q72.29208375 -71.67249999999999 77.30083125 -71.67249999999999 Q83.14308 -71.67249999999999 86.126205 -68.65825374999999 Q89.10933 -65.64416874999999 89.10933 -61.10885124999999 Q89.10933 -57.780006249999985 87.33558 -54.95200374999999 Q85.56183 -52.12400124999999 81.86549624999999 -48.588917499999994 Q76.14724875 -43.13124999999998 74.58441375 -39.254961249999994 Q73.02157875 -35.378833749999984 73.02157875 -30.119664999999983 H80.10400125 Z"/></g><g id="Thin-L" transform="matrix(1 0 0 1 787.282 1556)"><path d="M77.4 26.541166250000018  60.778833750000004 9.920000000000016 H34.730669999999996 Q31.01272875 9.920000000000016 28.406283750000004 7.309040000000017 Q25.8 4.698080000000019 25.8 0.9893300000000167 V-84.34932999999998 Q25.8 -88.06727124999998 28.406283750000004 -90.67371624999998 Q31.01272875 -93.28 34.730669999999996 -93.28 H120.06933000000001 Q123.77808 -93.28 126.38904000000001 -90.67371624999998 Q129.0 -88.06727124999998 129.0 -84.34932999999998 V0.9893300000000167 Q129.0 4.698080000000019 126.38904000000001 7.309040000000017 Q123.77808 9.920000000000016 120.06933000000001 9.920000000000016 H94.02116625000001 L77.4 26.541166250000018 Z M34.730669999999996 4.958498750000011 H62.9123325 L77.4 19.446166250000015 L91.8876675 4.958498750000011 H120.06933000000001 Q121.80583125 4.958498750000011 122.922165 3.8421650000000156 Q124.03849875 2.725831250000013 124.03849875 0.9893300000000167 V-84.34932999999998 Q124.03849875 -86.08583124999998 122.922165 -87.20216499999998 Q121.80583125 -88.31849874999997 120.06933000000001 -88.31849874999997 H34.730669999999996 Q32.99416875 -88.31849874999997 31.877835 -87.20216499999998 Q30.761501250000002 -86.08583124999998 30.761501250000002 -84.34932999999998 V0.9893300000000167 Q30.761501250000002 2.725831250000013 31.877835 3.8421650000000156 Q32.99416875 4.958498750000011 34.730669999999996 4.958498750000011 Z M77.54093250000001 -9.603666249999982 Q79.2482475 -9.603666249999982 80.46375 -10.801431249999986 Q81.67941375 -11.999196249999983 81.67941375 -13.751016249999992 Q81.67941375 -15.458331249999986 80.4814875 -16.735914999999984 Q79.28372250000001 -18.013498749999982 77.5319025 -18.013498749999982 Q75.82474875 -18.013498749999982 74.547165 -16.73139999999998 Q73.26958125 -15.449139999999979 73.26958125 -13.741986249999982 Q73.26958125 -12.034832499999986 74.55168 -10.819168749999989 Q75.83377875 -9.603666249999982 77.54093250000001 -9.603666249999982 Z M79.42191375 -30.491668749999988 Q79.54591500000001 -34.49824749999999 81.09633375 -37.208376249999986 Q82.64691375 -39.91866624999999 86.26101 -43.65692499999999 Q90.88291875 -48.27883374999999 92.85516750000001 -51.832622499999985 Q94.82741625 -55.38624999999999 94.82741625 -59.529084999999995 Q94.82741625 -67.08316374999998 89.79722249999999 -71.58574749999998 Q84.76702875000001 -76.08833124999998 77.56366875 -76.08833124999998 Q70.8748575 -76.08833124999998 66.04396875 -72.63387249999998 Q61.21291875 -69.17941374999998 58.84383375 -64.35416874999999 L63.792918750000005 -62.171166249999985 Q65.9264175 -66.06599874999999 69.0224175 -68.46604374999998 Q72.11841749999999 -70.86625 77.36275125 -70.86625 Q83.88724875 -70.86625 86.87037375 -67.41791874999998 Q89.85349875 -63.96974874999998 89.85349875 -59.42991624999999 Q89.85349875 -55.98158499999998 88.07974875000001 -53.308543749999984 Q86.30599875 -50.63566374999998 83.10583125 -47.59658499999999 Q77.63558625 -42.32499999999999 76.04179125 -38.60383374999999 Q74.447835 -34.88266749999998 74.447835 -30.491668749999988 H79.42191375 Z"/></g><g id="Ultralight-L" transform="matrix(1 0 0 1 491.205 1556)"><path d="M77.4 23.787500000000016  61.597500000000004 7.985000000000014 H36.4425 Q32.77003125 7.985000000000014 30.25259625 5.485625000000013 Q27.735 2.9862500000000125 27.735 -0.7224999999999824 V-82.63749999999999 Q27.735 -86.30996875 30.25259625 -88.82756499999999 Q32.77003125 -91.345 36.4425 -91.345 H118.3575 Q122.06625 -91.345 124.565625 -88.82756499999999 Q127.065 -86.30996875 127.065 -82.63749999999999 V-0.7224999999999824 Q127.065 2.9862500000000125 124.565625 5.485625000000013 Q122.06625 7.985000000000014 118.3575 7.985000000000014 H93.2025 L77.4 23.787500000000016 Z M36.4425 4.437500000000014 H63.21 L77.4 18.627500000000015 L91.59 4.437500000000014 H118.3575 Q120.61500000000001 4.437500000000014 122.06625 2.9862500000000125 Q123.5175 1.535000000000018 123.5175 -0.7224999999999824 V-82.63749999999999 Q123.5175 -84.89499999999998 122.06625 -86.34625 Q120.61500000000001 -87.79749999999999 118.3575 -87.79749999999999 H36.4425 Q34.185 -87.79749999999999 32.73375 -86.34625 Q31.282500000000002 -84.89499999999998 31.282500000000002 -82.63749999999999 V-0.7224999999999824 Q31.282500000000002 1.535000000000018 32.73375 2.9862500000000125 Q34.185 4.437500000000014 36.4425 4.437500000000014 Z M77.72701500000001 -10.719999999999985 Q79.17375 -10.719999999999985 80.221875 -11.743614999999984 Q81.27 -12.76722999999999 81.27 -14.272014999999989 Q81.27 -15.718749999999986 80.246385 -16.847499999999982 Q79.22277 -17.976249999999986 77.717985 -17.976249999999986 Q76.27125000000001 -17.976249999999986 75.1425 -16.842984999999985 Q74.01375 -15.70971999999999 74.01375 -14.26298499999998 Q74.01375 -12.816249999999982 75.14701500000001 -11.768124999999984 Q76.28028 -10.719999999999985 77.72701500000001 -10.719999999999985 Z M79.0125 -30.71499999999999 Q79.17375 -34.423749999999984 80.705625 -37.00374999999998 Q82.2375 -39.58374999999998 85.74001125000001 -43.24751124999999 Q90.13875 -47.64624999999998 92.07375 -51.032499999999985 Q94.00875 -54.41874999999999 94.00875 -58.44999999999999 Q94.00875 -65.70624999999998 89.11432875000001 -70.05999999999999 Q84.21974625 -74.41375 77.63816625 -74.41375 Q71.45164875 -74.41375 66.92778 -71.10812499999999 Q62.40375 -67.80249999999998 60.14625 -63.609999999999985 L64.01625 -61.83624999999999 Q66.1125 -65.54499999999999 69.06337500000001 -67.96374999999999 Q72.01425 -70.3825 77.4 -70.3825 Q84.33375000000001 -70.3825 87.316875 -66.67374999999998 Q90.3 -62.96499999999999 90.3 -58.42242624999997 Q90.3 -54.90249999999999 88.52625 -52.32249999999999 Q86.7525 -49.74249999999999 83.85000000000001 -47.001249999999985 Q78.52875 -41.84124999999999 76.91625 -38.21312499999999 Q75.30375000000001 -34.58499999999998 75.30375000000001 -30.71499999999999 H79.0125 Z"/></g><g id="Bold-M" transform="matrix(1 0 0 1 2281.8 1126)"><path d="M60.0 23.64500000000001  43.25 6.89500000000001 H26.5 Q19.875 6.89500000000001 15.3125 2.3325000000000102 Q10.75 -2.2299999999999898 10.75 -8.85499999999999 V-75.85499999999999 Q10.75 -82.47999999999999 15.3125 -87.04249999999999 Q19.875 -91.60499999999999 26.5 -91.60499999999999 H93.5 Q100.125 -91.60499999999999 104.6875 -87.04249999999999 Q109.25 -82.47999999999999 109.25 -75.85499999999999 V-8.85499999999999 Q109.25 -2.2299999999999898 104.6875 2.3325000000000102 Q100.125 6.89500000000001 93.5 6.89500000000001 H76.75 L60.0 23.64500000000001 Z M26.5 -8.85499999999999 H49.75 L60.0 1.3950000000000102 L70.25 -8.85499999999999 H93.5 Q93.5 -8.85499999999999 93.5 -8.85499999999999 Q93.5 -8.85499999999999 93.5 -8.85499999999999 V-75.85499999999999 Q93.5 -75.85499999999999 93.5 -75.85499999999999 Q93.5 -75.85499999999999 93.5 -75.85499999999999 H26.5 Q26.5 -75.85499999999999 26.5 -75.85499999999999 Q26.5 -75.85499999999999 26.5 -75.85499999999999 V-8.85499999999999 Q26.5 -8.85499999999999 26.5 -8.85499999999999 Q26.5 -8.85499999999999 26.5 -8.85499999999999 Z M59.375 -12.35499999999999 Q62.5 -12.35499999999999 64.75 -14.60499999999999 Q67.0 -16.85499999999999 67.0 -19.97999999999999 Q67.0 -23.10499999999999 64.75 -25.35499999999999 Q62.5 -27.60499999999999 59.375 -27.60499999999999 Q56.25 -27.60499999999999 54.0 -25.35499999999999 Q51.75 -23.10499999999999 51.75 -19.97999999999999 Q51.75 -16.85499999999999 54.0 -14.60499999999999 Q56.25 -12.35499999999999 59.375 -12.35499999999999 Z M65.25 -31.60499999999999 Q65.25 -35.35499999999999 66.1875 -37.79249999999999 Q67.125 -40.22999999999999 70.75 -43.60499999999999 Q73.875 -46.72999999999999 75.6875 -49.79249999999999 Q77.5 -52.85499999999999 77.5 -57.22999999999999 Q77.5 -64.60499999999999 72.75 -68.60499999999999 Q68.0 -72.60499999999999 60.875 -72.60499999999999 Q53.375 -72.60499999999999 48.25 -68.29249999999999 Q43.125 -63.97999999999999 41.0 -57.85499999999999 L52.0 -53.72999999999999 Q53.0 -56.35499999999999 54.9375 -58.79249999999999 Q56.875 -61.22999999999999 60.125 -61.22999999999999 Q62.5 -61.22999999999999 63.9375 -59.79249999999999 Q65.375 -58.35499999999999 65.375 -56.35499999999999 Q65.375 -54.60499999999999 64.0625 -52.54249999999999 Q62.75 -50.47999999999999 61.125 -49.10499999999999 Q56.375 -44.72999999999999 54.9375 -41.66749999999999 Q53.5 -38.60499999999999 53.5 -31.60499999999999 H65.25 Z"/></g><g id="Semibold-M" transform="matrix(1 0 0 1 1985.97 1126)"><path d="M60.0 21.96037500000001  44.010875 5.971125000000011 H25.847875 Q20.30975 5.971125000000011 16.45375 2.1151250000000097 Q12.59775 -1.7408749999999884 12.59775 -7.278999999999989 V-75.58324999999999 Q12.59775 -81.12137499999999 16.45375 -84.977375 Q20.30975 -88.83349999999999 25.847875 -88.83349999999999 H94.152125 Q99.69025 -88.83349999999999 103.54625 -84.977375 Q107.40225 -81.12137499999999 107.40225 -75.58324999999999 V-7.278999999999989 Q107.40225 -1.7408749999999884 103.54625 2.1151250000000097 Q99.69025 5.971125000000011 94.152125 5.971125000000011 H75.989125 L60.0 21.96037500000001 Z M25.847875 -7.278999999999989 H49.423875 L60.0 3.2970000000000113 L70.576125 -7.278999999999989 H94.152125 Q94.152125 -7.278999999999989 94.152125 -7.278999999999989 Q94.152125 -7.278999999999989 94.152125 -7.278999999999989 V-75.58324999999999 Q94.152125 -75.58324999999999 94.152125 -75.58324999999999 Q94.152125 -75.58324999999999 94.152125 -75.58324999999999 H25.847875 Q25.847875 -75.58324999999999 25.847875 -75.58324999999999 Q25.847875 -75.58324999999999 25.847875 -75.58324999999999 V-7.278999999999989 Q25.847875 -7.278999999999989 25.847875 -7.278999999999989 Q25.847875 -7.278999999999989 25.847875 -7.278999999999989 Z M59.538 -11.865874999999988 Q62.445625 -11.865874999999988 64.5055 -13.925749999999987 Q66.56525 -15.985499999999988 66.56525 -18.89312499999999 Q66.56525 -21.800749999999987 64.5055 -23.860499999999988 Q62.445625 -25.920374999999993 59.538 -25.920374999999993 Q56.630375 -25.920374999999993 54.570625 -23.860499999999988 Q52.510875 -21.800749999999987 52.510875 -18.89312499999999 Q52.510875 -15.985499999999988 54.570625 -13.925749999999987 Q56.630375 -11.865874999999988 59.538 -11.865874999999988 Z M64.923875 -31.11587499999999 Q64.923875 -35.19199999999999 65.888625 -37.49362499999999 Q66.85325 -39.795249999999996 70.31525 -43.11587499999999 Q73.98375 -46.78437499999998 75.79625 -49.79249999999999 Q77.60875 -52.800625 77.60875 -56.903874999999985 Q77.60875 -63.95287499999999 72.967375 -67.97999999999999 Q68.326125 -72.00724999999998 60.98375 -72.00724999999998 Q53.755375 -72.00724999999998 48.76625 -68.10224999999998 Q43.777125 -64.197375 41.760875 -58.12674999999999 L51.56525 -54.38212499999999 Q52.510875 -57.33324999999999 54.74725 -59.607624999999985 Q56.98375 -61.88212499999999 60.342375 -61.88212499999999 Q63.152125 -61.88212499999999 64.942875 -60.28162499999999 Q66.733625 -58.681124999999994 66.733625 -56.24624999999999 Q66.733625 -54.33324999999999 65.393875 -52.134874999999994 Q64.05425 -49.936499999999995 61.72275 -47.90937499999998 Q57.2445 -43.86049999999999 55.752625 -40.68924999999999 Q54.260875 -37.51812499999999 54.260875 -31.11587499999999 H64.923875 Z"/></g><g id="Medium-M" transform="matrix(1 0 0 1 1689.91 1126)"><path d="M60.0 20.69662500000001  44.5815 5.27812500000001 H25.35875 Q20.635875 5.27812500000001 17.30975 1.9521250000000094 Q13.983625 -1.3739999999999881 13.983625 -6.09687499999999 V-75.3795 Q13.983625 -80.10224999999998 17.30975 -83.42837499999999 Q20.635875 -86.7545 25.35875 -86.7545 H94.64125 Q99.364125 -86.7545 102.69025 -83.42837499999999 Q106.016375 -80.10224999999998 106.016375 -75.3795 V-6.09687499999999 Q106.016375 -1.3739999999999881 102.69025 1.9521250000000094 Q99.364125 5.27812500000001 94.64125 5.27812500000001 H75.4185 L60.0 20.69662500000001 Z M25.35875 -6.09687499999999 H49.179375 L60.0 4.72375000000001 L70.820625 -6.09687499999999 H94.64125 Q94.64125 -6.09687499999999 94.64125 -6.09687499999999 Q94.64125 -6.09687499999999 94.64125 -6.09687499999999 V-75.3795 Q94.64125 -75.3795 94.64125 -75.3795 Q94.64125 -75.3795 94.64125 -75.3795 H25.35875 Q25.35875 -75.3795 25.35875 -75.3795 Q25.35875 -75.3795 25.35875 -75.3795 V-6.09687499999999 Q25.35875 -6.09687499999999 25.35875 -6.09687499999999 Q25.35875 -6.09687499999999 25.35875 -6.09687499999999 Z M59.660375 -11.498999999999988 Q62.404875 -11.498999999999988 64.322 -13.416124999999987 Q66.239125 -15.333249999999992 66.239125 -18.07787499999999 Q66.239125 -20.822374999999987 64.322 -22.739499999999992 Q62.404875 -24.65662499999999 59.660375 -24.65662499999999 Q56.91575 -24.65662499999999 54.998625 -22.739499999999992 Q53.0815 -20.822374999999987 53.0815 -18.07787499999999 Q53.0815 -15.333249999999992 54.998625 -13.416124999999987 Q56.91575 -11.498999999999988 59.660375 -11.498999999999988 Z M64.679375 -30.748999999999988 Q64.679375 -35.06962499999999 65.664375 -37.26937499999999 Q66.6495 -39.46912499999999 69.989125 -42.748999999999995 Q74.06525 -46.825124999999986 75.87775 -49.79249999999999 Q77.69025 -52.759874999999994 77.69025 -56.65937499999998 Q77.69025 -63.46374999999999 73.130375 -67.51124999999999 Q68.570625 -71.55874999999999 61.06525 -71.55874999999999 Q54.04075 -71.55874999999999 49.1535 -67.95962499999999 Q44.26625 -64.36037499999999 42.3315 -58.33049999999999 L51.239125 -54.87124999999999 Q52.144 -58.06699999999999 54.604625 -60.21912499999999 Q57.06525 -62.37124999999999 60.505375 -62.37124999999999 Q63.64125 -62.37124999999999 65.697 -60.648499999999984 Q67.75275 -58.925625 67.75275 -56.164749999999984 Q67.75275 -54.12949999999999 66.392625 -51.82924999999999 Q65.032625 -49.528874999999985 62.17125 -47.012624999999986 Q57.89675 -43.20824999999999 56.364125 -39.95549999999999 Q54.8315 -36.70287499999999 54.8315 -30.748999999999988 H64.679375 Z"/></g><g id="Regular-M" transform="matrix(1 0 0 1 1394.06 1126)"><path d="M60.0 19.77000000000001  45.0 4.77000000000001 H25.0 Q20.875 4.77000000000001 17.9375 1.8325000000000102 Q15.0 -1.1049999999999898 15.0 -5.22999999999999 V-75.22999999999999 Q15.0 -79.35499999999999 17.9375 -82.29249999999999 Q20.875 -85.22999999999999 25.0 -85.22999999999999 H95.0 Q99.125 -85.22999999999999 102.0625 -82.29249999999999 Q105.0 -79.35499999999999 105.0 -75.22999999999999 V-5.22999999999999 Q105.0 -1.1049999999999898 102.0625 1.8325000000000102 Q99.125 4.77000000000001 95.0 4.77000000000001 H75.0 L60.0 19.77000000000001 Z M25.0 -5.22999999999999 H49.0 L60.0 5.77000000000001 L71.0 -5.22999999999999 H95.0 Q95.0 -5.22999999999999 95.0 -5.22999999999999 Q95.0 -5.22999999999999 95.0 -5.22999999999999 V-75.22999999999999 Q95.0 -75.22999999999999 95.0 -75.22999999999999 Q95.0 -75.22999999999999 95.0 -75.22999999999999 H25.0 Q25.0 -75.22999999999999 25.0 -75.22999999999999 Q25.0 -75.22999999999999 25.0 -75.22999999999999 V-5.22999999999999 Q25.0 -5.22999999999999 25.0 -5.22999999999999 Q25.0 -5.22999999999999 25.0 -5.22999999999999 Z M59.75 -11.22999999999999 Q62.375 -11.22999999999999 64.1875 -13.04249999999999 Q66.0 -14.85499999999999 66.0 -17.47999999999999 Q66.0 -20.10499999999999 64.1875 -21.91749999999999 Q62.375 -23.72999999999999 59.75 -23.72999999999999 Q57.125 -23.72999999999999 55.3125 -21.91749999999999 Q53.5 -20.10499999999999 53.5 -17.47999999999999 Q53.5 -14.85499999999999 55.3125 -13.04249999999999 Q57.125 -11.22999999999999 59.75 -11.22999999999999 Z M64.5 -30.47999999999999 Q64.5 -34.97999999999999 65.5 -37.10499999999999 Q66.5 -39.22999999999999 69.75 -42.47999999999999 Q74.125 -46.85499999999999 75.9375 -49.79249999999999 Q77.75 -52.72999999999999 77.75 -56.47999999999999 Q77.75 -63.10499999999999 73.25 -67.16749999999999 Q68.75 -71.22999999999999 61.125 -71.22999999999999 Q54.25 -71.22999999999999 49.4375 -67.85499999999999 Q44.625 -64.47999999999999 42.75 -58.47999999999999 L51.0 -55.22999999999999 Q51.875 -58.60499999999999 54.5 -60.66749999999999 Q57.125 -62.72999999999999 60.625 -62.72999999999999 Q64.0 -62.72999999999999 66.25 -60.91749999999999 Q68.5 -59.10499999999999 68.5 -56.10499999999999 Q68.5 -53.97999999999999 67.125 -51.60499999999999 Q65.75 -49.22999999999999 62.5 -46.35499999999999 Q58.375 -42.72999999999999 56.8125 -39.41749999999999 Q55.25 -36.10499999999999 55.25 -30.47999999999999 H64.5 Z"/></g><g id="Light-M" transform="matrix(1 0 0 1 1098.18 1126)"><path d="M60.0 16.21200000000001  46.05775 2.2698750000000096 H26.538625 Q22.750125 2.2698750000000096 20.125125 -0.35512499999999037 Q17.500125 -2.9801249999999904 17.500125 -6.7686249999999895 V-73.691375 Q17.500125 -77.47987499999999 20.125125 -80.10487499999999 Q22.750125 -82.72987499999999 26.538625 -82.72987499999999 H93.461375 Q97.249875 -82.72987499999999 99.874875 -80.10487499999999 Q102.499875 -77.47987499999999 102.499875 -73.691375 V-6.7686249999999895 Q102.499875 -2.9801249999999904 99.874875 -0.35512499999999037 Q97.249875 2.2698750000000096 93.461375 2.2698750000000096 H73.94225 L60.0 16.21200000000001 Z M26.538625 -5.22999999999999 H49.096125 L60.0 5.6738750000000095 L70.903875 -5.22999999999999 H93.461375 Q94.1345 -5.22999999999999 94.56725 -5.662749999999988 Q95.0 -6.095499999999991 95.0 -6.7686249999999895 V-73.691375 Q95.0 -74.36449999999999 94.56725 -74.79724999999999 Q94.1345 -75.22999999999999 93.461375 -75.22999999999999 H26.538625 Q25.8655 -75.22999999999999 25.43275 -74.79724999999999 Q25.0 -74.36449999999999 25.0 -73.691375 V-6.7686249999999895 Q25.0 -6.095499999999991 25.43275 -5.662749999999988 Q25.8655 -5.22999999999999 26.538625 -5.22999999999999 Z M59.942375 -13.008999999999993 Q62.0865 -13.008999999999993 63.5625 -14.484874999999988 Q65.038375 -15.960874999999987 65.038375 -18.10499999999999 Q65.038375 -20.24924999999999 63.5625 -21.72512499999999 Q62.0865 -23.20112499999999 59.942375 -23.20112499999999 Q57.798125 -23.20112499999999 56.32225 -21.72512499999999 Q54.84625 -20.24924999999999 54.84625 -18.10499999999999 Q54.84625 -15.960874999999987 56.32225 -14.484874999999988 Q57.798125 -13.008999999999993 59.942375 -13.008999999999993 Z M63.44225 -30.91274999999999 Q63.538375 -34.83574999999999 64.562375 -36.88862499999999 Q65.5865 -38.94149999999999 68.69225 -42.04724999999999 Q72.682625 -46.03762499999999 74.398875 -48.83087499999999 Q76.11525 -51.62412499999999 76.11525 -55.18187499999999 Q76.11525 -61.422124999999994 71.855625 -65.24425 Q67.596125 -69.066375 60.884625 -69.066375 Q54.778875 -69.066375 50.44725 -65.95587499999999 Q46.1155 -62.84524999999999 44.288625 -57.85499999999999 L50.7115 -55.27812499999999 Q51.778875 -58.46074999999999 54.259625 -60.47512499999999 Q56.740375 -62.48962499999999 60.48075 -62.48962499999999 Q64.528875 -62.48962499999999 66.802875 -60.29249999999999 Q69.077 -58.09524999999999 69.077 -54.95112499999999 Q69.077 -52.63374999999999 67.702 -50.40299999999999 Q66.327 -48.17224999999999 63.461625 -45.58574999999999 Q59.38475 -41.91262499999999 57.89425 -38.76837499999999 Q56.403875 -35.62424999999999 56.403875 -30.91274999999999 H63.44225 Z"/></g><g id="Thin-M" transform="matrix(1 0 0 1 802.565 1126)"><path d="M60.0 12.65462500000001  47.115375 -0.22999999999998977 H28.076875 Q24.625 -0.22999999999998977 22.3125 -2.5424999999999898 Q20.0 -4.85499999999999 20.0 -8.306874999999991 V-72.15312499999999 Q20.0 -75.60499999999999 22.3125 -77.91749999999999 Q24.625 -80.22999999999999 28.076875 -80.22999999999999 H91.923125 Q95.375 -80.22999999999999 97.6875 -77.91749999999999 Q100.0 -75.60499999999999 100.0 -72.15312499999999 V-8.306874999999991 Q100.0 -4.85499999999999 97.6875 -2.5424999999999898 Q95.375 -0.22999999999998977 91.923125 -0.22999999999998977 H72.884625 L60.0 12.65462500000001 Z M28.076875 -5.22999999999999 H49.19225 L60.0 5.577750000000009 L70.80775 -5.22999999999999 H91.923125 Q93.26925 -5.22999999999999 94.134625 -6.09537499999999 Q95.0 -6.96074999999999 95.0 -8.306874999999991 V-72.15312499999999 Q95.0 -73.49924999999999 94.134625 -74.36462499999999 Q93.26925 -75.22999999999999 91.923125 -75.22999999999999 H28.076875 Q26.73075 -75.22999999999999 25.865375 -74.36462499999999 Q25.0 -73.49924999999999 25.0 -72.15312499999999 V-8.306874999999991 Q25.0 -6.96074999999999 25.865375 -6.09537499999999 Q26.73075 -5.22999999999999 28.076875 -5.22999999999999 Z M60.134625 -14.787624999999991 Q61.798125 -14.787624999999991 62.9375 -15.92712499999999 Q64.076875 -17.06649999999999 64.076875 -18.72999999999999 Q64.076875 -20.39349999999999 62.9375 -21.53287499999999 Q61.798125 -22.672374999999988 60.134625 -22.672374999999988 Q58.471125 -22.672374999999988 57.33175 -21.53287499999999 Q56.19225 -20.39349999999999 56.19225 -18.72999999999999 Q56.19225 -17.06649999999999 57.33175 -15.92712499999999 Q58.471125 -14.787624999999991 60.134625 -14.787624999999991 Z M62.384625 -31.34537499999999 Q62.576875 -34.69149999999999 63.625 -36.67224999999999 Q64.673125 -38.65312499999999 67.634625 -41.61462499999999 Q71.240375 -45.22037499999999 72.860625 -47.86937499999999 Q74.48075 -50.51849999999999 74.48075 -53.88387499999999 Q74.48075 -59.73962499999999 70.4615 -63.32137499999999 Q66.442375 -66.90312499999999 60.64425 -66.90312499999999 Q55.307625 -66.90312499999999 51.45675 -64.05699999999999 Q47.60575 -61.21074999999999 45.826875 -57.22999999999999 L50.423125 -55.32612499999999 Q51.68275 -58.31649999999999 54.01925 -60.28287499999999 Q56.35575 -62.24924999999999 60.3365 -62.24924999999999 Q65.057625 -62.24924999999999 67.35575 -59.66749999999999 Q69.653875 -57.08574999999999 69.653875 -53.79737499999999 Q69.653875 -51.28774999999999 68.278875 -49.20112499999999 Q66.903875 -47.11462499999999 64.423125 -44.81649999999999 Q60.39425 -41.09537499999999 58.976 -38.11937499999999 Q57.557625 -35.14349999999999 57.557625 -31.34537499999999 H62.384625 Z"/></g><g id="Ultralight-M" transform="matrix(1 0 0 1 506.415 1126)"><path d="M60.0 10.52000000000001  47.75 -1.7299999999999898 H29.0 Q25.75 -1.7299999999999898 23.625 -3.8549999999999898 Q21.5 -5.97999999999999 21.5 -9.22999999999999 V-71.22999999999999 Q21.5 -74.47999999999999 23.625 -76.60499999999999 Q25.75 -78.72999999999999 29.0 -78.72999999999999 H91.0 Q94.25 -78.72999999999999 96.375 -76.60499999999999 Q98.5 -74.47999999999999 98.5 -71.22999999999999 V-9.22999999999999 Q98.5 -5.97999999999999 96.375 -3.8549999999999898 Q94.25 -1.7299999999999898 91.0 -1.7299999999999898 H72.25 L60.0 10.52000000000001 Z M29.0 -5.22999999999999 H49.25 L60.0 5.52000000000001 L70.75 -5.22999999999999 H91.0 Q92.75 -5.22999999999999 93.875 -6.35499999999999 Q95.0 -7.47999999999999 95.0 -9.22999999999999 V-71.22999999999999 Q95.0 -72.97999999999999 93.875 -74.10499999999999 Q92.75 -75.22999999999999 91.0 -75.22999999999999 H29.0 Q27.25 -75.22999999999999 26.125 -74.10499999999999 Q25.0 -72.97999999999999 25.0 -71.22999999999999 V-9.22999999999999 Q25.0 -7.47999999999999 26.125 -6.35499999999999 Q27.25 -5.22999999999999 29.0 -5.22999999999999 Z M60.25 -15.85499999999999 Q61.625 -15.85499999999999 62.5625 -16.79249999999999 Q63.5 -17.72999999999999 63.5 -19.10499999999999 Q63.5 -20.47999999999999 62.5625 -21.41749999999999 Q61.625 -22.35499999999999 60.25 -22.35499999999999 Q58.875 -22.35499999999999 57.9375 -21.41749999999999 Q57.0 -20.47999999999999 57.0 -19.10499999999999 Q57.0 -17.72999999999999 57.9375 -16.79249999999999 Q58.875 -15.85499999999999 60.25 -15.85499999999999 Z M61.75 -31.60499999999999 Q62.0 -34.60499999999999 63.0625 -36.54249999999999 Q64.125 -38.47999999999999 67.0 -41.35499999999999 Q70.375 -44.72999999999999 71.9375 -47.29249999999999 Q73.5 -49.85499999999999 73.5 -53.10499999999999 Q73.5 -58.72999999999999 69.625 -62.16749999999999 Q65.75 -65.60499999999999 60.5 -65.60499999999999 Q55.625 -65.60499999999999 52.0625 -62.91749999999999 Q48.5 -60.22999999999999 46.75 -56.85499999999999 L50.25 -55.35499999999999 Q51.625 -58.22999999999999 53.875 -60.16749999999999 Q56.125 -62.10499999999999 60.25 -62.10499999999999 Q65.375 -62.10499999999999 67.6875 -59.29249999999999 Q70.0 -56.47999999999999 70.0 -53.10499999999999 Q70.0 -50.47999999999999 68.625 -48.47999999999999 Q67.25 -46.47999999999999 65.0 -44.35499999999999 Q61.0 -40.60499999999999 59.625 -37.72999999999999 Q58.25 -34.85499999999999 58.25 -31.60499999999999 H61.75 Z"/></g><g id="Bold-S" transform="matrix(1 0 0 1 2294.23 696)"><path d="M47.34 11.222375000000014  34.025625 -2.0919999999999863 H21.303 Q15.91314375 -2.0919999999999863 12.197446875 -5.807696874999987 Q8.48175 -9.523393749999986 8.48175 -14.913249999999987 V-66.88862499999999 Q8.48175 -72.27848124999998 12.197446875 -75.99417812499999 Q15.91314375 -79.709875 21.303 -79.709875 H73.37700000000001 Q78.76685625 -79.709875 82.48255312500001 -75.99417812499999 Q86.19825 -72.27848124999998 86.19825 -66.88862499999999 V-14.913249999999987 Q86.19825 -9.523393749999986 82.48255312500001 -5.807696874999987 Q78.76685625 -2.0919999999999863 73.37700000000001 -2.0919999999999863 H60.55575 L47.34 11.222375000000014 Z M21.303 -14.913249999999987 H39.25275 L47.290687500000004 -6.825999999999986 L55.328625 -14.913249999999987 H73.37700000000001 Q73.37700000000001 -14.913249999999987 73.37700000000001 -14.913249999999987 Q73.37700000000001 -14.913249999999987 73.37700000000001 -14.913249999999987 V-66.88862499999999 Q73.37700000000001 -66.88862499999999 73.37700000000001 -66.88862499999999 Q73.37700000000001 -66.88862499999999 73.37700000000001 -66.88862499999999 H21.303 Q21.303 -66.88862499999999 21.303 -66.88862499999999 Q21.303 -66.88862499999999 21.303 -66.88862499999999 V-14.913249999999987 Q21.303 -14.913249999999987 21.303 -14.913249999999987 Q21.303 -14.913249999999987 21.303 -14.913249999999987 Z M46.858019625000004 -16.491249999999987 Q49.411125000000006 -16.491249999999987 51.235687500000004 -18.32695712499999 Q53.06025 -20.162565624999992 53.06025 -22.715769624999986 Q53.06025 -25.268874999999987 51.224542875 -27.093437499999986 Q49.388934375 -28.917999999999985 46.835730375000004 -28.917999999999985 Q44.282625 -28.917999999999985 42.458062500000004 -27.082292874999986 Q40.633500000000005 -25.246684374999987 40.633500000000005 -22.693480374999986 Q40.633500000000005 -20.140374999999985 42.469207125000004 -18.31581249999999 Q44.304815625 -16.491249999999987 46.858019625000004 -16.491249999999987 Z M51.580875 -31.77812499999999 Q51.580875 -34.83549999999999 52.27125 -36.66006249999999 Q52.961625000000005 -38.48462499999999 55.525875 -40.85162499999999 Q57.9915 -43.21862499999999 59.569500000000005 -45.68424999999999 Q61.1475 -48.14987499999999 61.1475 -51.89762499999999 Q61.1475 -57.815124999999995 57.2518125 -60.92181249999999 Q53.356125000000006 -64.0285 47.83825350000001 -64.0285 Q42.014250000000004 -64.0285 37.92939975 -60.599801875 Q33.844450875 -57.17120237499999 32.15175 -52.292124999999984 L41.22525 -48.84024999999999 Q42.507375 -51.20724999999999 43.9177125 -52.93318749999999 Q45.328050000000005 -54.65912499999999 47.734500000000004 -54.65912499999999 Q49.354810125 -54.65912499999999 50.31985575 -53.72218749999999 Q51.285000000000004 -52.78524999999999 51.285000000000004 -51.305874999999986 Q51.285000000000004 -49.82649999999999 50.1015 -48.248499999999986 Q48.918 -46.67049999999999 47.53725 -45.38837499999999 Q44.085375 -42.13374999999999 43.0498125 -39.61881249999999 Q42.014250000000004 -37.10387499999999 42.014250000000004 -31.77812499999999 H51.580875 Z"/></g><g id="Semibold-S" transform="matrix(1 0 0 1 1998.1 696)"><path d="M47.34 9.893205875000014  34.625955375000004 -2.8209373749999855 H20.788473375 Q16.2561615 -2.8209373749999855 13.097893125 -5.979205749999984 Q9.93962475 -9.13747412499999 9.93962475 -13.669785999999988 V-66.67421424999999 Q9.93962475 -71.20652612499998 13.097893125 -74.36479449999999 Q16.2561615 -77.52316149999999 20.788473375 -77.52316149999999 H73.891526625 Q78.4238385 -77.52316149999999 81.58210687500001 -74.36479449999999 Q84.74037525 -71.20652612499998 84.74037525 -66.67421424999999 V-13.669785999999988 Q84.74037525 -9.13747412499999 81.58210687500001 -5.979205749999984 Q78.4238385 -2.8209373749999855 73.891526625 -2.8209373749999855 H59.955419625000005 L47.34 9.893205875000014 Z M20.788473375 -13.669785999999988 H38.995437375 L47.290687500000004 -5.325321999999986 L55.58593762500001 -13.669785999999988 H73.891526625 Q73.891526625 -13.669785999999988 73.891526625 -13.669785999999988 Q73.891526625 -13.669785999999988 73.891526625 -13.669785999999988 V-66.67421424999999 Q73.891526625 -66.67421424999999 73.891526625 -66.67421424999999 Q73.891526625 -66.67421424999999 73.891526625 -66.67421424999999 H20.788473375 Q20.788473375 -66.67421424999999 20.788473375 -66.67421424999999 Q20.788473375 -66.67421424999999 20.788473375 -66.67421424999999 V-13.669785999999988 Q20.788473375 -13.669785999999988 20.788473375 -13.669785999999988 Q20.788473375 -13.669785999999988 20.788473375 -13.669785999999988 Z M46.986626625 -16.105330374999987 Q49.368223125 -16.105330374999987 51.042777 -17.790930249999988 Q52.71723225000001 -19.47653012499999 52.71723225000001 -21.85822524999999 Q52.71723225000001 -24.239821749999983 51.03163237500001 -25.914276999999984 Q49.3460325 -27.588830874999992 46.964436000000006 -27.588830874999992 Q44.582740875000006 -27.588830874999992 42.908285625000005 -25.90323099999999 Q41.233830375000004 -24.21763112499999 41.233830375000004 -21.83593599999999 Q41.233830375000004 -19.454339499999985 42.919430250000005 -17.779884249999984 Q44.605030125 -16.105330374999987 46.986626625 -16.105330374999987 Z M51.323562375 -31.39220537499999 Q51.323562375 -34.706892999999994 52.03543762500001 -36.424250124999986 Q52.747214250000006 -38.141607249999986 55.182857250000005 -40.465705374999985 Q58.077303750000006 -43.26152687499998 59.65530375 -45.68424999999999 Q61.233303750000005 -48.106973124999996 61.233303750000005 -51.640312374999986 Q61.233303750000005 -57.30059837499999 57.42332137500001 -60.428687499999995 Q53.613437625 -63.55687524999999 47.923958625000004 -63.55687524999999 Q42.314365875 -63.55687524999999 38.336721 -60.44979325 Q34.3589775 -57.342711249999994 32.752080375 -52.50653574999998 L40.88223225 -49.354776624999985 Q42.121455375000004 -51.97908924999999 43.76760525 -53.57632112499998 Q45.41385375 -55.17365162499999 47.906008875 -55.17365162499999 Q49.86933675 -55.17365162499999 51.113096625 -54.10810712499999 Q52.356955125000006 -53.04256262499999 52.356955125000006 -51.22007124999999 Q52.356955125000006 -49.61208924999999 51.151954874999994 -47.926883874999994 Q49.94705325 -46.24167849999999 48.00887475 -44.44502687499998 Q44.7714105 -41.44771449999999 43.692946125000006 -38.846973249999984 Q42.614580375 -36.24633062499999 42.614580375 -31.39220537499999 H51.323562375 Z"/></g><g id="Medium-S" transform="matrix(1 0 0 1 1701.85 696)"><path d="M47.34 8.896107125000013  35.0761785 -3.367714374999988 H20.402553750000003 Q16.513474125000002 -3.367714374999988 13.773277125 -6.107812749999987 Q11.033080125 -8.848009749999989 11.033080125 -12.73708937499999 V-66.51345549999999 Q11.033080125 -70.4024365 13.773277125 -73.14263349999999 Q16.513474125000002 -75.8828305 20.402553750000003 -75.8828305 H74.27744625 Q78.166525875 -75.8828305 80.906722875 -73.14263349999999 Q83.646919875 -70.4024365 83.646919875 -66.51345549999999 V-12.73708937499999 Q83.646919875 -8.848009749999989 80.906722875 -6.107812749999987 Q78.166525875 -3.367714374999988 74.27744625 -3.367714374999988 H59.5051965 L47.34 8.896107125000013 Z M20.402553750000003 -12.73708937499999 H38.802526875000005 L47.290687500000004 -4.199616249999988 L55.77884812500001 -12.73708937499999 H74.27744625 Q74.27744625 -12.73708937499999 74.27744625 -12.73708937499999 Q74.27744625 -12.73708937499999 74.27744625 -12.73708937499999 V-66.51345549999999 Q74.27744625 -66.51345549999999 74.27744625 -66.51345549999999 Q74.27744625 -66.51345549999999 74.27744625 -66.51345549999999 H20.402553750000003 Q20.402553750000003 -66.51345549999999 20.402553750000003 -66.51345549999999 Q20.402553750000003 -66.51345549999999 20.402553750000003 -66.51345549999999 V-12.73708937499999 Q20.402553750000003 -12.73708937499999 20.402553750000003 -12.73708937499999 Q20.402553750000003 -12.73708937499999 20.402553750000003 -12.73708937499999 Z M47.083081875 -15.815865999999986 Q49.336071375 -15.815865999999986 50.89799550000001 -17.388934749999986 Q52.459919625000005 -18.96200349999999 52.459919625000005 -21.214894374999986 Q52.459919625000005 -23.467883874999984 50.886850875 -25.02980799999999 Q49.31388075 -26.591732124999986 47.060891250000005 -26.591732124999986 Q44.807901750000006 -26.591732124999986 43.245977625 -25.018761999999988 Q41.6840535 -23.44569324999999 41.6840535 -21.192703749999993 Q41.6840535 -18.93971424999999 43.25712225 -17.377790124999986 Q44.830092375 -15.815865999999986 47.083081875 -15.815865999999986 Z M51.130651875 -31.102740999999988 Q51.130651875 -34.61033912499999 51.85850437500001 -36.24731687499999 Q52.58645550000001 -37.88429462499999 54.925544625 -40.17624099999999 Q58.14160725000001 -43.293678624999984 59.71960725000001 -45.68424999999999 Q61.297607250000006 -48.07482137499999 61.297607250000006 -51.44740187499998 Q61.297607250000006 -56.91467874999999 57.551928375 -60.058843749999994 Q53.80634812500001 -63.203008749999995 47.988262125 -63.203008749999995 Q42.53952675000001 -63.203008749999995 38.642261250000004 -60.33716349999999 Q34.744897125 -57.471318249999996 33.2023035 -52.66729449999998 L40.624919625000004 -49.74069624999999 Q41.831991 -52.55801799999999 43.655074125 -54.05879462499999 Q45.47815725 -55.55957124999999 48.034615875 -55.55957124999999 Q50.255256375 -55.55957124999999 51.70810125 -54.397571499999984 Q53.16104475000001 -53.235473125 53.16104475000001 -51.15576774999998 Q53.16104475000001 -49.45133049999999 51.939968625 -47.68574574999999 Q50.718991125 -45.920062374999986 48.36274125 -43.737491124999984 Q45.286035749999996 -40.93308924999999 44.175419625 -38.26804449999999 Q43.064803500000004 -35.60309837499999 43.064803500000004 -31.102740999999988 H51.130651875 Z"/></g><g id="Regular-S" transform="matrix(1 0 0 1 1405.73 696)"><path d="M47.34 8.165000000000013  35.406375000000004 -3.7686249999999877 H20.119500000000002 Q16.70214375 -3.7686249999999877 14.268571875000001 -6.202196874999988 Q11.835 -8.635768749999986 11.835 -12.053124999999987 V-66.39549999999998 Q11.835 -69.81285624999998 14.268571875000001 -72.246428125 Q16.70214375 -74.67999999999999 20.119500000000002 -74.67999999999999 H74.5605 Q77.97785625 -74.67999999999999 80.41142812500001 -72.246428125 Q82.845 -69.81285624999998 82.845 -66.39549999999998 V-12.053124999999987 Q82.845 -8.635768749999986 80.41142812500001 -6.202196874999988 Q77.97785625 -3.7686249999999877 74.5605 -3.7686249999999877 H59.175000000000004 L47.34 8.165000000000013 Z M20.119500000000002 -12.053124999999987 H38.661 L47.290687500000004 -3.374124999999987 L55.920375 -12.053124999999987 H74.5605 Q74.5605 -12.053124999999987 74.5605 -12.053124999999987 Q74.5605 -12.053124999999987 74.5605 -12.053124999999987 V-66.39549999999998 Q74.5605 -66.39549999999998 74.5605 -66.39549999999998 Q74.5605 -66.39549999999998 74.5605 -66.39549999999998 H20.119500000000002 Q20.119500000000002 -66.39549999999998 20.119500000000002 -66.39549999999998 Q20.119500000000002 -66.39549999999998 20.119500000000002 -66.39549999999998 V-12.053124999999987 Q20.119500000000002 -12.053124999999987 20.119500000000002 -12.053124999999987 Q20.119500000000002 -12.053124999999987 20.119500000000002 -12.053124999999987 Z M47.153894625 -15.603624999999987 Q49.3125 -15.603624999999987 50.791875000000005 -17.094144624999988 Q52.27125 -18.58456562499999 52.27125 -20.74326962499999 Q52.27125 -22.90187499999999 50.780730375 -24.381249999999987 Q49.290309375 -25.860624999999985 47.131605375 -25.860624999999985 Q44.973 -25.860624999999985 43.493625 -24.370105374999987 Q42.014250000000004 -22.879684374999982 42.014250000000004 -20.72098037499999 Q42.014250000000004 -18.56237499999999 43.504769625 -17.082999999999988 Q44.995190625000006 -15.603624999999987 47.153894625 -15.603624999999987 Z M50.989125 -30.89049999999999 Q50.989125 -34.53962499999999 51.728812500000004 -36.11762499999999 Q52.4685 -37.695624999999986 54.736875000000005 -39.96399999999999 Q58.188750000000006 -43.31724999999999 59.76675 -45.68424999999999 Q61.344750000000005 -48.05124999999999 61.344750000000005 -51.305874999999986 Q61.344750000000005 -56.631624999999985 57.6463125 -59.78762499999999 Q53.947875 -62.94362499999998 48.035503500000004 -62.94362499999998 Q42.704625 -62.94362499999998 38.86633725 -60.25461437499999 Q35.027950875 -57.56570237499999 33.5325 -52.78524999999999 L40.43625 -50.02374999999999 Q41.61975 -52.98249999999999 43.572525000000006 -54.41256249999999 Q45.5253 -55.842624999999984 48.129000000000005 -55.842624999999984 Q50.538310125 -55.842624999999984 52.14441825000001 -54.60981249999999 Q53.750625 -53.376999999999995 53.750625 -51.10862499999999 Q53.750625 -49.33337499999999 52.517812500000005 -47.50881249999999 Q51.285000000000004 -45.68424999999999 48.622125000000004 -43.21862499999999 Q45.663375 -40.55574999999999 44.5291875 -37.84356249999999 Q43.395 -35.13137499999999 43.395 -30.89049999999999 H50.989125 Z"/></g><g id="Light-S" transform="matrix(1 0 0 1 1109.75 696)"><path d="M47.34 5.357738000000014  36.24093975 -5.741223624999989 H21.333475125 Q18.181617375000002 -5.741223624999989 15.994608 -7.9282329999999845 Q13.807598625 -10.115242374999987 13.807598625 -13.267100124999988 V-65.181524875 Q13.807598625 -68.33338262499998 15.994608 -70.52039199999999 Q18.181617375000002 -72.70740137499999 21.333475125 -72.70740137499999 H73.346524875 Q76.498382625 -72.70740137499999 78.685392 -70.52039199999999 Q80.87240137500001 -68.33338262499998 80.87240137500001 -65.181524875 V-13.267100124999988 Q80.87240137500001 -10.115242374999987 78.685392 -7.9282329999999845 Q76.498382625 -5.741223624999989 73.346524875 -5.741223624999989 H58.340435250000006 L47.34 5.357738000000014 Z M21.333475125 -12.053124999999987 H38.736842625 L47.290687500000004 -3.449967624999987 L55.844532375 -12.053124999999987 H73.346524875 Q73.8776205 -12.053124999999987 74.21906025 -12.394564749999986 Q74.5605 -12.73600449999999 74.5605 -13.267100124999988 V-65.181524875 Q74.5605 -65.71262049999999 74.21906025 -66.05406024999999 Q73.8776205 -66.39549999999998 73.346524875 -66.39549999999998 H21.333475125 Q20.8023795 -66.39549999999998 20.46093975 -66.05406024999999 Q20.119500000000002 -65.71262049999999 20.119500000000002 -65.181524875 V-13.267100124999988 Q20.119500000000002 -12.73600449999999 20.46093975 -12.394564749999986 Q20.8023795 -12.053124999999987 21.333475125 -12.053124999999987 Z M47.30557987500001 -17.00725599999999 Q49.0848735 -17.00725599999999 50.298750000000005 -18.232178499999986 Q51.512527875 -19.457100999999987 51.512527875 -21.23639462499999 Q51.512527875 -23.01568824999999 50.287605375000005 -24.229466124999988 Q49.062682875 -25.443342624999985 47.28338925 -25.443342624999985 Q45.504095625 -25.443342624999985 44.29031775 -24.218420124999987 Q43.07644125 -22.993497624999982 43.07644125 -21.214203999999988 Q43.07644125 -19.434910374999987 44.30136375 -18.221033874999986 Q45.526286250000005 -17.00725599999999 47.30557987500001 -17.00725599999999 Z M50.15456025 -31.231939749999988 Q50.230402875 -34.42581174999999 50.989026375 -35.94690512499999 Q51.7477485 -37.467998499999986 53.902310250000006 -39.62256024999999 Q57.050716125 -42.67234112499999 58.552774875000004 -44.92552787499999 Q60.05493225000001 -47.17871462499999 60.05493225000001 -50.28165437499999 Q60.05493225000001 -55.30383662499999 56.546150625 -58.270180749999994 Q53.037467625000005 -61.236524874999986 47.845847625000005 -61.236524874999986 Q43.121907375 -61.236524874999986 39.662931375 -58.756204749999995 Q36.203955375 -56.27588462499999 34.746475125 -52.292124999999984 L40.2086235 -50.061720624999985 Q41.543907375 -52.868686749999995 43.382869125000006 -54.260778624999986 Q45.221830875 -55.652969124999984 48.015186750000005 -55.652969124999984 Q50.9555925 -55.652969124999984 52.580735250000004 -54.11668749999998 Q54.205878 -52.58030724999999 54.205878 -50.19821762499999 Q54.205878 -48.27118374999999 52.973065500000004 -46.56043449999999 Q51.740253 -44.84968524999999 49.380847125 -42.61168674999999 Q46.46006775 -39.91084112499999 45.38268825 -37.33140287499999 Q44.305407375 -34.752063249999985 44.305407375 -31.231939749999988 H50.15456025 Z"/></g><g id="Thin-S" transform="matrix(1 0 0 1 814.015 696)"><path d="M47.34 2.5509691250000124  37.075405875 -7.713624999999986 H22.547154375 Q19.66089375 -7.713624999999986 17.720446875 -9.654071874999989 Q15.780000000000001 -11.594518749999988 15.780000000000001 -14.480779374999987 V-63.967845624999995 Q15.780000000000001 -66.85410624999999 17.720446875 -68.794553125 Q19.66089375 -70.73499999999999 22.547154375 -70.73499999999999 H72.132845625 Q75.01910625000001 -70.73499999999999 76.95955312500001 -68.794553125 Q78.9 -66.85410624999999 78.9 -63.967845624999995 V-14.480779374999987 Q78.9 -11.594518749999988 76.95955312500001 -9.654071874999989 Q75.01910625000001 -7.713624999999986 72.132845625 -7.713624999999986 H57.505969125 L47.34 2.5509691250000124 Z M22.547154375 -12.053124999999987 H38.81268525 L47.290687500000004 -3.5258102499999886 L55.76868975 -12.053124999999987 H72.132845625 Q73.19493825 -12.053124999999987 73.877719125 -12.735905874999986 Q74.5605 -13.418686749999988 74.5605 -14.480779374999987 V-63.967845624999995 Q74.5605 -65.02993824999999 73.877719125 -65.71271912499999 Q73.19493825 -66.39549999999998 72.132845625 -66.39549999999998 H22.547154375 Q21.48506175 -66.39549999999998 20.802280875 -65.71271912499999 Q20.119500000000002 -65.02993824999999 20.119500000000002 -63.967845624999995 V-14.480779374999987 Q20.119500000000002 -13.418686749999988 20.802280875 -12.735905874999986 Q21.48506175 -12.053124999999987 22.547154375 -12.053124999999987 Z M47.45736375 -18.41059112499999 Q48.857345625 -18.41059112499999 49.805625 -19.37001512499999 Q50.753904375000005 -20.329537749999986 50.753904375000005 -21.729519624999988 Q50.753904375000005 -23.12950149999999 49.794480375 -24.077780874999988 Q48.835056375 -25.026158874999986 47.4350745 -25.026158874999986 Q46.035092625000004 -25.026158874999986 45.08681325 -24.066636249999988 Q44.13843525 -23.10721224999999 44.13843525 -21.707230374999988 Q44.13843525 -20.307248499999986 45.097859250000006 -19.358969124999987 Q46.057381875000004 -18.41059112499999 47.45736375 -18.41059112499999 Z M49.320094125000004 -31.573280874999988 Q49.471779375000004 -34.31199849999999 50.2494375 -35.77618524999999 Q51.027095625 -37.240470624999986 53.067844125 -39.281219124999986 Q55.912780875 -42.02753087499999 57.339095625 -44.16690437499999 Q58.76531175 -46.306376499999985 58.76531175 -49.25753237499999 Q58.76531175 -53.97634412499998 55.446186000000004 -56.75303237499999 Q52.127158875 -59.52972062499998 47.656191750000005 -59.52972062499998 Q43.539091125000006 -59.52972062499998 40.459426875000005 -57.257992374999986 Q37.379762625000005 -54.98626412499999 35.960154375 -51.79899999999999 L39.981095625 -50.09959262499999 Q41.46806475 -52.75487349999999 43.19321325 -54.109093374999986 Q44.91836175 -55.463313249999985 47.901373500000005 -55.463313249999985 Q51.37277625 -55.463313249999985 53.016855 -53.62356249999999 Q54.661032375000005 -51.78381174999999 54.661032375000005 -49.287908874999985 Q54.661032375000005 -47.209189749999986 53.428219875 -45.61215512499999 Q52.195407375 -44.01521912499999 50.139470625 -42.00474849999999 Q47.25656325 -39.26603087499999 46.236189 -36.81934187499999 Q45.215716125 -34.372751499999985 45.215716125 -31.573280874999988 H49.320094125000004 Z"/></g><g id="Ultralight-S" transform="matrix(1 0 0 1 517.792 696)"><path d="M47.34 0.8667500000000139  37.576125000000005 -8.897124999999988 H23.2755 Q20.54851875 -8.897124999999988 18.756009375 -10.68963437499999 Q16.9635 -12.482143749999988 16.9635 -15.209124999999986 V-63.23949999999999 Q16.9635 -65.96648124999999 18.756009375 -67.758990625 Q20.54851875 -69.55149999999999 23.2755 -69.55149999999999 H71.4045 Q74.13148125000001 -69.55149999999999 75.923990625 -67.758990625 Q77.7165 -65.96648124999999 77.7165 -63.23949999999999 V-15.209124999999986 Q77.7165 -12.482143749999988 75.923990625 -10.68963437499999 Q74.13148125000001 -8.897124999999988 71.4045 -8.897124999999988 H57.005250000000004 L47.34 0.8667500000000139 Z M23.2755 -12.053124999999987 H38.85825 L47.290687500000004 -3.5713749999999873 L55.723125 -12.053124999999987 H71.4045 Q72.78525 -12.053124999999987 73.672875 -12.940749999999987 Q74.5605 -13.828374999999987 74.5605 -15.209124999999986 V-63.23949999999999 Q74.5605 -64.62024999999998 73.672875 -65.50787499999998 Q72.78525 -66.39549999999998 71.4045 -66.39549999999998 H23.2755 Q21.894750000000002 -66.39549999999998 21.007125000000002 -65.50787499999998 Q20.119500000000002 -64.62024999999998 20.119500000000002 -63.23949999999999 V-15.209124999999986 Q20.119500000000002 -13.828374999999987 21.007125000000002 -12.940749999999987 Q21.894750000000002 -12.053124999999987 23.2755 -12.053124999999987 Z M47.548394625 -19.25274999999999 Q48.72075 -19.25274999999999 49.509750000000004 -20.052894624999986 Q50.298750000000005 -20.852940624999988 50.298750000000005 -22.02539462499999 Q50.298750000000005 -23.197749999999985 49.498605375000004 -23.986749999999986 Q48.698559375 -24.775749999999988 47.526105375 -24.775749999999988 Q46.353750000000005 -24.775749999999988 45.564750000000004 -23.975605374999986 Q44.77575 -23.175559374999985 44.77575 -22.00310537499999 Q44.77575 -20.830749999999988 45.575894625000004 -20.041749999999986 Q46.375940625000005 -19.25274999999999 47.548394625 -19.25274999999999 Z M48.819375 -31.77812499999999 Q49.016625000000005 -34.24374999999999 49.805625 -35.67381249999999 Q50.594625 -37.10387499999999 52.567125000000004 -39.07637499999999 Q55.230000000000004 -41.640624999999986 56.61075 -43.71174999999999 Q57.9915 -45.78287499999999 57.9915 -48.64299999999999 Q57.9915 -53.179749999999984 54.786187500000004 -55.842624999999984 Q51.580875 -58.505499999999984 47.542378500000005 -58.505499999999984 Q43.789500000000004 -58.505499999999984 40.93746225 -56.358926874999995 Q38.085325875 -54.212452374999984 36.688500000000005 -51.50312499999999 L39.844500000000004 -50.12237499999999 Q41.4225 -52.68662499999999 43.0794 -54.018062499999985 Q44.73630000000001 -55.34949999999999 47.833125 -55.34949999999999 Q51.623185125 -55.34949999999999 53.27860575000001 -53.327687499999996 Q54.934125 -51.305874999999986 54.934125 -48.74162499999999 Q54.934125 -46.57187499999999 53.7013125 -45.04318749999999 Q52.4685 -43.51449999999999 50.594625 -41.640624999999986 Q47.734500000000004 -38.87912499999999 46.74825 -36.51212499999999 Q45.762 -34.145124999999986 45.762 -31.77812499999999 H48.819375 Z"/></g></g></svg>