<svg xmlns="http://www.w3.org/2000/svg" version="1.1" width="3300" height="2000"><g id="Notes"><style>
    text {
      font-family: monospace;
      text-anchor: middle;
    }
    text.emphasis {
      font-weight:bold;
    }
    text.lanchor {
      text-anchor: start;
    }
  </style><rect height="2200" id="artboard" fill="white" width="3300" x="0" y="0"/><line id="" style="fill:none;stroke:black;stroke-width:0.5;" x1="263" x2="3036" y1="292" y2="292"/><text class="lanchor emphasis" transform="matrix(1 0 0 1 263 322)">Weight/Scale Variations</text><text transform="matrix(1 0 0 1 559.711 322)">Ultralight</text><text transform="matrix(1 0 0 1 856.422 322)">Thin</text><text transform="matrix(1 0 0 1 1153.13 322)">Light</text><text transform="matrix(1 0 0 1 1449.84 322)">Regular</text><text transform="matrix(1 0 0 1 1746.56 322)">Medium</text><text transform="matrix(1 0 0 1 2043.27 322)">Semibold</text><text transform="matrix(1 0 0 1 2339.98 322)">Bold</text><text transform="matrix(1 0 0 1 2636.69 322)">Heavy</text><text transform="matrix(1 0 0 1 2933.4 322)">Black</text><text id="template-version" style="text-anchor: end;" transform="matrix(1 0 0 1 3036 1933)">Template v.1.0</text><text class="lanchor" transform="matrix(1 0 0 1 263 726)">Small</text><text class="lanchor" transform="matrix(1 0 0 1 263 1156)">Medium</text><text class="lanchor" transform="matrix(1 0 0 1 263 1586)">Large</text></g><g id="Guides"><g id="H-reference" style="fill:#27AAE1;stroke:none;" transform="matrix(1 0 0 1 339 696)"><path d="M 54.9316 0 L 57.666 0 L 30.5664 -70.459 L 28.0762 -70.459 L 0.976562 0 L 3.66211 0 L 12.9395 -24.4629 L 45.7031 -24.4629 Z M 29.1992 -67.0898 L 29.4434 -67.0898 L 44.8242 -26.709 L 13.8184 -26.709 Z"/></g><line id="Baseline-S" style="fill:none;stroke:#27AAE1;opacity:1;stroke-width:0.577;" x1="263" x2="3036" y1="696" y2="696"/><line id="Capline-S" style="fill:none;stroke:#27AAE1;opacity:1;stroke-width:0.577;" x1="263" x2="3036" y1="625.541" y2="625.541"/><g id="H-reference" style="fill:#27AAE1;stroke:none;" transform="matrix(1 0 0 1 339 1126)"><path d="M 54.9316 0 L 57.666 0 L 30.5664 -70.459 L 28.0762 -70.459 L 0.976562 0 L 3.66211 0 L 12.9395 -24.4629 L 45.7031 -24.4629 Z M 29.1992 -67.0898 L 29.4434 -67.0898 L 44.8242 -26.709 L 13.8184 -26.709 Z"/></g><line id="Baseline-M" style="fill:none;stroke:#27AAE1;opacity:1;stroke-width:0.577;" x1="263" x2="3036" y1="1126" y2="1126"/><line id="Capline-M" style="fill:none;stroke:#27AAE1;opacity:1;stroke-width:0.577;" x1="263" x2="3036" y1="1055.54" y2="1055.54"/><g id="H-reference" style="fill:#27AAE1;stroke:none;" transform="matrix(1 0 0 1 339 1556)"><path d="M 54.9316 0 L 57.666 0 L 30.5664 -70.459 L 28.0762 -70.459 L 0.976562 0 L 3.66211 0 L 12.9395 -24.4629 L 45.7031 -24.4629 Z M 29.1992 -67.0898 L 29.4434 -67.0898 L 44.8242 -26.709 L 13.8184 -26.709 Z"/></g><line id="Baseline-L" style="fill:none;stroke:#27AAE1;opacity:1;stroke-width:0.577;" x1="263" x2="3036" y1="1556" y2="1556"/><line id="Capline-L" style="fill:none;stroke:#27AAE1;opacity:1;stroke-width:0.577;" x1="263" x2="3036" y1="1485.54" y2="1485.54"/><rect height="119.336" id="left-margin" style="fill:darkred;stroke:none;opacity:0.4;" width="12.4512" x="1394.06" y="1030.79"/><rect height="119.336" id="right-margin" style="fill:darkgreen;stroke:none;opacity:0.4;" width="12.4512" x="1502.5112" y="1030.79"/><rect x="1406.5112" y="1045" width="96" height="96" fill="none" stroke="blue" stroke-dasharray="5"/><rect x="1394.06" y="1030.79" width="120.9024" height="119.336" fill="none" stroke="blue"/></g><g id="Symbols"><g id="Bold-L" transform="matrix(1 0 0 1 2266 1556)"><path d="M76.59375 32.97875000000002  107.55375000000001 -48.93624999999999 H121.42125 L153.1875 32.97875000000002 H138.3525 L131.41875000000002 11.371250000000014 H98.685 L90.6225 32.97875000000002 H76.59375 Z M102.39375 -0.5612499999999869 H126.58125 L114.64875 -33.61749999999999 H114.32625 L102.39375 -0.5612499999999869 Z M22.736250000000002 12.500000000000014  13.545 3.147500000000015  48.375 -31.68249999999999 Q41.76375 -39.09999999999998 36.765 -46.75937499999999 Q31.76625 -54.41874999999999 28.0575 -62.48124999999999 H42.8925 Q45.63375 -56.83749999999999 49.18125 -51.83874999999999 Q52.72875 -46.83999999999999 57.0825 -41.51874999999998 Q64.8225 -49.58124999999998 69.9825 -58.20812499999998 Q75.1425 -66.835 78.85125000000001 -76.18749999999999 H2.41875 V-89.89374999999998 H50.14875 V-103.43875 H63.855000000000004 V-89.89374999999998 H111.42375 V-76.18749999999999 H92.39625000000001 Q88.52625 -64.41624999999999 82.2375 -53.048124999999985 Q75.94875 -41.67999999999999 66.91875 -31.52124999999998 L83.68875 -14.58999999999999 L78.85125000000001 -0.8837499999999849 L56.92125 -21.684999999999988 L22.736250000000002 12.500000000000014 Z"/></g><g id="Semibold-L" transform="matrix(1 0 0 1 1970.27 1556)"><path d="M76.59375 31.366411250000017  106.7826525 -48.58569249999999 H120.36973875000001 L151.36473 31.366411250000017 H136.8802875 L130.086825 10.319738750000017 H98.12417250000001 L90.27194250000001 31.366411250000017 H76.59375 Z M101.76277875 -1.3323474999999831 H125.38945125000001 L113.737365 -33.61749999999999 H113.41486499999999 L101.76277875 -1.3323474999999831 Z M24.068175 11.378345000000017  15.0172125 2.2361150000000194  49.00597125 -31.75264374999999 Q42.60499125 -39.02985624999998 37.71137625 -46.47896124999998 Q32.81776125 -53.928066249999986 29.179154999999998 -61.85027874999999 H43.6635975 Q46.404847499999995 -56.34681624999999 49.8472125 -51.45320124999999 Q53.2895775 -46.55958624999998 57.573183750000005 -41.37846249999998 Q65.10291375 -49.23069249999999 70.1227875 -57.64729749999999 Q75.1425 -66.06390249999998 78.71096250000001 -75.20597124999999 H4.17137625 V-88.561825 H50.77972125 V-101.82641124999998 H64.13541375 V-88.561825 H110.6526525 V-75.20597124999999 H91.97554875 Q88.24583625 -63.71513499999999 82.13236500000001 -52.62742374999998 Q76.01889375 -41.53971249999998 67.19916375 -31.59139374999998 L83.5484625 -15.080683749999984 L78.71096250000001 -1.6548474999999812 L57.41193375 -21.965413749999982 L24.068175 11.378345000000017 Z"/></g><g id="Medium-L" transform="matrix(1 0 0 1 1674.31 1556)"><path d="M76.59375 30.156875000000014  106.2040875 -48.32285499999999 H119.58090375 L149.9976525 30.156875000000014 H135.7760475 L129.08772 9.530903750000014 H97.70347125 L90.009105 30.156875000000014 H76.59375 Z M101.28951 -1.9109124999999878 H124.49548125000001 L113.05382625000001 -33.61749999999999 H112.73132625000001 L101.28951 -1.9109124999999878 Z M25.06728 10.536942500000013  16.1214525 1.5525762500000155  49.479240000000004 -31.805211249999985 Q43.2359625 -38.977288749999985 38.42136 -46.26869124999999 Q33.60659625 -53.55993249999999 30.020557500000002 -61.37701 H44.2421625 Q46.9834125 -55.97868249999998 50.346765000000005 -51.16391874999999 Q53.71027875 -46.34931624999999 57.941317500000004 -41.27332749999998 Q65.31318375000001 -48.967854999999986 70.2279225 -57.226596249999986 Q75.1425 -65.48533749999999 78.6058275 -74.46986499999998 H5.4860475 V-87.56271999999998 H51.252990000000004 V-100.616875 H64.34568375 V-87.56271999999998 H110.0740875 V-74.46986499999998 H91.66014374999999 Q88.03556625 -63.18929874999998 82.05351375 -52.31201874999998 Q76.07146125000001 -41.434577499999975 67.40943375 -31.64396124999999 L83.4433275 -15.44881749999999 L78.6058275 -2.233412499999986 L57.78006750000001 -22.17568374999999 L25.06728 10.536942500000013 Z"/></g><g id="Regular-L" transform="matrix(1 0 0 1 1378.56 1556)"><path d="M76.59375 29.270000000000017  105.78 -48.12999999999998 H119.0025 L148.995 29.270000000000017 H134.96625 L128.355 8.952500000000015 H97.395 L89.81625 29.270000000000017 H76.59375 Z M100.94250000000001 -2.3349999999999866 H123.84 L112.55250000000001 -33.61749999999999 H112.23 L100.94250000000001 -2.3349999999999866 Z M25.8 9.920000000000016  16.931250000000002 1.0512500000000173  49.82625 -31.843749999999986 Q43.698750000000004 -38.938749999999985 38.941875 -46.11437499999998 Q34.185 -53.28999999999999 30.6375 -61.02999999999999 H44.66625 Q47.4075 -55.70874999999998 50.713125 -50.95187499999999 Q54.018750000000004 -46.19499999999999 58.21125 -41.19624999999999 Q65.4675 -48.77499999999999 70.305 -56.91812499999999 Q75.1425 -65.06124999999999 78.52875 -73.92999999999999 H6.45 V-86.82999999999998 H51.6 V-99.72999999999999 H64.5 V-86.82999999999998 H109.65 V-73.92999999999999 H91.42875000000001 Q87.88125000000001 -62.803749999999994 81.995625 -52.08062499999998 Q76.11 -41.35749999999999 67.56375 -31.68249999999999 L83.36625000000001 -15.718749999999986 L78.52875 -2.6574999999999847 L58.050000000000004 -22.329999999999984 L25.8 9.920000000000016 Z"/></g><g id="Light-L" transform="matrix(1 0 0 1 1082.77 1556)"><path d="M76.7798325 24.308176250000017  103.73325375 -47.13766749999999 H115.96326 L143.53684875 24.308176250000017 H130.74859500000002 L124.57159125000001 5.665257500000017 H95.90650125 L89.07192 24.308176250000017 H76.7798325 Z M99.26791875 -4.75391124999998 H120.42875625 L110.00958750000001 -33.741501249999985 H109.6870875 L99.26791875 -4.75391124999998 Z M29.8934925 6.446675000000013  21.582990000000002 -1.863827499999978  51.9350775 -32.15383374999999 Q46.303743749999995 -38.62866624999998 41.94999375 -45.246043749999984 Q37.59624375 -51.86342124999999 34.35898875 -59.04517374999999 H47.147242500000004 Q49.76433 -54.03416874999999 52.79099250000001 -49.68041874999999 Q55.81749375 -45.32666874999998 59.761829999999996 -40.70008374999999 Q66.4598325 -47.78266749999999 70.89420750000001 -55.243543749999986 Q75.3285825 -62.704419999999985 78.40474875 -70.95284124999999 H12.032152499999999 V-82.86050875 H53.7088275 V-94.76817624999998 H65.616495 V-82.86050875 H107.29317 V-70.95284124999999 H90.31225500000001 Q87.075 -60.69492249999999 81.68554125 -50.778047499999985 Q76.2960825 -40.861333749999986 68.37 -31.99258374999998 L82.87008375 -17.269329999999982 L78.40474875 -5.200412499999985 L59.66266125 -23.322332499999987 L29.8934925 6.446675000000013 Z"/></g><g id="Thin-L" transform="matrix(1 0 0 1 787.282 1556)"><path d="M76.965915 19.346997500000015  101.68683 -46.14533499999999 H112.924665 L138.079665 19.346997500000015 H126.53174625 L120.78866625 2.3784987500000128 H94.41816375 L88.32775125 19.346997500000015 H76.965915 Z M97.59349875 -7.172499999999985 H117.01799625 L107.4669975 -33.86550249999999 H107.1444975 L97.59349875 -7.172499999999985 Z M33.98650125 2.9738337500000185  26.234085 -4.778582499999985  54.0435825 -32.463917499999994 Q48.90825375000001 -38.31858249999999 44.957628750000005 -44.37787374999999 Q41.00700375 -50.43716499999998 38.0798325 -57.06083124999998 H49.62775125 Q52.12099875 -52.35974874999998 54.868376250000004 -48.40912374999999 Q57.615915 -44.45849874999999 61.31224875 -40.20391749999999 Q67.452165 -46.790334999999985 71.483415 -53.56912374999999 Q75.51466500000001 -60.34775124999999 78.2807475 -67.97616624999999 H17.6133375 V-78.89166249999998 H55.8173325 V-89.8069975 H66.7326675 V-78.89166249999998 H104.93650125 V-67.97616624999999 H89.1960825 Q86.26875 -58.58641749999998 81.3754575 -49.47579249999998 Q76.482165 -40.365167499999984 69.17625 -32.302667499999984 L82.3739175 -18.819748749999988 L78.2807475 -7.743002499999989 L61.275 -24.31466499999999 L33.98650125 2.9738337500000185 Z"/></g><g id="Ultralight-L" transform="matrix(1 0 0 1 491.205 1556)"><path d="M77.0775 16.370000000000015  100.45875000000001 -45.54999999999998 H111.10125000000001 L134.805 16.370000000000015 H124.00125 L118.51875 0.4062500000000142 H93.525 L87.88125000000001 16.370000000000015 H77.0775 Z M96.58875 -8.623749999999987 H114.97125 L105.94125 -33.93999999999998 H105.61875 L96.58875 -8.623749999999987 Z M36.4425 0.8900000000000148  29.025000000000002 -6.527499999999982  55.30875 -32.64999999999999 Q50.471250000000005 -38.13249999999999 46.7625 -43.85687499999999 Q43.05375 -49.58124999999998 40.3125 -55.86999999999999 H51.11625 Q53.535000000000004 -51.35499999999999 56.115 -47.64624999999998 Q58.695 -43.937499999999986 62.2425 -39.906249999999986 Q68.0475 -46.19499999999999 71.836875 -52.564374999999984 Q75.62625 -58.93374999999999 78.20625 -66.18999999999998 H20.962500000000002 V-76.50999999999999 H57.0825 V-86.82999999999998 H67.4025 V-76.50999999999999 H103.52250000000001 V-66.18999999999998 H88.52625 Q85.785 -57.32124999999999 81.189375 -48.69437499999998 Q76.59375 -40.06749999999998 69.66 -32.48874999999998 L82.07625 -19.749999999999986 L78.20625 -9.268749999999983 L62.2425 -24.909999999999982 L36.4425 0.8900000000000148 Z"/></g><g id="Bold-M" transform="matrix(1 0 0 1 2281.8 1126)"><path d="M59.5 18.64500000000001  84.0 -45.97999999999999 H95.25 L119.875 18.64500000000001 H108.5 L102.875 2.0200000000000102 H76.875 L70.75 18.64500000000001 H59.5 Z M80.0 -7.35499999999999 H99.375 L89.875 -33.97999999999999 H89.375 L80.0 -7.35499999999999 Z M16.875 2.3950000000000102  9.5 -5.10499999999999  36.75 -32.22999999999999 Q31.5 -37.97999999999999 27.75 -43.97999999999999 Q24.0 -49.97999999999999 21.125 -56.72999999999999 H32.375 Q34.875 -51.97999999999999 37.625 -48.04249999999999 Q40.375 -44.10499999999999 44.125 -39.85499999999999 Q50.125 -46.35499999999999 54.0625 -53.10499999999999 Q58.0 -59.85499999999999 60.75 -67.47999999999999 H0.75 V-78.35499999999999 H38.5 V-89.10499999999999 H49.25 V-78.35499999999999 H86.875 V-67.47999999999999 H71.5 Q68.625 -58.10499999999999 63.6875 -48.97999999999999 Q58.75 -39.85499999999999 51.625 -31.97999999999999 L64.625 -18.85499999999999 L60.75 -7.85499999999999 L43.875 -24.47999999999999 L16.875 2.3950000000000102 Z"/></g><g id="Semibold-M" transform="matrix(1 0 0 1 1985.97 1126)"><path d="M59.5 16.96037500000001  83.239125 -45.653874999999985 H94.163125 L117.973 16.96037500000001 H106.978375 L101.516375 0.9331250000000111 H76.27725 L70.423875 16.96037500000001 H59.5 Z M79.347875 -8.170124999999992 H98.125125 L88.951125 -33.97999999999999 H88.451125 L79.347875 -8.170124999999992 Z M18.233625 1.2537500000000108  11.021625 -6.028874999999989  37.402125 -32.33874999999999 Q32.3695 -37.87124999999999 28.701 -43.70824999999999 Q25.0325 -49.545249999999996 22.26625 -56.07787499999999 H33.190125 Q35.5815 -51.436499999999995 38.25 -47.634874999999994 Q40.9185 -43.83324999999999 44.614125 -39.69199999999999 Q50.39675 -45.97462499999999 54.198375 -52.53437499999998 Q58.0 -59.09412499999999 60.64125 -66.50174999999999 H2.59775 V-76.99637499999999 H39.152125 V-87.42037499999999 H49.576125 V-76.99637499999999 H86.059875 V-66.50174999999999 H71.06525 Q68.298875 -57.34412499999999 63.551625 -48.545249999999996 Q58.804375 -39.74624999999999 51.89675 -32.08874999999999 L64.462 -19.34412499999999 L60.64125 -8.670124999999992 L44.364125 -24.806124999999987 L18.233625 1.2537500000000108 Z"/></g><g id="Medium-M" transform="matrix(1 0 0 1 1689.91 1126)"><path d="M59.5 15.69662500000001  82.6685 -45.40937499999998 H93.347875 L116.54625 15.69662500000001 H105.837 L100.49725 0.11787500000000861 H75.82875 L70.179375 15.69662500000001 H59.5 Z M78.85875 -8.781624999999991 H97.1875 L88.258125 -33.97999999999999 H87.758125 L78.85875 -8.781624999999991 Z M19.25275 0.39775000000000915  12.163 -6.72187499999999  37.89125 -32.42024999999999 Q33.02175 -37.78974999999999 29.414375 -43.50449999999999 Q25.807 -49.21912499999999 23.12225 -55.58874999999999 H33.801625 Q36.111375 -51.028874999999985 38.71875 -47.32924999999999 Q41.326125 -43.62949999999999 44.981 -39.56962499999999 Q50.6005 -45.68924999999999 54.30025 -52.106374999999986 Q58.0 -58.523499999999984 60.55975 -65.76799999999999 H3.983625 V-75.97724999999998 H39.64125 V-86.15662499999999 H49.820625 V-75.97724999999998 H85.448375 V-65.76799999999999 H70.739125 Q68.054375 -56.773499999999984 63.44975 -48.21912499999999 Q58.845125 -39.664749999999984 52.1005 -32.17024999999999 L64.339625 -19.71099999999999 L60.55975 -9.281624999999991 L44.731 -25.05062499999999 L19.25275 0.39775000000000915 Z"/></g><g id="Regular-M" transform="matrix(1 0 0 1 1394.06 1126)"><path d="M59.5 14.77000000000001  82.25 -45.22999999999999 H92.75 L115.5 14.77000000000001 H105.0 L99.75 -0.47999999999998977 H75.5 L70.0 14.77000000000001 H59.5 Z M78.5 -9.22999999999999 H96.5 L87.75 -33.97999999999999 H87.25 L78.5 -9.22999999999999 Z M20.0 -0.22999999999998977  13.0 -7.22999999999999  38.25 -32.47999999999999 Q33.5 -37.72999999999999 29.9375 -43.35499999999999 Q26.375 -48.97999999999999 23.75 -55.22999999999999 H34.25 Q36.5 -50.72999999999999 39.0625 -47.10499999999999 Q41.625 -43.47999999999999 45.25 -39.47999999999999 Q50.75 -45.47999999999999 54.375 -51.79249999999999 Q58.0 -58.10499999999999 60.5 -65.22999999999999 H5.0 V-75.22999999999999 H40.0 V-85.22999999999999 H50.0 V-75.22999999999999 H85.0 V-65.22999999999999 H70.5 Q67.875 -56.35499999999999 63.375 -47.97999999999999 Q58.875 -39.60499999999999 52.25 -32.22999999999999 L64.25 -19.97999999999999 L60.5 -9.72999999999999 L45.0 -25.22999999999999 L20.0 -0.22999999999998977 Z"/></g><g id="Light-M" transform="matrix(1 0 0 1 1098.18 1126)"><path d="M59.596125 10.92362500000001  80.61525 -44.46074999999999 H90.249875 L111.268875 10.92362500000001 H101.634375 L96.769 -3.1724999999999888 H74.346125 L69.326875 10.92362500000001 H59.596125 Z M77.15375 -11.249374999999986 H93.711375 L85.6345 -34.07612499999999 H85.230625 L77.15375 -11.249374999999986 Z M23.17325 -2.9224999999999888  16.654125 -9.441749999999992  39.980875 -32.76849999999999 Q35.6155 -37.58574999999999 32.3415 -42.77799999999999 Q29.0675 -47.97024999999999 26.634875 -53.691374999999994 H36.269375 Q38.375125 -49.52799999999999 40.72125 -46.21549999999999 Q43.067375 -42.90299999999999 46.403875 -39.19149999999999 Q51.51925 -44.75874999999999 54.879875 -50.56649999999999 Q58.240375 -56.37412499999999 60.5 -62.922124999999994 H9.32725 V-72.152875 H41.63475 V-81.383625 H50.8655 V-72.152875 H83.173 V-62.922124999999994 H69.73075 Q67.298 -54.76837499999999 63.158625 -47.04237499999999 Q59.01925 -39.31649999999999 52.923125 -32.51849999999999 L63.9615 -21.230124999999987 L60.5 -11.749374999999986 L46.250125 -25.99924999999999 L23.17325 -2.9224999999999888 Z"/></g><g id="Thin-M" transform="matrix(1 0 0 1 802.565 1126)"><path d="M59.69225 7.077750000000009  78.98075 -43.69149999999999 H87.75 L107.0385 7.077750000000009 H98.26925 L93.7885 -5.8646249999999895 H73.192375 L68.653875 7.077750000000009 H59.69225 Z M75.80775 -13.268374999999992 H90.923125 L83.51925 -34.17224999999999 H83.211625 L75.80775 -13.268374999999992 Z M26.346125 -5.6146249999999895  20.307625 -11.652999999999992  41.7115 -33.05687499999999 Q37.73075 -37.44149999999999 34.745125 -42.20112499999999 Q31.759625 -46.96074999999999 29.51925 -52.15312499999999 H38.288375 Q40.25 -48.32612499999999 42.37975 -45.32612499999999 Q44.509625 -42.32612499999999 47.557625 -38.90312499999999 Q52.2885 -44.03774999999999 55.384625 -49.34062499999999 Q58.48075 -54.64349999999999 60.5 -60.61462499999999 H13.65375 V-69.07624999999999 H43.26925 V-77.53774999999999 H51.73075 V-69.07624999999999 H81.346125 V-60.61462499999999 H68.9615 Q66.721125 -53.18199999999999 62.94225 -46.10499999999999 Q59.1635 -39.02812499999999 53.596125 -32.80687499999999 L63.673125 -22.47999999999999 L60.5 -13.768374999999992 L47.5 -26.76849999999999 L26.346125 -5.6146249999999895 Z"/></g><g id="Ultralight-M" transform="matrix(1 0 0 1 506.415 1126)"><path d="M59.75 4.77000000000001  78.0 -43.22999999999999 H86.25 L104.5 4.77000000000001 H96.25 L92.0 -7.47999999999999 H72.5 L68.25 4.77000000000001 H59.75 Z M75.0 -14.47999999999999 H89.25 L82.25 -34.22999999999999 H82.0 L75.0 -14.47999999999999 Z M28.25 -7.22999999999999  22.5 -12.97999999999999  42.75 -33.22999999999999 Q39.0 -37.35499999999999 36.1875 -41.85499999999999 Q33.375 -46.35499999999999 31.25 -51.22999999999999 H39.5 Q41.375 -47.60499999999999 43.375 -44.79249999999999 Q45.375 -41.97999999999999 48.25 -38.72999999999999 Q52.75 -43.60499999999999 55.6875 -48.60499999999999 Q58.625 -53.60499999999999 60.5 -59.22999999999999 H16.25 V-67.22999999999999 H44.25 V-75.22999999999999 H52.25 V-67.22999999999999 H80.25 V-59.22999999999999 H68.5 Q66.375 -52.22999999999999 62.8125 -45.54249999999999 Q59.25 -38.85499999999999 54.0 -32.97999999999999 L63.5 -23.22999999999999 L60.5 -14.97999999999999 L48.25 -27.22999999999999 L28.25 -7.22999999999999 Z"/></g><g id="Bold-S" transform="matrix(1 0 0 1 2294.23 696)"><path d="M48.129000000000005 5.699375000000013  66.37462500000001 -42.922749999999986 H75.053625 L93.397875 5.699375000000013 H84.91612500000001 L80.576625 -6.924624999999988 H61.048875 L56.512125000000005 5.699375000000013 H48.129000000000005 Z M63.514500000000005 -13.926999999999989 H78.012375 L70.911375 -34.04649999999999 H70.516875 L63.514500000000005 -13.926999999999989 Z M14.202 -7.121874999999989  8.974875 -12.546249999999986  29.488875 -32.76437499999999 Q25.543875 -36.90662499999999 22.338562500000002 -41.24612499999999 Q19.13325 -45.585624999999986 16.667625 -50.71412499999999 H25.346625 Q27.319125 -47.360874999999986 29.7354375 -44.35281249999999 Q32.15175 -41.34474999999999 34.617375 -38.48462499999999 Q38.759625 -43.02137499999999 42.1621875 -47.85399999999999 Q45.564750000000004 -52.68662499999999 47.734500000000004 -58.30824999999999 H1.3807500000000001 V-66.09962499999999 H30.771 V-76.159375 H38.463750000000005 V-66.09962499999999 H67.755375 V-58.30824999999999 H55.82175 Q53.553375 -51.10862499999999 49.2631875 -44.747312499999985 Q44.973 -38.38599999999999 39.844500000000004 -32.76437499999999 L49.608375 -23.197749999999985 L46.74825 -15.307749999999988 L34.617375 -27.24137499999999 L14.202 -7.121874999999989 Z"/></g><g id="Semibold-S" transform="matrix(1 0 0 1 1998.1 696)"><path d="M48.129000000000005 4.370205875000013  65.77429462500001 -42.66543737499998 H74.196080625 L91.897197 4.370205875000013 H83.715562875 L79.504669875 -7.782169374999988 H60.57725025 L56.254812375 4.370205875000013 H48.129000000000005 Z M62.999973375 -14.57013362499999 H77.026223625 L70.182437625 -34.04649999999999 H69.78793762500001 L62.999973375 -14.57013362499999 Z M15.273955125 -8.022321249999987  10.175437125 -13.275187374999991  30.003401625 -32.85017874999999 Q26.229910500000003 -36.82082124999999 23.088901500000002 -41.03171424999999 Q19.9478925 -45.24260724999999 17.56807125 -50.199598374999994 H25.989758625000004 Q27.8765535 -46.932053499999995 30.228562500000002 -44.03119637499999 Q32.580571500000005 -41.13033924999999 35.003294625 -38.35601799999999 Q38.97403575 -42.72125912499999 42.269392875 -47.403776874999984 Q45.564750000000004 -52.086294624999994 47.64869625 -57.53641074999999 H2.83862475 V-65.02766987499999 H31.285526625 V-74.83020587499999 H38.721062625 V-65.02766987499999 H67.11224137500001 V-57.53641074999999 H55.47873225000001 Q53.296062375 -50.50829462499999 49.155982125 -44.40429474999999 Q45.015901875000004 -38.300196249999985 40.05891075 -32.85017874999999 L49.47976800000001 -23.58366962499999 L46.66244625 -15.950883624999989 L35.003294625 -27.498687624999988 L15.273955125 -8.022321249999987 Z"/></g><g id="Medium-S" transform="matrix(1 0 0 1 1701.85 696)"><path d="M48.129000000000005 3.373107125000013  65.3240715 -42.472526874999986 H73.55284837500001 L90.77149125000001 3.373107125000013 H82.81501800000001 L78.70058025 -8.425401624999989 H60.22338375 L56.061901875 3.373107125000013 H48.129000000000005 Z M62.614053750000004 -15.052607124999987 H76.2864375 L69.63566062500001 -34.04649999999999 H69.241160625 L62.614053750000004 -15.052607124999987 Z M16.07804475 -8.697705249999988  11.075982000000002 -13.821964374999986  30.389321250000002 -32.914482249999985 Q26.74453575 -36.756517749999986 23.651754375 -40.870955499999994 Q20.558972999999998 -44.98529462499999 18.24345525 -49.81367874999999 H26.472232125 Q28.294624875000004 -46.61043737499998 30.59840625 -43.79005824999999 Q32.902187624999996 -40.96958049999999 35.292759000000004 -38.25946412499999 Q39.1347945 -42.49609824999999 42.34977225 -47.06608487499999 Q45.564750000000004 -51.636071499999986 47.584392750000006 -56.957481999999985 H3.932080125 V-64.22358024999998 H31.671446250000002 V-73.833107125 H38.913973125 V-64.22358024999998 H66.629767875 V-56.957481999999985 H55.221419625 Q53.103151874999995 -50.05807149999998 49.07560275 -44.14698212499999 Q45.048053625 -38.23589274999999 40.2196695 -32.914482249999985 L49.383214125 -23.873133999999986 L46.59814275 -16.43335712499999 L35.292759000000004 -27.691598124999985 L16.07804475 -8.697705249999988 Z"/></g><g id="Regular-S" transform="matrix(1 0 0 1 1405.73 696)"><path d="M48.129000000000005 2.6420000000000137  64.993875 -42.33099999999999 H73.081125 L89.946 2.6420000000000137 H82.15462500000001 L78.111 -8.897124999999988 H59.964000000000006 L55.920375 2.6420000000000137 H48.129000000000005 Z M62.331 -15.406374999999986 H75.744 L69.23475 -34.04649999999999 H68.84025 L62.331 -15.406374999999986 Z M16.667625 -9.192999999999987  11.736375 -14.222874999999988  30.672375000000002 -32.96162499999999 Q27.121875000000003 -36.70937499999999 24.064500000000002 -40.752999999999986 Q21.007125000000002 -44.79662499999999 18.73875 -49.530624999999986 H26.826 Q28.60125 -46.37462499999999 30.869625000000003 -43.61312499999999 Q33.138 -40.85162499999999 35.505 -38.18874999999999 Q39.25275 -42.33099999999999 42.408750000000005 -46.81843749999999 Q45.564750000000004 -51.305874999999986 47.53725 -56.53299999999999 H4.734 V-63.633999999999986 H31.954500000000003 V-73.10199999999999 H39.0555 V-63.633999999999986 H66.276 V-56.53299999999999 H55.03275 Q52.961625000000005 -49.72787499999999 49.016625000000005 -43.95831249999999 Q45.071625000000004 -38.18874999999999 40.337625 -32.96162499999999 L49.3125 -24.085374999999985 L46.551 -16.78712499999999 L35.505 -27.83312499999999 L16.667625 -9.192999999999987 Z"/></g><g id="Light-S" transform="matrix(1 0 0 1 1109.75 696)"><path d="M48.204842625000005 -0.39278987499998763  63.704057250000005 -41.72406174999999 H71.10852637500001 L86.607642375 -0.39278987499998763 H79.49914687500001 L75.75899100000001 -11.021507499999988 H59.053592625 L55.389279375 -0.39278987499998763 H48.204842625000005 Z M61.268808750000005 -16.999661874999983 H73.54377487500001 L67.56562050000001 -34.12234262499999 H67.24696312500001 L61.268808750000005 -16.999661874999983 Z M19.17131925 -11.317382499999987  14.619479625 -15.967945749999988  32.038035375 -33.18925149999999 Q28.7910045 -36.59556174999999 25.961256000000002 -40.29774699999999 Q23.1315075 -43.99993224999999 21.014916375000002 -48.31664987499999 H28.419286874999997 Q30.080723624999997 -45.42624699999999 32.17837875 -42.91130949999999 Q34.276033875 -40.39637199999999 36.415407375 -37.96112349999999 Q39.859688250000005 -41.76193374999999 42.807096375 -45.85112349999999 Q45.754405875 -49.94021462499999 47.53725 -54.712086625 H8.14820025 V-61.206148375 H33.24431775 V-70.06721012499999 H39.7383795 V-61.206148375 H64.834497 V-54.712086625 H54.42581175 Q52.506372000000006 -48.47602787499999 48.845905125 -43.21852637499999 Q45.185438250000004 -37.96112349999999 40.868720625 -33.18925149999999 L49.0848735 -25.071723624999983 L46.551 -18.380411874999986 L36.491348625 -28.440063249999987 L19.17131925 -11.317382499999987 Z"/></g><g id="Thin-S" transform="matrix(1 0 0 1 814.015 696)"><path d="M48.280685250000005 -3.4271852499999884  62.41443675 -41.11712349999999 H69.136125 L83.26987650000001 -3.4271852499999884 H76.84406325 L73.4073765 -13.145594124999988 H58.143283875 L54.858282375 -3.4271852499999884 H48.280685250000005 Z M60.20681475 -18.592652874999988 H71.343845625 L65.89668825 -34.19818524999999 H65.653972125 L60.20681475 -18.592652874999988 Z M21.674717625000003 -13.441469124999987  17.502091125000003 -17.71262199999999  33.403498500000005 -33.41677937499999 Q30.45993675 -36.48174849999999 27.857716125000003 -39.84259262499999 Q25.255594125000002 -43.20343674999999 23.290688250000002 -47.10297062499999 H30.012277875000002 Q31.560000000000002 -44.47796762499999 33.48693525 -42.20959262499999 Q35.413969125 -39.941217624999986 37.325716125 -37.733595624999985 Q40.466626500000004 -41.19306474999999 43.205344125 -44.88390812499999 Q45.94406175 -48.57475149999999 47.53725 -52.891469124999986 H11.56180875 V-58.778691249999994 H34.53393825 V-67.03281474999999 H40.42106175 V-58.778691249999994 H63.393092625 V-52.891469124999986 H53.8188735 Q52.051217625 -47.22437799999999 48.675185250000006 -42.47893749999999 Q45.299251500000004 -37.733595624999985 41.399717625 -33.41677937499999 L48.857345625 -26.05787499999999 L46.551 -19.97340287499999 L37.4775 -29.047001499999986 L21.674717625000003 -13.441469124999987 Z"/></g><g id="Ultralight-S" transform="matrix(1 0 0 1 517.792 696)"><path d="M48.32625 -5.247999999999987  61.640625 -40.752999999999986 H67.952625 L81.26700000000001 -5.247999999999987 H75.25087500000001 L71.99625 -14.420124999999988 H57.597 L54.539625 -5.247999999999987 H48.32625 Z M59.569500000000005 -19.548624999999987 H70.02375 L64.89525 -34.24374999999999 H64.69800000000001 L59.569500000000005 -19.548624999999987 Z M23.176875000000003 -14.715999999999987  19.231875000000002 -18.75962499999999  34.222875 -33.55337499999999 Q31.461375 -36.41349999999999 28.99575 -39.56949999999999 Q26.530125 -42.72549999999999 24.65625 -46.37462499999999 H30.96825 Q32.447625 -43.90899999999999 34.2721875 -41.78856249999999 Q36.09675 -39.66812499999999 37.872 -37.59699999999999 Q40.83075 -40.85162499999999 43.4443125 -44.303499999999985 Q46.057875 -47.75537499999999 47.53725 -51.79899999999999 H13.61025 V-57.32199999999999 H35.30775 V-65.21199999999999 H40.83075 V-57.32199999999999 H62.52825 V-51.79899999999999 H53.454750000000004 Q51.778125 -46.473249999999986 48.572812500000005 -42.03512499999999 Q45.3675 -37.59699999999999 41.718375 -33.55337499999999 L48.72075 -26.649624999999986 L46.551 -20.929374999999986 L38.069250000000004 -29.41112499999999 L23.176875000000003 -14.715999999999987 Z"/></g></g></svg>