<svg width="42" height="42" viewBox="0 0 42 42" fill="none" xmlns="http://www.w3.org/2000/svg">
<circle cx="21" cy="21" r="21" fill="#E1F1FA"/>
<path d="M32.1271 28.6218L20.2545 16.7501C19.7009 16.1965 19.4176 15.4273 19.4763 14.6481C19.5906 13.1722 19.0837 11.6576 17.9567 10.5276C16.933 9.50587 15.5953 9 14.2565 9C13.7526 9 13.2478 9.07156 12.7608 9.21467L15.9113 12.3652C16.2532 13.9445 13.9643 16.2592 12.3662 15.9103L9.21666 12.7598C9.07255 13.2488 9 13.7536 9 14.2595C9 15.5982 9.50687 16.934 10.5286 17.9577C11.6566 19.0867 13.1722 19.5936 14.6491 19.4783C15.4273 19.4186 16.1965 19.7029 16.7491 20.2565L28.6218 32.1271C29.0869 32.5922 29.718 32.8526 30.3739 32.8526C31.7335 32.8526 32.8526 31.7514 32.8526 30.3739C32.8526 29.7399 32.6101 29.1058 32.1271 28.6218ZM30.368 31.3618C29.8184 31.3618 29.3741 30.9166 29.3741 30.368C29.3741 29.8194 29.8184 29.3741 30.368 29.3741C30.9176 29.3741 31.3618 29.8194 31.3618 30.368C31.3618 30.9166 30.9176 31.3618 30.368 31.3618ZM22.4817 16.1667L27.776 10.8814C28.3564 10.301 29.1157 10.0098 29.876 10.0098C30.6353 10.0098 31.3956 10.3 31.976 10.8814C32.5614 11.4648 32.8526 12.23 32.8526 12.9933C32.8526 13.7526 32.5634 14.5119 31.985 15.0904L26.6917 20.3757L25.6591 19.3431L30.695 14.3152C30.8629 14.1482 30.8609 13.8769 30.694 13.7099C30.526 13.5419 30.2557 13.5409 30.0877 13.7089L25.0508 18.7358L24.1663 17.8513L29.2022 12.8234C29.3701 12.6554 29.3692 12.3851 29.2022 12.2161C29.0342 12.0492 28.7619 12.0472 28.5949 12.2161L23.5591 17.2431L22.4817 16.1667ZM18.9734 25.2904L13.7785 30.4435C13.5529 30.6711 13.3581 30.9285 13.208 31.2128L12.9089 31.7892L10.8217 32.8526L9.99386 32.0238L11.0126 29.8909L11.589 29.5908C11.8732 29.4417 12.1466 29.2638 12.3742 29.0362L17.5691 23.883L18.9734 25.2904Z" fill="#05699B"/>
</svg>
